<svg xmlns="http://www.w3.org/2000/svg" width="196.98mm" height="126.09mm" viewBox="0 0 196.98 126.09">
<path d="M 101.596,40.947 L 101.472,40.844 L 101.359,40.730 L 101.255,40.606 L 101.162,40.472 L 101.079,40.327 L 100.997,40.213 L 100.914,40.130 L 100.831,40.079 L 100.748,40.058 L 100.660,40.074 L 100.567,40.125 L 100.469,40.213 L 100.366,40.337 L 100.283,40.482 L 100.221,40.647 L 100.180,40.834 L 100.159,41.040 L 100.107,41.227 L 100.024,41.392 L 99.911,41.537 L 99.766,41.661 L 99.606,41.759 L 99.430,41.832 L 99.238,41.878 L 99.032,41.899 L 98.861,41.904 L 98.727,41.894 L 98.628,41.868 L 98.566,41.826 L 98.494,41.744 L 98.411,41.620 L 98.318,41.454 L 98.215,41.247 L 98.085,41.087 L 97.930,40.973 L 97.749,40.906 L 97.542,40.885 L 97.356,40.891 L 97.191,40.922 L 97.046,40.978 L 96.922,41.061 L 96.829,41.170 L 96.767,41.304 L 96.736,41.464 L 96.736,41.651 L 96.746,41.821 L 96.767,41.976 L 96.798,42.116 L 96.839,42.240 L 96.901,42.369 L 96.984,42.504 L 97.087,42.643 L 97.212,42.788 L 97.356,42.933 L 97.522,43.078 L 97.708,43.223 L 97.915,43.367 L 98.220,43.471 L 98.623,43.533 L 99.125,43.554 L 99.725,43.533 L 100.200,43.491 L 100.552,43.429 L 100.779,43.347 L 100.883,43.243 L 100.966,43.135 L 101.028,43.021 L 101.069,42.902 L 101.090,42.778 L 101.147,42.623 L 101.240,42.437 L 101.369,42.219 L 101.534,41.971 L 101.658,41.754 L 101.741,41.568 L 101.783,41.413 L 101.783,41.289 L 101.752,41.170 L 101.689,41.056 Z" fill="#000000" fill-rule="evenodd" stroke="none"/>
<path d="M 115.165,29.344 L 114.875,29.282 L 114.477,29.235 L 113.970,29.204 L 113.355,29.189 L 112.631,29.189 L 112.036,29.199 L 111.571,29.220 L 111.235,29.251 L 111.028,29.292 L 110.821,29.365 L 110.614,29.468 L 110.408,29.603 L 110.201,29.768 L 109.968,29.908 L 109.709,30.021 L 109.425,30.109 L 109.115,30.171 L 108.805,30.275 L 108.494,30.420 L 108.184,30.606 L 107.874,30.833 L 107.553,31.081 L 107.222,31.350 L 106.881,31.640 L 106.529,31.950 L 106.245,32.224 L 106.028,32.462 L 105.878,32.664 L 105.795,32.829 L 105.692,33.000 L 105.568,33.176 L 105.423,33.357 L 105.257,33.543 L 105.113,33.760 L 104.988,34.008 L 104.885,34.287 L 104.802,34.598 L 104.720,34.851 L 104.637,35.047 L 104.554,35.187 L 104.471,35.270 L 104.389,35.373 L 104.306,35.497 L 104.223,35.642 L 104.140,35.808 L 104.073,36.185 L 104.022,36.775 L 103.985,37.576 L 103.965,38.589 L 103.954,39.375 L 103.954,39.934 L 103.965,40.265 L 103.985,40.368 L 104.053,40.498 L 104.166,40.653 L 104.327,40.834 L 104.533,41.040 L 104.694,41.211 L 104.807,41.346 L 104.875,41.444 L 104.895,41.506 L 105.025,41.656 L 105.263,41.894 L 105.609,42.219 L 106.064,42.633 L 106.545,43.011 L 107.052,43.352 L 107.584,43.657 L 108.143,43.926 L 108.867,44.127 L 109.756,44.262 L 110.811,44.329 L 112.031,44.329 L 112.977,44.319 L 113.650,44.298 L 114.048,44.267 L 114.172,44.226 L 114.306,44.153 L 114.451,44.050 L 114.606,43.915 L 114.772,43.750 L 114.968,43.605 L 115.196,43.481 L 115.454,43.378 L 115.744,43.295 L 115.992,43.197 L 116.199,43.083 L 116.364,42.954 L 116.488,42.809 L 116.607,42.690 L 116.721,42.597 L 116.830,42.530 L 116.933,42.488 L 117.021,42.437 L 117.093,42.375 L 117.150,42.302 L 117.192,42.219 L 117.280,42.100 L 117.414,41.945 L 117.595,41.754 L 117.823,41.527 L 118.014,41.294 L 118.169,41.056 L 118.288,40.813 L 118.371,40.565 L 118.464,40.342 L 118.567,40.146 L 118.681,39.975 L 118.805,39.830 L 118.924,39.546 L 119.038,39.122 L 119.146,38.558 L 119.250,37.855 L 119.307,37.116 L 119.317,36.340 L 119.281,35.528 L 119.198,34.680 L 119.089,33.993 L 118.955,33.465 L 118.795,33.098 L 118.609,32.891 L 118.453,32.695 L 118.329,32.509 L 118.236,32.333 L 118.174,32.167 L 118.076,31.971 L 117.941,31.743 L 117.771,31.485 L 117.564,31.195 L 117.305,30.895 L 116.995,30.585 L 116.633,30.264 L 116.220,29.933 L 115.837,29.670 L 115.485,29.473 Z" fill="#000000" fill-rule="evenodd" stroke="none"/>
<path d="M 87.625,29.292 L 87.397,29.251 L 87.025,29.225 L 86.508,29.215 L 85.846,29.220 L 85.039,29.241 L 84.362,29.292 L 83.814,29.375 L 83.395,29.489 L 83.105,29.634 L 82.821,29.758 L 82.542,29.861 L 82.268,29.944 L 81.999,30.006 L 81.740,30.099 L 81.492,30.223 L 81.254,30.378 L 81.027,30.564 L 80.799,30.730 L 80.572,30.875 L 80.344,30.999 L 80.117,31.102 L 79.920,31.211 L 79.755,31.324 L 79.620,31.443 L 79.517,31.567 L 79.398,31.686 L 79.263,31.800 L 79.113,31.909 L 78.948,32.012 L 78.798,32.152 L 78.664,32.328 L 78.545,32.540 L 78.441,32.788 L 78.333,33.005 L 78.219,33.191 L 78.100,33.346 L 77.976,33.470 L 77.867,33.615 L 77.774,33.781 L 77.697,33.967 L 77.635,34.174 L 77.547,34.380 L 77.433,34.587 L 77.293,34.794 L 77.128,35.001 L 76.993,35.208 L 76.890,35.415 L 76.818,35.621 L 76.776,35.828 L 76.740,36.128 L 76.709,36.521 L 76.683,37.007 L 76.662,37.586 L 76.662,38.186 L 76.683,38.807 L 76.725,39.448 L 76.787,40.110 L 76.973,40.735 L 77.283,41.325 L 77.717,41.878 L 78.276,42.395 L 78.757,42.804 L 79.160,43.104 L 79.486,43.295 L 79.734,43.378 L 79.967,43.476 L 80.184,43.590 L 80.386,43.719 L 80.572,43.864 L 80.758,43.988 L 80.944,44.091 L 81.130,44.174 L 81.316,44.236 L 81.745,44.283 L 82.418,44.314 L 83.333,44.329 L 84.491,44.329 L 85.505,44.257 L 86.373,44.112 L 87.097,43.895 L 87.676,43.605 L 88.137,43.357 L 88.478,43.150 L 88.700,42.985 L 88.804,42.861 L 88.907,42.757 L 89.011,42.674 L 89.114,42.612 L 89.217,42.571 L 89.383,42.442 L 89.610,42.225 L 89.900,41.920 L 90.252,41.527 L 90.531,41.180 L 90.738,40.880 L 90.872,40.627 L 90.934,40.420 L 91.032,40.187 L 91.167,39.929 L 91.337,39.644 L 91.544,39.334 L 91.699,38.791 L 91.803,38.016 L 91.854,37.007 L 91.854,35.766 L 91.818,34.789 L 91.746,34.075 L 91.637,33.625 L 91.493,33.439 L 91.363,33.238 L 91.249,33.020 L 91.151,32.788 L 91.069,32.540 L 90.888,32.224 L 90.608,31.842 L 90.231,31.392 L 89.755,30.875 L 89.331,30.440 L 88.959,30.089 L 88.638,29.820 L 88.369,29.634 L 88.111,29.484 L 87.863,29.370 Z" fill="#000000" fill-rule="evenodd" stroke="none"/>
<path d="M 80.685,30.182 L 80.520,30.347 L 80.360,30.487 L 80.205,30.600 L 80.055,30.688 L 79.910,30.750 L 79.718,30.875 L 79.481,31.061 L 79.196,31.309 L 78.865,31.619 L 78.596,31.893 L 78.390,32.131 L 78.245,32.333 L 78.162,32.498 L 78.064,32.653 L 77.950,32.798 L 77.821,32.933 L 77.676,33.057 L 77.562,33.191 L 77.479,33.336 L 77.428,33.491 L 77.407,33.656 L 77.345,33.843 L 77.242,34.049 L 77.097,34.277 L 76.911,34.525 L 76.750,34.872 L 76.616,35.316 L 76.507,35.859 L 76.425,36.500 L 76.363,37.069 L 76.321,37.566 L 76.301,37.990 L 76.301,38.341 L 76.316,38.745 L 76.347,39.200 L 76.394,39.706 L 76.456,40.265 L 76.523,40.730 L 76.595,41.103 L 76.673,41.382 L 76.756,41.568 L 76.823,41.759 L 76.874,41.956 L 76.911,42.157 L 76.931,42.364 L 76.973,42.540 L 77.035,42.685 L 77.118,42.799 L 77.221,42.881 L 77.355,43.021 L 77.521,43.217 L 77.717,43.471 L 77.945,43.781 L 78.203,44.081 L 78.493,44.371 L 78.814,44.650 L 79.165,44.919 L 79.481,45.177 L 79.760,45.425 L 80.003,45.663 L 80.210,45.891 L 80.422,46.077 L 80.639,46.222 L 80.861,46.325 L 81.089,46.387 L 81.311,46.475 L 81.528,46.589 L 81.740,46.728 L 81.947,46.894 L 82.154,47.039 L 82.361,47.163 L 82.568,47.266 L 82.774,47.349 L 83.126,47.421 L 83.622,47.483 L 84.264,47.535 L 85.050,47.576 L 85.686,47.592 L 86.172,47.582 L 86.508,47.545 L 86.694,47.483 L 86.942,47.421 L 87.252,47.359 L 87.625,47.297 L 88.059,47.235 L 88.442,47.152 L 88.773,47.049 L 89.052,46.925 L 89.279,46.780 L 89.522,46.661 L 89.781,46.568 L 90.055,46.501 L 90.345,46.460 L 90.686,46.310 L 91.079,46.051 L 91.524,45.684 L 92.020,45.208 L 92.434,44.784 L 92.765,44.412 L 93.013,44.091 L 93.178,43.822 L 93.328,43.595 L 93.463,43.409 L 93.582,43.264 L 93.685,43.161 L 93.768,43.062 L 93.830,42.969 L 93.871,42.881 L 93.892,42.799 L 93.964,42.649 L 94.088,42.431 L 94.264,42.147 L 94.492,41.795 L 94.657,41.413 L 94.761,40.999 L 94.802,40.554 L 94.781,40.079 L 94.776,39.670 L 94.786,39.329 L 94.812,39.055 L 94.854,38.848 L 94.885,38.579 L 94.905,38.248 L 94.916,37.855 L 94.916,37.400 L 94.895,36.935 L 94.854,36.459 L 94.792,35.973 L 94.709,35.477 L 94.616,35.073 L 94.512,34.763 L 94.399,34.546 L 94.274,34.422 L 94.161,34.282 L 94.057,34.127 L 93.964,33.956 L 93.881,33.770 L 93.768,33.563 L 93.623,33.336 L 93.447,33.088 L 93.240,32.819 L 93.059,32.565 L 92.904,32.328 L 92.775,32.105 L 92.671,31.898 L 92.480,31.635 L 92.201,31.314 L 91.834,30.937 L 91.379,30.502 L 90.975,30.187 L 90.624,29.990 L 90.324,29.913 L 90.076,29.954 L 89.859,29.959 L 89.672,29.928 L 89.517,29.861 L 89.393,29.758 L 89.228,29.644 L 89.021,29.520 L 88.773,29.385 L 88.483,29.241 L 88.230,29.127 L 88.013,29.044 L 87.832,28.992 L 87.687,28.972 L 87.314,28.956 L 86.715,28.946 L 85.887,28.941 L 84.832,28.941 L 83.938,28.992 L 83.204,29.096 L 82.630,29.251 L 82.216,29.458 L 81.864,29.623 L 81.575,29.747 L 81.347,29.830 L 81.182,29.871 L 81.016,29.944 L 80.851,30.047 Z" fill="none" stroke="#000000" stroke-width="0.5" stroke-linejoin="round"/>
<path d="M 111.266,28.455 L 111.245,28.517 L 111.261,28.563 L 111.312,28.594 L 111.400,28.610 L 111.524,28.610 L 111.618,28.630 L 111.680,28.672 L 111.711,28.734 L 111.711,28.817 L 111.643,28.884 L 111.509,28.935 L 111.307,28.972 L 111.038,28.992 L 110.775,29.044 L 110.516,29.127 L 110.263,29.241 L 110.015,29.385 L 109.741,29.520 L 109.441,29.644 L 109.115,29.758 L 108.763,29.861 L 108.474,29.970 L 108.246,30.083 L 108.081,30.202 L 107.977,30.326 L 107.874,30.430 L 107.770,30.513 L 107.667,30.575 L 107.564,30.616 L 107.377,30.740 L 107.109,30.947 L 106.757,31.237 L 106.323,31.609 L 105.971,31.940 L 105.702,32.229 L 105.516,32.478 L 105.412,32.684 L 105.309,32.860 L 105.206,33.005 L 105.102,33.119 L 104.999,33.201 L 104.895,33.331 L 104.792,33.507 L 104.689,33.729 L 104.585,33.998 L 104.487,34.220 L 104.394,34.396 L 104.306,34.525 L 104.223,34.608 L 104.135,34.753 L 104.042,34.960 L 103.944,35.228 L 103.841,35.559 L 103.763,36.087 L 103.711,36.811 L 103.685,37.731 L 103.685,38.848 L 103.732,39.768 L 103.825,40.492 L 103.965,41.020 L 104.151,41.351 L 104.296,41.661 L 104.399,41.951 L 104.461,42.219 L 104.482,42.468 L 104.508,42.680 L 104.539,42.855 L 104.575,42.995 L 104.616,43.098 L 104.678,43.192 L 104.761,43.274 L 104.864,43.347 L 104.988,43.409 L 105.107,43.481 L 105.221,43.564 L 105.330,43.657 L 105.433,43.760 L 105.521,43.874 L 105.593,43.998 L 105.650,44.133 L 105.692,44.277 L 105.749,44.417 L 105.821,44.551 L 105.909,44.681 L 106.012,44.805 L 106.152,44.924 L 106.328,45.038 L 106.540,45.146 L 106.788,45.250 L 107.026,45.374 L 107.253,45.518 L 107.470,45.684 L 107.677,45.870 L 107.900,46.036 L 108.138,46.180 L 108.391,46.304 L 108.660,46.408 L 108.898,46.516 L 109.104,46.630 L 109.280,46.749 L 109.425,46.873 L 109.642,46.997 L 109.932,47.121 L 110.294,47.246 L 110.728,47.370 L 111.209,47.468 L 111.736,47.540 L 112.310,47.587 L 112.931,47.607 L 113.479,47.613 L 113.955,47.602 L 114.358,47.576 L 114.689,47.535 L 115.025,47.473 L 115.366,47.390 L 115.713,47.287 L 116.064,47.163 L 116.370,47.039 L 116.628,46.915 L 116.840,46.790 L 117.006,46.666 L 117.187,46.547 L 117.383,46.434 L 117.595,46.325 L 117.823,46.222 L 118.029,46.103 L 118.216,45.968 L 118.381,45.818 L 118.526,45.653 L 118.696,45.508 L 118.893,45.384 L 119.115,45.281 L 119.363,45.198 L 119.653,45.017 L 119.984,44.738 L 120.356,44.360 L 120.770,43.884 L 121.122,43.424 L 121.411,42.980 L 121.639,42.550 L 121.804,42.137 L 121.944,41.676 L 122.057,41.170 L 122.145,40.616 L 122.207,40.017 L 122.254,39.448 L 122.285,38.910 L 122.301,38.403 L 122.301,37.928 L 122.285,37.426 L 122.254,36.899 L 122.207,36.345 L 122.145,35.766 L 122.083,35.301 L 122.021,34.949 L 121.959,34.711 L 121.897,34.587 L 121.820,34.463 L 121.727,34.339 L 121.618,34.215 L 121.494,34.091 L 121.380,33.936 L 121.277,33.750 L 121.184,33.532 L 121.101,33.284 L 121.013,33.077 L 120.920,32.912 L 120.822,32.788 L 120.718,32.705 L 120.615,32.586 L 120.511,32.431 L 120.408,32.240 L 120.305,32.012 L 120.196,31.816 L 120.082,31.650 L 119.963,31.516 L 119.839,31.412 L 119.674,31.314 L 119.467,31.221 L 119.219,31.133 L 118.929,31.050 L 118.686,30.942 L 118.490,30.807 L 118.340,30.647 L 118.236,30.461 L 118.122,30.326 L 117.998,30.244 L 117.864,30.213 L 117.719,30.233 L 117.559,30.218 L 117.383,30.166 L 117.192,30.078 L 116.985,29.954 L 116.814,29.840 L 116.680,29.737 L 116.582,29.644 L 116.520,29.561 L 116.395,29.468 L 116.209,29.365 L 115.961,29.251 L 115.651,29.127 L 115.278,29.034 L 114.844,28.972 L 114.348,28.941 L 113.789,28.941 L 113.365,28.925 L 113.076,28.894 L 112.921,28.848 L 112.900,28.786 L 112.910,28.734 L 112.952,28.692 L 113.024,28.661 L 113.127,28.641 L 113.200,28.610 L 113.241,28.568 L 113.252,28.517 L 113.231,28.455 L 113.096,28.408 L 112.848,28.377 L 112.486,28.362 L 112.011,28.362 L 111.649,28.377 L 111.400,28.408 Z" fill="none" stroke="#000000" stroke-width="0.5" stroke-linejoin="round"/>
<path d="M 6.624,8.000 L 8.586,8.000 L 8.586,5.000 L 13.086,5.000 L 13.086,8.000 L 17.011,8.000 L 17.011,5.000 L 21.511,5.000 L 21.511,8.000 L 25.436,8.000 L 25.436,5.000 L 29.936,5.000 L 29.936,8.000 L 33.862,8.000 L 33.862,5.000 L 38.362,5.000 L 38.362,8.000 L 42.287,8.000 L 42.287,5.000 L 46.787,5.000 L 46.787,8.000 L 50.712,8.000 L 50.712,5.000 L 55.212,5.000 L 55.212,8.000 L 59.137,8.000 L 59.137,5.000 L 63.637,5.000 L 63.637,8.000 L 67.562,8.000 L 67.562,5.000 L 72.062,5.000 L 72.062,8.000 L 75.988,8.000 L 75.988,5.000 L 80.488,5.000 L 80.488,8.000 L 84.413,8.000 L 84.413,5.000 L 88.913,5.000 L 88.913,8.000 L 92.838,8.000 L 92.838,5.000 L 97.338,5.000 L 97.338,8.000 L 101.263,8.000 L 101.263,5.000 L 105.763,5.000 L 105.763,8.000 L 109.688,8.000 L 109.688,5.000 L 114.188,5.000 L 114.188,8.000 L 118.113,8.000 L 118.113,5.000 L 122.613,5.000 L 122.613,8.000 L 126.539,8.000 L 126.539,5.000 L 131.039,5.000 L 131.039,8.000 L 134.964,8.000 L 134.964,5.000 L 139.464,5.000 L 139.464,8.000 L 143.389,8.000 L 143.389,5.000 L 147.889,5.000 L 147.889,8.000 L 151.814,8.000 L 151.814,5.000 L 156.314,5.000 L 156.314,8.000 L 160.239,8.000 L 160.239,5.000 L 164.739,5.000 L 164.739,8.000 L 168.665,8.000 L 168.665,5.000 L 173.165,5.000 L 173.165,8.000 L 177.090,8.000 L 177.090,5.000 L 181.590,5.000 L 181.590,8.000 L 185.515,8.000 L 185.515,5.000 L 190.015,5.000 L 190.015,8.000 L 191.978,8.000 L 191.978,68.000 L 190.015,68.000 L 190.015,71.000 L 185.515,71.000 L 185.515,68.000 L 181.590,68.000 L 181.590,71.000 L 177.090,71.000 L 177.090,68.000 L 173.165,68.000 L 173.165,71.000 L 168.665,71.000 L 168.665,68.000 L 164.739,68.000 L 164.739,71.000 L 160.239,71.000 L 160.239,68.000 L 156.314,68.000 L 156.314,71.000 L 151.814,71.000 L 151.814,68.000 L 147.889,68.000 L 147.889,71.000 L 143.389,71.000 L 143.389,68.000 L 139.464,68.000 L 139.464,71.000 L 134.964,71.000 L 134.964,68.000 L 131.039,68.000 L 131.039,71.000 L 126.539,71.000 L 126.539,68.000 L 122.613,68.000 L 122.613,71.000 L 118.113,71.000 L 118.113,68.000 L 114.188,68.000 L 114.188,71.000 L 109.688,71.000 L 109.688,68.000 L 105.763,68.000 L 105.763,71.000 L 101.263,71.000 L 101.263,68.000 L 97.338,68.000 L 97.338,71.000 L 92.838,71.000 L 92.838,68.000 L 88.913,68.000 L 88.913,71.000 L 84.413,71.000 L 84.413,68.000 L 80.488,68.000 L 80.488,71.000 L 75.988,71.000 L 75.988,68.000 L 72.062,68.000 L 72.062,71.000 L 67.562,71.000 L 67.562,68.000 L 63.637,68.000 L 63.637,71.000 L 59.137,71.000 L 59.137,68.000 L 55.212,68.000 L 55.212,71.000 L 50.712,71.000 L 50.712,68.000 L 46.787,68.000 L 46.787,71.000 L 42.287,71.000 L 42.287,68.000 L 38.362,68.000 L 38.362,71.000 L 33.862,71.000 L 33.862,68.000 L 29.936,68.000 L 29.936,71.000 L 25.436,71.000 L 25.436,68.000 L 21.511,68.000 L 21.511,71.000 L 17.011,71.000 L 17.011,68.000 L 13.086,68.000 L 13.086,71.000 L 8.586,71.000 L 8.586,68.000 L 6.624,68.000 Z" fill="none" stroke="#FF0000" stroke-width="0.01"/>
<path d="M 37.900,71.255 L 38.447,71.260 L 38.994,71.274 L 39.541,71.298 L 40.087,71.332 L 40.633,71.375 L 41.178,71.427 L 41.721,71.489 L 42.264,71.561 L 42.805,71.642 L 43.345,71.733 L 43.883,71.833 L 44.419,71.942 L 44.954,72.061 L 45.486,72.189 L 46.015,72.326 L 46.543,72.473 L 47.067,72.629 L 47.589,72.794 L 48.108,72.968 L 48.624,73.151 L 49.136,73.343 L 49.645,73.544 L 50.151,73.754 L 50.652,73.973 L 51.150,74.201 L 51.644,74.437 L 52.133,74.682 L 52.619,74.935 L 53.099,75.197 L 53.575,75.467 L 54.046,75.745 L 54.513,76.032 L 54.974,76.327 L 55.430,76.629 L 55.880,76.940 L 56.325,77.259 L 56.765,77.585 L 57.198,77.919 L 57.626,78.260 L 58.048,78.609 L 58.463,78.965 L 58.872,79.329 L 59.275,79.699 L 59.671,80.077 L 60.061,80.461 L 60.444,80.852 L 60.820,81.250 L 61.189,81.655 L 61.550,82.065 L 61.905,82.482 L 62.252,82.905 L 62.592,83.335 L 62.924,83.770 L 63.248,84.210 L 63.565,84.657 L 63.874,85.108 L 64.175,85.566 L 64.468,86.028 L 64.752,86.495 L 65.029,86.968 L 65.297,87.445 L 65.557,87.927 L 65.808,88.413 L 66.051,88.903 L 66.285,89.398 L 66.511,89.897 L 66.727,90.399 L 66.935,90.905 L 67.134,91.415 L 67.324,91.929 L 67.505,92.445 L 67.677,92.965 L 67.840,93.487 L 67.994,94.012 L 68.138,94.540 L 68.273,95.071 L 68.399,95.603 L 68.516,96.138 L 68.623,96.675 L 68.721,97.213 L 68.809,97.753 L 68.888,98.295 L 68.957,98.838 L 69.017,99.382 L 69.068,99.927 L 69.108,100.473 L 69.140,101.019 L 69.161,101.566 L 69.173,102.113 L 69.176,102.660 L 69.169,103.208 L 69.152,103.755 L 69.126,104.301 L 69.090,104.847 L 69.045,105.393 L 68.990,105.937 L 68.926,106.481 L 68.852,107.023 L 68.769,107.564 L 68.676,108.103 L 68.574,108.641 L 68.462,109.177 L 68.341,109.711 L 68.211,110.242 L 68.071,110.772 L 67.923,111.298 L 67.765,111.822 L 67.597,112.343 L 67.421,112.862 L 67.236,113.376 L 67.042,113.888 L 66.838,114.396 L 66.626,114.901 L 66.406,115.402 L 66.176,115.899 L 65.938,116.391 L 65.691,116.880 L 65.436,117.364 L 65.172,117.843 L 64.900,118.318 L 62.650,118.318 L 60.400,118.318 L 58.150,118.318 L 55.900,118.318 L 53.650,118.318 L 51.400,118.318 L 49.150,118.318 L 46.900,118.318 L 44.650,118.318 L 42.400,118.318 L 40.150,118.318 L 37.900,118.318 L 35.650,118.318 L 33.400,118.318 L 31.150,118.318 L 28.900,118.318 L 26.650,118.318 L 24.400,118.318 L 22.150,118.318 L 19.900,118.318 L 17.650,118.318 L 15.400,118.318 L 13.150,118.318 L 10.900,118.318 L 10.628,117.843 L 10.364,117.364 L 10.109,116.880 L 9.862,116.391 L 9.624,115.899 L 9.394,115.402 L 9.173,114.901 L 8.961,114.396 L 8.758,113.888 L 8.564,113.376 L 8.378,112.862 L 8.202,112.343 L 8.035,111.822 L 7.877,111.298 L 7.728,110.772 L 7.589,110.242 L 7.458,109.711 L 7.337,109.177 L 7.226,108.641 L 7.124,108.103 L 7.031,107.564 L 6.947,107.023 L 6.874,106.481 L 6.809,105.937 L 6.754,105.393 L 6.709,104.847 L 6.673,104.301 L 6.647,103.755 L 6.631,103.208 L 6.624,102.660 L 6.626,102.113 L 6.638,101.566 L 6.660,101.019 L 6.691,100.473 L 6.732,99.927 L 6.782,99.382 L 6.842,98.838 L 6.912,98.295 L 6.990,97.753 L 7.079,97.213 L 7.177,96.675 L 7.284,96.138 L 7.400,95.603 L 7.526,95.071 L 7.661,94.540 L 7.806,94.012 L 7.960,93.487 L 8.122,92.965 L 8.294,92.445 L 8.475,91.929 L 8.665,91.415 L 8.864,90.905 L 9.072,90.399 L 9.289,89.897 L 9.514,89.398 L 9.749,88.903 L 9.991,88.413 L 10.243,87.927 L 10.503,87.445 L 10.771,86.968 L 11.047,86.495 L 11.332,86.028 L 11.625,85.566 L 11.926,85.108 L 12.235,84.657 L 12.551,84.210 L 12.876,83.770 L 13.208,83.335 L 13.548,82.905 L 13.895,82.482 L 14.249,82.065 L 14.611,81.655 L 14.980,81.250 L 15.356,80.852 L 15.738,80.461 L 16.128,80.077 L 16.524,79.699 L 16.927,79.329 L 17.336,78.965 L 17.752,78.609 L 18.174,78.260 L 18.601,77.919 L 19.035,77.585 L 19.474,77.259 L 19.919,76.940 L 20.370,76.629 L 20.826,76.327 L 21.287,76.032 L 21.753,75.745 L 22.224,75.467 L 22.700,75.197 L 23.181,74.935 L 23.666,74.682 L 24.156,74.437 L 24.649,74.201 L 25.147,73.973 L 25.649,73.754 L 26.154,73.544 L 26.663,73.343 L 27.176,73.151 L 27.691,72.968 L 28.210,72.794 L 28.732,72.629 L 29.257,72.473 L 29.784,72.326 L 30.314,72.189 L 30.846,72.061 L 31.380,71.942 L 31.916,71.833 L 32.455,71.733 L 32.994,71.642 L 33.536,71.561 L 34.078,71.489 L 34.622,71.427 L 35.167,71.375 L 35.712,71.332 L 36.259,71.298 L 36.805,71.274 L 37.352,71.260 L 37.900,71.255 Z" fill="none" stroke="#FF0000" stroke-width="0.01"/>
<path d="M 44.587,70.312 L 40.029,69.695 L 39.612,72.766 L 44.171,73.384 Z" fill="none" stroke="#FF0000" stroke-width="0.01"/>
<path d="M 52.921,73.253 L 48.691,71.445 L 47.472,74.295 L 51.702,76.104 Z" fill="none" stroke="#FF0000" stroke-width="0.01"/>
<path d="M 60.170,78.307 L 56.575,75.438 L 54.641,77.862 L 58.237,80.731 Z" fill="none" stroke="#FF0000" stroke-width="0.01"/>
<path d="M 65.815,85.108 L 63.112,81.385 L 60.604,83.206 L 63.306,86.929 Z" fill="none" stroke="#FF0000" stroke-width="0.01"/>
<path d="M 69.445,93.165 L 67.830,88.858 L 64.927,89.946 L 66.542,94.253 Z" fill="none" stroke="#FF0000" stroke-width="0.01"/>
<path d="M 70.800,101.898 L 70.390,97.317 L 67.302,97.593 L 67.712,102.174 Z" fill="none" stroke="#FF0000" stroke-width="0.01"/>
<path d="M 69.782,110.677 L 70.607,106.151 L 67.557,105.596 L 66.733,110.121 Z" fill="none" stroke="#FF0000" stroke-width="0.01"/>
<path d="M 66.464,118.868 L 68.463,114.725 L 65.671,113.378 L 63.672,117.521 Z" fill="none" stroke="#FF0000" stroke-width="0.01"/>
<path d="M 58.823,121.088 L 61.582,117.407 L 59.101,115.548 L 56.342,119.229 Z" fill="none" stroke="#FF0000" stroke-width="0.01"/>
<path d="M 49.710,120.966 L 53.301,118.091 L 51.364,115.671 L 47.772,118.546 Z" fill="none" stroke="#FF0000" stroke-width="0.01"/>
<path d="M 40.289,120.409 L 44.733,119.223 L 43.934,116.228 L 39.490,117.414 Z" fill="none" stroke="#FF0000" stroke-width="0.01"/>
<path d="M 31.064,119.223 L 35.509,120.409 L 36.308,117.414 L 31.864,116.228 Z" fill="none" stroke="#FF0000" stroke-width="0.01"/>
<path d="M 22.497,118.091 L 26.088,120.966 L 28.025,118.546 L 24.434,115.671 Z" fill="none" stroke="#FF0000" stroke-width="0.01"/>
<path d="M 14.216,117.407 L 16.975,121.088 L 19.456,119.229 L 16.697,115.548 Z" fill="none" stroke="#FF0000" stroke-width="0.01"/>
<path d="M 7.336,114.723 L 9.335,118.866 L 12.127,117.519 L 10.128,113.376 Z" fill="none" stroke="#FF0000" stroke-width="0.01"/>
<path d="M 5.193,106.150 L 6.017,110.675 L 9.067,110.120 L 8.242,105.594 Z" fill="none" stroke="#FF0000" stroke-width="0.01"/>
<path d="M 5.410,97.315 L 5.000,101.896 L 8.088,102.173 L 8.498,97.591 Z" fill="none" stroke="#FF0000" stroke-width="0.01"/>
<path d="M 7.970,88.856 L 6.355,93.164 L 9.258,94.252 L 10.873,89.944 Z" fill="none" stroke="#FF0000" stroke-width="0.01"/>
<path d="M 12.689,81.384 L 9.986,85.106 L 12.494,86.927 L 15.197,83.205 Z" fill="none" stroke="#FF0000" stroke-width="0.01"/>
<path d="M 19.226,75.437 L 15.630,78.306 L 17.564,80.730 L 21.160,77.861 Z" fill="none" stroke="#FF0000" stroke-width="0.01"/>
<path d="M 27.110,71.444 L 22.880,73.253 L 24.099,76.103 L 28.329,74.295 Z" fill="none" stroke="#FF0000" stroke-width="0.01"/>
<path d="M 35.773,69.694 L 31.214,70.312 L 31.631,73.384 L 36.189,72.766 Z" fill="none" stroke="#FF0000" stroke-width="0.01"/>
<path d="M 108.452,71.255 L 109.000,71.260 L 109.547,71.274 L 110.093,71.298 L 110.640,71.332 L 111.185,71.375 L 111.730,71.427 L 112.274,71.489 L 112.816,71.561 L 113.358,71.642 L 113.897,71.733 L 114.436,71.833 L 114.972,71.942 L 115.506,72.061 L 116.038,72.189 L 116.568,72.326 L 117.095,72.473 L 117.620,72.629 L 118.142,72.794 L 118.661,72.968 L 119.176,73.151 L 119.689,73.343 L 120.198,73.544 L 120.703,73.754 L 121.205,73.973 L 121.703,74.201 L 122.196,74.437 L 122.686,74.682 L 123.171,74.935 L 123.652,75.197 L 124.128,75.467 L 124.599,75.745 L 125.065,76.032 L 125.526,76.327 L 125.982,76.629 L 126.433,76.940 L 126.878,77.259 L 127.317,77.585 L 127.751,77.919 L 128.178,78.260 L 128.600,78.609 L 129.016,78.965 L 129.425,79.329 L 129.828,79.699 L 130.224,80.077 L 130.614,80.461 L 130.996,80.852 L 131.372,81.250 L 131.741,81.655 L 132.103,82.065 L 132.457,82.482 L 132.804,82.905 L 133.144,83.335 L 133.476,83.770 L 133.801,84.210 L 134.117,84.657 L 134.426,85.108 L 134.727,85.566 L 135.020,86.028 L 135.305,86.495 L 135.581,86.968 L 135.849,87.445 L 136.109,87.927 L 136.361,88.413 L 136.603,88.903 L 136.838,89.398 L 137.063,89.897 L 137.280,90.399 L 137.488,90.905 L 137.687,91.415 L 137.877,91.929 L 138.058,92.445 L 138.230,92.965 L 138.392,93.487 L 138.546,94.012 L 138.691,94.540 L 138.826,95.071 L 138.952,95.603 L 139.068,96.138 L 139.175,96.675 L 139.273,97.213 L 139.362,97.753 L 139.440,98.295 L 139.510,98.838 L 139.570,99.382 L 139.620,99.927 L 139.661,100.473 L 139.692,101.019 L 139.714,101.566 L 139.726,102.113 L 139.728,102.660 L 139.721,103.208 L 139.705,103.755 L 139.679,104.301 L 139.643,104.847 L 139.598,105.393 L 139.543,105.937 L 139.478,106.481 L 139.405,107.023 L 139.321,107.564 L 139.228,108.103 L 139.126,108.641 L 139.015,109.177 L 138.894,109.711 L 138.763,110.242 L 138.624,110.772 L 138.475,111.298 L 138.317,111.822 L 138.150,112.343 L 137.974,112.862 L 137.788,113.376 L 137.594,113.888 L 137.391,114.396 L 137.179,114.901 L 136.958,115.402 L 136.728,115.899 L 136.490,116.391 L 136.243,116.880 L 135.988,117.364 L 135.724,117.843 L 135.452,118.318 L 133.202,118.318 L 130.952,118.318 L 128.702,118.318 L 126.452,118.318 L 124.202,118.318 L 121.952,118.318 L 119.702,118.318 L 117.452,118.318 L 115.202,118.318 L 112.952,118.318 L 110.702,118.318 L 108.452,118.318 L 106.202,118.318 L 103.952,118.318 L 101.702,118.318 L 99.452,118.318 L 97.202,118.318 L 94.952,118.318 L 92.702,118.318 L 90.452,118.318 L 88.202,118.318 L 85.952,118.318 L 83.702,118.318 L 81.452,118.318 L 81.180,117.843 L 80.916,117.364 L 80.661,116.880 L 80.414,116.391 L 80.176,115.899 L 79.946,115.402 L 79.726,114.901 L 79.514,114.396 L 79.310,113.888 L 79.116,113.376 L 78.931,112.862 L 78.755,112.343 L 78.587,111.822 L 78.429,111.298 L 78.281,110.772 L 78.141,110.242 L 78.011,109.711 L 77.890,109.177 L 77.778,108.641 L 77.676,108.103 L 77.583,107.564 L 77.500,107.023 L 77.426,106.481 L 77.362,105.937 L 77.307,105.393 L 77.262,104.847 L 77.226,104.301 L 77.200,103.755 L 77.183,103.208 L 77.176,102.660 L 77.179,102.113 L 77.191,101.566 L 77.212,101.019 L 77.244,100.473 L 77.284,99.927 L 77.335,99.382 L 77.395,98.838 L 77.464,98.295 L 77.543,97.753 L 77.631,97.213 L 77.729,96.675 L 77.836,96.138 L 77.953,95.603 L 78.079,95.071 L 78.214,94.540 L 78.358,94.012 L 78.512,93.487 L 78.675,92.965 L 78.847,92.445 L 79.028,91.929 L 79.218,91.415 L 79.417,90.905 L 79.625,90.399 L 79.841,89.897 L 80.067,89.398 L 80.301,88.903 L 80.544,88.413 L 80.795,87.927 L 81.055,87.445 L 81.323,86.968 L 81.600,86.495 L 81.884,86.028 L 82.177,85.566 L 82.478,85.108 L 82.787,84.657 L 83.104,84.210 L 83.428,83.770 L 83.760,83.335 L 84.100,82.905 L 84.447,82.482 L 84.802,82.065 L 85.163,81.655 L 85.532,81.250 L 85.908,80.852 L 86.291,80.461 L 86.681,80.077 L 87.077,79.699 L 87.480,79.329 L 87.889,78.965 L 88.304,78.609 L 88.726,78.260 L 89.154,77.919 L 89.587,77.585 L 90.027,77.259 L 90.472,76.940 L 90.922,76.629 L 91.378,76.327 L 91.839,76.032 L 92.306,75.745 L 92.777,75.467 L 93.253,75.197 L 93.733,74.935 L 94.219,74.682 L 94.708,74.437 L 95.202,74.201 L 95.700,73.973 L 96.201,73.754 L 96.707,73.544 L 97.216,73.343 L 97.728,73.151 L 98.244,72.968 L 98.763,72.794 L 99.285,72.629 L 99.809,72.473 L 100.337,72.326 L 100.866,72.189 L 101.398,72.061 L 101.933,71.942 L 102.469,71.833 L 103.007,71.733 L 103.547,71.642 L 104.088,71.561 L 104.631,71.489 L 105.174,71.427 L 105.719,71.375 L 106.265,71.332 L 106.811,71.298 L 107.358,71.274 L 107.905,71.260 L 108.452,71.255 Z" fill="none" stroke="#FF0000" stroke-width="0.01"/>
<path d="M 115.139,70.312 L 110.581,69.695 L 110.165,72.766 L 114.723,73.384 Z" fill="none" stroke="#FF0000" stroke-width="0.01"/>
<path d="M 123.473,73.253 L 119.244,71.445 L 118.025,74.295 L 122.254,76.104 Z" fill="none" stroke="#FF0000" stroke-width="0.01"/>
<path d="M 130.723,78.307 L 127.127,75.438 L 125.194,77.862 L 128.789,80.731 Z" fill="none" stroke="#FF0000" stroke-width="0.01"/>
<path d="M 136.367,85.108 L 133.665,81.385 L 131.156,83.206 L 133.858,86.929 Z" fill="none" stroke="#FF0000" stroke-width="0.01"/>
<path d="M 139.997,93.165 L 138.383,88.858 L 135.480,89.946 L 137.094,94.253 Z" fill="none" stroke="#FF0000" stroke-width="0.01"/>
<path d="M 141.352,101.898 L 140.942,97.317 L 137.855,97.593 L 138.264,102.174 Z" fill="none" stroke="#FF0000" stroke-width="0.01"/>
<path d="M 140.335,110.677 L 141.159,106.151 L 138.109,105.596 L 137.285,110.121 Z" fill="none" stroke="#FF0000" stroke-width="0.01"/>
<path d="M 137.016,118.868 L 139.015,114.725 L 136.223,113.378 L 134.224,117.521 Z" fill="none" stroke="#FF0000" stroke-width="0.01"/>
<path d="M 129.375,121.088 L 132.134,117.407 L 129.654,115.548 L 126.895,119.229 Z" fill="none" stroke="#FF0000" stroke-width="0.01"/>
<path d="M 120.262,120.966 L 123.853,118.091 L 121.916,115.671 L 118.325,118.546 Z" fill="none" stroke="#FF0000" stroke-width="0.01"/>
<path d="M 110.841,120.409 L 115.286,119.223 L 114.487,116.228 L 110.042,117.414 Z" fill="none" stroke="#FF0000" stroke-width="0.01"/>
<path d="M 101.617,119.223 L 106.061,120.409 L 106.861,117.414 L 102.416,116.228 Z" fill="none" stroke="#FF0000" stroke-width="0.01"/>
<path d="M 93.049,118.091 L 96.640,120.966 L 98.578,118.546 L 94.987,115.671 Z" fill="none" stroke="#FF0000" stroke-width="0.01"/>
<path d="M 84.769,117.407 L 87.527,121.088 L 90.008,119.229 L 87.249,115.548 Z" fill="none" stroke="#FF0000" stroke-width="0.01"/>
<path d="M 77.888,114.723 L 79.887,118.866 L 82.679,117.519 L 80.680,113.376 Z" fill="none" stroke="#FF0000" stroke-width="0.01"/>
<path d="M 75.745,106.150 L 76.569,110.675 L 79.619,110.120 L 78.795,105.594 Z" fill="none" stroke="#FF0000" stroke-width="0.01"/>
<path d="M 75.962,97.315 L 75.552,101.896 L 78.640,102.173 L 79.050,97.591 Z" fill="none" stroke="#FF0000" stroke-width="0.01"/>
<path d="M 78.522,88.856 L 76.908,93.164 L 79.811,94.252 L 81.425,89.944 Z" fill="none" stroke="#FF0000" stroke-width="0.01"/>
<path d="M 83.241,81.384 L 80.538,85.106 L 83.047,86.927 L 85.749,83.205 Z" fill="none" stroke="#FF0000" stroke-width="0.01"/>
<path d="M 89.779,75.437 L 86.183,78.306 L 88.116,80.730 L 91.712,77.861 Z" fill="none" stroke="#FF0000" stroke-width="0.01"/>
<path d="M 97.663,71.444 L 93.433,73.253 L 94.652,76.103 L 98.881,74.295 Z" fill="none" stroke="#FF0000" stroke-width="0.01"/>
<path d="M 106.325,69.694 L 101.767,70.312 L 102.183,73.384 L 106.741,72.766 Z" fill="none" stroke="#FF0000" stroke-width="0.01"/>
<path d="M 13.624,14.000 L 13.624,24.000" fill="none" stroke="#FF0000" stroke-width="0.01"/>
<path d="M 13.624,27.500 L 13.624,37.500" fill="none" stroke="#FF0000" stroke-width="0.01"/>
<path d="M 13.624,41.000 L 13.624,51.000" fill="none" stroke="#FF0000" stroke-width="0.01"/>
<path d="M 13.624,54.500 L 13.624,62.000" fill="none" stroke="#FF0000" stroke-width="0.01"/>
<path d="M 16.624,14.000 L 16.624,17.250" fill="none" stroke="#FF0000" stroke-width="0.01"/>
<path d="M 16.624,20.750 L 16.624,30.750" fill="none" stroke="#FF0000" stroke-width="0.01"/>
<path d="M 16.624,34.250 L 16.624,44.250" fill="none" stroke="#FF0000" stroke-width="0.01"/>
<path d="M 16.624,47.750 L 16.624,57.750" fill="none" stroke="#FF0000" stroke-width="0.01"/>
<path d="M 19.624,14.000 L 19.624,24.000" fill="none" stroke="#FF0000" stroke-width="0.01"/>
<path d="M 19.624,27.500 L 19.624,37.500" fill="none" stroke="#FF0000" stroke-width="0.01"/>
<path d="M 19.624,41.000 L 19.624,51.000" fill="none" stroke="#FF0000" stroke-width="0.01"/>
<path d="M 19.624,54.500 L 19.624,62.000" fill="none" stroke="#FF0000" stroke-width="0.01"/>
<path d="M 22.624,14.000 L 22.624,17.250" fill="none" stroke="#FF0000" stroke-width="0.01"/>
<path d="M 22.624,20.750 L 22.624,30.750" fill="none" stroke="#FF0000" stroke-width="0.01"/>
<path d="M 22.624,34.250 L 22.624,44.250" fill="none" stroke="#FF0000" stroke-width="0.01"/>
<path d="M 22.624,47.750 L 22.624,57.750" fill="none" stroke="#FF0000" stroke-width="0.01"/>
<path d="M 25.624,14.000 L 25.624,24.000" fill="none" stroke="#FF0000" stroke-width="0.01"/>
<path d="M 25.624,27.500 L 25.624,37.500" fill="none" stroke="#FF0000" stroke-width="0.01"/>
<path d="M 25.624,41.000 L 25.624,51.000" fill="none" stroke="#FF0000" stroke-width="0.01"/>
<path d="M 25.624,54.500 L 25.624,62.000" fill="none" stroke="#FF0000" stroke-width="0.01"/>
<path d="M 28.624,14.000 L 28.624,17.250" fill="none" stroke="#FF0000" stroke-width="0.01"/>
<path d="M 28.624,20.750 L 28.624,30.750" fill="none" stroke="#FF0000" stroke-width="0.01"/>
<path d="M 28.624,34.250 L 28.624,44.250" fill="none" stroke="#FF0000" stroke-width="0.01"/>
<path d="M 28.624,47.750 L 28.624,57.750" fill="none" stroke="#FF0000" stroke-width="0.01"/>
<path d="M 31.624,14.000 L 31.624,24.000" fill="none" stroke="#FF0000" stroke-width="0.01"/>
<path d="M 31.624,27.500 L 31.624,37.500" fill="none" stroke="#FF0000" stroke-width="0.01"/>
<path d="M 31.624,41.000 L 31.624,51.000" fill="none" stroke="#FF0000" stroke-width="0.01"/>
<path d="M 31.624,54.500 L 31.624,62.000" fill="none" stroke="#FF0000" stroke-width="0.01"/>
<path d="M 34.624,14.000 L 34.624,17.250" fill="none" stroke="#FF0000" stroke-width="0.01"/>
<path d="M 34.624,20.750 L 34.624,30.750" fill="none" stroke="#FF0000" stroke-width="0.01"/>
<path d="M 34.624,34.250 L 34.624,44.250" fill="none" stroke="#FF0000" stroke-width="0.01"/>
<path d="M 34.624,47.750 L 34.624,57.750" fill="none" stroke="#FF0000" stroke-width="0.01"/>
<path d="M 37.624,14.000 L 37.624,24.000" fill="none" stroke="#FF0000" stroke-width="0.01"/>
<path d="M 37.624,27.500 L 37.624,37.500" fill="none" stroke="#FF0000" stroke-width="0.01"/>
<path d="M 37.624,41.000 L 37.624,51.000" fill="none" stroke="#FF0000" stroke-width="0.01"/>
<path d="M 37.624,54.500 L 37.624,62.000" fill="none" stroke="#FF0000" stroke-width="0.01"/>
<path d="M 40.624,14.000 L 40.624,17.250" fill="none" stroke="#FF0000" stroke-width="0.01"/>
<path d="M 40.624,20.750 L 40.624,30.750" fill="none" stroke="#FF0000" stroke-width="0.01"/>
<path d="M 40.624,34.250 L 40.624,44.250" fill="none" stroke="#FF0000" stroke-width="0.01"/>
<path d="M 40.624,47.750 L 40.624,57.750" fill="none" stroke="#FF0000" stroke-width="0.01"/>
<path d="M 43.624,14.000 L 43.624,24.000" fill="none" stroke="#FF0000" stroke-width="0.01"/>
<path d="M 43.624,27.500 L 43.624,37.500" fill="none" stroke="#FF0000" stroke-width="0.01"/>
<path d="M 43.624,41.000 L 43.624,51.000" fill="none" stroke="#FF0000" stroke-width="0.01"/>
<path d="M 43.624,54.500 L 43.624,62.000" fill="none" stroke="#FF0000" stroke-width="0.01"/>
<path d="M 46.624,14.000 L 46.624,17.250" fill="none" stroke="#FF0000" stroke-width="0.01"/>
<path d="M 46.624,20.750 L 46.624,30.750" fill="none" stroke="#FF0000" stroke-width="0.01"/>
<path d="M 46.624,34.250 L 46.624,44.250" fill="none" stroke="#FF0000" stroke-width="0.01"/>
<path d="M 46.624,47.750 L 46.624,57.750" fill="none" stroke="#FF0000" stroke-width="0.01"/>
<path d="M 49.624,14.000 L 49.624,24.000" fill="none" stroke="#FF0000" stroke-width="0.01"/>
<path d="M 49.624,27.500 L 49.624,37.500" fill="none" stroke="#FF0000" stroke-width="0.01"/>
<path d="M 49.624,41.000 L 49.624,51.000" fill="none" stroke="#FF0000" stroke-width="0.01"/>
<path d="M 49.624,54.500 L 49.624,62.000" fill="none" stroke="#FF0000" stroke-width="0.01"/>
<path d="M 52.624,14.000 L 52.624,17.250" fill="none" stroke="#FF0000" stroke-width="0.01"/>
<path d="M 52.624,20.750 L 52.624,30.750" fill="none" stroke="#FF0000" stroke-width="0.01"/>
<path d="M 52.624,34.250 L 52.624,44.250" fill="none" stroke="#FF0000" stroke-width="0.01"/>
<path d="M 52.624,47.750 L 52.624,57.750" fill="none" stroke="#FF0000" stroke-width="0.01"/>
<path d="M 55.624,14.000 L 55.624,24.000" fill="none" stroke="#FF0000" stroke-width="0.01"/>
<path d="M 55.624,27.500 L 55.624,37.500" fill="none" stroke="#FF0000" stroke-width="0.01"/>
<path d="M 55.624,41.000 L 55.624,51.000" fill="none" stroke="#FF0000" stroke-width="0.01"/>
<path d="M 55.624,54.500 L 55.624,62.000" fill="none" stroke="#FF0000" stroke-width="0.01"/>
<path d="M 58.624,14.000 L 58.624,17.250" fill="none" stroke="#FF0000" stroke-width="0.01"/>
<path d="M 58.624,20.750 L 58.624,30.750" fill="none" stroke="#FF0000" stroke-width="0.01"/>
<path d="M 58.624,34.250 L 58.624,44.250" fill="none" stroke="#FF0000" stroke-width="0.01"/>
<path d="M 58.624,47.750 L 58.624,57.750" fill="none" stroke="#FF0000" stroke-width="0.01"/>
<path d="M 61.624,14.000 L 61.624,24.000" fill="none" stroke="#FF0000" stroke-width="0.01"/>
<path d="M 61.624,27.500 L 61.624,37.500" fill="none" stroke="#FF0000" stroke-width="0.01"/>
<path d="M 61.624,41.000 L 61.624,51.000" fill="none" stroke="#FF0000" stroke-width="0.01"/>
<path d="M 61.624,54.500 L 61.624,62.000" fill="none" stroke="#FF0000" stroke-width="0.01"/>
<path d="M 64.624,14.000 L 64.624,17.250" fill="none" stroke="#FF0000" stroke-width="0.01"/>
<path d="M 64.624,20.750 L 64.624,30.750" fill="none" stroke="#FF0000" stroke-width="0.01"/>
<path d="M 64.624,34.250 L 64.624,44.250" fill="none" stroke="#FF0000" stroke-width="0.01"/>
<path d="M 64.624,47.750 L 64.624,57.750" fill="none" stroke="#FF0000" stroke-width="0.01"/>
<path d="M 67.624,14.000 L 67.624,24.000" fill="none" stroke="#FF0000" stroke-width="0.01"/>
<path d="M 67.624,27.500 L 67.624,37.500" fill="none" stroke="#FF0000" stroke-width="0.01"/>
<path d="M 67.624,41.000 L 67.624,51.000" fill="none" stroke="#FF0000" stroke-width="0.01"/>
<path d="M 67.624,54.500 L 67.624,62.000" fill="none" stroke="#FF0000" stroke-width="0.01"/>
<path d="M 70.624,14.000 L 70.624,17.250" fill="none" stroke="#FF0000" stroke-width="0.01"/>
<path d="M 70.624,20.750 L 70.624,30.750" fill="none" stroke="#FF0000" stroke-width="0.01"/>
<path d="M 70.624,34.250 L 70.624,44.250" fill="none" stroke="#FF0000" stroke-width="0.01"/>
<path d="M 70.624,47.750 L 70.624,57.750" fill="none" stroke="#FF0000" stroke-width="0.01"/>
<path d="M 127.624,14.000 L 127.624,24.000" fill="none" stroke="#FF0000" stroke-width="0.01"/>
<path d="M 127.624,27.500 L 127.624,37.500" fill="none" stroke="#FF0000" stroke-width="0.01"/>
<path d="M 127.624,41.000 L 127.624,51.000" fill="none" stroke="#FF0000" stroke-width="0.01"/>
<path d="M 127.624,54.500 L 127.624,62.000" fill="none" stroke="#FF0000" stroke-width="0.01"/>
<path d="M 130.624,14.000 L 130.624,17.250" fill="none" stroke="#FF0000" stroke-width="0.01"/>
<path d="M 130.624,20.750 L 130.624,30.750" fill="none" stroke="#FF0000" stroke-width="0.01"/>
<path d="M 130.624,34.250 L 130.624,44.250" fill="none" stroke="#FF0000" stroke-width="0.01"/>
<path d="M 130.624,47.750 L 130.624,57.750" fill="none" stroke="#FF0000" stroke-width="0.01"/>
<path d="M 133.624,14.000 L 133.624,24.000" fill="none" stroke="#FF0000" stroke-width="0.01"/>
<path d="M 133.624,27.500 L 133.624,37.500" fill="none" stroke="#FF0000" stroke-width="0.01"/>
<path d="M 133.624,41.000 L 133.624,51.000" fill="none" stroke="#FF0000" stroke-width="0.01"/>
<path d="M 133.624,54.500 L 133.624,62.000" fill="none" stroke="#FF0000" stroke-width="0.01"/>
<path d="M 136.624,14.000 L 136.624,17.250" fill="none" stroke="#FF0000" stroke-width="0.01"/>
<path d="M 136.624,20.750 L 136.624,30.750" fill="none" stroke="#FF0000" stroke-width="0.01"/>
<path d="M 136.624,34.250 L 136.624,44.250" fill="none" stroke="#FF0000" stroke-width="0.01"/>
<path d="M 136.624,47.750 L 136.624,57.750" fill="none" stroke="#FF0000" stroke-width="0.01"/>
<path d="M 139.624,14.000 L 139.624,24.000" fill="none" stroke="#FF0000" stroke-width="0.01"/>
<path d="M 139.624,27.500 L 139.624,37.500" fill="none" stroke="#FF0000" stroke-width="0.01"/>
<path d="M 139.624,41.000 L 139.624,51.000" fill="none" stroke="#FF0000" stroke-width="0.01"/>
<path d="M 139.624,54.500 L 139.624,62.000" fill="none" stroke="#FF0000" stroke-width="0.01"/>
<path d="M 142.624,14.000 L 142.624,17.250" fill="none" stroke="#FF0000" stroke-width="0.01"/>
<path d="M 142.624,20.750 L 142.624,30.750" fill="none" stroke="#FF0000" stroke-width="0.01"/>
<path d="M 142.624,34.250 L 142.624,44.250" fill="none" stroke="#FF0000" stroke-width="0.01"/>
<path d="M 142.624,47.750 L 142.624,57.750" fill="none" stroke="#FF0000" stroke-width="0.01"/>
<path d="M 145.624,14.000 L 145.624,24.000" fill="none" stroke="#FF0000" stroke-width="0.01"/>
<path d="M 145.624,27.500 L 145.624,37.500" fill="none" stroke="#FF0000" stroke-width="0.01"/>
<path d="M 145.624,41.000 L 145.624,51.000" fill="none" stroke="#FF0000" stroke-width="0.01"/>
<path d="M 145.624,54.500 L 145.624,62.000" fill="none" stroke="#FF0000" stroke-width="0.01"/>
<path d="M 148.624,14.000 L 148.624,17.250" fill="none" stroke="#FF0000" stroke-width="0.01"/>
<path d="M 148.624,20.750 L 148.624,30.750" fill="none" stroke="#FF0000" stroke-width="0.01"/>
<path d="M 148.624,34.250 L 148.624,44.250" fill="none" stroke="#FF0000" stroke-width="0.01"/>
<path d="M 148.624,47.750 L 148.624,57.750" fill="none" stroke="#FF0000" stroke-width="0.01"/>
<path d="M 151.624,14.000 L 151.624,24.000" fill="none" stroke="#FF0000" stroke-width="0.01"/>
<path d="M 151.624,27.500 L 151.624,37.500" fill="none" stroke="#FF0000" stroke-width="0.01"/>
<path d="M 151.624,41.000 L 151.624,51.000" fill="none" stroke="#FF0000" stroke-width="0.01"/>
<path d="M 151.624,54.500 L 151.624,62.000" fill="none" stroke="#FF0000" stroke-width="0.01"/>
<path d="M 154.624,14.000 L 154.624,17.250" fill="none" stroke="#FF0000" stroke-width="0.01"/>
<path d="M 154.624,20.750 L 154.624,30.750" fill="none" stroke="#FF0000" stroke-width="0.01"/>
<path d="M 154.624,34.250 L 154.624,44.250" fill="none" stroke="#FF0000" stroke-width="0.01"/>
<path d="M 154.624,47.750 L 154.624,57.750" fill="none" stroke="#FF0000" stroke-width="0.01"/>
<path d="M 157.624,14.000 L 157.624,24.000" fill="none" stroke="#FF0000" stroke-width="0.01"/>
<path d="M 157.624,27.500 L 157.624,37.500" fill="none" stroke="#FF0000" stroke-width="0.01"/>
<path d="M 157.624,41.000 L 157.624,51.000" fill="none" stroke="#FF0000" stroke-width="0.01"/>
<path d="M 157.624,54.500 L 157.624,62.000" fill="none" stroke="#FF0000" stroke-width="0.01"/>
<path d="M 160.624,14.000 L 160.624,17.250" fill="none" stroke="#FF0000" stroke-width="0.01"/>
<path d="M 160.624,20.750 L 160.624,30.750" fill="none" stroke="#FF0000" stroke-width="0.01"/>
<path d="M 160.624,34.250 L 160.624,44.250" fill="none" stroke="#FF0000" stroke-width="0.01"/>
<path d="M 160.624,47.750 L 160.624,57.750" fill="none" stroke="#FF0000" stroke-width="0.01"/>
<path d="M 163.624,14.000 L 163.624,24.000" fill="none" stroke="#FF0000" stroke-width="0.01"/>
<path d="M 163.624,27.500 L 163.624,37.500" fill="none" stroke="#FF0000" stroke-width="0.01"/>
<path d="M 163.624,41.000 L 163.624,51.000" fill="none" stroke="#FF0000" stroke-width="0.01"/>
<path d="M 163.624,54.500 L 163.624,62.000" fill="none" stroke="#FF0000" stroke-width="0.01"/>
<path d="M 166.624,14.000 L 166.624,17.250" fill="none" stroke="#FF0000" stroke-width="0.01"/>
<path d="M 166.624,20.750 L 166.624,30.750" fill="none" stroke="#FF0000" stroke-width="0.01"/>
<path d="M 166.624,34.250 L 166.624,44.250" fill="none" stroke="#FF0000" stroke-width="0.01"/>
<path d="M 166.624,47.750 L 166.624,57.750" fill="none" stroke="#FF0000" stroke-width="0.01"/>
<path d="M 169.624,14.000 L 169.624,24.000" fill="none" stroke="#FF0000" stroke-width="0.01"/>
<path d="M 169.624,27.500 L 169.624,37.500" fill="none" stroke="#FF0000" stroke-width="0.01"/>
<path d="M 169.624,41.000 L 169.624,51.000" fill="none" stroke="#FF0000" stroke-width="0.01"/>
<path d="M 169.624,54.500 L 169.624,62.000" fill="none" stroke="#FF0000" stroke-width="0.01"/>
<path d="M 172.624,14.000 L 172.624,17.250" fill="none" stroke="#FF0000" stroke-width="0.01"/>
<path d="M 172.624,20.750 L 172.624,30.750" fill="none" stroke="#FF0000" stroke-width="0.01"/>
<path d="M 172.624,34.250 L 172.624,44.250" fill="none" stroke="#FF0000" stroke-width="0.01"/>
<path d="M 172.624,47.750 L 172.624,57.750" fill="none" stroke="#FF0000" stroke-width="0.01"/>
<path d="M 175.624,14.000 L 175.624,24.000" fill="none" stroke="#FF0000" stroke-width="0.01"/>
<path d="M 175.624,27.500 L 175.624,37.500" fill="none" stroke="#FF0000" stroke-width="0.01"/>
<path d="M 175.624,41.000 L 175.624,51.000" fill="none" stroke="#FF0000" stroke-width="0.01"/>
<path d="M 175.624,54.500 L 175.624,62.000" fill="none" stroke="#FF0000" stroke-width="0.01"/>
<path d="M 178.624,14.000 L 178.624,17.250" fill="none" stroke="#FF0000" stroke-width="0.01"/>
<path d="M 178.624,20.750 L 178.624,30.750" fill="none" stroke="#FF0000" stroke-width="0.01"/>
<path d="M 178.624,34.250 L 178.624,44.250" fill="none" stroke="#FF0000" stroke-width="0.01"/>
<path d="M 178.624,47.750 L 178.624,57.750" fill="none" stroke="#FF0000" stroke-width="0.01"/>
<path d="M 181.624,14.000 L 181.624,24.000" fill="none" stroke="#FF0000" stroke-width="0.01"/>
<path d="M 181.624,27.500 L 181.624,37.500" fill="none" stroke="#FF0000" stroke-width="0.01"/>
<path d="M 181.624,41.000 L 181.624,51.000" fill="none" stroke="#FF0000" stroke-width="0.01"/>
<path d="M 181.624,54.500 L 181.624,62.000" fill="none" stroke="#FF0000" stroke-width="0.01"/>
<path d="M 184.624,14.000 L 184.624,17.250" fill="none" stroke="#FF0000" stroke-width="0.01"/>
<path d="M 184.624,20.750 L 184.624,30.750" fill="none" stroke="#FF0000" stroke-width="0.01"/>
<path d="M 184.624,34.250 L 184.624,44.250" fill="none" stroke="#FF0000" stroke-width="0.01"/>
<path d="M 184.624,47.750 L 184.624,57.750" fill="none" stroke="#FF0000" stroke-width="0.01"/>
</svg>