<svg xmlns="http://www.w3.org/2000/svg" width="278.01mm" height="149.93mm" viewBox="0 0 278.01 149.93">
<path d="M 252.904,40.435 L 252.801,40.349 L 252.707,40.255 L 252.622,40.153 L 252.545,40.042 L 252.476,39.922 L 252.408,39.828 L 252.340,39.760 L 252.271,39.717 L 252.203,39.700 L 252.130,39.713 L 252.053,39.756 L 251.972,39.828 L 251.887,39.931 L 251.819,40.050 L 251.767,40.187 L 251.733,40.341 L 251.716,40.512 L 251.673,40.665 L 251.605,40.802 L 251.511,40.922 L 251.391,41.024 L 251.259,41.105 L 251.114,41.165 L 250.956,41.204 L 250.785,41.221 L 250.644,41.225 L 250.533,41.217 L 250.452,41.195 L 250.400,41.161 L 250.341,41.093 L 250.272,40.990 L 250.195,40.853 L 250.110,40.683 L 250.003,40.550 L 249.875,40.456 L 249.725,40.401 L 249.555,40.384 L 249.401,40.388 L 249.264,40.413 L 249.145,40.460 L 249.042,40.529 L 248.965,40.618 L 248.914,40.730 L 248.888,40.862 L 248.888,41.016 L 248.897,41.157 L 248.914,41.285 L 248.940,41.400 L 248.974,41.503 L 249.025,41.609 L 249.093,41.721 L 249.179,41.836 L 249.281,41.955 L 249.401,42.075 L 249.538,42.195 L 249.691,42.314 L 249.862,42.434 L 250.114,42.519 L 250.447,42.571 L 250.862,42.588 L 251.357,42.571 L 251.750,42.536 L 252.041,42.485 L 252.229,42.417 L 252.314,42.331 L 252.382,42.242 L 252.434,42.148 L 252.468,42.049 L 252.485,41.947 L 252.532,41.819 L 252.609,41.665 L 252.716,41.486 L 252.852,41.281 L 252.955,41.101 L 253.023,40.947 L 253.057,40.819 L 253.057,40.717 L 253.032,40.618 L 252.980,40.525 Z" fill="#000000" fill-rule="evenodd" stroke="none"/>
<path d="M 264.112,30.849 L 263.873,30.798 L 263.544,30.760 L 263.125,30.734 L 262.617,30.721 L 262.019,30.721 L 261.528,30.730 L 261.143,30.747 L 260.866,30.772 L 260.695,30.807 L 260.524,30.866 L 260.353,30.952 L 260.182,31.063 L 260.011,31.200 L 259.819,31.315 L 259.606,31.409 L 259.371,31.482 L 259.114,31.533 L 258.858,31.618 L 258.602,31.738 L 258.346,31.892 L 258.089,32.080 L 257.824,32.285 L 257.551,32.507 L 257.269,32.746 L 256.979,33.002 L 256.744,33.229 L 256.564,33.425 L 256.440,33.592 L 256.372,33.728 L 256.287,33.869 L 256.184,34.015 L 256.065,34.164 L 255.928,34.318 L 255.808,34.497 L 255.706,34.702 L 255.620,34.933 L 255.552,35.189 L 255.484,35.399 L 255.415,35.561 L 255.347,35.676 L 255.279,35.745 L 255.210,35.830 L 255.142,35.933 L 255.074,36.052 L 255.005,36.189 L 254.950,36.501 L 254.907,36.988 L 254.877,37.650 L 254.860,38.487 L 254.851,39.136 L 254.851,39.598 L 254.860,39.871 L 254.877,39.956 L 254.933,40.063 L 255.027,40.191 L 255.159,40.341 L 255.330,40.512 L 255.462,40.653 L 255.556,40.764 L 255.612,40.845 L 255.629,40.896 L 255.736,41.020 L 255.932,41.217 L 256.218,41.486 L 256.594,41.827 L 256.991,42.139 L 257.410,42.421 L 257.850,42.673 L 258.311,42.895 L 258.909,43.062 L 259.644,43.173 L 260.516,43.228 L 261.524,43.228 L 262.305,43.220 L 262.861,43.203 L 263.190,43.177 L 263.292,43.143 L 263.403,43.083 L 263.523,42.998 L 263.651,42.887 L 263.788,42.750 L 263.950,42.630 L 264.138,42.528 L 264.351,42.442 L 264.591,42.374 L 264.796,42.293 L 264.966,42.199 L 265.103,42.092 L 265.206,41.973 L 265.304,41.874 L 265.398,41.797 L 265.488,41.742 L 265.573,41.708 L 265.646,41.665 L 265.705,41.614 L 265.752,41.554 L 265.787,41.486 L 265.859,41.387 L 265.970,41.259 L 266.120,41.101 L 266.308,40.913 L 266.466,40.721 L 266.594,40.525 L 266.692,40.324 L 266.761,40.119 L 266.837,39.935 L 266.923,39.773 L 267.017,39.632 L 267.119,39.512 L 267.218,39.277 L 267.312,38.927 L 267.401,38.461 L 267.487,37.880 L 267.534,37.270 L 267.542,36.629 L 267.512,35.958 L 267.444,35.258 L 267.354,34.690 L 267.243,34.254 L 267.111,33.951 L 266.957,33.780 L 266.829,33.617 L 266.726,33.464 L 266.649,33.318 L 266.598,33.182 L 266.517,33.019 L 266.406,32.831 L 266.265,32.618 L 266.094,32.379 L 265.881,32.131 L 265.624,31.875 L 265.325,31.610 L 264.984,31.336 L 264.667,31.118 L 264.377,30.956 Z" fill="#000000" fill-rule="evenodd" stroke="none"/>
<path d="M 241.362,30.807 L 241.174,30.772 L 240.866,30.751 L 240.439,30.743 L 239.892,30.747 L 239.226,30.764 L 238.666,30.807 L 238.214,30.875 L 237.868,30.969 L 237.628,31.089 L 237.393,31.191 L 237.163,31.277 L 236.936,31.345 L 236.714,31.396 L 236.501,31.473 L 236.296,31.576 L 236.099,31.704 L 235.911,31.857 L 235.723,31.994 L 235.535,32.114 L 235.347,32.216 L 235.159,32.302 L 234.997,32.391 L 234.860,32.485 L 234.749,32.584 L 234.664,32.686 L 234.566,32.784 L 234.455,32.878 L 234.331,32.968 L 234.194,33.054 L 234.070,33.169 L 233.959,33.314 L 233.861,33.489 L 233.775,33.694 L 233.686,33.874 L 233.592,34.027 L 233.493,34.156 L 233.391,34.258 L 233.301,34.378 L 233.224,34.514 L 233.160,34.668 L 233.109,34.839 L 233.036,35.010 L 232.942,35.181 L 232.827,35.352 L 232.690,35.522 L 232.579,35.693 L 232.494,35.864 L 232.434,36.035 L 232.400,36.206 L 232.370,36.454 L 232.344,36.778 L 232.323,37.180 L 232.306,37.658 L 232.306,38.154 L 232.323,38.666 L 232.357,39.196 L 232.408,39.743 L 232.562,40.260 L 232.819,40.747 L 233.177,41.204 L 233.639,41.631 L 234.036,41.968 L 234.369,42.216 L 234.638,42.374 L 234.843,42.442 L 235.036,42.524 L 235.215,42.618 L 235.382,42.724 L 235.535,42.844 L 235.689,42.946 L 235.843,43.032 L 235.997,43.100 L 236.150,43.152 L 236.505,43.190 L 237.060,43.216 L 237.816,43.228 L 238.773,43.228 L 239.610,43.169 L 240.328,43.049 L 240.926,42.870 L 241.404,42.630 L 241.785,42.425 L 242.067,42.254 L 242.250,42.118 L 242.336,42.015 L 242.421,41.930 L 242.507,41.862 L 242.592,41.810 L 242.677,41.776 L 242.814,41.669 L 243.002,41.490 L 243.241,41.238 L 243.532,40.913 L 243.762,40.627 L 243.933,40.379 L 244.044,40.170 L 244.096,39.999 L 244.177,39.807 L 244.288,39.593 L 244.429,39.358 L 244.600,39.102 L 244.728,38.654 L 244.813,38.013 L 244.856,37.180 L 244.856,36.155 L 244.826,35.347 L 244.766,34.758 L 244.676,34.386 L 244.557,34.232 L 244.450,34.066 L 244.356,33.886 L 244.275,33.694 L 244.207,33.489 L 244.057,33.229 L 243.826,32.913 L 243.515,32.541 L 243.122,32.114 L 242.771,31.755 L 242.464,31.464 L 242.199,31.242 L 241.977,31.089 L 241.763,30.965 L 241.558,30.871 Z" fill="#000000" fill-rule="evenodd" stroke="none"/>
<path d="M 235.629,31.541 L 235.493,31.678 L 235.360,31.793 L 235.232,31.887 L 235.108,31.960 L 234.989,32.011 L 234.830,32.114 L 234.634,32.268 L 234.399,32.473 L 234.126,32.729 L 233.904,32.955 L 233.733,33.152 L 233.613,33.318 L 233.545,33.455 L 233.464,33.583 L 233.370,33.703 L 233.263,33.814 L 233.143,33.916 L 233.049,34.027 L 232.981,34.147 L 232.938,34.275 L 232.921,34.412 L 232.870,34.566 L 232.784,34.737 L 232.665,34.924 L 232.511,35.129 L 232.379,35.416 L 232.268,35.783 L 232.178,36.232 L 232.109,36.761 L 232.058,37.231 L 232.024,37.641 L 232.007,37.991 L 232.007,38.282 L 232.020,38.615 L 232.045,38.991 L 232.084,39.410 L 232.135,39.871 L 232.191,40.255 L 232.250,40.563 L 232.315,40.794 L 232.383,40.947 L 232.438,41.105 L 232.481,41.268 L 232.511,41.434 L 232.528,41.605 L 232.562,41.750 L 232.614,41.870 L 232.682,41.964 L 232.767,42.032 L 232.878,42.148 L 233.015,42.310 L 233.177,42.519 L 233.365,42.776 L 233.579,43.023 L 233.818,43.263 L 234.083,43.493 L 234.373,43.715 L 234.634,43.929 L 234.865,44.134 L 235.065,44.330 L 235.236,44.518 L 235.411,44.672 L 235.591,44.792 L 235.774,44.877 L 235.962,44.929 L 236.146,45.001 L 236.326,45.095 L 236.501,45.210 L 236.672,45.347 L 236.842,45.467 L 237.013,45.569 L 237.184,45.655 L 237.355,45.723 L 237.645,45.783 L 238.056,45.834 L 238.585,45.877 L 239.234,45.911 L 239.760,45.924 L 240.161,45.915 L 240.439,45.885 L 240.593,45.834 L 240.798,45.783 L 241.054,45.732 L 241.362,45.680 L 241.721,45.629 L 242.037,45.561 L 242.310,45.475 L 242.541,45.373 L 242.729,45.253 L 242.929,45.155 L 243.143,45.078 L 243.369,45.022 L 243.609,44.988 L 243.891,44.864 L 244.215,44.651 L 244.582,44.348 L 244.993,43.955 L 245.334,43.604 L 245.608,43.297 L 245.813,43.032 L 245.949,42.810 L 246.073,42.622 L 246.184,42.468 L 246.283,42.348 L 246.368,42.263 L 246.436,42.182 L 246.488,42.105 L 246.522,42.032 L 246.539,41.964 L 246.599,41.840 L 246.701,41.661 L 246.846,41.426 L 247.034,41.135 L 247.171,40.819 L 247.257,40.478 L 247.291,40.110 L 247.274,39.717 L 247.269,39.380 L 247.278,39.098 L 247.299,38.871 L 247.333,38.701 L 247.359,38.478 L 247.376,38.205 L 247.385,37.880 L 247.385,37.504 L 247.368,37.120 L 247.333,36.727 L 247.282,36.326 L 247.214,35.915 L 247.137,35.582 L 247.051,35.326 L 246.957,35.147 L 246.855,35.044 L 246.761,34.929 L 246.676,34.801 L 246.599,34.660 L 246.530,34.506 L 246.436,34.335 L 246.317,34.147 L 246.172,33.942 L 246.001,33.720 L 245.851,33.511 L 245.723,33.314 L 245.616,33.130 L 245.531,32.960 L 245.373,32.742 L 245.142,32.477 L 244.839,32.165 L 244.463,31.806 L 244.130,31.546 L 243.839,31.383 L 243.591,31.319 L 243.386,31.353 L 243.207,31.358 L 243.053,31.332 L 242.925,31.277 L 242.823,31.191 L 242.686,31.097 L 242.515,30.995 L 242.310,30.884 L 242.071,30.764 L 241.861,30.670 L 241.682,30.602 L 241.533,30.559 L 241.413,30.542 L 241.105,30.529 L 240.610,30.520 L 239.926,30.516 L 239.055,30.516 L 238.316,30.559 L 237.710,30.644 L 237.235,30.772 L 236.894,30.943 L 236.603,31.080 L 236.364,31.183 L 236.176,31.251 L 236.039,31.285 L 235.903,31.345 L 235.766,31.430 Z" fill="none" stroke="#000000" stroke-width="0.5" stroke-linejoin="round"/>
<path d="M 260.891,30.115 L 260.874,30.166 L 260.887,30.204 L 260.930,30.230 L 261.002,30.243 L 261.105,30.243 L 261.182,30.260 L 261.233,30.294 L 261.259,30.345 L 261.259,30.414 L 261.203,30.469 L 261.092,30.512 L 260.926,30.542 L 260.703,30.559 L 260.486,30.602 L 260.272,30.670 L 260.063,30.764 L 259.858,30.884 L 259.631,30.995 L 259.384,31.097 L 259.114,31.191 L 258.824,31.277 L 258.585,31.366 L 258.397,31.460 L 258.260,31.558 L 258.175,31.661 L 258.089,31.746 L 258.004,31.815 L 257.918,31.866 L 257.833,31.900 L 257.679,32.003 L 257.457,32.174 L 257.167,32.413 L 256.808,32.720 L 256.517,32.994 L 256.295,33.233 L 256.141,33.438 L 256.056,33.609 L 255.971,33.754 L 255.885,33.874 L 255.800,33.968 L 255.714,34.036 L 255.629,34.143 L 255.543,34.288 L 255.458,34.472 L 255.373,34.694 L 255.291,34.877 L 255.214,35.023 L 255.142,35.129 L 255.074,35.198 L 255.001,35.317 L 254.924,35.488 L 254.843,35.710 L 254.757,35.984 L 254.693,36.420 L 254.651,37.018 L 254.629,37.778 L 254.629,38.701 L 254.668,39.461 L 254.745,40.059 L 254.860,40.495 L 255.014,40.768 L 255.133,41.024 L 255.219,41.263 L 255.270,41.486 L 255.287,41.691 L 255.308,41.866 L 255.334,42.011 L 255.364,42.126 L 255.398,42.212 L 255.449,42.289 L 255.518,42.357 L 255.603,42.417 L 255.706,42.468 L 255.804,42.528 L 255.898,42.596 L 255.988,42.673 L 256.073,42.759 L 256.146,42.853 L 256.205,42.955 L 256.252,43.066 L 256.287,43.186 L 256.334,43.301 L 256.393,43.412 L 256.466,43.519 L 256.551,43.621 L 256.667,43.720 L 256.812,43.814 L 256.987,43.903 L 257.192,43.989 L 257.389,44.091 L 257.577,44.211 L 257.756,44.348 L 257.927,44.501 L 258.111,44.638 L 258.307,44.758 L 258.516,44.860 L 258.739,44.946 L 258.935,45.035 L 259.106,45.129 L 259.251,45.228 L 259.371,45.330 L 259.550,45.433 L 259.789,45.535 L 260.088,45.638 L 260.447,45.740 L 260.844,45.821 L 261.280,45.881 L 261.754,45.920 L 262.267,45.937 L 262.720,45.941 L 263.113,45.932 L 263.446,45.911 L 263.719,45.877 L 263.997,45.826 L 264.279,45.757 L 264.565,45.672 L 264.855,45.569 L 265.107,45.467 L 265.321,45.364 L 265.496,45.262 L 265.633,45.159 L 265.782,45.061 L 265.945,44.967 L 266.120,44.877 L 266.308,44.792 L 266.479,44.694 L 266.632,44.583 L 266.769,44.459 L 266.889,44.322 L 267.030,44.202 L 267.192,44.100 L 267.376,44.014 L 267.581,43.946 L 267.820,43.797 L 268.093,43.566 L 268.401,43.254 L 268.743,42.861 L 269.033,42.481 L 269.272,42.114 L 269.460,41.759 L 269.597,41.417 L 269.712,41.037 L 269.806,40.618 L 269.879,40.161 L 269.930,39.666 L 269.969,39.196 L 269.994,38.752 L 270.007,38.333 L 270.007,37.940 L 269.994,37.526 L 269.969,37.090 L 269.930,36.633 L 269.879,36.155 L 269.828,35.770 L 269.776,35.480 L 269.725,35.283 L 269.674,35.181 L 269.610,35.078 L 269.533,34.976 L 269.443,34.873 L 269.341,34.771 L 269.247,34.643 L 269.161,34.489 L 269.084,34.309 L 269.016,34.104 L 268.943,33.933 L 268.866,33.797 L 268.785,33.694 L 268.700,33.626 L 268.614,33.528 L 268.529,33.400 L 268.444,33.241 L 268.358,33.054 L 268.268,32.891 L 268.174,32.754 L 268.076,32.643 L 267.974,32.558 L 267.837,32.477 L 267.666,32.400 L 267.461,32.327 L 267.222,32.259 L 267.021,32.169 L 266.859,32.058 L 266.735,31.926 L 266.649,31.772 L 266.556,31.661 L 266.453,31.593 L 266.342,31.567 L 266.222,31.584 L 266.090,31.571 L 265.945,31.529 L 265.787,31.456 L 265.616,31.353 L 265.475,31.259 L 265.364,31.174 L 265.283,31.097 L 265.231,31.029 L 265.129,30.952 L 264.975,30.866 L 264.770,30.772 L 264.514,30.670 L 264.206,30.593 L 263.847,30.542 L 263.437,30.516 L 262.976,30.516 L 262.626,30.503 L 262.386,30.478 L 262.258,30.439 L 262.241,30.388 L 262.250,30.345 L 262.284,30.311 L 262.344,30.286 L 262.429,30.268 L 262.489,30.243 L 262.523,30.209 L 262.532,30.166 L 262.515,30.115 L 262.404,30.076 L 262.199,30.051 L 261.899,30.038 L 261.507,30.038 L 261.207,30.051 L 261.002,30.076 Z" fill="none" stroke="#000000" stroke-width="0.5" stroke-linejoin="round"/>
<path d="M 5.000,8.000 L 12.500,8.000 L 12.500,5.000 L 17.500,5.000 L 17.500,8.000 L 25.001,8.000 L 25.001,68.000 L 17.500,68.000 L 17.500,71.000 L 12.500,71.000 L 12.500,68.000 L 5.000,68.000 Z" fill="none" stroke="#FF0000" stroke-width="0.01"/>
<path d="M 33.001,8.000 L 40.501,8.000 L 40.501,5.000 L 45.501,5.000 L 45.501,8.000 L 53.002,8.000 L 53.002,68.000 L 45.501,68.000 L 45.501,71.000 L 40.501,71.000 L 40.501,68.000 L 33.001,68.000 Z" fill="none" stroke="#FF0000" stroke-width="0.01"/>
<path d="M 61.002,8.000 L 68.502,8.000 L 68.502,5.000 L 73.502,5.000 L 73.502,8.000 L 81.003,8.000 L 81.003,68.000 L 73.502,68.000 L 73.502,71.000 L 68.502,71.000 L 68.502,68.000 L 61.002,68.000 Z" fill="none" stroke="#FF0000" stroke-width="0.01"/>
<path d="M 89.003,8.000 L 96.503,8.000 L 96.503,5.000 L 101.503,5.000 L 101.503,8.000 L 109.003,8.000 L 109.003,68.000 L 101.503,68.000 L 101.503,71.000 L 96.503,71.000 L 96.503,68.000 L 89.003,68.000 Z" fill="none" stroke="#FF0000" stroke-width="0.01"/>
<path d="M 117.003,8.000 L 124.504,8.000 L 124.504,5.000 L 129.504,5.000 L 129.504,8.000 L 137.004,8.000 L 137.004,68.000 L 129.504,68.000 L 129.504,71.000 L 124.504,71.000 L 124.504,68.000 L 117.003,68.000 Z" fill="none" stroke="#FF0000" stroke-width="0.01"/>
<path d="M 145.004,8.000 L 152.505,8.000 L 152.505,5.000 L 157.505,5.000 L 157.505,8.000 L 165.005,8.000 L 165.005,68.000 L 157.505,68.000 L 157.505,71.000 L 152.505,71.000 L 152.505,68.000 L 145.004,68.000 Z" fill="none" stroke="#FF0000" stroke-width="0.01"/>
<path d="M 173.005,8.000 L 180.506,8.000 L 180.506,5.000 L 185.506,5.000 L 185.506,8.000 L 193.006,8.000 L 193.006,68.000 L 185.506,68.000 L 185.506,71.000 L 180.506,71.000 L 180.506,68.000 L 173.005,68.000 Z" fill="none" stroke="#FF0000" stroke-width="0.01"/>
<path d="M 201.006,8.000 L 208.507,8.000 L 208.507,5.000 L 213.507,5.000 L 213.507,8.000 L 221.007,8.000 L 221.007,68.000 L 213.507,68.000 L 213.507,71.000 L 208.507,71.000 L 208.507,68.000 L 201.006,68.000 Z" fill="none" stroke="#FF0000" stroke-width="0.01"/>
<path d="M 229.007,8.000 L 237.507,8.000 L 237.507,5.000 L 242.507,5.000 L 242.507,8.000 L 259.507,8.000 L 259.507,5.000 L 264.507,5.000 L 264.507,8.000 L 273.007,8.000 L 273.007,68.000 L 264.507,68.000 L 264.507,71.000 L 259.507,71.000 L 259.507,68.000 L 242.507,68.000 L 242.507,71.000 L 237.507,71.000 L 237.507,68.000 L 229.007,68.000 Z" fill="none" stroke="#FF0000" stroke-width="0.01"/>
<path d="M 64.986,144.931 L 77.059,125.293 L 75.837,103.136 L 62.208,85.624 L 41.030,79.000 L 19.851,85.624 L 6.222,103.136 L 5.000,125.293 L 17.073,144.931 Z" fill="none" stroke="#FF0000" stroke-width="0.01"/>
<path d="M 65.611,134.272 L 68.282,129.927 L 70.923,131.551 L 68.252,135.896 Z" fill="none" stroke="#FF0000" stroke-width="0.01"/>
<path d="M 71.546,117.038 L 71.266,111.946 L 74.361,111.775 L 74.642,116.868 Z" fill="none" stroke="#FF0000" stroke-width="0.01"/>
<path d="M 66.604,99.494 L 63.471,95.469 L 65.918,93.565 L 69.050,97.590 Z" fill="none" stroke="#FF0000" stroke-width="0.01"/>
<path d="M 52.545,87.893 L 47.678,86.371 L 48.603,83.412 L 53.470,84.934 Z" fill="none" stroke="#FF0000" stroke-width="0.01"/>
<path d="M 34.382,86.371 L 29.514,87.893 L 28.589,84.934 L 33.456,83.412 Z" fill="none" stroke="#FF0000" stroke-width="0.01"/>
<path d="M 18.588,95.469 L 15.455,99.494 L 13.009,97.590 L 16.141,93.565 Z" fill="none" stroke="#FF0000" stroke-width="0.01"/>
<path d="M 10.794,111.946 L 10.513,117.038 L 7.418,116.868 L 7.698,111.775 Z" fill="none" stroke="#FF0000" stroke-width="0.01"/>
<path d="M 13.777,129.927 L 16.448,134.272 L 13.807,135.896 L 11.136,131.551 Z" fill="none" stroke="#FF0000" stroke-width="0.01"/>
<path d="M 27.480,139.881 L 32.580,139.881 L 32.580,142.981 L 27.480,142.981 Z" fill="none" stroke="#FF0000" stroke-width="0.01"/>
<path d="M 49.480,139.881 L 54.580,139.881 L 54.580,142.981 L 49.480,142.981 Z" fill="none" stroke="#FF0000" stroke-width="0.01"/>
<path d="M 145.046,144.931 L 157.118,125.293 L 155.897,103.136 L 142.267,85.624 L 121.089,79.000 L 99.910,85.624 L 86.281,103.136 L 85.059,125.293 L 97.132,144.931 Z" fill="none" stroke="#FF0000" stroke-width="0.01"/>
<path d="M 145.670,134.272 L 148.341,129.927 L 150.982,131.551 L 148.311,135.896 Z" fill="none" stroke="#FF0000" stroke-width="0.01"/>
<path d="M 151.606,117.038 L 151.325,111.946 L 154.420,111.775 L 154.701,116.868 Z" fill="none" stroke="#FF0000" stroke-width="0.01"/>
<path d="M 146.663,99.494 L 143.531,95.469 L 145.977,93.565 L 149.109,97.590 Z" fill="none" stroke="#FF0000" stroke-width="0.01"/>
<path d="M 132.604,87.893 L 127.737,86.371 L 128.662,83.412 L 133.530,84.934 Z" fill="none" stroke="#FF0000" stroke-width="0.01"/>
<path d="M 114.441,86.371 L 109.573,87.893 L 108.648,84.934 L 113.515,83.412 Z" fill="none" stroke="#FF0000" stroke-width="0.01"/>
<path d="M 98.647,95.469 L 95.515,99.494 L 93.068,97.590 L 96.201,93.565 Z" fill="none" stroke="#FF0000" stroke-width="0.01"/>
<path d="M 90.853,111.946 L 90.572,117.038 L 87.477,116.868 L 87.757,111.775 Z" fill="none" stroke="#FF0000" stroke-width="0.01"/>
<path d="M 93.836,129.927 L 96.507,134.272 L 93.866,135.896 L 91.196,131.551 Z" fill="none" stroke="#FF0000" stroke-width="0.01"/>
<path d="M 107.539,139.881 L 112.639,139.881 L 112.639,142.981 L 107.539,142.981 Z" fill="none" stroke="#FF0000" stroke-width="0.01"/>
<path d="M 129.539,139.881 L 134.639,139.881 L 134.639,142.981 L 129.539,142.981 Z" fill="none" stroke="#FF0000" stroke-width="0.01"/>
</svg>