<svg xmlns="http://www.w3.org/2000/svg" width="214.00mm" height="128.00mm" viewBox="0 0 214.00 128.00">
<path d="M 41.388,36.065 L 41.259,35.958 L 41.140,35.839 L 41.033,35.710 L 40.936,35.571 L 40.850,35.420 L 40.764,35.302 L 40.678,35.216 L 40.592,35.162 L 40.506,35.140 L 40.414,35.156 L 40.318,35.210 L 40.215,35.302 L 40.108,35.431 L 40.022,35.581 L 39.957,35.753 L 39.914,35.947 L 39.893,36.162 L 39.839,36.356 L 39.753,36.528 L 39.635,36.678 L 39.484,36.807 L 39.317,36.910 L 39.134,36.985 L 38.935,37.033 L 38.720,37.055 L 38.543,37.060 L 38.403,37.049 L 38.301,37.023 L 38.236,36.979 L 38.161,36.893 L 38.075,36.764 L 37.978,36.592 L 37.871,36.377 L 37.736,36.210 L 37.575,36.092 L 37.387,36.022 L 37.172,36.001 L 36.978,36.006 L 36.806,36.038 L 36.655,36.098 L 36.526,36.184 L 36.429,36.297 L 36.365,36.436 L 36.333,36.603 L 36.333,36.797 L 36.343,36.974 L 36.365,37.135 L 36.397,37.281 L 36.440,37.410 L 36.505,37.544 L 36.591,37.684 L 36.698,37.829 L 36.827,37.980 L 36.978,38.130 L 37.150,38.281 L 37.344,38.431 L 37.559,38.582 L 37.876,38.690 L 38.296,38.754 L 38.817,38.776 L 39.441,38.754 L 39.936,38.711 L 40.301,38.647 L 40.538,38.561 L 40.646,38.453 L 40.732,38.340 L 40.796,38.222 L 40.839,38.098 L 40.861,37.969 L 40.920,37.808 L 41.017,37.614 L 41.151,37.388 L 41.323,37.130 L 41.452,36.904 L 41.538,36.711 L 41.581,36.549 L 41.581,36.420 L 41.549,36.297 L 41.484,36.178 Z" fill="#000000" fill-rule="evenodd" stroke="none"/>
<path d="M 55.499,23.998 L 55.198,23.933 L 54.784,23.885 L 54.257,23.853 L 53.617,23.836 L 52.864,23.836 L 52.245,23.847 L 51.761,23.869 L 51.412,23.901 L 51.197,23.944 L 50.982,24.019 L 50.766,24.127 L 50.551,24.267 L 50.336,24.439 L 50.094,24.584 L 49.825,24.702 L 49.530,24.794 L 49.207,24.858 L 48.884,24.966 L 48.562,25.116 L 48.239,25.310 L 47.916,25.547 L 47.583,25.805 L 47.239,26.084 L 46.884,26.385 L 46.518,26.708 L 46.222,26.993 L 45.996,27.240 L 45.840,27.450 L 45.754,27.622 L 45.647,27.800 L 45.518,27.983 L 45.367,28.171 L 45.195,28.364 L 45.045,28.590 L 44.915,28.848 L 44.808,29.139 L 44.722,29.461 L 44.636,29.725 L 44.550,29.929 L 44.464,30.075 L 44.378,30.161 L 44.292,30.268 L 44.206,30.397 L 44.120,30.548 L 44.034,30.720 L 43.964,31.112 L 43.910,31.725 L 43.872,32.559 L 43.851,33.613 L 43.840,34.430 L 43.840,35.011 L 43.851,35.355 L 43.872,35.463 L 43.942,35.597 L 44.060,35.759 L 44.227,35.947 L 44.442,36.162 L 44.609,36.340 L 44.727,36.479 L 44.797,36.582 L 44.819,36.646 L 44.953,36.802 L 45.200,37.049 L 45.561,37.388 L 46.034,37.818 L 46.534,38.211 L 47.061,38.566 L 47.615,38.883 L 48.196,39.163 L 48.949,39.373 L 49.874,39.512 L 50.971,39.582 L 52.240,39.582 L 53.224,39.572 L 53.923,39.550 L 54.337,39.518 L 54.466,39.475 L 54.606,39.399 L 54.757,39.292 L 54.918,39.152 L 55.090,38.980 L 55.294,38.829 L 55.531,38.700 L 55.800,38.593 L 56.101,38.507 L 56.359,38.405 L 56.574,38.286 L 56.746,38.152 L 56.875,38.001 L 56.999,37.878 L 57.117,37.781 L 57.230,37.711 L 57.338,37.668 L 57.429,37.614 L 57.505,37.550 L 57.564,37.474 L 57.607,37.388 L 57.698,37.265 L 57.838,37.103 L 58.026,36.904 L 58.263,36.668 L 58.462,36.426 L 58.623,36.178 L 58.747,35.925 L 58.833,35.667 L 58.930,35.436 L 59.037,35.232 L 59.156,35.054 L 59.285,34.904 L 59.408,34.608 L 59.527,34.167 L 59.640,33.581 L 59.747,32.849 L 59.806,32.080 L 59.817,31.274 L 59.779,30.429 L 59.693,29.548 L 59.580,28.832 L 59.441,28.284 L 59.274,27.902 L 59.080,27.687 L 58.919,27.482 L 58.790,27.289 L 58.693,27.106 L 58.629,26.934 L 58.526,26.730 L 58.387,26.493 L 58.209,26.224 L 57.994,25.923 L 57.725,25.611 L 57.402,25.288 L 57.026,24.955 L 56.596,24.611 L 56.198,24.337 L 55.832,24.132 Z" fill="#000000" fill-rule="evenodd" stroke="none"/>
<path d="M 26.857,23.944 L 26.621,23.901 L 26.233,23.874 L 25.696,23.863 L 25.007,23.869 L 24.168,23.890 L 23.464,23.944 L 22.894,24.030 L 22.458,24.148 L 22.157,24.299 L 21.861,24.428 L 21.571,24.536 L 21.286,24.622 L 21.006,24.686 L 20.737,24.783 L 20.479,24.912 L 20.232,25.073 L 19.995,25.267 L 19.759,25.439 L 19.522,25.590 L 19.285,25.719 L 19.049,25.826 L 18.844,25.939 L 18.672,26.057 L 18.532,26.181 L 18.425,26.310 L 18.301,26.434 L 18.161,26.552 L 18.005,26.665 L 17.833,26.773 L 17.677,26.918 L 17.538,27.101 L 17.414,27.321 L 17.306,27.579 L 17.193,27.805 L 17.075,27.999 L 16.951,28.160 L 16.822,28.289 L 16.709,28.440 L 16.613,28.612 L 16.532,28.805 L 16.467,29.021 L 16.376,29.236 L 16.258,29.451 L 16.113,29.666 L 15.940,29.881 L 15.801,30.096 L 15.693,30.311 L 15.618,30.526 L 15.575,30.741 L 15.537,31.053 L 15.505,31.462 L 15.478,31.967 L 15.456,32.570 L 15.456,33.194 L 15.478,33.839 L 15.521,34.506 L 15.586,35.194 L 15.779,35.845 L 16.102,36.458 L 16.553,37.033 L 17.134,37.571 L 17.634,37.996 L 18.054,38.308 L 18.393,38.507 L 18.651,38.593 L 18.893,38.695 L 19.119,38.813 L 19.328,38.948 L 19.522,39.098 L 19.716,39.227 L 19.909,39.335 L 20.103,39.421 L 20.296,39.486 L 20.743,39.534 L 21.442,39.566 L 22.394,39.582 L 23.598,39.582 L 24.652,39.507 L 25.556,39.356 L 26.309,39.131 L 26.911,38.829 L 27.390,38.571 L 27.744,38.356 L 27.976,38.184 L 28.083,38.055 L 28.191,37.947 L 28.298,37.861 L 28.406,37.797 L 28.513,37.754 L 28.686,37.619 L 28.922,37.394 L 29.223,37.076 L 29.589,36.668 L 29.879,36.307 L 30.095,35.995 L 30.234,35.732 L 30.299,35.517 L 30.401,35.275 L 30.541,35.006 L 30.718,34.710 L 30.933,34.387 L 31.095,33.823 L 31.202,33.016 L 31.256,31.967 L 31.256,30.677 L 31.218,29.660 L 31.143,28.918 L 31.030,28.450 L 30.880,28.257 L 30.745,28.047 L 30.627,27.821 L 30.525,27.579 L 30.439,27.321 L 30.250,26.993 L 29.960,26.595 L 29.568,26.127 L 29.073,25.590 L 28.632,25.138 L 28.245,24.772 L 27.911,24.492 L 27.632,24.299 L 27.363,24.143 L 27.105,24.025 Z" fill="#000000" fill-rule="evenodd" stroke="none"/>
<path d="M 117.470,39.015 L 117.382,38.927 L 117.268,38.853 L 117.127,38.791 L 116.960,38.743 L 116.767,38.708 L 116.587,38.699 L 116.420,38.717 L 116.267,38.760 L 116.126,38.831 L 115.937,38.967 L 115.700,39.169 L 115.415,39.437 L 115.081,39.770 L 114.765,40.034 L 114.466,40.227 L 114.185,40.350 L 113.922,40.403 L 113.593,40.438 L 113.198,40.455 L 112.737,40.455 L 112.210,40.438 L 111.788,40.411 L 111.472,40.376 L 111.261,40.332 L 111.156,40.280 L 111.055,40.214 L 110.958,40.135 L 110.866,40.043 L 110.778,39.937 L 110.691,39.849 L 110.603,39.779 L 110.515,39.726 L 110.427,39.691 L 110.309,39.608 L 110.159,39.476 L 109.979,39.296 L 109.769,39.068 L 109.580,38.897 L 109.413,38.782 L 109.268,38.725 L 109.145,38.725 L 109.031,38.734 L 108.926,38.752 L 108.829,38.778 L 108.741,38.813 L 108.662,38.861 L 108.592,38.923 L 108.530,38.998 L 108.478,39.085 L 108.438,39.173 L 108.412,39.261 L 108.399,39.349 L 108.399,39.437 L 108.412,39.542 L 108.438,39.665 L 108.478,39.805 L 108.530,39.963 L 108.596,40.113 L 108.675,40.253 L 108.767,40.385 L 108.873,40.508 L 108.987,40.622 L 109.110,40.727 L 109.242,40.824 L 109.382,40.912 L 109.527,41.017 L 109.676,41.140 L 109.830,41.281 L 109.988,41.439 L 110.172,41.570 L 110.383,41.676 L 110.620,41.755 L 110.884,41.808 L 111.138,41.873 L 111.384,41.952 L 111.621,42.045 L 111.850,42.150 L 112.074,42.233 L 112.293,42.295 L 112.508,42.334 L 112.719,42.352 L 112.939,42.352 L 113.167,42.334 L 113.404,42.299 L 113.650,42.247 L 113.843,42.198 L 113.983,42.154 L 114.071,42.115 L 114.106,42.080 L 114.216,42.027 L 114.401,41.957 L 114.660,41.869 L 114.993,41.764 L 115.274,41.658 L 115.503,41.553 L 115.678,41.448 L 115.801,41.342 L 115.933,41.246 L 116.073,41.158 L 116.223,41.079 L 116.381,41.008 L 116.521,40.921 L 116.644,40.815 L 116.750,40.692 L 116.837,40.552 L 116.934,40.420 L 117.039,40.297 L 117.154,40.183 L 117.276,40.078 L 117.377,39.981 L 117.456,39.893 L 117.514,39.814 L 117.549,39.744 L 117.575,39.661 L 117.593,39.564 L 117.601,39.454 L 117.601,39.331 L 117.579,39.217 L 117.535,39.112 Z" fill="#000000" fill-rule="evenodd" stroke="none"/>
<path d="M 99.521,25.782 L 98.941,25.676 L 98.428,25.602 L 97.980,25.558 L 97.598,25.545 L 97.282,25.562 L 96.970,25.593 L 96.663,25.637 L 96.360,25.694 L 96.061,25.764 L 95.802,25.813 L 95.582,25.839 L 95.402,25.843 L 95.262,25.826 L 95.108,25.852 L 94.941,25.922 L 94.761,26.037 L 94.568,26.195 L 94.366,26.331 L 94.156,26.445 L 93.936,26.537 L 93.708,26.607 L 93.523,26.682 L 93.383,26.761 L 93.286,26.844 L 93.234,26.932 L 93.154,27.033 L 93.049,27.147 L 92.917,27.275 L 92.759,27.415 L 92.619,27.569 L 92.496,27.736 L 92.391,27.916 L 92.303,28.109 L 92.210,28.280 L 92.114,28.429 L 92.013,28.557 L 91.908,28.662 L 91.820,28.789 L 91.749,28.939 L 91.697,29.110 L 91.662,29.303 L 91.591,29.531 L 91.486,29.795 L 91.346,30.093 L 91.170,30.427 L 91.038,30.770 L 90.950,31.121 L 90.906,31.481 L 90.906,31.850 L 90.915,32.166 L 90.933,32.429 L 90.959,32.640 L 90.994,32.798 L 91.047,32.956 L 91.117,33.114 L 91.205,33.272 L 91.310,33.430 L 91.416,33.628 L 91.521,33.865 L 91.627,34.142 L 91.732,34.458 L 91.859,34.769 L 92.009,35.077 L 92.180,35.380 L 92.373,35.678 L 92.566,35.946 L 92.759,36.183 L 92.953,36.390 L 93.146,36.565 L 93.348,36.719 L 93.558,36.851 L 93.778,36.960 L 94.006,37.048 L 94.226,37.158 L 94.437,37.290 L 94.639,37.443 L 94.832,37.619 L 95.179,37.759 L 95.679,37.865 L 96.333,37.935 L 97.141,37.970 L 97.839,37.983 L 98.428,37.975 L 98.906,37.944 L 99.275,37.891 L 99.657,37.795 L 100.052,37.654 L 100.460,37.470 L 100.882,37.241 L 101.242,37.035 L 101.541,36.851 L 101.778,36.688 L 101.953,36.548 L 102.124,36.398 L 102.291,36.240 L 102.454,36.073 L 102.612,35.898 L 102.739,35.740 L 102.836,35.599 L 102.902,35.476 L 102.937,35.371 L 103.007,35.248 L 103.112,35.107 L 103.253,34.949 L 103.428,34.774 L 103.565,34.581 L 103.661,34.370 L 103.718,34.142 L 103.736,33.896 L 103.775,33.641 L 103.837,33.378 L 103.920,33.105 L 104.026,32.824 L 104.105,32.565 L 104.157,32.328 L 104.184,32.113 L 104.184,31.920 L 104.157,31.678 L 104.105,31.389 L 104.026,31.051 L 103.920,30.664 L 103.837,30.313 L 103.775,29.997 L 103.736,29.716 L 103.718,29.470 L 103.666,29.246 L 103.578,29.044 L 103.455,28.864 L 103.297,28.706 L 103.147,28.530 L 103.007,28.337 L 102.875,28.126 L 102.752,27.898 L 102.612,27.683 L 102.454,27.481 L 102.278,27.292 L 102.085,27.117 L 101.909,26.972 L 101.751,26.858 L 101.611,26.774 L 101.488,26.721 L 101.339,26.638 L 101.163,26.524 L 100.961,26.379 L 100.733,26.203 L 100.417,26.045 L 100.013,25.905 Z" fill="#000000" fill-rule="evenodd" stroke="none"/>
<path d="M 124.978,26.238 L 124.556,26.484 L 124.192,26.730 L 123.884,26.976 L 123.634,27.222 L 123.441,27.468 L 123.256,27.683 L 123.081,27.867 L 122.914,28.021 L 122.756,28.144 L 122.629,28.254 L 122.532,28.350 L 122.466,28.434 L 122.431,28.504 L 122.405,28.583 L 122.387,28.671 L 122.378,28.767 L 122.378,28.873 L 122.339,29.000 L 122.260,29.149 L 122.141,29.321 L 121.983,29.514 L 121.860,29.874 L 121.772,30.401 L 121.720,31.094 L 121.702,31.955 L 121.702,32.649 L 121.720,33.176 L 121.755,33.536 L 121.808,33.729 L 121.878,33.918 L 121.966,34.102 L 122.071,34.282 L 122.194,34.458 L 122.295,34.629 L 122.374,34.796 L 122.431,34.958 L 122.466,35.116 L 122.532,35.266 L 122.629,35.406 L 122.756,35.538 L 122.914,35.661 L 123.085,35.819 L 123.270,36.012 L 123.467,36.240 L 123.678,36.504 L 123.858,36.719 L 124.007,36.886 L 124.126,37.004 L 124.214,37.074 L 124.306,37.127 L 124.402,37.162 L 124.503,37.180 L 124.609,37.180 L 124.714,37.193 L 124.820,37.219 L 124.925,37.259 L 125.030,37.312 L 125.140,37.377 L 125.254,37.456 L 125.373,37.549 L 125.496,37.654 L 125.715,37.746 L 126.031,37.825 L 126.444,37.891 L 126.953,37.944 L 127.507,37.975 L 128.104,37.983 L 128.745,37.970 L 129.430,37.935 L 129.987,37.878 L 130.418,37.799 L 130.720,37.698 L 130.896,37.575 L 131.085,37.461 L 131.287,37.355 L 131.502,37.259 L 131.730,37.171 L 131.959,37.048 L 132.187,36.890 L 132.415,36.697 L 132.644,36.469 L 132.819,36.284 L 132.942,36.144 L 133.012,36.047 L 133.030,35.994 L 133.078,35.929 L 133.157,35.850 L 133.267,35.757 L 133.408,35.652 L 133.535,35.516 L 133.649,35.349 L 133.750,35.151 L 133.838,34.923 L 133.930,34.717 L 134.027,34.532 L 134.128,34.370 L 134.233,34.229 L 134.321,34.093 L 134.391,33.962 L 134.444,33.834 L 134.479,33.711 L 134.501,33.382 L 134.510,32.846 L 134.505,32.104 L 134.488,31.156 L 134.461,30.418 L 134.426,29.891 L 134.382,29.575 L 134.330,29.470 L 134.268,29.369 L 134.198,29.272 L 134.119,29.180 L 134.031,29.092 L 133.956,28.996 L 133.895,28.890 L 133.847,28.776 L 133.811,28.653 L 133.746,28.522 L 133.649,28.381 L 133.522,28.232 L 133.364,28.074 L 133.241,27.942 L 133.153,27.837 L 133.100,27.758 L 133.083,27.705 L 133.008,27.604 L 132.876,27.455 L 132.687,27.257 L 132.442,27.011 L 132.200,26.800 L 131.963,26.625 L 131.730,26.484 L 131.502,26.379 L 131.304,26.278 L 131.138,26.181 L 131.001,26.089 L 130.896,26.001 L 130.725,25.927 L 130.488,25.865 L 130.185,25.817 L 129.816,25.782 L 129.491,25.738 L 129.210,25.685 L 128.973,25.624 L 128.780,25.554 L 128.595,25.501 L 128.420,25.466 L 128.253,25.448 L 128.095,25.448 L 127.950,25.461 L 127.818,25.488 L 127.700,25.527 L 127.594,25.580 L 127.401,25.633 L 127.120,25.685 L 126.751,25.738 L 126.295,25.791 L 125.847,25.892 L 125.408,26.041 Z" fill="#000000" fill-rule="evenodd" stroke="none"/>
<path d="M 183.188,37.078 L 183.075,36.997 L 182.974,36.936 L 182.885,36.896 L 182.809,36.876 L 182.744,36.876 L 182.667,36.896 L 182.579,36.936 L 182.478,36.997 L 182.365,37.078 L 182.256,37.175 L 182.151,37.288 L 182.050,37.417 L 181.953,37.562 L 181.872,37.732 L 181.807,37.926 L 181.759,38.144 L 181.727,38.386 L 181.646,38.632 L 181.517,38.882 L 181.339,39.137 L 181.113,39.395 L 180.923,39.597 L 180.770,39.742 L 180.653,39.831 L 180.572,39.863 L 180.487,39.912 L 180.398,39.976 L 180.306,40.057 L 180.209,40.154 L 180.100,40.231 L 179.979,40.287 L 179.845,40.324 L 179.700,40.340 L 179.538,40.324 L 179.361,40.275 L 179.167,40.194 L 178.957,40.081 L 178.775,39.997 L 178.622,39.940 L 178.497,39.912 L 178.400,39.912 L 178.311,39.940 L 178.230,39.997 L 178.158,40.081 L 178.093,40.194 L 178.045,40.308 L 178.012,40.421 L 177.996,40.534 L 177.996,40.647 L 178.016,40.752 L 178.057,40.849 L 178.117,40.937 L 178.198,41.018 L 178.335,41.111 L 178.529,41.216 L 178.779,41.333 L 179.086,41.462 L 179.341,41.555 L 179.543,41.612 L 179.692,41.632 L 179.789,41.616 L 179.898,41.579 L 180.019,41.523 L 180.152,41.446 L 180.298,41.349 L 180.459,41.264 L 180.637,41.192 L 180.830,41.131 L 181.040,41.083 L 181.250,40.998 L 181.460,40.877 L 181.670,40.719 L 181.880,40.526 L 182.058,40.324 L 182.203,40.114 L 182.316,39.896 L 182.397,39.670 L 182.482,39.480 L 182.571,39.326 L 182.663,39.209 L 182.760,39.129 L 182.841,39.020 L 182.906,38.882 L 182.954,38.717 L 182.986,38.523 L 183.031,38.333 L 183.087,38.148 L 183.156,37.966 L 183.237,37.788 L 183.297,37.635 L 183.338,37.506 L 183.358,37.401 L 183.358,37.320 L 183.330,37.239 L 183.273,37.158 Z" fill="#000000" fill-rule="evenodd" stroke="none"/>
<path d="M 188.154,25.192 L 188.122,25.240 L 188.098,25.321 L 188.081,25.434 L 188.073,25.579 L 188.073,25.757 L 188.085,25.991 L 188.110,26.282 L 188.146,26.629 L 188.194,27.033 L 188.255,27.360 L 188.328,27.610 L 188.412,27.784 L 188.509,27.881 L 188.606,28.030 L 188.703,28.232 L 188.800,28.486 L 188.897,28.793 L 188.990,29.047 L 189.079,29.249 L 189.163,29.399 L 189.244,29.496 L 189.325,29.613 L 189.406,29.750 L 189.486,29.907 L 189.567,30.085 L 189.660,30.247 L 189.765,30.392 L 189.882,30.521 L 190.011,30.634 L 190.120,30.743 L 190.209,30.848 L 190.278,30.949 L 190.326,31.046 L 190.387,31.139 L 190.459,31.228 L 190.544,31.312 L 190.641,31.393 L 190.746,31.502 L 190.859,31.639 L 190.980,31.805 L 191.109,31.999 L 191.231,32.160 L 191.344,32.289 L 191.449,32.386 L 191.545,32.451 L 191.638,32.528 L 191.727,32.616 L 191.812,32.717 L 191.893,32.830 L 192.002,32.939 L 192.139,33.044 L 192.304,33.145 L 192.498,33.242 L 192.672,33.347 L 192.825,33.460 L 192.958,33.581 L 193.072,33.711 L 193.189,33.820 L 193.310,33.908 L 193.435,33.977 L 193.564,34.025 L 193.689,34.090 L 193.810,34.171 L 193.927,34.268 L 194.040,34.381 L 194.174,34.478 L 194.327,34.558 L 194.501,34.623 L 194.695,34.671 L 194.872,34.740 L 195.034,34.829 L 195.179,34.938 L 195.308,35.067 L 195.458,35.168 L 195.627,35.241 L 195.817,35.285 L 196.027,35.301 L 196.257,35.338 L 196.507,35.394 L 196.778,35.471 L 197.068,35.568 L 197.335,35.632 L 197.577,35.665 L 197.795,35.665 L 197.989,35.632 L 198.150,35.584 L 198.280,35.519 L 198.377,35.439 L 198.441,35.342 L 198.494,35.212 L 198.534,35.051 L 198.562,34.857 L 198.578,34.631 L 198.615,34.409 L 198.671,34.191 L 198.748,33.977 L 198.845,33.767 L 198.930,33.557 L 199.002,33.347 L 199.063,33.137 L 199.111,32.927 L 199.148,32.669 L 199.172,32.362 L 199.184,32.007 L 199.184,31.603 L 199.152,31.224 L 199.087,30.868 L 198.990,30.537 L 198.861,30.230 L 198.752,29.924 L 198.663,29.617 L 198.595,29.310 L 198.546,29.003 L 198.473,28.724 L 198.377,28.474 L 198.255,28.252 L 198.110,28.058 L 197.993,27.885 L 197.904,27.731 L 197.844,27.598 L 197.811,27.485 L 197.747,27.356 L 197.650,27.211 L 197.521,27.049 L 197.359,26.871 L 197.210,26.718 L 197.072,26.589 L 196.947,26.484 L 196.834,26.403 L 196.725,26.310 L 196.620,26.205 L 196.519,26.088 L 196.422,25.959 L 196.322,25.850 L 196.217,25.761 L 196.108,25.692 L 195.995,25.644 L 195.877,25.575 L 195.756,25.487 L 195.631,25.378 L 195.502,25.248 L 195.349,25.139 L 195.171,25.051 L 194.969,24.982 L 194.743,24.933 L 194.533,24.869 L 194.339,24.788 L 194.162,24.691 L 194.000,24.578 L 193.855,24.485 L 193.726,24.413 L 193.613,24.360 L 193.516,24.328 L 193.269,24.304 L 192.874,24.288 L 192.329,24.279 L 191.634,24.279 L 191.065,24.292 L 190.621,24.316 L 190.302,24.352 L 190.108,24.401 L 189.955,24.449 L 189.842,24.497 L 189.769,24.546 L 189.737,24.594 L 189.684,24.647 L 189.612,24.703 L 189.519,24.764 L 189.406,24.829 L 189.256,24.889 L 189.071,24.946 L 188.849,24.998 L 188.590,25.047 L 188.388,25.095 L 188.243,25.143 Z" fill="#000000" fill-rule="evenodd" stroke="none"/>
<path d="M 166.401,25.151 L 166.337,25.216 L 166.284,25.281 L 166.244,25.345 L 166.215,25.410 L 166.199,25.474 L 166.187,25.588 L 166.179,25.749 L 166.175,25.959 L 166.175,26.217 L 166.183,26.447 L 166.199,26.649 L 166.223,26.823 L 166.256,26.968 L 166.312,27.126 L 166.393,27.295 L 166.498,27.477 L 166.627,27.671 L 166.736,27.873 L 166.825,28.083 L 166.894,28.301 L 166.942,28.527 L 167.007,28.729 L 167.087,28.906 L 167.184,29.060 L 167.297,29.189 L 167.402,29.338 L 167.499,29.508 L 167.588,29.697 L 167.669,29.907 L 167.754,30.089 L 167.842,30.243 L 167.935,30.368 L 168.032,30.465 L 168.113,30.557 L 168.178,30.646 L 168.226,30.731 L 168.258,30.812 L 168.327,30.913 L 168.432,31.034 L 168.573,31.175 L 168.751,31.337 L 168.892,31.474 L 168.997,31.587 L 169.066,31.676 L 169.098,31.740 L 169.151,31.809 L 169.223,31.882 L 169.316,31.958 L 169.429,32.039 L 169.530,32.124 L 169.619,32.213 L 169.696,32.306 L 169.760,32.402 L 169.877,32.528 L 170.047,32.681 L 170.269,32.863 L 170.543,33.073 L 170.769,33.258 L 170.947,33.420 L 171.076,33.557 L 171.157,33.670 L 171.262,33.775 L 171.391,33.872 L 171.545,33.961 L 171.722,34.042 L 171.876,34.126 L 172.005,34.215 L 172.110,34.308 L 172.191,34.405 L 172.304,34.490 L 172.449,34.562 L 172.627,34.623 L 172.837,34.671 L 173.055,34.748 L 173.281,34.853 L 173.515,34.986 L 173.757,35.148 L 174.003,35.273 L 174.254,35.362 L 174.508,35.414 L 174.766,35.430 L 175.005,35.463 L 175.223,35.511 L 175.420,35.576 L 175.598,35.657 L 175.760,35.713 L 175.905,35.745 L 176.034,35.753 L 176.147,35.737 L 176.252,35.693 L 176.349,35.620 L 176.438,35.519 L 176.519,35.390 L 176.591,35.229 L 176.656,35.035 L 176.712,34.809 L 176.761,34.550 L 176.821,34.316 L 176.894,34.106 L 176.979,33.921 L 177.076,33.759 L 177.156,33.606 L 177.221,33.460 L 177.270,33.323 L 177.302,33.194 L 177.318,32.919 L 177.318,32.499 L 177.302,31.934 L 177.270,31.224 L 177.213,30.634 L 177.132,30.166 L 177.027,29.819 L 176.898,29.593 L 176.793,29.379 L 176.712,29.177 L 176.656,28.987 L 176.624,28.809 L 176.583,28.644 L 176.535,28.490 L 176.478,28.349 L 176.414,28.220 L 176.345,28.103 L 176.272,27.998 L 176.196,27.905 L 176.115,27.824 L 176.038,27.727 L 175.965,27.614 L 175.897,27.485 L 175.832,27.340 L 175.752,27.202 L 175.655,27.073 L 175.542,26.952 L 175.412,26.839 L 175.311,26.742 L 175.239,26.661 L 175.194,26.597 L 175.178,26.548 L 175.146,26.500 L 175.097,26.451 L 175.033,26.403 L 174.952,26.355 L 174.863,26.286 L 174.766,26.197 L 174.661,26.088 L 174.548,25.959 L 174.439,25.850 L 174.334,25.761 L 174.233,25.692 L 174.137,25.644 L 174.036,25.575 L 173.931,25.487 L 173.822,25.378 L 173.709,25.248 L 173.559,25.139 L 173.374,25.051 L 173.151,24.982 L 172.893,24.933 L 172.671,24.873 L 172.485,24.800 L 172.336,24.715 L 172.223,24.619 L 172.094,24.534 L 171.948,24.461 L 171.787,24.401 L 171.609,24.352 L 171.302,24.316 L 170.866,24.292 L 170.301,24.279 L 169.607,24.279 L 169.017,24.316 L 168.533,24.388 L 168.153,24.497 L 167.879,24.643 L 167.612,24.764 L 167.354,24.861 L 167.104,24.933 L 166.861,24.982 L 166.664,25.034 L 166.510,25.091 Z" fill="#000000" fill-rule="evenodd" stroke="none"/>
<path d="M 48.979,104.325 L 48.891,104.126 L 48.669,103.959 L 48.314,103.826 L 47.826,103.726 L 47.205,103.660 L 46.634,103.521 L 46.113,103.311 L 45.642,103.028 L 45.220,102.673 L 44.882,102.340 L 44.627,102.030 L 44.455,101.742 L 44.367,101.476 L 44.278,101.254 L 44.189,101.076 L 44.101,100.943 L 44.012,100.855 L 43.895,100.788 L 43.751,100.744 L 43.579,100.722 L 43.380,100.722 L 43.202,100.733 L 43.047,100.755 L 42.914,100.788 L 42.803,100.832 L 42.709,100.888 L 42.631,100.954 L 42.570,101.032 L 42.526,101.121 L 42.493,101.243 L 42.471,101.398 L 42.460,101.586 L 42.460,101.808 L 42.471,102.030 L 42.493,102.252 L 42.526,102.473 L 42.570,102.695 L 42.631,102.878 L 42.709,103.022 L 42.803,103.128 L 42.914,103.194 L 43.025,103.277 L 43.136,103.377 L 43.247,103.494 L 43.358,103.627 L 43.441,103.776 L 43.496,103.943 L 43.524,104.126 L 43.524,104.325 L 43.513,104.508 L 43.491,104.674 L 43.457,104.824 L 43.413,104.957 L 43.291,105.135 L 43.092,105.356 L 42.814,105.622 L 42.460,105.933 L 42.116,106.182 L 41.783,106.371 L 41.462,106.498 L 41.151,106.565 L 40.852,106.648 L 40.563,106.748 L 40.286,106.864 L 40.020,106.997 L 39.782,107.097 L 39.571,107.164 L 39.388,107.197 L 39.233,107.197 L 39.055,107.169 L 38.856,107.114 L 38.634,107.031 L 38.390,106.920 L 38.107,106.814 L 37.786,106.715 L 37.425,106.620 L 37.026,106.532 L 36.649,106.388 L 36.294,106.188 L 35.962,105.933 L 35.651,105.622 L 35.369,105.356 L 35.114,105.135 L 34.886,104.957 L 34.687,104.824 L 34.509,104.730 L 34.354,104.674 L 34.221,104.658 L 34.110,104.680 L 33.994,104.752 L 33.872,104.874 L 33.744,105.046 L 33.611,105.268 L 33.511,105.467 L 33.445,105.645 L 33.412,105.800 L 33.412,105.933 L 33.445,106.099 L 33.511,106.299 L 33.611,106.532 L 33.744,106.798 L 33.916,107.053 L 34.127,107.297 L 34.376,107.530 L 34.665,107.751 L 34.947,107.934 L 35.224,108.079 L 35.496,108.184 L 35.762,108.250 L 36.062,108.350 L 36.394,108.483 L 36.760,108.650 L 37.159,108.849 L 37.608,109.004 L 38.107,109.115 L 38.656,109.182 L 39.255,109.204 L 39.760,109.210 L 40.170,109.198 L 40.486,109.171 L 40.708,109.126 L 41.007,109.027 L 41.384,108.871 L 41.839,108.661 L 42.371,108.395 L 42.814,108.162 L 43.169,107.962 L 43.435,107.796 L 43.613,107.663 L 43.851,107.452 L 44.150,107.164 L 44.511,106.798 L 44.932,106.354 L 45.293,106.016 L 45.592,105.783 L 45.830,105.656 L 46.008,105.634 L 46.196,105.645 L 46.396,105.689 L 46.606,105.767 L 46.828,105.878 L 47.094,105.955 L 47.405,105.999 L 47.760,106.011 L 48.159,105.988 L 48.475,105.955 L 48.708,105.911 L 48.857,105.855 L 48.924,105.789 L 48.979,105.672 L 49.024,105.506 L 49.057,105.290 L 49.079,105.024 L 49.074,104.774 L 49.040,104.541 Z" fill="#000000" fill-rule="evenodd" stroke="none"/>
<path d="M 45.553,85.863 L 45.487,86.129 L 45.437,86.418 L 45.403,86.728 L 45.387,87.061 L 45.387,87.416 L 45.403,87.721 L 45.437,87.976 L 45.487,88.181 L 45.553,88.336 L 45.636,88.486 L 45.736,88.630 L 45.853,88.768 L 45.986,88.901 L 46.124,89.068 L 46.268,89.267 L 46.418,89.500 L 46.573,89.766 L 46.784,90.055 L 47.050,90.365 L 47.372,90.698 L 47.749,91.053 L 48.065,91.330 L 48.320,91.529 L 48.514,91.651 L 48.647,91.696 L 48.802,91.784 L 48.979,91.917 L 49.179,92.095 L 49.401,92.317 L 49.650,92.489 L 49.927,92.610 L 50.232,92.683 L 50.565,92.705 L 50.859,92.744 L 51.114,92.799 L 51.330,92.871 L 51.507,92.960 L 51.729,93.048 L 51.995,93.137 L 52.306,93.226 L 52.661,93.315 L 52.999,93.381 L 53.320,93.425 L 53.625,93.448 L 53.914,93.448 L 54.224,93.409 L 54.557,93.331 L 54.912,93.215 L 55.289,93.060 L 55.666,92.938 L 56.043,92.849 L 56.420,92.793 L 56.797,92.771 L 57.101,92.744 L 57.334,92.710 L 57.495,92.671 L 57.584,92.627 L 57.689,92.550 L 57.811,92.439 L 57.950,92.294 L 58.105,92.117 L 58.288,91.951 L 58.499,91.796 L 58.737,91.651 L 59.003,91.518 L 59.275,91.346 L 59.552,91.136 L 59.835,90.886 L 60.123,90.598 L 60.372,90.315 L 60.583,90.038 L 60.755,89.766 L 60.888,89.500 L 61.016,89.278 L 61.138,89.101 L 61.254,88.968 L 61.365,88.879 L 61.476,88.730 L 61.587,88.519 L 61.698,88.247 L 61.808,87.915 L 61.875,87.549 L 61.897,87.150 L 61.875,86.717 L 61.808,86.251 L 61.720,85.869 L 61.609,85.569 L 61.476,85.353 L 61.321,85.220 L 61.176,85.071 L 61.043,84.904 L 60.921,84.721 L 60.810,84.522 L 60.605,84.261 L 60.306,83.940 L 59.912,83.557 L 59.424,83.113 L 59.003,82.759 L 58.648,82.493 L 58.360,82.315 L 58.138,82.226 L 57.905,82.116 L 57.661,81.982 L 57.406,81.827 L 57.140,81.650 L 56.708,81.500 L 56.109,81.378 L 55.344,81.284 L 54.413,81.217 L 53.559,81.184 L 52.783,81.184 L 52.084,81.217 L 51.463,81.284 L 50.942,81.378 L 50.521,81.500 L 50.199,81.650 L 49.977,81.827 L 49.744,81.982 L 49.501,82.116 L 49.245,82.226 L 48.979,82.315 L 48.741,82.426 L 48.530,82.559 L 48.347,82.714 L 48.192,82.892 L 48.059,83.030 L 47.948,83.130 L 47.859,83.191 L 47.793,83.213 L 47.671,83.296 L 47.494,83.441 L 47.261,83.646 L 46.972,83.912 L 46.740,84.150 L 46.562,84.361 L 46.440,84.544 L 46.374,84.699 L 46.285,84.849 L 46.174,84.993 L 46.041,85.132 L 45.886,85.265 L 45.753,85.431 L 45.642,85.630 Z" fill="#000000" fill-rule="evenodd" stroke="none"/>
<path d="M 15.560,87.205 L 15.604,87.360 L 15.670,87.515 L 15.759,87.671 L 15.870,87.826 L 16.003,87.981 L 16.125,88.164 L 16.236,88.375 L 16.336,88.613 L 16.424,88.879 L 16.524,89.112 L 16.635,89.312 L 16.757,89.478 L 16.890,89.611 L 16.995,89.733 L 17.073,89.844 L 17.123,89.944 L 17.145,90.032 L 17.228,90.160 L 17.372,90.326 L 17.578,90.531 L 17.844,90.775 L 18.060,90.986 L 18.226,91.163 L 18.343,91.308 L 18.409,91.419 L 18.531,91.529 L 18.709,91.640 L 18.941,91.751 L 19.230,91.862 L 19.479,91.978 L 19.690,92.100 L 19.862,92.228 L 19.995,92.361 L 20.194,92.477 L 20.461,92.577 L 20.793,92.660 L 21.192,92.727 L 21.586,92.816 L 21.974,92.927 L 22.357,93.060 L 22.734,93.215 L 23.105,93.331 L 23.471,93.409 L 23.831,93.448 L 24.186,93.448 L 24.497,93.437 L 24.763,93.414 L 24.985,93.381 L 25.162,93.337 L 25.356,93.270 L 25.567,93.182 L 25.794,93.071 L 26.038,92.938 L 26.265,92.838 L 26.476,92.771 L 26.670,92.738 L 26.847,92.738 L 27.047,92.721 L 27.269,92.688 L 27.513,92.638 L 27.779,92.572 L 28.100,92.422 L 28.477,92.189 L 28.910,91.873 L 29.398,91.474 L 29.847,91.091 L 30.257,90.726 L 30.628,90.376 L 30.961,90.044 L 31.238,89.722 L 31.460,89.412 L 31.626,89.112 L 31.737,88.824 L 31.854,88.569 L 31.976,88.347 L 32.103,88.159 L 32.236,88.003 L 32.347,87.848 L 32.436,87.693 L 32.502,87.538 L 32.547,87.382 L 32.574,87.222 L 32.585,87.055 L 32.580,86.883 L 32.558,86.706 L 32.508,86.534 L 32.430,86.368 L 32.325,86.207 L 32.192,86.052 L 32.064,85.858 L 31.942,85.625 L 31.826,85.353 L 31.715,85.043 L 31.571,84.755 L 31.394,84.488 L 31.183,84.244 L 30.939,84.023 L 30.745,83.834 L 30.601,83.679 L 30.506,83.557 L 30.462,83.468 L 30.401,83.391 L 30.323,83.324 L 30.229,83.269 L 30.118,83.224 L 29.985,83.147 L 29.830,83.036 L 29.653,82.892 L 29.453,82.714 L 29.242,82.559 L 29.021,82.426 L 28.788,82.315 L 28.544,82.226 L 28.305,82.121 L 28.073,81.999 L 27.845,81.860 L 27.624,81.705 L 27.418,81.578 L 27.230,81.478 L 27.058,81.406 L 26.903,81.362 L 26.554,81.317 L 26.010,81.273 L 25.273,81.228 L 24.341,81.184 L 23.521,81.167 L 22.811,81.179 L 22.212,81.217 L 21.725,81.284 L 21.331,81.345 L 21.032,81.400 L 20.826,81.450 L 20.716,81.495 L 20.588,81.567 L 20.444,81.666 L 20.283,81.794 L 20.106,81.949 L 19.901,82.093 L 19.668,82.226 L 19.407,82.348 L 19.119,82.459 L 18.842,82.614 L 18.576,82.814 L 18.321,83.058 L 18.077,83.346 L 17.866,83.579 L 17.688,83.757 L 17.544,83.879 L 17.433,83.945 L 17.328,84.039 L 17.228,84.161 L 17.134,84.311 L 17.045,84.488 L 16.946,84.655 L 16.835,84.810 L 16.713,84.954 L 16.580,85.087 L 16.469,85.226 L 16.380,85.370 L 16.314,85.520 L 16.269,85.675 L 16.192,85.858 L 16.081,86.068 L 15.937,86.307 L 15.759,86.573 L 15.637,86.811 L 15.571,87.022 Z" fill="#000000" fill-rule="evenodd" stroke="none"/>
<path d="M 115.367,94.981 L 115.290,94.943 L 115.185,94.919 L 115.052,94.909 L 114.890,94.914 L 114.699,94.933 L 114.541,94.962 L 114.417,95.000 L 114.327,95.048 L 114.269,95.105 L 114.231,95.177 L 114.212,95.262 L 114.212,95.363 L 114.231,95.477 L 114.274,95.625 L 114.341,95.806 L 114.431,96.021 L 114.546,96.269 L 114.632,96.551 L 114.689,96.866 L 114.718,97.214 L 114.718,97.596 L 114.708,97.911 L 114.689,98.159 L 114.661,98.340 L 114.622,98.455 L 114.513,98.598 L 114.331,98.770 L 114.078,98.970 L 113.754,99.199 L 113.458,99.371 L 113.191,99.485 L 112.952,99.543 L 112.742,99.543 L 112.509,99.490 L 112.251,99.385 L 111.969,99.228 L 111.664,99.018 L 111.430,98.793 L 111.268,98.555 L 111.177,98.302 L 111.158,98.035 L 111.125,97.796 L 111.077,97.586 L 111.015,97.405 L 110.939,97.252 L 110.829,97.128 L 110.686,97.033 L 110.509,96.966 L 110.299,96.928 L 110.128,96.913 L 109.994,96.923 L 109.898,96.956 L 109.841,97.014 L 109.798,97.185 L 109.770,97.472 L 109.755,97.872 L 109.755,98.388 L 109.760,98.789 L 109.770,99.075 L 109.784,99.247 L 109.803,99.304 L 109.851,99.371 L 109.927,99.447 L 110.032,99.533 L 110.166,99.628 L 110.285,99.733 L 110.390,99.848 L 110.481,99.972 L 110.557,100.106 L 110.695,100.249 L 110.896,100.401 L 111.158,100.564 L 111.483,100.735 L 111.807,100.869 L 112.132,100.964 L 112.456,101.022 L 112.781,101.041 L 113.148,100.993 L 113.558,100.879 L 114.012,100.697 L 114.508,100.449 L 114.894,100.230 L 115.171,100.039 L 115.338,99.877 L 115.395,99.743 L 115.476,99.595 L 115.581,99.433 L 115.710,99.256 L 115.863,99.065 L 115.982,98.903 L 116.068,98.770 L 116.121,98.665 L 116.140,98.588 L 116.149,98.374 L 116.149,98.020 L 116.140,97.529 L 116.121,96.899 L 116.087,96.389 L 116.040,95.997 L 115.977,95.725 L 115.901,95.573 L 115.825,95.439 L 115.748,95.324 L 115.672,95.229 L 115.596,95.153 L 115.519,95.086 L 115.443,95.029 Z" fill="#000000" fill-rule="evenodd" stroke="none"/>
<path d="M 124.213,91.202 L 124.385,91.393 L 124.533,91.593 L 124.657,91.803 L 124.757,92.023 L 124.834,92.252 L 124.953,92.481 L 125.115,92.710 L 125.320,92.939 L 125.568,93.168 L 125.783,93.359 L 125.964,93.511 L 126.112,93.626 L 126.227,93.702 L 126.337,93.764 L 126.442,93.812 L 126.542,93.845 L 126.637,93.864 L 126.752,93.922 L 126.885,94.017 L 127.038,94.151 L 127.210,94.322 L 127.405,94.451 L 127.625,94.537 L 127.868,94.580 L 128.135,94.580 L 128.374,94.590 L 128.584,94.609 L 128.765,94.637 L 128.918,94.676 L 129.223,94.695 L 129.681,94.695 L 130.292,94.676 L 131.056,94.637 L 131.681,94.566 L 132.167,94.461 L 132.516,94.322 L 132.726,94.151 L 132.912,94.012 L 133.074,93.907 L 133.212,93.836 L 133.327,93.798 L 133.484,93.697 L 133.685,93.535 L 133.928,93.311 L 134.215,93.025 L 134.434,92.796 L 134.587,92.624 L 134.673,92.509 L 134.692,92.452 L 134.739,92.385 L 134.816,92.309 L 134.921,92.223 L 135.054,92.128 L 135.169,91.984 L 135.264,91.793 L 135.341,91.555 L 135.398,91.269 L 135.479,91.011 L 135.584,90.782 L 135.713,90.582 L 135.865,90.410 L 135.980,90.224 L 136.056,90.023 L 136.095,89.809 L 136.095,89.579 L 136.080,89.393 L 136.052,89.250 L 136.009,89.150 L 135.951,89.093 L 135.197,89.045 L 133.747,89.007 L 131.600,88.978 L 128.756,88.959 L 126.609,88.950 L 125.158,88.950 L 124.404,88.959 L 124.347,88.978 L 124.285,89.021 L 124.218,89.088 L 124.146,89.179 L 124.070,89.293 L 124.013,89.470 L 123.975,89.708 L 123.956,90.009 L 123.956,90.372 L 123.999,90.691 L 124.084,90.968 Z" fill="#000000" fill-rule="evenodd" stroke="none"/>
<path d="M 94.868,91.097 L 95.021,91.269 L 95.164,91.464 L 95.297,91.684 L 95.421,91.927 L 95.536,92.194 L 95.770,92.514 L 96.123,92.886 L 96.595,93.311 L 97.187,93.788 L 97.745,94.155 L 98.270,94.413 L 98.762,94.561 L 99.220,94.599 L 99.592,94.637 L 99.878,94.676 L 100.079,94.714 L 100.193,94.752 L 100.365,94.766 L 100.594,94.757 L 100.880,94.723 L 101.224,94.666 L 101.558,94.623 L 101.882,94.594 L 102.197,94.580 L 102.502,94.580 L 102.841,94.499 L 103.213,94.337 L 103.619,94.093 L 104.058,93.769 L 104.430,93.468 L 104.736,93.192 L 104.974,92.939 L 105.146,92.710 L 105.313,92.509 L 105.475,92.337 L 105.633,92.194 L 105.785,92.080 L 105.909,91.937 L 106.005,91.765 L 106.072,91.564 L 106.110,91.335 L 106.177,91.106 L 106.272,90.877 L 106.396,90.648 L 106.549,90.419 L 106.668,90.195 L 106.754,89.976 L 106.806,89.761 L 106.826,89.551 L 106.821,89.374 L 106.792,89.231 L 106.740,89.121 L 106.663,89.045 L 105.886,88.988 L 104.406,88.950 L 102.226,88.931 L 99.344,88.931 L 97.158,88.950 L 95.670,88.988 L 94.877,89.045 L 94.782,89.121 L 94.710,89.279 L 94.663,89.517 L 94.639,89.837 L 94.639,90.238 L 94.677,90.582 L 94.753,90.868 Z" fill="#000000" fill-rule="evenodd" stroke="none"/>
<path d="M 183.566,102.757 L 183.514,102.689 L 183.446,102.633 L 183.360,102.590 L 183.257,102.560 L 183.137,102.543 L 183.008,102.556 L 182.871,102.599 L 182.725,102.671 L 182.570,102.774 L 182.403,102.907 L 182.223,103.071 L 182.030,103.264 L 181.824,103.487 L 181.635,103.663 L 181.463,103.791 L 181.309,103.873 L 181.172,103.907 L 181.009,103.933 L 180.820,103.950 L 180.605,103.959 L 180.365,103.959 L 180.142,103.916 L 179.936,103.830 L 179.747,103.701 L 179.576,103.530 L 179.395,103.367 L 179.207,103.212 L 179.009,103.066 L 178.803,102.929 L 178.636,102.826 L 178.507,102.757 L 178.417,102.723 L 178.366,102.723 L 178.288,102.749 L 178.185,102.800 L 178.057,102.877 L 177.902,102.980 L 177.778,103.079 L 177.683,103.173 L 177.619,103.264 L 177.585,103.349 L 177.602,103.452 L 177.671,103.573 L 177.791,103.710 L 177.962,103.864 L 178.108,104.006 L 178.228,104.135 L 178.323,104.250 L 178.391,104.353 L 178.464,104.435 L 178.542,104.495 L 178.623,104.534 L 178.709,104.551 L 178.825,104.602 L 178.971,104.688 L 179.146,104.808 L 179.352,104.963 L 179.627,105.083 L 179.970,105.169 L 180.382,105.220 L 180.863,105.237 L 181.322,105.181 L 181.759,105.053 L 182.176,104.851 L 182.570,104.576 L 182.896,104.315 L 183.154,104.066 L 183.343,103.830 L 183.463,103.607 L 183.553,103.414 L 183.613,103.251 L 183.643,103.118 L 183.643,103.015 L 183.630,102.920 L 183.604,102.835 Z" fill="#000000" fill-rule="evenodd" stroke="none"/>
<path d="M 191.503,85.132 L 191.435,85.166 L 191.366,85.209 L 191.297,85.260 L 191.229,85.321 L 191.160,85.389 L 191.104,85.458 L 191.061,85.526 L 191.031,85.595 L 191.014,85.664 L 190.971,85.741 L 190.903,85.827 L 190.808,85.921 L 190.688,86.024 L 190.581,86.144 L 190.486,86.282 L 190.405,86.436 L 190.336,86.608 L 190.246,86.788 L 190.135,86.977 L 190.002,87.174 L 189.847,87.380 L 189.723,87.582 L 189.628,87.779 L 189.564,87.972 L 189.530,88.161 L 189.465,88.371 L 189.371,88.603 L 189.246,88.856 L 189.092,89.131 L 188.976,89.572 L 188.899,90.182 L 188.860,90.958 L 188.860,91.902 L 188.899,92.675 L 188.976,93.275 L 189.092,93.704 L 189.246,93.962 L 189.367,94.206 L 189.452,94.438 L 189.504,94.657 L 189.521,94.863 L 189.581,95.060 L 189.684,95.249 L 189.830,95.429 L 190.019,95.601 L 190.169,95.751 L 190.280,95.880 L 190.353,95.987 L 190.388,96.073 L 190.516,96.231 L 190.740,96.463 L 191.057,96.768 L 191.469,97.145 L 191.829,97.428 L 192.138,97.617 L 192.396,97.712 L 192.602,97.712 L 192.808,97.729 L 193.014,97.763 L 193.219,97.815 L 193.425,97.883 L 193.640,97.935 L 193.863,97.969 L 194.095,97.986 L 194.335,97.986 L 194.571,97.969 L 194.803,97.935 L 195.030,97.883 L 195.253,97.815 L 195.472,97.759 L 195.687,97.716 L 195.897,97.686 L 196.103,97.669 L 196.300,97.622 L 196.489,97.544 L 196.669,97.437 L 196.841,97.300 L 196.991,97.188 L 197.120,97.102 L 197.227,97.042 L 197.313,97.008 L 197.394,96.956 L 197.471,96.888 L 197.544,96.802 L 197.613,96.699 L 197.695,96.600 L 197.789,96.506 L 197.896,96.416 L 198.016,96.330 L 198.119,96.240 L 198.205,96.146 L 198.274,96.047 L 198.325,95.944 L 198.364,95.828 L 198.390,95.699 L 198.402,95.558 L 198.402,95.403 L 198.441,95.202 L 198.518,94.953 L 198.634,94.657 L 198.789,94.314 L 198.913,93.996 L 199.007,93.704 L 199.072,93.438 L 199.106,93.198 L 199.128,92.868 L 199.136,92.447 L 199.132,91.937 L 199.115,91.336 L 199.093,90.855 L 199.067,90.495 L 199.037,90.255 L 199.003,90.135 L 198.947,89.993 L 198.870,89.830 L 198.771,89.645 L 198.651,89.439 L 198.548,89.225 L 198.463,89.002 L 198.394,88.770 L 198.342,88.530 L 198.269,88.307 L 198.175,88.101 L 198.059,87.912 L 197.922,87.740 L 197.802,87.569 L 197.699,87.397 L 197.613,87.226 L 197.544,87.054 L 197.381,86.839 L 197.124,86.582 L 196.772,86.282 L 196.326,85.938 L 195.957,85.664 L 195.665,85.458 L 195.451,85.321 L 195.313,85.252 L 195.150,85.196 L 194.961,85.153 L 194.747,85.123 L 194.507,85.106 L 194.309,85.085 L 194.155,85.059 L 194.043,85.029 L 193.975,84.994 L 193.782,84.977 L 193.464,84.977 L 193.022,84.994 L 192.456,85.029 L 192.014,85.063 L 191.696,85.097 Z" fill="#000000" fill-rule="evenodd" stroke="none"/>
<path d="M 167.287,85.321 L 167.184,85.389 L 167.090,85.479 L 167.004,85.591 L 166.927,85.724 L 166.858,85.878 L 166.781,86.020 L 166.695,86.149 L 166.601,86.264 L 166.498,86.367 L 166.408,86.475 L 166.331,86.586 L 166.266,86.702 L 166.215,86.822 L 166.142,86.947 L 166.047,87.075 L 165.932,87.208 L 165.794,87.346 L 165.678,87.513 L 165.584,87.710 L 165.511,87.938 L 165.460,88.195 L 165.382,88.461 L 165.279,88.736 L 165.151,89.019 L 164.996,89.311 L 164.880,89.744 L 164.803,90.319 L 164.765,91.036 L 164.765,91.894 L 164.803,92.606 L 164.880,93.172 L 164.996,93.593 L 165.151,93.867 L 165.271,94.125 L 165.357,94.365 L 165.408,94.588 L 165.425,94.794 L 165.485,94.991 L 165.588,95.180 L 165.734,95.360 L 165.923,95.532 L 166.069,95.678 L 166.172,95.798 L 166.232,95.892 L 166.249,95.961 L 166.369,96.116 L 166.592,96.356 L 166.918,96.682 L 167.347,97.094 L 167.721,97.403 L 168.038,97.609 L 168.300,97.712 L 168.506,97.712 L 168.716,97.729 L 168.931,97.763 L 169.150,97.815 L 169.373,97.883 L 169.596,97.935 L 169.819,97.969 L 170.042,97.986 L 170.265,97.986 L 170.492,97.969 L 170.724,97.935 L 170.960,97.883 L 171.200,97.815 L 171.432,97.759 L 171.655,97.716 L 171.870,97.686 L 172.076,97.669 L 172.247,97.647 L 172.385,97.622 L 172.488,97.591 L 172.556,97.557 L 172.629,97.506 L 172.706,97.437 L 172.788,97.351 L 172.874,97.248 L 172.960,97.162 L 173.045,97.094 L 173.131,97.042 L 173.217,97.008 L 173.329,96.935 L 173.466,96.823 L 173.629,96.673 L 173.818,96.485 L 173.972,96.313 L 174.092,96.158 L 174.178,96.021 L 174.230,95.901 L 174.277,95.755 L 174.320,95.584 L 174.358,95.386 L 174.393,95.163 L 174.440,94.970 L 174.500,94.807 L 174.573,94.674 L 174.659,94.571 L 174.736,94.464 L 174.804,94.352 L 174.865,94.236 L 174.916,94.116 L 174.959,93.876 L 174.993,93.515 L 175.019,93.035 L 175.036,92.434 L 175.040,91.876 L 175.032,91.362 L 175.010,90.890 L 174.976,90.461 L 174.920,90.096 L 174.843,89.796 L 174.744,89.560 L 174.624,89.388 L 174.521,89.208 L 174.435,89.019 L 174.367,88.822 L 174.315,88.616 L 174.255,88.418 L 174.187,88.230 L 174.109,88.049 L 174.024,87.878 L 173.942,87.732 L 173.865,87.612 L 173.792,87.517 L 173.723,87.449 L 173.659,87.363 L 173.599,87.260 L 173.543,87.140 L 173.492,87.002 L 173.397,86.852 L 173.260,86.689 L 173.080,86.513 L 172.857,86.325 L 172.651,86.166 L 172.462,86.037 L 172.290,85.938 L 172.136,85.870 L 171.994,85.792 L 171.865,85.707 L 171.750,85.612 L 171.647,85.509 L 171.544,85.419 L 171.441,85.342 L 171.338,85.278 L 171.235,85.226 L 171.093,85.183 L 170.913,85.149 L 170.694,85.123 L 170.437,85.106 L 170.218,85.085 L 170.038,85.059 L 169.896,85.029 L 169.793,84.994 L 169.660,84.969 L 169.497,84.952 L 169.304,84.943 L 169.081,84.943 L 168.832,84.960 L 168.557,84.994 L 168.257,85.046 L 167.931,85.115 L 167.661,85.183 L 167.446,85.252 Z" fill="#000000" fill-rule="evenodd" stroke="none"/>
<path d="M 19.640,24.869 L 19.468,25.041 L 19.301,25.186 L 19.140,25.305 L 18.984,25.396 L 18.834,25.460 L 18.635,25.590 L 18.387,25.783 L 18.092,26.041 L 17.747,26.364 L 17.468,26.649 L 17.253,26.896 L 17.102,27.106 L 17.016,27.278 L 16.914,27.439 L 16.795,27.590 L 16.661,27.730 L 16.510,27.859 L 16.392,27.999 L 16.306,28.149 L 16.252,28.311 L 16.231,28.483 L 16.166,28.676 L 16.059,28.891 L 15.908,29.128 L 15.715,29.386 L 15.548,29.746 L 15.408,30.209 L 15.295,30.774 L 15.209,31.440 L 15.145,32.032 L 15.102,32.548 L 15.080,32.989 L 15.080,33.355 L 15.096,33.774 L 15.128,34.248 L 15.177,34.775 L 15.241,35.355 L 15.311,35.839 L 15.387,36.227 L 15.467,36.517 L 15.553,36.711 L 15.623,36.910 L 15.677,37.114 L 15.715,37.324 L 15.736,37.539 L 15.779,37.722 L 15.844,37.872 L 15.930,37.991 L 16.037,38.077 L 16.177,38.222 L 16.349,38.426 L 16.553,38.690 L 16.790,39.012 L 17.059,39.324 L 17.360,39.625 L 17.694,39.916 L 18.059,40.195 L 18.387,40.464 L 18.678,40.722 L 18.930,40.970 L 19.146,41.206 L 19.366,41.400 L 19.592,41.551 L 19.823,41.658 L 20.060,41.723 L 20.291,41.814 L 20.517,41.932 L 20.737,42.078 L 20.952,42.250 L 21.168,42.400 L 21.383,42.529 L 21.598,42.637 L 21.813,42.723 L 22.179,42.798 L 22.695,42.863 L 23.362,42.916 L 24.179,42.959 L 24.841,42.976 L 25.346,42.965 L 25.696,42.927 L 25.889,42.863 L 26.147,42.798 L 26.470,42.734 L 26.857,42.669 L 27.309,42.605 L 27.707,42.519 L 28.051,42.411 L 28.341,42.282 L 28.578,42.131 L 28.831,42.008 L 29.100,41.911 L 29.385,41.841 L 29.686,41.798 L 30.041,41.642 L 30.449,41.373 L 30.912,40.991 L 31.428,40.497 L 31.858,40.056 L 32.203,39.668 L 32.461,39.335 L 32.633,39.055 L 32.789,38.819 L 32.929,38.625 L 33.052,38.474 L 33.160,38.367 L 33.246,38.265 L 33.310,38.168 L 33.353,38.077 L 33.375,37.991 L 33.450,37.835 L 33.579,37.609 L 33.762,37.313 L 33.999,36.947 L 34.171,36.549 L 34.278,36.119 L 34.321,35.657 L 34.300,35.162 L 34.295,34.737 L 34.305,34.382 L 34.332,34.097 L 34.375,33.882 L 34.407,33.602 L 34.429,33.258 L 34.440,32.849 L 34.440,32.376 L 34.418,31.892 L 34.375,31.397 L 34.311,30.892 L 34.225,30.376 L 34.128,29.956 L 34.020,29.634 L 33.902,29.408 L 33.773,29.279 L 33.655,29.133 L 33.547,28.972 L 33.450,28.795 L 33.364,28.601 L 33.246,28.386 L 33.095,28.149 L 32.912,27.891 L 32.697,27.612 L 32.509,27.348 L 32.348,27.101 L 32.213,26.869 L 32.106,26.654 L 31.907,26.380 L 31.616,26.047 L 31.235,25.654 L 30.761,25.202 L 30.342,24.874 L 29.976,24.670 L 29.664,24.589 L 29.406,24.632 L 29.180,24.638 L 28.987,24.605 L 28.825,24.536 L 28.696,24.428 L 28.524,24.310 L 28.309,24.181 L 28.051,24.041 L 27.750,23.890 L 27.486,23.772 L 27.260,23.686 L 27.072,23.632 L 26.922,23.611 L 26.534,23.594 L 25.911,23.584 L 25.050,23.578 L 23.953,23.578 L 23.023,23.632 L 22.259,23.740 L 21.662,23.901 L 21.232,24.116 L 20.866,24.288 L 20.565,24.417 L 20.329,24.503 L 20.157,24.546 L 19.984,24.622 L 19.812,24.729 Z" fill="none" stroke="#000000" stroke-width="0.5" stroke-linejoin="round"/>
<path d="M 51.444,23.073 L 51.422,23.137 L 51.439,23.186 L 51.492,23.218 L 51.584,23.234 L 51.713,23.234 L 51.810,23.256 L 51.874,23.299 L 51.906,23.363 L 51.906,23.449 L 51.837,23.519 L 51.697,23.573 L 51.487,23.611 L 51.207,23.632 L 50.933,23.686 L 50.664,23.772 L 50.401,23.890 L 50.143,24.041 L 49.858,24.181 L 49.546,24.310 L 49.207,24.428 L 48.841,24.536 L 48.540,24.648 L 48.303,24.767 L 48.131,24.890 L 48.024,25.019 L 47.916,25.127 L 47.809,25.213 L 47.701,25.278 L 47.594,25.321 L 47.400,25.450 L 47.120,25.665 L 46.755,25.966 L 46.303,26.353 L 45.937,26.697 L 45.658,26.998 L 45.464,27.257 L 45.356,27.472 L 45.249,27.655 L 45.141,27.805 L 45.034,27.923 L 44.926,28.009 L 44.819,28.144 L 44.711,28.327 L 44.604,28.558 L 44.496,28.838 L 44.394,29.069 L 44.297,29.252 L 44.206,29.386 L 44.120,29.472 L 44.028,29.623 L 43.931,29.838 L 43.829,30.118 L 43.722,30.462 L 43.641,31.010 L 43.587,31.763 L 43.560,32.720 L 43.560,33.882 L 43.609,34.839 L 43.705,35.592 L 43.851,36.141 L 44.044,36.485 L 44.195,36.807 L 44.302,37.109 L 44.367,37.388 L 44.388,37.646 L 44.415,37.867 L 44.448,38.050 L 44.485,38.195 L 44.528,38.302 L 44.593,38.399 L 44.679,38.485 L 44.786,38.561 L 44.915,38.625 L 45.039,38.700 L 45.157,38.786 L 45.270,38.883 L 45.378,38.991 L 45.469,39.109 L 45.545,39.238 L 45.604,39.378 L 45.647,39.529 L 45.706,39.674 L 45.781,39.814 L 45.873,39.948 L 45.980,40.077 L 46.125,40.201 L 46.308,40.319 L 46.529,40.432 L 46.787,40.540 L 47.034,40.669 L 47.271,40.819 L 47.497,40.991 L 47.712,41.185 L 47.943,41.357 L 48.190,41.508 L 48.454,41.637 L 48.734,41.744 L 48.981,41.857 L 49.196,41.975 L 49.379,42.099 L 49.530,42.228 L 49.755,42.357 L 50.057,42.486 L 50.433,42.615 L 50.885,42.744 L 51.385,42.847 L 51.933,42.922 L 52.530,42.970 L 53.176,42.992 L 53.746,42.997 L 54.240,42.986 L 54.660,42.959 L 55.004,42.916 L 55.354,42.852 L 55.709,42.766 L 56.069,42.658 L 56.434,42.529 L 56.752,42.400 L 57.021,42.271 L 57.241,42.142 L 57.413,42.013 L 57.601,41.889 L 57.806,41.771 L 58.026,41.658 L 58.263,41.551 L 58.478,41.427 L 58.672,41.287 L 58.844,41.131 L 58.994,40.959 L 59.172,40.808 L 59.376,40.679 L 59.607,40.572 L 59.865,40.486 L 60.167,40.298 L 60.511,40.007 L 60.898,39.615 L 61.328,39.120 L 61.694,38.641 L 61.995,38.179 L 62.232,37.732 L 62.404,37.302 L 62.549,36.824 L 62.667,36.297 L 62.759,35.721 L 62.823,35.097 L 62.872,34.506 L 62.904,33.946 L 62.920,33.419 L 62.920,32.925 L 62.904,32.403 L 62.872,31.855 L 62.823,31.279 L 62.759,30.677 L 62.694,30.193 L 62.630,29.827 L 62.565,29.580 L 62.501,29.451 L 62.420,29.322 L 62.323,29.193 L 62.210,29.064 L 62.081,28.934 L 61.963,28.773 L 61.855,28.580 L 61.758,28.354 L 61.672,28.096 L 61.581,27.880 L 61.484,27.708 L 61.382,27.579 L 61.274,27.493 L 61.167,27.370 L 61.059,27.208 L 60.952,27.009 L 60.844,26.773 L 60.731,26.568 L 60.613,26.396 L 60.489,26.256 L 60.360,26.149 L 60.188,26.047 L 59.973,25.950 L 59.715,25.858 L 59.414,25.772 L 59.161,25.659 L 58.957,25.520 L 58.801,25.353 L 58.693,25.159 L 58.575,25.019 L 58.446,24.933 L 58.306,24.901 L 58.155,24.923 L 57.989,24.907 L 57.806,24.853 L 57.607,24.761 L 57.392,24.632 L 57.214,24.514 L 57.074,24.406 L 56.972,24.310 L 56.908,24.224 L 56.779,24.127 L 56.585,24.019 L 56.327,23.901 L 56.004,23.772 L 55.617,23.675 L 55.165,23.611 L 54.649,23.578 L 54.068,23.578 L 53.627,23.562 L 53.326,23.530 L 53.165,23.481 L 53.143,23.417 L 53.154,23.363 L 53.197,23.320 L 53.272,23.288 L 53.380,23.266 L 53.455,23.234 L 53.498,23.191 L 53.509,23.137 L 53.488,23.073 L 53.348,23.024 L 53.090,22.992 L 52.713,22.976 L 52.218,22.976 L 51.842,22.992 L 51.584,23.024 Z" fill="none" stroke="#000000" stroke-width="0.5" stroke-linejoin="round"/>
<path d="M 124.776,23.709 L 124.688,23.815 L 124.574,23.911 L 124.433,23.999 L 124.266,24.078 L 124.073,24.149 L 123.862,24.241 L 123.634,24.355 L 123.388,24.491 L 123.125,24.649 L 122.883,24.820 L 122.664,25.005 L 122.466,25.202 L 122.291,25.413 L 122.097,25.619 L 121.887,25.821 L 121.658,26.019 L 121.412,26.212 L 121.210,26.383 L 121.052,26.533 L 120.938,26.660 L 120.868,26.765 L 120.793,26.906 L 120.714,27.081 L 120.631,27.292 L 120.543,27.538 L 120.442,27.766 L 120.328,27.977 L 120.201,28.170 L 120.060,28.346 L 119.933,28.583 L 119.819,28.882 L 119.718,29.242 L 119.630,29.663 L 119.560,30.098 L 119.507,30.546 L 119.472,31.007 L 119.454,31.481 L 119.472,32.030 L 119.524,32.653 L 119.612,33.351 L 119.735,34.124 L 119.871,34.743 L 120.021,35.208 L 120.183,35.520 L 120.359,35.678 L 120.508,35.858 L 120.631,36.060 L 120.727,36.284 L 120.798,36.530 L 120.916,36.767 L 121.083,36.995 L 121.298,37.215 L 121.562,37.426 L 121.794,37.641 L 121.996,37.860 L 122.168,38.084 L 122.308,38.313 L 122.435,38.501 L 122.550,38.651 L 122.651,38.760 L 122.738,38.831 L 122.870,38.910 L 123.046,38.998 L 123.265,39.094 L 123.529,39.200 L 123.753,39.305 L 123.937,39.410 L 124.082,39.516 L 124.187,39.621 L 124.288,39.700 L 124.385,39.753 L 124.477,39.779 L 124.565,39.779 L 124.679,39.805 L 124.820,39.858 L 124.986,39.937 L 125.180,40.043 L 125.373,40.135 L 125.566,40.214 L 125.759,40.280 L 125.952,40.332 L 126.286,40.372 L 126.760,40.398 L 127.375,40.411 L 128.130,40.411 L 128.833,40.389 L 129.482,40.345 L 130.079,40.280 L 130.624,40.192 L 131.076,40.100 L 131.436,40.003 L 131.704,39.902 L 131.880,39.797 L 132.038,39.713 L 132.178,39.652 L 132.301,39.612 L 132.406,39.595 L 132.516,39.555 L 132.630,39.494 L 132.749,39.410 L 132.872,39.305 L 132.982,39.200 L 133.078,39.094 L 133.162,38.989 L 133.232,38.883 L 133.307,38.796 L 133.386,38.725 L 133.469,38.673 L 133.557,38.638 L 133.653,38.585 L 133.759,38.515 L 133.873,38.427 L 133.996,38.321 L 134.110,38.207 L 134.215,38.084 L 134.312,37.953 L 134.400,37.812 L 134.523,37.654 L 134.681,37.478 L 134.874,37.285 L 135.102,37.074 L 135.278,36.899 L 135.401,36.758 L 135.471,36.653 L 135.489,36.583 L 135.555,36.451 L 135.669,36.258 L 135.831,36.003 L 136.042,35.687 L 136.200,35.424 L 136.305,35.213 L 136.358,35.055 L 136.358,34.949 L 136.393,34.747 L 136.463,34.449 L 136.569,34.054 L 136.709,33.562 L 136.815,33.057 L 136.885,32.539 L 136.920,32.008 L 136.920,31.463 L 136.902,30.963 L 136.867,30.506 L 136.815,30.093 L 136.744,29.725 L 136.657,29.382 L 136.551,29.066 L 136.428,28.776 L 136.288,28.513 L 136.143,28.271 L 135.994,28.052 L 135.840,27.854 L 135.682,27.679 L 135.555,27.512 L 135.458,27.354 L 135.392,27.204 L 135.357,27.064 L 135.287,26.915 L 135.181,26.757 L 135.041,26.590 L 134.865,26.414 L 134.698,26.225 L 134.540,26.023 L 134.391,25.808 L 134.251,25.580 L 134.057,25.347 L 133.811,25.110 L 133.513,24.869 L 133.162,24.623 L 132.876,24.438 L 132.657,24.315 L 132.503,24.254 L 132.415,24.254 L 132.319,24.241 L 132.213,24.214 L 132.099,24.175 L 131.976,24.122 L 131.849,24.048 L 131.717,23.951 L 131.581,23.832 L 131.441,23.692 L 131.278,23.573 L 131.094,23.477 L 130.887,23.402 L 130.659,23.349 L 130.211,23.314 L 129.544,23.297 L 128.657,23.297 L 127.550,23.314 L 126.659,23.341 L 125.983,23.376 L 125.522,23.420 L 125.276,23.472 L 125.070,23.538 L 124.903,23.617 Z" fill="none" stroke="#000000" stroke-width="0.5" stroke-linejoin="round"/>
<path d="M 94.454,23.657 L 94.384,23.727 L 94.270,23.806 L 94.112,23.894 L 93.910,23.990 L 93.664,24.096 L 93.462,24.192 L 93.304,24.280 L 93.190,24.359 L 93.119,24.430 L 93.032,24.500 L 92.926,24.570 L 92.803,24.640 L 92.663,24.711 L 92.505,24.812 L 92.329,24.943 L 92.136,25.106 L 91.925,25.299 L 91.745,25.453 L 91.596,25.567 L 91.477,25.641 L 91.389,25.676 L 91.297,25.756 L 91.201,25.878 L 91.100,26.045 L 90.994,26.256 L 90.876,26.440 L 90.744,26.599 L 90.599,26.730 L 90.441,26.836 L 90.301,26.950 L 90.178,27.073 L 90.072,27.204 L 89.984,27.345 L 89.897,27.538 L 89.809,27.784 L 89.721,28.083 L 89.633,28.434 L 89.550,28.728 L 89.471,28.965 L 89.396,29.145 L 89.326,29.268 L 89.264,29.457 L 89.212,29.711 L 89.168,30.032 L 89.133,30.418 L 89.106,30.831 L 89.089,31.270 L 89.080,31.736 L 89.080,32.227 L 89.102,32.745 L 89.146,33.290 L 89.212,33.861 L 89.300,34.458 L 89.396,34.963 L 89.501,35.375 L 89.616,35.696 L 89.739,35.924 L 89.892,36.152 L 90.077,36.381 L 90.292,36.609 L 90.538,36.837 L 90.788,37.096 L 91.043,37.386 L 91.302,37.707 L 91.565,38.058 L 91.815,38.339 L 92.052,38.550 L 92.276,38.690 L 92.487,38.760 L 92.685,38.853 L 92.869,38.967 L 93.040,39.103 L 93.198,39.261 L 93.339,39.384 L 93.462,39.472 L 93.567,39.524 L 93.655,39.542 L 93.809,39.603 L 94.028,39.709 L 94.314,39.858 L 94.665,40.051 L 94.955,40.205 L 95.183,40.319 L 95.350,40.394 L 95.455,40.429 L 95.587,40.446 L 95.745,40.446 L 95.929,40.429 L 96.140,40.394 L 96.483,40.367 L 96.957,40.350 L 97.563,40.341 L 98.300,40.341 L 98.915,40.328 L 99.407,40.302 L 99.776,40.262 L 100.021,40.209 L 100.258,40.144 L 100.487,40.064 L 100.706,39.972 L 100.917,39.867 L 101.101,39.788 L 101.260,39.735 L 101.391,39.709 L 101.497,39.709 L 101.681,39.630 L 101.944,39.472 L 102.287,39.235 L 102.708,38.919 L 103.095,38.602 L 103.446,38.286 L 103.762,37.970 L 104.043,37.654 L 104.298,37.347 L 104.526,37.048 L 104.728,36.758 L 104.904,36.477 L 105.066,36.240 L 105.215,36.047 L 105.352,35.898 L 105.475,35.792 L 105.584,35.683 L 105.681,35.569 L 105.764,35.450 L 105.835,35.327 L 105.905,35.090 L 105.975,34.739 L 106.045,34.273 L 106.116,33.694 L 106.164,33.026 L 106.190,32.271 L 106.195,31.428 L 106.177,30.497 L 106.124,29.755 L 106.037,29.202 L 105.914,28.838 L 105.756,28.662 L 105.619,28.482 L 105.505,28.298 L 105.413,28.109 L 105.343,27.916 L 105.251,27.705 L 105.136,27.477 L 105.000,27.231 L 104.842,26.967 L 104.684,26.743 L 104.526,26.559 L 104.368,26.414 L 104.210,26.309 L 104.056,26.177 L 103.907,26.019 L 103.762,25.835 L 103.622,25.624 L 103.472,25.426 L 103.314,25.242 L 103.147,25.071 L 102.972,24.913 L 102.770,24.754 L 102.542,24.596 L 102.287,24.438 L 102.006,24.280 L 101.778,24.162 L 101.602,24.083 L 101.479,24.043 L 101.409,24.043 L 101.308,24.008 L 101.176,23.938 L 101.014,23.832 L 100.820,23.692 L 100.614,23.573 L 100.395,23.477 L 100.162,23.402 L 99.916,23.349 L 99.521,23.310 L 98.976,23.284 L 98.283,23.270 L 97.440,23.270 L 96.706,23.288 L 96.083,23.323 L 95.569,23.376 L 95.165,23.446 L 94.845,23.516 L 94.608,23.587 Z" fill="none" stroke="#000000" stroke-width="0.5" stroke-linejoin="round"/>
<path d="M 189.777,24.158 L 189.664,24.207 L 189.555,24.267 L 189.450,24.340 L 189.349,24.425 L 189.252,24.522 L 189.111,24.606 L 188.925,24.679 L 188.695,24.740 L 188.421,24.788 L 188.194,24.849 L 188.017,24.921 L 187.888,25.006 L 187.807,25.103 L 187.746,25.208 L 187.706,25.321 L 187.686,25.442 L 187.686,25.571 L 187.649,25.676 L 187.577,25.757 L 187.468,25.814 L 187.322,25.846 L 187.189,25.890 L 187.068,25.947 L 186.959,26.015 L 186.862,26.096 L 186.753,26.205 L 186.632,26.342 L 186.499,26.508 L 186.353,26.702 L 186.224,26.892 L 186.111,27.077 L 186.014,27.259 L 185.934,27.437 L 185.845,27.610 L 185.748,27.780 L 185.643,27.945 L 185.530,28.107 L 185.425,28.284 L 185.328,28.478 L 185.239,28.688 L 185.158,28.914 L 185.066,29.132 L 184.961,29.342 L 184.844,29.544 L 184.714,29.738 L 184.613,30.041 L 184.541,30.452 L 184.496,30.973 L 184.480,31.603 L 184.480,32.156 L 184.496,32.633 L 184.529,33.032 L 184.577,33.355 L 184.642,33.650 L 184.722,33.916 L 184.819,34.155 L 184.932,34.365 L 185.029,34.607 L 185.110,34.881 L 185.175,35.188 L 185.223,35.527 L 185.308,35.830 L 185.429,36.097 L 185.586,36.327 L 185.780,36.521 L 185.930,36.682 L 186.035,36.811 L 186.095,36.908 L 186.111,36.973 L 186.224,37.122 L 186.434,37.356 L 186.741,37.675 L 187.145,38.079 L 187.484,38.402 L 187.758,38.644 L 187.968,38.806 L 188.114,38.886 L 188.271,38.959 L 188.441,39.024 L 188.622,39.080 L 188.816,39.129 L 188.994,39.189 L 189.155,39.262 L 189.301,39.347 L 189.430,39.444 L 189.567,39.524 L 189.712,39.589 L 189.866,39.637 L 190.027,39.670 L 190.298,39.698 L 190.677,39.722 L 191.166,39.742 L 191.763,39.758 L 192.317,39.754 L 192.825,39.730 L 193.290,39.686 L 193.709,39.621 L 194.121,39.524 L 194.525,39.395 L 194.921,39.234 L 195.308,39.040 L 195.668,38.822 L 195.999,38.580 L 196.301,38.313 L 196.576,38.022 L 196.842,37.764 L 197.101,37.538 L 197.351,37.344 L 197.593,37.183 L 197.779,37.021 L 197.908,36.860 L 197.981,36.698 L 197.997,36.537 L 198.041,36.395 L 198.114,36.274 L 198.215,36.173 L 198.344,36.093 L 198.453,36.000 L 198.542,35.895 L 198.611,35.778 L 198.659,35.648 L 198.708,35.471 L 198.756,35.245 L 198.804,34.970 L 198.853,34.647 L 198.918,34.365 L 198.998,34.122 L 199.095,33.921 L 199.208,33.759 L 199.293,33.440 L 199.350,32.964 L 199.378,32.330 L 199.378,31.538 L 199.370,30.925 L 199.354,30.489 L 199.329,30.230 L 199.297,30.150 L 199.257,30.073 L 199.208,30.000 L 199.152,29.932 L 199.087,29.867 L 199.010,29.706 L 198.922,29.447 L 198.821,29.092 L 198.708,28.640 L 198.603,28.280 L 198.506,28.014 L 198.417,27.840 L 198.336,27.760 L 198.255,27.659 L 198.175,27.538 L 198.094,27.396 L 198.013,27.235 L 197.941,27.110 L 197.876,27.021 L 197.819,26.968 L 197.771,26.952 L 197.706,26.904 L 197.626,26.823 L 197.529,26.710 L 197.416,26.565 L 197.315,26.447 L 197.226,26.359 L 197.149,26.298 L 197.085,26.266 L 196.996,26.197 L 196.883,26.092 L 196.745,25.951 L 196.584,25.773 L 196.443,25.632 L 196.322,25.527 L 196.221,25.458 L 196.140,25.426 L 196.051,25.370 L 195.954,25.289 L 195.849,25.184 L 195.736,25.055 L 195.611,24.950 L 195.474,24.869 L 195.324,24.812 L 195.163,24.780 L 195.001,24.728 L 194.840,24.655 L 194.678,24.562 L 194.517,24.449 L 194.355,24.348 L 194.194,24.259 L 194.032,24.183 L 193.871,24.118 L 193.520,24.074 L 192.979,24.049 L 192.248,24.045 L 191.327,24.061 L 190.609,24.086 L 190.092,24.118 Z" fill="none" stroke="#000000" stroke-width="0.5" stroke-linejoin="round"/>
<path d="M 168.081,24.118 L 167.887,24.183 L 167.697,24.259 L 167.511,24.348 L 167.330,24.449 L 167.152,24.562 L 166.978,24.655 L 166.809,24.728 L 166.643,24.780 L 166.482,24.812 L 166.341,24.865 L 166.219,24.938 L 166.119,25.030 L 166.038,25.143 L 165.977,25.248 L 165.937,25.345 L 165.917,25.434 L 165.917,25.515 L 165.909,25.583 L 165.892,25.640 L 165.868,25.684 L 165.836,25.717 L 165.771,25.749 L 165.674,25.781 L 165.545,25.814 L 165.384,25.846 L 165.222,25.910 L 165.061,26.007 L 164.899,26.137 L 164.738,26.298 L 164.609,26.439 L 164.512,26.561 L 164.447,26.661 L 164.415,26.742 L 164.334,26.879 L 164.205,27.073 L 164.027,27.324 L 163.801,27.630 L 163.615,27.925 L 163.470,28.208 L 163.365,28.478 L 163.300,28.737 L 163.220,28.987 L 163.123,29.229 L 163.010,29.463 L 162.881,29.689 L 162.776,29.899 L 162.695,30.093 L 162.638,30.271 L 162.606,30.432 L 162.586,30.679 L 162.578,31.010 L 162.582,31.425 L 162.598,31.926 L 162.646,32.435 L 162.727,32.952 L 162.840,33.476 L 162.986,34.009 L 163.099,34.462 L 163.179,34.833 L 163.228,35.124 L 163.244,35.334 L 163.268,35.523 L 163.300,35.693 L 163.341,35.842 L 163.389,35.971 L 163.450,36.084 L 163.523,36.181 L 163.607,36.262 L 163.704,36.327 L 163.797,36.407 L 163.886,36.504 L 163.971,36.617 L 164.051,36.747 L 164.164,36.888 L 164.310,37.041 L 164.487,37.207 L 164.697,37.385 L 164.923,37.590 L 165.166,37.825 L 165.424,38.087 L 165.699,38.378 L 165.945,38.620 L 166.163,38.814 L 166.353,38.959 L 166.514,39.056 L 166.740,39.161 L 167.031,39.274 L 167.386,39.395 L 167.806,39.524 L 168.278,39.625 L 168.803,39.698 L 169.381,39.742 L 170.010,39.758 L 170.556,39.762 L 171.016,39.754 L 171.391,39.734 L 171.682,39.702 L 171.936,39.653 L 172.154,39.589 L 172.336,39.508 L 172.481,39.411 L 172.639,39.322 L 172.808,39.242 L 172.990,39.169 L 173.184,39.104 L 173.349,39.036 L 173.487,38.963 L 173.596,38.886 L 173.676,38.806 L 173.789,38.717 L 173.935,38.620 L 174.112,38.515 L 174.322,38.402 L 174.532,38.253 L 174.742,38.067 L 174.952,37.845 L 175.162,37.586 L 175.368,37.368 L 175.570,37.191 L 175.768,37.053 L 175.961,36.957 L 176.111,36.860 L 176.216,36.763 L 176.276,36.666 L 176.293,36.569 L 176.325,36.472 L 176.373,36.375 L 176.438,36.278 L 176.519,36.181 L 176.595,36.052 L 176.668,35.891 L 176.737,35.697 L 176.801,35.471 L 176.874,35.261 L 176.955,35.067 L 177.043,34.889 L 177.140,34.728 L 177.229,34.538 L 177.310,34.320 L 177.383,34.074 L 177.447,33.799 L 177.500,33.460 L 177.540,33.057 L 177.568,32.588 L 177.584,32.055 L 177.588,31.571 L 177.580,31.135 L 177.560,30.747 L 177.528,30.408 L 177.492,30.121 L 177.451,29.887 L 177.407,29.706 L 177.358,29.576 L 177.294,29.443 L 177.213,29.306 L 177.116,29.165 L 177.003,29.019 L 176.910,28.858 L 176.838,28.680 L 176.785,28.486 L 176.753,28.276 L 176.696,28.095 L 176.615,27.941 L 176.511,27.816 L 176.381,27.719 L 176.272,27.614 L 176.183,27.501 L 176.115,27.380 L 176.066,27.251 L 175.982,27.093 L 175.861,26.908 L 175.703,26.694 L 175.509,26.451 L 175.307,26.233 L 175.097,26.040 L 174.879,25.870 L 174.653,25.725 L 174.447,25.571 L 174.262,25.410 L 174.096,25.240 L 173.951,25.063 L 173.781,24.921 L 173.588,24.816 L 173.370,24.748 L 173.127,24.715 L 172.929,24.671 L 172.776,24.615 L 172.667,24.546 L 172.602,24.465 L 172.522,24.388 L 172.425,24.316 L 172.312,24.247 L 172.183,24.183 L 171.860,24.130 L 171.343,24.090 L 170.632,24.061 L 169.728,24.045 L 169.001,24.049 L 168.452,24.074 Z" fill="none" stroke="#000000" stroke-width="0.5" stroke-linejoin="round"/>
<path d="M 50.266,81.040 L 50.088,81.106 L 49.933,81.190 L 49.800,81.289 L 49.689,81.406 L 49.600,81.539 L 49.467,81.661 L 49.290,81.772 L 49.068,81.872 L 48.802,81.960 L 48.469,82.143 L 48.070,82.420 L 47.604,82.792 L 47.072,83.258 L 46.656,83.646 L 46.357,83.956 L 46.174,84.189 L 46.108,84.344 L 46.002,84.527 L 45.858,84.738 L 45.675,84.976 L 45.453,85.242 L 45.270,85.564 L 45.126,85.941 L 45.021,86.373 L 44.954,86.861 L 44.877,87.255 L 44.788,87.554 L 44.688,87.759 L 44.577,87.870 L 44.483,87.981 L 44.405,88.092 L 44.345,88.203 L 44.300,88.314 L 44.267,88.452 L 44.245,88.619 L 44.234,88.813 L 44.234,89.035 L 44.245,89.234 L 44.267,89.412 L 44.300,89.567 L 44.345,89.700 L 44.378,89.927 L 44.400,90.249 L 44.411,90.665 L 44.411,91.175 L 44.428,91.596 L 44.461,91.929 L 44.511,92.173 L 44.577,92.328 L 44.627,92.477 L 44.661,92.622 L 44.677,92.760 L 44.677,92.893 L 44.688,93.032 L 44.710,93.176 L 44.744,93.326 L 44.788,93.481 L 44.888,93.669 L 45.043,93.891 L 45.254,94.146 L 45.520,94.435 L 45.742,94.712 L 45.919,94.978 L 46.052,95.233 L 46.141,95.477 L 46.241,95.699 L 46.351,95.898 L 46.473,96.076 L 46.606,96.231 L 46.734,96.358 L 46.856,96.458 L 46.972,96.530 L 47.083,96.575 L 47.205,96.647 L 47.338,96.746 L 47.482,96.874 L 47.638,97.029 L 47.810,97.168 L 47.998,97.290 L 48.203,97.395 L 48.425,97.484 L 48.658,97.611 L 48.902,97.778 L 49.157,97.983 L 49.423,98.227 L 49.683,98.415 L 49.939,98.548 L 50.188,98.626 L 50.432,98.648 L 50.731,98.715 L 51.086,98.825 L 51.496,98.981 L 51.962,99.180 L 52.456,99.335 L 52.977,99.446 L 53.526,99.513 L 54.102,99.535 L 54.607,99.502 L 55.039,99.413 L 55.399,99.269 L 55.688,99.069 L 55.987,98.909 L 56.298,98.787 L 56.619,98.703 L 56.952,98.659 L 57.257,98.581 L 57.534,98.471 L 57.783,98.326 L 58.005,98.149 L 58.244,97.983 L 58.499,97.827 L 58.770,97.683 L 59.059,97.550 L 59.297,97.417 L 59.485,97.284 L 59.624,97.151 L 59.713,97.018 L 59.846,96.857 L 60.023,96.669 L 60.245,96.453 L 60.511,96.209 L 60.722,95.998 L 60.877,95.821 L 60.977,95.676 L 61.021,95.565 L 61.093,95.455 L 61.193,95.344 L 61.321,95.233 L 61.476,95.122 L 61.620,94.961 L 61.753,94.751 L 61.875,94.490 L 61.986,94.179 L 62.075,93.886 L 62.141,93.608 L 62.185,93.348 L 62.208,93.104 L 62.257,92.860 L 62.335,92.616 L 62.440,92.372 L 62.573,92.128 L 62.684,91.735 L 62.773,91.191 L 62.840,90.498 L 62.884,89.655 L 62.890,88.979 L 62.856,88.469 L 62.784,88.125 L 62.673,87.948 L 62.579,87.726 L 62.501,87.460 L 62.440,87.150 L 62.396,86.795 L 62.324,86.445 L 62.224,86.102 L 62.097,85.764 L 61.941,85.431 L 61.819,85.143 L 61.731,84.899 L 61.675,84.699 L 61.653,84.544 L 61.614,84.422 L 61.559,84.333 L 61.487,84.278 L 61.398,84.256 L 61.221,84.134 L 60.955,83.912 L 60.600,83.590 L 60.156,83.169 L 59.735,82.803 L 59.336,82.493 L 58.959,82.237 L 58.604,82.038 L 58.305,81.855 L 58.061,81.689 L 57.872,81.539 L 57.739,81.406 L 57.567,81.289 L 57.357,81.190 L 57.107,81.106 L 56.819,81.040 L 56.553,80.990 L 56.309,80.957 L 56.087,80.940 L 55.887,80.940 L 55.677,80.912 L 55.455,80.857 L 55.222,80.774 L 54.978,80.663 L 54.712,80.580 L 54.424,80.524 L 54.113,80.497 L 53.781,80.497 L 53.437,80.524 L 53.082,80.580 L 52.716,80.663 L 52.339,80.774 L 51.979,80.857 L 51.635,80.912 L 51.308,80.940 L 50.997,80.940 L 50.720,80.957 L 50.476,80.990 Z" fill="none" stroke="#000000" stroke-width="0.5" stroke-linejoin="round"/>
<path d="M 23.166,80.574 L 22.900,80.685 L 22.556,80.790 L 22.135,80.890 L 21.636,80.985 L 21.059,81.073 L 20.594,81.179 L 20.239,81.301 L 19.995,81.439 L 19.862,81.594 L 19.657,81.761 L 19.379,81.938 L 19.030,82.127 L 18.609,82.326 L 18.260,82.515 L 17.982,82.692 L 17.777,82.858 L 17.644,83.014 L 17.522,83.141 L 17.411,83.241 L 17.311,83.313 L 17.223,83.357 L 17.123,83.435 L 17.012,83.546 L 16.890,83.690 L 16.757,83.867 L 16.607,84.111 L 16.441,84.422 L 16.258,84.799 L 16.059,85.242 L 15.876,85.603 L 15.709,85.880 L 15.560,86.074 L 15.427,86.185 L 15.316,86.296 L 15.227,86.407 L 15.160,86.518 L 15.116,86.628 L 15.083,87.055 L 15.061,87.798 L 15.050,88.857 L 15.050,90.232 L 15.066,91.319 L 15.099,92.117 L 15.149,92.627 L 15.216,92.849 L 15.316,93.087 L 15.449,93.342 L 15.615,93.614 L 15.815,93.902 L 15.981,94.196 L 16.114,94.495 L 16.214,94.800 L 16.280,95.111 L 16.458,95.455 L 16.746,95.832 L 17.145,96.242 L 17.655,96.685 L 18.149,97.090 L 18.625,97.456 L 19.086,97.783 L 19.529,98.071 L 19.956,98.304 L 20.366,98.482 L 20.760,98.604 L 21.137,98.670 L 21.486,98.764 L 21.808,98.886 L 22.102,99.036 L 22.368,99.214 L 22.662,99.352 L 22.983,99.452 L 23.332,99.513 L 23.709,99.535 L 24.020,99.546 L 24.264,99.546 L 24.441,99.535 L 24.552,99.513 L 24.718,99.452 L 24.940,99.352 L 25.217,99.214 L 25.550,99.036 L 25.888,98.897 L 26.232,98.798 L 26.581,98.737 L 26.936,98.715 L 27.324,98.631 L 27.745,98.487 L 28.200,98.282 L 28.688,98.016 L 29.148,97.744 L 29.581,97.467 L 29.985,97.184 L 30.362,96.896 L 30.667,96.636 L 30.900,96.403 L 31.061,96.198 L 31.150,96.020 L 31.283,95.809 L 31.460,95.565 L 31.682,95.288 L 31.948,94.978 L 32.170,94.690 L 32.347,94.423 L 32.480,94.179 L 32.569,93.958 L 32.646,93.725 L 32.713,93.481 L 32.768,93.226 L 32.813,92.960 L 32.879,92.694 L 32.968,92.428 L 33.079,92.161 L 33.212,91.895 L 33.328,91.441 L 33.428,90.798 L 33.511,89.966 L 33.578,88.946 L 33.611,88.181 L 33.611,87.671 L 33.578,87.416 L 33.511,87.416 L 33.450,87.432 L 33.395,87.466 L 33.345,87.515 L 33.301,87.582 L 33.251,87.626 L 33.195,87.649 L 33.134,87.649 L 33.068,87.626 L 33.018,87.549 L 32.985,87.416 L 32.968,87.227 L 32.968,86.983 L 32.946,86.739 L 32.901,86.495 L 32.835,86.251 L 32.746,86.007 L 32.646,85.797 L 32.536,85.619 L 32.414,85.475 L 32.281,85.364 L 32.164,85.231 L 32.064,85.076 L 31.981,84.899 L 31.915,84.699 L 31.770,84.450 L 31.549,84.150 L 31.249,83.801 L 30.872,83.402 L 30.545,83.069 L 30.268,82.803 L 30.041,82.603 L 29.863,82.470 L 29.653,82.337 L 29.409,82.204 L 29.132,82.071 L 28.821,81.938 L 28.566,81.811 L 28.366,81.689 L 28.222,81.572 L 28.134,81.461 L 28.045,81.367 L 27.956,81.289 L 27.867,81.228 L 27.779,81.184 L 27.457,81.106 L 26.903,80.996 L 26.116,80.851 L 25.095,80.674 L 24.264,80.569 L 23.621,80.535 Z" fill="none" stroke="#000000" stroke-width="0.5" stroke-linejoin="round"/>
<path d="M 118.516,89.942 L 118.554,90.362 L 118.712,90.925 L 118.988,91.631 L 119.384,92.481 L 119.900,93.473 L 120.334,94.260 L 120.687,94.843 L 120.959,95.219 L 121.150,95.391 L 121.322,95.534 L 121.474,95.649 L 121.608,95.735 L 121.722,95.792 L 121.818,95.854 L 121.894,95.921 L 121.952,95.992 L 121.990,96.069 L 122.061,96.164 L 122.166,96.279 L 122.305,96.412 L 122.476,96.565 L 122.686,96.713 L 122.934,96.856 L 123.221,96.995 L 123.545,97.128 L 123.841,97.271 L 124.108,97.424 L 124.347,97.586 L 124.557,97.758 L 124.772,97.896 L 124.991,98.001 L 125.215,98.073 L 125.444,98.111 L 125.874,98.135 L 126.504,98.144 L 127.334,98.140 L 128.365,98.121 L 129.171,98.092 L 129.753,98.054 L 130.111,98.006 L 130.245,97.949 L 130.364,97.887 L 130.469,97.820 L 130.559,97.748 L 130.636,97.672 L 130.755,97.591 L 130.917,97.505 L 131.123,97.414 L 131.371,97.319 L 131.609,97.200 L 131.838,97.057 L 132.058,96.890 L 132.268,96.699 L 132.463,96.541 L 132.645,96.417 L 132.812,96.327 L 132.964,96.269 L 133.107,96.198 L 133.241,96.112 L 133.365,96.012 L 133.480,95.897 L 133.599,95.797 L 133.723,95.711 L 133.852,95.639 L 133.985,95.582 L 134.167,95.449 L 134.396,95.239 L 134.673,94.952 L 134.997,94.590 L 135.274,94.241 L 135.503,93.907 L 135.684,93.588 L 135.818,93.282 L 135.951,93.010 L 136.085,92.772 L 136.219,92.566 L 136.352,92.395 L 136.476,92.161 L 136.591,91.865 L 136.696,91.507 L 136.791,91.087 L 136.863,90.691 L 136.910,90.319 L 136.934,89.971 L 136.934,89.646 L 136.906,89.417 L 136.848,89.284 L 136.763,89.245 L 136.648,89.303 L 136.538,89.298 L 136.433,89.231 L 136.333,89.102 L 136.238,88.911 L 135.417,88.768 L 133.871,88.673 L 131.600,88.625 L 128.603,88.625 L 126.327,88.639 L 124.772,88.668 L 123.936,88.711 L 123.822,88.768 L 123.483,88.806 L 122.920,88.826 L 122.133,88.826 L 121.121,88.806 L 120.320,88.802 L 119.728,88.811 L 119.346,88.835 L 119.174,88.873 L 119.017,88.926 L 118.874,88.993 L 118.745,89.074 L 118.630,89.169 L 118.554,89.346 L 118.516,89.603 Z" fill="none" stroke="#000000" stroke-width="0.5" stroke-linejoin="round"/>
<path d="M 89.094,89.408 L 89.113,89.522 L 89.147,89.642 L 89.195,89.766 L 89.257,89.894 L 89.333,90.028 L 89.390,90.181 L 89.428,90.352 L 89.447,90.543 L 89.447,90.753 L 89.466,90.973 L 89.505,91.202 L 89.562,91.440 L 89.638,91.689 L 89.734,91.941 L 89.848,92.199 L 89.982,92.462 L 90.135,92.729 L 90.273,92.953 L 90.397,93.134 L 90.507,93.273 L 90.602,93.368 L 90.698,93.492 L 90.793,93.645 L 90.888,93.826 L 90.984,94.036 L 91.151,94.289 L 91.389,94.585 L 91.700,94.924 L 92.081,95.305 L 92.377,95.616 L 92.587,95.854 L 92.711,96.021 L 92.749,96.117 L 92.816,96.222 L 92.912,96.336 L 93.036,96.460 L 93.188,96.594 L 93.365,96.718 L 93.565,96.832 L 93.790,96.937 L 94.038,97.033 L 94.281,97.142 L 94.520,97.267 L 94.753,97.405 L 94.982,97.558 L 95.221,97.691 L 95.469,97.806 L 95.727,97.901 L 95.994,97.977 L 96.285,98.040 L 96.600,98.087 L 96.939,98.121 L 97.301,98.140 L 97.717,98.149 L 98.184,98.149 L 98.704,98.140 L 99.277,98.121 L 99.773,98.087 L 100.193,98.040 L 100.537,97.977 L 100.804,97.901 L 101.114,97.796 L 101.467,97.663 L 101.863,97.500 L 102.302,97.309 L 102.679,97.128 L 102.994,96.956 L 103.247,96.794 L 103.438,96.641 L 103.610,96.517 L 103.762,96.422 L 103.896,96.355 L 104.010,96.317 L 104.139,96.231 L 104.282,96.097 L 104.440,95.916 L 104.612,95.687 L 104.769,95.496 L 104.912,95.344 L 105.041,95.229 L 105.155,95.153 L 105.251,95.072 L 105.327,94.986 L 105.385,94.895 L 105.423,94.800 L 105.504,94.676 L 105.628,94.523 L 105.795,94.342 L 106.005,94.132 L 106.177,93.945 L 106.310,93.783 L 106.406,93.645 L 106.463,93.530 L 106.544,93.402 L 106.649,93.258 L 106.778,93.101 L 106.931,92.929 L 107.050,92.724 L 107.136,92.485 L 107.188,92.213 L 107.207,91.908 L 107.241,91.646 L 107.288,91.426 L 107.350,91.250 L 107.427,91.116 L 107.479,90.978 L 107.508,90.834 L 107.513,90.686 L 107.494,90.534 L 107.513,90.367 L 107.570,90.185 L 107.665,89.990 L 107.799,89.780 L 107.894,89.603 L 107.952,89.460 L 107.971,89.350 L 107.952,89.274 L 107.894,89.212 L 107.799,89.164 L 107.665,89.131 L 107.494,89.112 L 107.336,89.069 L 107.193,89.002 L 107.064,88.911 L 106.950,88.797 L 106.725,88.721 L 106.391,88.682 L 105.948,88.682 L 105.394,88.721 L 104.922,88.740 L 104.530,88.740 L 104.220,88.721 L 103.991,88.682 L 103.734,88.659 L 103.447,88.649 L 103.132,88.654 L 102.789,88.673 L 102.078,88.678 L 100.999,88.668 L 99.554,88.644 L 97.740,88.606 L 96.328,88.597 L 95.316,88.616 L 94.706,88.663 L 94.496,88.740 L 94.314,88.778 L 94.162,88.778 L 94.038,88.740 L 93.942,88.663 L 93.794,88.620 L 93.594,88.611 L 93.341,88.635 L 93.036,88.692 L 92.630,88.740 L 92.124,88.778 L 91.518,88.806 L 90.812,88.826 L 90.239,88.864 L 89.801,88.921 L 89.495,88.997 L 89.323,89.093 L 89.199,89.193 L 89.123,89.298 Z" fill="none" stroke="#000000" stroke-width="0.5" stroke-linejoin="round"/>
<path d="M 193.511,84.462 L 193.408,84.462 L 193.271,84.484 L 193.099,84.527 L 192.893,84.591 L 192.653,84.677 L 192.426,84.741 L 192.211,84.784 L 192.010,84.806 L 191.821,84.806 L 191.649,84.819 L 191.495,84.844 L 191.357,84.883 L 191.237,84.934 L 191.130,84.994 L 191.036,85.063 L 190.954,85.140 L 190.885,85.226 L 190.821,85.286 L 190.761,85.321 L 190.705,85.329 L 190.654,85.312 L 190.615,85.273 L 190.589,85.213 L 190.576,85.132 L 190.576,85.029 L 190.564,84.952 L 190.538,84.900 L 190.499,84.874 L 190.448,84.874 L 190.396,84.900 L 190.345,84.952 L 190.293,85.029 L 190.242,85.132 L 190.203,85.222 L 190.177,85.299 L 190.165,85.363 L 190.165,85.415 L 190.182,85.458 L 190.216,85.492 L 190.268,85.518 L 190.336,85.535 L 190.379,85.565 L 190.396,85.608 L 190.388,85.664 L 190.353,85.732 L 190.298,85.775 L 190.220,85.792 L 190.122,85.784 L 190.002,85.750 L 189.839,85.775 L 189.633,85.861 L 189.384,86.007 L 189.092,86.213 L 188.787,86.539 L 188.470,86.985 L 188.139,87.552 L 187.796,88.238 L 187.496,88.886 L 187.238,89.495 L 187.024,90.066 L 186.852,90.598 L 186.736,91.220 L 186.676,91.932 L 186.672,92.735 L 186.724,93.627 L 186.788,94.369 L 186.865,94.961 L 186.955,95.403 L 187.058,95.695 L 187.153,95.931 L 187.238,96.111 L 187.316,96.236 L 187.384,96.304 L 187.470,96.416 L 187.573,96.570 L 187.693,96.768 L 187.831,97.008 L 187.959,97.257 L 188.079,97.514 L 188.191,97.780 L 188.294,98.055 L 188.401,98.287 L 188.513,98.475 L 188.629,98.621 L 188.749,98.724 L 188.882,98.814 L 189.028,98.892 L 189.186,98.956 L 189.358,99.007 L 189.542,99.080 L 189.740,99.175 L 189.950,99.291 L 190.173,99.428 L 190.409,99.557 L 190.658,99.677 L 190.920,99.788 L 191.194,99.891 L 191.435,99.973 L 191.641,100.033 L 191.812,100.071 L 191.949,100.089 L 192.185,100.093 L 192.520,100.084 L 192.953,100.063 L 193.485,100.029 L 193.927,99.977 L 194.279,99.908 L 194.541,99.823 L 194.713,99.720 L 194.888,99.625 L 195.069,99.539 L 195.253,99.462 L 195.442,99.394 L 195.605,99.325 L 195.742,99.256 L 195.854,99.188 L 195.940,99.119 L 196.051,99.050 L 196.189,98.982 L 196.352,98.913 L 196.540,98.844 L 196.703,98.767 L 196.841,98.681 L 196.952,98.587 L 197.038,98.484 L 197.107,98.355 L 197.158,98.201 L 197.193,98.021 L 197.210,97.815 L 197.304,97.583 L 197.476,97.325 L 197.725,97.042 L 198.051,96.733 L 198.304,96.442 L 198.484,96.167 L 198.591,95.910 L 198.626,95.669 L 198.686,95.442 L 198.771,95.227 L 198.883,95.026 L 199.020,94.837 L 199.136,94.610 L 199.231,94.344 L 199.303,94.039 L 199.355,93.696 L 199.385,93.224 L 199.394,92.623 L 199.381,91.894 L 199.346,91.036 L 199.312,90.366 L 199.278,89.886 L 199.243,89.594 L 199.209,89.491 L 199.158,89.388 L 199.089,89.285 L 199.003,89.182 L 198.900,89.079 L 198.801,88.925 L 198.707,88.719 L 198.617,88.461 L 198.531,88.152 L 198.441,87.899 L 198.347,87.702 L 198.248,87.560 L 198.145,87.474 L 198.042,87.354 L 197.939,87.200 L 197.836,87.011 L 197.733,86.788 L 197.544,86.535 L 197.270,86.252 L 196.909,85.938 L 196.463,85.595 L 196.094,85.325 L 195.802,85.127 L 195.588,85.003 L 195.451,84.952 L 195.283,84.909 L 195.086,84.874 L 194.858,84.849 L 194.601,84.831 L 194.374,84.797 L 194.176,84.746 L 194.009,84.677 L 193.872,84.591 L 193.743,84.527 L 193.623,84.484 Z" fill="none" stroke="#000000" stroke-width="0.5" stroke-linejoin="round"/>
<path d="M 168.515,84.668 L 167.948,84.806 L 167.472,84.956 L 167.086,85.119 L 166.790,85.295 L 166.584,85.484 L 166.416,85.625 L 166.288,85.720 L 166.198,85.767 L 166.146,85.767 L 166.103,85.745 L 166.069,85.702 L 166.043,85.638 L 166.026,85.552 L 165.996,85.484 L 165.953,85.432 L 165.897,85.398 L 165.829,85.381 L 165.769,85.389 L 165.717,85.424 L 165.674,85.484 L 165.640,85.569 L 165.554,85.685 L 165.417,85.831 L 165.228,86.007 L 164.988,86.213 L 164.790,86.423 L 164.636,86.638 L 164.524,86.857 L 164.456,87.080 L 164.361,87.303 L 164.241,87.526 L 164.095,87.749 L 163.924,87.972 L 163.769,88.195 L 163.632,88.418 L 163.512,88.641 L 163.409,88.865 L 163.310,89.131 L 163.216,89.439 L 163.126,89.791 L 163.040,90.186 L 162.954,90.542 L 162.868,90.860 L 162.782,91.139 L 162.697,91.379 L 162.636,91.722 L 162.602,92.168 L 162.594,92.717 L 162.611,93.370 L 162.632,93.906 L 162.658,94.326 L 162.688,94.631 L 162.722,94.820 L 162.774,95.026 L 162.842,95.249 L 162.928,95.489 L 163.031,95.747 L 163.126,95.957 L 163.211,96.120 L 163.289,96.236 L 163.357,96.304 L 163.443,96.420 L 163.546,96.583 L 163.666,96.793 L 163.803,97.051 L 163.924,97.300 L 164.027,97.540 L 164.112,97.772 L 164.181,97.995 L 164.258,98.188 L 164.344,98.351 L 164.438,98.484 L 164.541,98.587 L 164.670,98.681 L 164.825,98.767 L 165.005,98.844 L 165.211,98.913 L 165.417,98.999 L 165.623,99.102 L 165.829,99.222 L 166.035,99.359 L 166.275,99.492 L 166.549,99.621 L 166.858,99.745 L 167.202,99.865 L 167.609,99.951 L 168.081,100.003 L 168.617,100.020 L 169.218,100.003 L 169.832,99.913 L 170.458,99.750 L 171.097,99.514 L 171.750,99.205 L 172.256,98.952 L 172.616,98.754 L 172.831,98.613 L 172.899,98.527 L 172.960,98.432 L 173.011,98.329 L 173.054,98.218 L 173.088,98.098 L 173.148,97.986 L 173.234,97.883 L 173.346,97.789 L 173.483,97.703 L 173.573,97.613 L 173.616,97.519 L 173.612,97.420 L 173.560,97.317 L 173.582,97.184 L 173.676,97.021 L 173.843,96.828 L 174.084,96.605 L 174.272,96.386 L 174.410,96.171 L 174.496,95.961 L 174.530,95.755 L 174.577,95.575 L 174.637,95.420 L 174.710,95.292 L 174.796,95.189 L 174.873,95.082 L 174.942,94.970 L 175.002,94.854 L 175.053,94.734 L 175.105,94.571 L 175.156,94.365 L 175.208,94.116 L 175.259,93.824 L 175.289,93.378 L 175.298,92.777 L 175.285,92.022 L 175.251,91.113 L 175.216,90.401 L 175.182,89.886 L 175.148,89.568 L 175.113,89.448 L 175.053,89.306 L 174.967,89.143 L 174.856,88.959 L 174.719,88.753 L 174.603,88.543 L 174.508,88.328 L 174.435,88.109 L 174.384,87.886 L 174.320,87.702 L 174.242,87.556 L 174.152,87.449 L 174.049,87.380 L 173.955,87.286 L 173.869,87.165 L 173.792,87.020 L 173.723,86.848 L 173.625,86.672 L 173.496,86.492 L 173.337,86.307 L 173.148,86.119 L 172.947,85.943 L 172.732,85.780 L 172.505,85.629 L 172.264,85.492 L 172.067,85.372 L 171.913,85.269 L 171.801,85.183 L 171.732,85.115 L 171.655,85.055 L 171.569,85.003 L 171.475,84.960 L 171.372,84.926 L 171.226,84.896 L 171.037,84.870 L 170.806,84.849 L 170.531,84.831 L 170.278,84.797 L 170.046,84.746 L 169.836,84.677 L 169.647,84.591 L 169.364,84.561 L 168.986,84.587 Z" fill="none" stroke="#000000" stroke-width="0.5" stroke-linejoin="round"/>
<path d="M 5.000,8.000 L 14.664,8.000 L 14.664,5.000 L 24.479,5.000 L 24.479,8.000 L 34.093,8.000 L 34.093,5.000 L 43.907,5.000 L 43.907,8.000 L 53.521,8.000 L 53.521,5.000 L 63.336,5.000 L 63.336,8.000 L 73.000,8.000 L 73.000,16.250 L 70.000,16.250 L 70.000,27.350 L 73.000,27.350 L 73.000,38.650 L 70.000,38.650 L 70.000,49.750 L 73.000,49.750 L 73.000,58.000 L 63.336,58.000 L 63.336,61.000 L 53.521,61.000 L 53.521,58.000 L 43.907,58.000 L 43.907,61.000 L 34.093,61.000 L 34.093,58.000 L 24.479,58.000 L 24.479,61.000 L 14.664,61.000 L 14.664,58.000 L 5.000,58.000 L 5.000,49.750 L 8.000,49.750 L 8.000,38.650 L 5.000,38.650 L 5.000,27.350 L 8.000,27.350 L 8.000,16.250 L 5.000,16.250 L 5.000,8.000 Z" fill="none" stroke="#FF0000" stroke-width="0.01"/>
<path d="M 79.000,8.000 L 88.664,8.000 L 88.664,5.000 L 98.479,5.000 L 98.479,8.000 L 108.093,8.000 L 108.093,5.000 L 117.907,5.000 L 117.907,8.000 L 127.521,8.000 L 127.521,5.000 L 137.336,5.000 L 137.336,8.000 L 147.000,8.000 L 147.000,16.250 L 144.000,16.250 L 144.000,27.350 L 147.000,27.350 L 147.000,38.650 L 144.000,38.650 L 144.000,49.750 L 147.000,49.750 L 147.000,58.000 L 137.336,58.000 L 137.336,61.000 L 127.521,61.000 L 127.521,58.000 L 117.907,58.000 L 117.907,61.000 L 108.093,61.000 L 108.093,58.000 L 98.479,58.000 L 98.479,61.000 L 88.664,61.000 L 88.664,58.000 L 79.000,58.000 L 79.000,49.750 L 82.000,49.750 L 82.000,38.650 L 79.000,38.650 L 79.000,27.350 L 82.000,27.350 L 82.000,16.250 L 79.000,16.250 L 79.000,8.000 Z" fill="none" stroke="#FF0000" stroke-width="0.01"/>
<path d="M 156.000,8.000 L 164.150,8.000 L 164.150,5.000 L 175.450,5.000 L 175.450,8.000 L 186.550,8.000 L 186.550,5.000 L 197.850,5.000 L 197.850,8.000 L 206.000,8.000 L 206.000,16.150 L 209.000,16.150 L 209.000,27.450 L 206.000,27.450 L 206.000,38.550 L 209.000,38.550 L 209.000,49.850 L 206.000,49.850 L 206.000,58.000 L 197.850,58.000 L 197.850,61.000 L 186.550,61.000 L 186.550,58.000 L 175.450,58.000 L 175.450,61.000 L 164.150,61.000 L 164.150,58.000 L 156.000,58.000 L 156.000,49.850 L 153.000,49.850 L 153.000,38.550 L 156.000,38.550 L 156.000,27.450 L 153.000,27.450 L 153.000,16.150 L 156.000,16.150 L 156.000,8.000 Z" fill="none" stroke="#FF0000" stroke-width="0.01"/>
<path d="M 5.000,67.000 L 14.764,67.000 L 14.764,70.000 L 24.379,70.000 L 24.379,67.000 L 34.193,67.000 L 34.193,70.000 L 43.807,70.000 L 43.807,67.000 L 53.621,67.000 L 53.621,70.000 L 63.236,70.000 L 63.236,67.000 L 73.000,67.000 L 73.000,78.250 L 70.000,78.250 L 70.000,89.350 L 73.000,89.350 L 73.000,100.650 L 70.000,100.650 L 70.000,111.750 L 73.000,111.750 L 73.000,123.000 L 63.236,123.000 L 63.236,120.000 L 53.621,120.000 L 53.621,123.000 L 43.807,123.000 L 43.807,120.000 L 34.193,120.000 L 34.193,123.000 L 24.379,123.000 L 24.379,120.000 L 14.764,120.000 L 14.764,123.000 L 5.000,123.000 L 5.000,111.750 L 8.000,111.750 L 8.000,100.650 L 5.000,100.650 L 5.000,89.350 L 8.000,89.350 L 8.000,78.250 L 5.000,78.250 L 5.000,67.000 Z" fill="none" stroke="#FF0000" stroke-width="0.01"/>
<path d="M 79.000,67.000 L 88.764,67.000 L 88.764,70.000 L 98.379,70.000 L 98.379,67.000 L 108.193,67.000 L 108.193,70.000 L 117.807,70.000 L 117.807,67.000 L 127.621,67.000 L 127.621,70.000 L 137.236,70.000 L 137.236,67.000 L 147.000,67.000 L 147.000,78.250 L 144.000,78.250 L 144.000,89.350 L 147.000,89.350 L 147.000,100.650 L 144.000,100.650 L 144.000,111.750 L 147.000,111.750 L 147.000,123.000 L 137.236,123.000 L 137.236,120.000 L 127.621,120.000 L 127.621,123.000 L 117.807,123.000 L 117.807,120.000 L 108.193,120.000 L 108.193,123.000 L 98.379,123.000 L 98.379,120.000 L 88.764,120.000 L 88.764,123.000 L 79.000,123.000 L 79.000,111.750 L 82.000,111.750 L 82.000,100.650 L 79.000,100.650 L 79.000,89.350 L 82.000,89.350 L 82.000,78.250 L 79.000,78.250 L 79.000,67.000 Z" fill="none" stroke="#FF0000" stroke-width="0.01"/>
<path d="M 156.000,70.000 L 164.150,70.000 L 164.150,67.000 L 175.450,67.000 L 175.450,70.000 L 186.550,70.000 L 186.550,67.000 L 197.850,67.000 L 197.850,70.000 L 206.000,70.000 L 206.000,78.150 L 209.000,78.150 L 209.000,89.450 L 206.000,89.450 L 206.000,100.550 L 209.000,100.550 L 209.000,111.850 L 206.000,111.850 L 206.000,120.000 L 197.850,120.000 L 197.850,123.000 L 186.550,123.000 L 186.550,120.000 L 175.450,120.000 L 175.450,123.000 L 164.150,123.000 L 164.150,120.000 L 156.000,120.000 L 156.000,111.850 L 153.000,111.850 L 153.000,100.550 L 156.000,100.550 L 156.000,89.450 L 153.000,89.450 L 153.000,78.150 L 156.000,78.150 L 156.000,70.000 Z" fill="none" stroke="#FF0000" stroke-width="0.01"/>
</svg>