<svg xmlns="http://www.w3.org/2000/svg" width="194.00mm" height="144.00mm" viewBox="0 0 194.00 144.00">
<path d="M 30.000,30.600 L 29.940,31.514 L 29.761,32.412 L 29.467,33.279 L 29.062,34.100 L 28.553,34.861 L 27.950,35.550 L 27.261,36.153 L 26.500,36.662 L 25.679,37.067 L 24.812,37.361 L 23.914,37.540 L 23.000,37.600 L 22.086,37.540 L 21.188,37.361 L 20.321,37.067 L 19.500,36.662 L 18.739,36.153 L 18.050,35.550 L 17.447,34.861 L 16.938,34.100 L 16.533,33.279 L 16.239,32.412 L 16.060,31.514 L 16.000,30.600 L 16.060,29.686 L 16.239,28.788 L 16.533,27.921 L 16.938,27.100 L 17.447,26.339 L 18.050,25.650 L 18.739,25.047 L 19.500,24.538 L 20.321,24.133 L 21.188,23.839 L 22.086,23.660 L 23.000,23.600 L 23.914,23.660 L 24.812,23.839 L 25.679,24.133 L 26.500,24.538 L 27.261,25.047 L 27.950,25.650 L 28.553,26.339 L 29.062,27.100 L 29.467,27.921 L 29.761,28.788 L 29.940,29.686 Z" fill="#000000" stroke="none"/>
<path d="M 54.000,30.600 L 53.940,31.514 L 53.761,32.412 L 53.467,33.279 L 53.062,34.100 L 52.553,34.861 L 51.950,35.550 L 51.261,36.153 L 50.500,36.662 L 49.679,37.067 L 48.812,37.361 L 47.914,37.540 L 47.000,37.600 L 46.086,37.540 L 45.188,37.361 L 44.321,37.067 L 43.500,36.662 L 42.739,36.153 L 42.050,35.550 L 41.447,34.861 L 40.938,34.100 L 40.533,33.279 L 40.239,32.412 L 40.060,31.514 L 40.000,30.600 L 40.060,29.686 L 40.239,28.788 L 40.533,27.921 L 40.938,27.100 L 41.447,26.339 L 42.050,25.650 L 42.739,25.047 L 43.500,24.538 L 44.321,24.133 L 45.188,23.839 L 46.086,23.660 L 47.000,23.600 L 47.914,23.660 L 48.812,23.839 L 49.679,24.133 L 50.500,24.538 L 51.261,25.047 L 51.950,25.650 L 52.553,26.339 L 53.062,27.100 L 53.467,27.921 L 53.761,28.788 L 53.940,29.686 Z" fill="#000000" stroke="none"/>
<path d="M 16.200,42.120 L 16.166,42.642 L 16.064,43.155 L 15.896,43.651 L 15.664,44.120 L 15.373,44.555 L 15.028,44.948 L 14.635,45.293 L 14.200,45.584 L 13.731,45.816 L 13.235,45.984 L 12.722,46.086 L 12.200,46.120 L 11.678,46.086 L 11.165,45.984 L 10.669,45.816 L 10.200,45.584 L 9.765,45.293 L 9.372,44.948 L 9.027,44.555 L 8.736,44.120 L 8.504,43.651 L 8.336,43.155 L 8.234,42.642 L 8.200,42.120 L 8.234,41.598 L 8.336,41.085 L 8.504,40.589 L 8.736,40.120 L 9.027,39.685 L 9.372,39.292 L 9.765,38.947 L 10.200,38.656 L 10.669,38.424 L 11.165,38.256 L 11.678,38.154 L 12.200,38.120 L 12.722,38.154 L 13.235,38.256 L 13.731,38.424 L 14.200,38.656 L 14.635,38.947 L 15.028,39.292 L 15.373,39.685 L 15.664,40.120 L 15.896,40.589 L 16.064,41.085 L 16.166,41.598 Z" fill="#000000" stroke="none"/>
<path d="M 61.800,42.120 L 61.766,42.642 L 61.664,43.155 L 61.496,43.651 L 61.264,44.120 L 60.973,44.555 L 60.628,44.948 L 60.235,45.293 L 59.800,45.584 L 59.331,45.816 L 58.835,45.984 L 58.322,46.086 L 57.800,46.120 L 57.278,46.086 L 56.765,45.984 L 56.269,45.816 L 55.800,45.584 L 55.365,45.293 L 54.972,44.948 L 54.627,44.555 L 54.336,44.120 L 54.104,43.651 L 53.936,43.155 L 53.834,42.642 L 53.800,42.120 L 53.834,41.598 L 53.936,41.085 L 54.104,40.589 L 54.336,40.120 L 54.627,39.685 L 54.972,39.292 L 55.365,38.947 L 55.800,38.656 L 56.269,38.424 L 56.765,38.256 L 57.278,38.154 L 57.800,38.120 L 58.322,38.154 L 58.835,38.256 L 59.331,38.424 L 59.800,38.656 L 60.235,38.947 L 60.628,39.292 L 60.973,39.685 L 61.264,40.120 L 61.496,40.589 L 61.664,41.085 L 61.766,41.598 Z" fill="#000000" stroke="none"/>
<path d="M 27.000,46.040 L 27.400,46.432 L 27.800,46.822 L 28.200,47.207 L 28.600,47.585 L 29.000,47.953 L 29.400,48.310 L 29.800,48.652 L 30.200,48.979 L 30.600,49.287 L 31.000,49.576 L 31.400,49.842 L 31.800,50.085 L 32.200,50.303 L 32.600,50.495 L 33.000,50.659 L 33.400,50.795 L 33.800,50.902 L 34.200,50.978 L 34.600,51.025 L 35.000,51.040 L 35.400,51.025 L 35.800,50.978 L 36.200,50.902 L 36.600,50.795 L 37.000,50.659 L 37.400,50.495 L 37.800,50.303 L 38.200,50.085 L 38.600,49.842 L 39.000,49.576 L 39.400,49.287 L 39.800,48.979 L 40.200,48.652 L 40.600,48.310 L 41.000,47.953 L 41.400,47.585 L 41.800,47.207 L 42.200,46.822 L 42.600,46.432 L 43.000,46.040 L 43.000,48.440 L 42.600,48.832 L 42.200,49.222 L 41.800,49.607 L 41.400,49.985 L 41.000,50.353 L 40.600,50.710 L 40.200,51.052 L 39.800,51.379 L 39.400,51.687 L 39.000,51.976 L 38.600,52.242 L 38.200,52.485 L 37.800,52.703 L 37.400,52.895 L 37.000,53.059 L 36.600,53.195 L 36.200,53.302 L 35.800,53.378 L 35.400,53.425 L 35.000,53.440 L 34.600,53.425 L 34.200,53.378 L 33.800,53.302 L 33.400,53.195 L 33.000,53.059 L 32.600,52.895 L 32.200,52.703 L 31.800,52.485 L 31.400,52.242 L 31.000,51.976 L 30.600,51.687 L 30.200,51.379 L 29.800,51.052 L 29.400,50.710 L 29.000,50.353 L 28.600,49.985 L 28.200,49.607 L 27.800,49.222 L 27.400,48.832 L 27.000,48.440 Z" fill="#000000" stroke="none"/>
<path d="M 5.000,8.000 L 17.000,8.000 L 17.000,5.000 L 29.000,5.000 L 29.000,8.000 L 41.000,8.000 L 41.000,5.000 L 53.000,5.000 L 53.000,8.000 L 65.000,8.000 L 65.000,14.143 L 62.000,14.143 L 62.000,23.286 L 65.000,23.286 L 65.000,32.429 L 62.000,32.429 L 62.000,41.571 L 65.000,41.571 L 65.000,50.714 L 62.000,50.714 L 62.000,59.857 L 65.000,59.857 L 65.000,66.000 L 53.000,66.000 L 53.000,69.000 L 41.000,69.000 L 41.000,66.000 L 29.000,66.000 L 29.000,69.000 L 17.000,69.000 L 17.000,66.000 L 5.000,66.000 L 5.000,59.857 L 8.000,59.857 L 8.000,50.714 L 5.000,50.714 L 5.000,41.571 L 8.000,41.571 L 8.000,32.429 L 5.000,32.429 L 5.000,23.286 L 8.000,23.286 L 8.000,14.143 L 5.000,14.143 L 5.000,8.000 Z" fill="none" stroke="#FF0000" stroke-width="0.01"/>
<path d="M 71.000,8.000 L 83.000,8.000 L 83.000,5.000 L 95.000,5.000 L 95.000,8.000 L 107.000,8.000 L 107.000,5.000 L 119.000,5.000 L 119.000,8.000 L 131.000,8.000 L 131.000,14.143 L 128.000,14.143 L 128.000,23.286 L 131.000,23.286 L 131.000,32.429 L 128.000,32.429 L 128.000,41.571 L 131.000,41.571 L 131.000,50.714 L 128.000,50.714 L 128.000,59.857 L 131.000,59.857 L 131.000,66.000 L 119.000,66.000 L 119.000,69.000 L 107.000,69.000 L 107.000,66.000 L 95.000,66.000 L 95.000,69.000 L 83.000,69.000 L 83.000,66.000 L 71.000,66.000 L 71.000,59.857 L 74.000,59.857 L 74.000,50.714 L 71.000,50.714 L 71.000,41.571 L 74.000,41.571 L 74.000,32.429 L 71.000,32.429 L 71.000,23.286 L 74.000,23.286 L 74.000,14.143 L 71.000,14.143 L 71.000,8.000 Z" fill="none" stroke="#FF0000" stroke-width="0.01"/>
<path d="M 140.000,8.000 L 147.400,8.000 L 147.400,5.000 L 157.800,5.000 L 157.800,8.000 L 168.200,8.000 L 168.200,5.000 L 178.600,5.000 L 178.600,8.000 L 186.000,8.000 L 186.000,14.143 L 189.000,14.143 L 189.000,23.286 L 186.000,23.286 L 186.000,32.429 L 189.000,32.429 L 189.000,41.571 L 186.000,41.571 L 186.000,50.714 L 189.000,50.714 L 189.000,59.857 L 186.000,59.857 L 186.000,66.000 L 178.600,66.000 L 178.600,69.000 L 168.200,69.000 L 168.200,66.000 L 157.800,66.000 L 157.800,69.000 L 147.400,69.000 L 147.400,66.000 L 140.000,66.000 L 140.000,59.857 L 137.000,59.857 L 137.000,50.714 L 140.000,50.714 L 140.000,41.571 L 137.000,41.571 L 137.000,32.429 L 140.000,32.429 L 140.000,23.286 L 137.000,23.286 L 137.000,14.143 L 140.000,14.143 L 140.000,8.000 Z" fill="none" stroke="#FF0000" stroke-width="0.01"/>
<path d="M 5.000,75.000 L 17.000,75.000 L 17.000,78.000 L 29.000,78.000 L 29.000,75.000 L 41.000,75.000 L 41.000,78.000 L 53.000,78.000 L 53.000,75.000 L 65.000,75.000 L 65.000,85.400 L 62.000,85.400 L 62.000,95.800 L 65.000,95.800 L 65.000,106.200 L 62.000,106.200 L 62.000,116.600 L 65.000,116.600 L 65.000,127.000 L 53.000,127.000 L 53.000,124.000 L 41.000,124.000 L 41.000,127.000 L 29.000,127.000 L 29.000,124.000 L 17.000,124.000 L 17.000,127.000 L 5.000,127.000 L 5.000,116.600 L 8.000,116.600 L 8.000,106.200 L 5.000,106.200 L 5.000,95.800 L 8.000,95.800 L 8.000,85.400 L 5.000,85.400 L 5.000,75.000 Z" fill="none" stroke="#FF0000" stroke-width="0.01"/>
<path d="M 71.000,75.000 L 83.000,75.000 L 83.000,78.000 L 95.000,78.000 L 95.000,75.000 L 107.000,75.000 L 107.000,78.000 L 119.000,78.000 L 119.000,75.000 L 131.000,75.000 L 131.000,85.400 L 128.000,85.400 L 128.000,95.800 L 131.000,95.800 L 131.000,106.200 L 128.000,106.200 L 128.000,116.600 L 131.000,116.600 L 131.000,127.000 L 119.000,127.000 L 119.000,124.000 L 107.000,124.000 L 107.000,127.000 L 95.000,127.000 L 95.000,124.000 L 83.000,124.000 L 83.000,127.000 L 71.000,127.000 L 71.000,116.600 L 74.000,116.600 L 74.000,106.200 L 71.000,106.200 L 71.000,95.800 L 74.000,95.800 L 74.000,85.400 L 71.000,85.400 L 71.000,75.000 Z" fill="none" stroke="#FF0000" stroke-width="0.01"/>
<path d="M 140.000,78.000 L 147.400,78.000 L 147.400,75.000 L 157.800,75.000 L 157.800,78.000 L 168.200,78.000 L 168.200,75.000 L 178.600,75.000 L 178.600,78.000 L 186.000,78.000 L 186.000,84.143 L 189.000,84.143 L 189.000,93.286 L 186.000,93.286 L 186.000,102.429 L 189.000,102.429 L 189.000,111.571 L 186.000,111.571 L 186.000,120.714 L 189.000,120.714 L 189.000,129.857 L 186.000,129.857 L 186.000,136.000 L 178.600,136.000 L 178.600,139.000 L 168.200,139.000 L 168.200,136.000 L 157.800,136.000 L 157.800,139.000 L 147.400,139.000 L 147.400,136.000 L 140.000,136.000 L 140.000,129.857 L 137.000,129.857 L 137.000,120.714 L 140.000,120.714 L 140.000,111.571 L 137.000,111.571 L 137.000,102.429 L 140.000,102.429 L 140.000,93.286 L 137.000,93.286 L 137.000,84.143 L 140.000,84.143 L 140.000,78.000 Z" fill="none" stroke="#FF0000" stroke-width="0.01"/>
</svg>