0
SECTION
2
ENTITIES
0
POLYLINE
8
CUT
66
1
70
1
0
VERTEX
8
CUT
10
224.9500
20
-55.0000
30
0.0
0
VERTEX
8
CUT
10
224.9021
20
-55.9753
30
0.0
0
VERTEX
8
CUT
10
224.7588
20
-56.9411
30
0.0
0
VERTEX
8
CUT
10
224.5216
20
-57.8883
30
0.0
0
VERTEX
8
CUT
10
224.1926
20
-58.8077
30
0.0
0
VERTEX
8
CUT
10
223.7751
20
-59.6904
30
0.0
0
VERTEX
8
CUT
10
223.2731
20
-60.5279
30
0.0
0
VERTEX
8
CUT
10
222.6915
20
-61.3122
30
0.0
0
VERTEX
8
CUT
10
222.0357
20
-62.0357
30
0.0
0
VERTEX
8
CUT
10
221.3122
20
-62.6915
30
0.0
0
VERTEX
8
CUT
10
220.5279
20
-63.2731
30
0.0
0
VERTEX
8
CUT
10
219.6904
20
-63.7751
30
0.0
0
VERTEX
8
CUT
10
218.8077
20
-64.1926
30
0.0
0
VERTEX
8
CUT
10
217.8883
20
-64.5216
30
0.0
0
VERTEX
8
CUT
10
216.9411
20
-64.7588
30
0.0
0
VERTEX
8
CUT
10
215.9753
20
-64.9021
30
0.0
0
VERTEX
8
CUT
10
215.0000
20
-64.9500
30
0.0
0
VERTEX
8
CUT
10
15.0000
20
-64.9500
30
0.0
0
VERTEX
8
CUT
10
14.0247
20
-64.9021
30
0.0
0
VERTEX
8
CUT
10
13.0589
20
-64.7588
30
0.0
0
VERTEX
8
CUT
10
12.1117
20
-64.5216
30
0.0
0
VERTEX
8
CUT
10
11.1923
20
-64.1926
30
0.0
0
VERTEX
8
CUT
10
10.3096
20
-63.7751
30
0.0
0
VERTEX
8
CUT
10
9.4721
20
-63.2731
30
0.0
0
VERTEX
8
CUT
10
8.6878
20
-62.6915
30
0.0
0
VERTEX
8
CUT
10
7.9643
20
-62.0357
30
0.0
0
VERTEX
8
CUT
10
7.3085
20
-61.3122
30
0.0
0
VERTEX
8
CUT
10
6.7269
20
-60.5279
30
0.0
0
VERTEX
8
CUT
10
6.2249
20
-59.6904
30
0.0
0
VERTEX
8
CUT
10
5.8074
20
-58.8077
30
0.0
0
VERTEX
8
CUT
10
5.4784
20
-57.8883
30
0.0
0
VERTEX
8
CUT
10
5.2412
20
-56.9411
30
0.0
0
VERTEX
8
CUT
10
5.0979
20
-55.9753
30
0.0
0
VERTEX
8
CUT
10
5.0500
20
-55.0000
30
0.0
0
VERTEX
8
CUT
10
5.0500
20
-15.0000
30
0.0
0
VERTEX
8
CUT
10
5.0979
20
-14.0247
30
0.0
0
VERTEX
8
CUT
10
5.2412
20
-13.0589
30
0.0
0
VERTEX
8
CUT
10
5.4784
20
-12.1117
30
0.0
0
VERTEX
8
CUT
10
5.8074
20
-11.1923
30
0.0
0
VERTEX
8
CUT
10
6.2249
20
-10.3096
30
0.0
0
VERTEX
8
CUT
10
6.7269
20
-9.4721
30
0.0
0
VERTEX
8
CUT
10
7.3085
20
-8.6878
30
0.0
0
VERTEX
8
CUT
10
7.9643
20
-7.9643
30
0.0
0
VERTEX
8
CUT
10
8.6878
20
-7.3085
30
0.0
0
VERTEX
8
CUT
10
9.4721
20
-6.7269
30
0.0
0
VERTEX
8
CUT
10
10.3096
20
-6.2249
30
0.0
0
VERTEX
8
CUT
10
11.1923
20
-5.8074
30
0.0
0
VERTEX
8
CUT
10
12.1117
20
-5.4784
30
0.0
0
VERTEX
8
CUT
10
13.0589
20
-5.2412
30
0.0
0
VERTEX
8
CUT
10
14.0247
20
-5.0979
30
0.0
0
VERTEX
8
CUT
10
15.0000
20
-5.0500
30
0.0
0
VERTEX
8
CUT
10
215.0000
20
-5.0500
30
0.0
0
VERTEX
8
CUT
10
215.9753
20
-5.0979
30
0.0
0
VERTEX
8
CUT
10
216.9411
20
-5.2412
30
0.0
0
VERTEX
8
CUT
10
217.8883
20
-5.4784
30
0.0
0
VERTEX
8
CUT
10
218.8077
20
-5.8074
30
0.0
0
VERTEX
8
CUT
10
219.6904
20
-6.2249
30
0.0
0
VERTEX
8
CUT
10
220.5279
20
-6.7269
30
0.0
0
VERTEX
8
CUT
10
221.3122
20
-7.3085
30
0.0
0
VERTEX
8
CUT
10
222.0357
20
-7.9643
30
0.0
0
VERTEX
8
CUT
10
222.6915
20
-8.6878
30
0.0
0
VERTEX
8
CUT
10
223.2731
20
-9.4721
30
0.0
0
VERTEX
8
CUT
10
223.7751
20
-10.3096
30
0.0
0
VERTEX
8
CUT
10
224.1926
20
-11.1923
30
0.0
0
VERTEX
8
CUT
10
224.5216
20
-12.1117
30
0.0
0
VERTEX
8
CUT
10
224.7588
20
-13.0589
30
0.0
0
VERTEX
8
CUT
10
224.9021
20
-14.0247
30
0.0
0
VERTEX
8
CUT
10
224.9500
20
-15.0000
30
0.0
0
SEQEND
0
POLYLINE
8
CUT
66
1
70
1
0
VERTEX
8
CUT
10
213.5000
20
-35.0000
30
0.0
0
VERTEX
8
CUT
10
213.4604
20
-36.2100
30
0.0
0
VERTEX
8
CUT
10
213.3417
20
-37.4147
30
0.0
0
VERTEX
8
CUT
10
213.1445
20
-38.6092
30
0.0
0
VERTEX
8
CUT
10
212.8696
20
-39.7882
30
0.0
0
VERTEX
8
CUT
10
212.5182
20
-40.9466
30
0.0
0
VERTEX
8
CUT
10
212.0918
20
-42.0796
30
0.0
0
VERTEX
8
CUT
10
211.5921
20
-43.1823
30
0.0
0
VERTEX
8
CUT
10
211.0215
20
-44.2500
30
0.0
0
VERTEX
8
CUT
10
210.3822
20
-45.2780
30
0.0
0
VERTEX
8
CUT
10
209.6770
20
-46.2621
30
0.0
0
VERTEX
8
CUT
10
208.9090
20
-47.1979
30
0.0
0
VERTEX
8
CUT
10
208.0815
20
-48.0815
30
0.0
0
VERTEX
8
CUT
10
207.1979
20
-48.9090
30
0.0
0
VERTEX
8
CUT
10
206.2621
20
-49.6770
30
0.0
0
VERTEX
8
CUT
10
205.2780
20
-50.3822
30
0.0
0
VERTEX
8
CUT
10
204.2500
20
-51.0215
30
0.0
0
VERTEX
8
CUT
10
203.1823
20
-51.5921
30
0.0
0
VERTEX
8
CUT
10
202.0796
20
-52.0918
30
0.0
0
VERTEX
8
CUT
10
200.9466
20
-52.5182
30
0.0
0
VERTEX
8
CUT
10
199.7882
20
-52.8696
30
0.0
0
VERTEX
8
CUT
10
198.6092
20
-53.1445
30
0.0
0
VERTEX
8
CUT
10
197.4147
20
-53.3417
30
0.0
0
VERTEX
8
CUT
10
196.2100
20
-53.4604
30
0.0
0
VERTEX
8
CUT
10
195.0000
20
-53.5000
30
0.0
0
VERTEX
8
CUT
10
193.7900
20
-53.4604
30
0.0
0
VERTEX
8
CUT
10
192.5853
20
-53.3417
30
0.0
0
VERTEX
8
CUT
10
191.3908
20
-53.1445
30
0.0
0
VERTEX
8
CUT
10
190.2118
20
-52.8696
30
0.0
0
VERTEX
8
CUT
10
189.0534
20
-52.5182
30
0.0
0
VERTEX
8
CUT
10
187.9204
20
-52.0918
30
0.0
0
VERTEX
8
CUT
10
186.8177
20
-51.5921
30
0.0
0
VERTEX
8
CUT
10
185.7500
20
-51.0215
30
0.0
0
VERTEX
8
CUT
10
184.7220
20
-50.3822
30
0.0
0
VERTEX
8
CUT
10
183.7379
20
-49.6770
30
0.0
0
VERTEX
8
CUT
10
182.8021
20
-48.9090
30
0.0
0
VERTEX
8
CUT
10
181.9185
20
-48.0815
30
0.0
0
VERTEX
8
CUT
10
181.0910
20
-47.1979
30
0.0
0
VERTEX
8
CUT
10
180.3230
20
-46.2621
30
0.0
0
VERTEX
8
CUT
10
179.6178
20
-45.2780
30
0.0
0
VERTEX
8
CUT
10
178.9785
20
-44.2500
30
0.0
0
VERTEX
8
CUT
10
178.4079
20
-43.1823
30
0.0
0
VERTEX
8
CUT
10
177.9082
20
-42.0796
30
0.0
0
VERTEX
8
CUT
10
177.4818
20
-40.9466
30
0.0
0
VERTEX
8
CUT
10
177.1304
20
-39.7882
30
0.0
0
VERTEX
8
CUT
10
176.8555
20
-38.6092
30
0.0
0
VERTEX
8
CUT
10
176.6583
20
-37.4147
30
0.0
0
VERTEX
8
CUT
10
176.5396
20
-36.2100
30
0.0
0
VERTEX
8
CUT
10
176.5000
20
-35.0000
30
0.0
0
VERTEX
8
CUT
10
176.5396
20
-33.7900
30
0.0
0
VERTEX
8
CUT
10
176.6583
20
-32.5853
30
0.0
0
VERTEX
8
CUT
10
176.8555
20
-31.3908
30
0.0
0
VERTEX
8
CUT
10
177.1304
20
-30.2118
30
0.0
0
VERTEX
8
CUT
10
177.4818
20
-29.0534
30
0.0
0
VERTEX
8
CUT
10
177.9082
20
-27.9204
30
0.0
0
VERTEX
8
CUT
10
178.4079
20
-26.8177
30
0.0
0
VERTEX
8
CUT
10
178.9785
20
-25.7500
30
0.0
0
VERTEX
8
CUT
10
179.6178
20
-24.7220
30
0.0
0
VERTEX
8
CUT
10
180.3230
20
-23.7379
30
0.0
0
VERTEX
8
CUT
10
181.0910
20
-22.8021
30
0.0
0
VERTEX
8
CUT
10
181.9185
20
-21.9185
30
0.0
0
VERTEX
8
CUT
10
182.8021
20
-21.0910
30
0.0
0
VERTEX
8
CUT
10
183.7379
20
-20.3230
30
0.0
0
VERTEX
8
CUT
10
184.7220
20
-19.6178
30
0.0
0
VERTEX
8
CUT
10
185.7500
20
-18.9785
30
0.0
0
VERTEX
8
CUT
10
186.8177
20
-18.4079
30
0.0
0
VERTEX
8
CUT
10
187.9204
20
-17.9082
30
0.0
0
VERTEX
8
CUT
10
189.0534
20
-17.4818
30
0.0
0
VERTEX
8
CUT
10
190.2118
20
-17.1304
30
0.0
0
VERTEX
8
CUT
10
191.3908
20
-16.8555
30
0.0
0
VERTEX
8
CUT
10
192.5853
20
-16.6583
30
0.0
0
VERTEX
8
CUT
10
193.7900
20
-16.5396
30
0.0
0
VERTEX
8
CUT
10
195.0000
20
-16.5000
30
0.0
0
VERTEX
8
CUT
10
196.2100
20
-16.5396
30
0.0
0
VERTEX
8
CUT
10
197.4147
20
-16.6583
30
0.0
0
VERTEX
8
CUT
10
198.6092
20
-16.8555
30
0.0
0
VERTEX
8
CUT
10
199.7882
20
-17.1304
30
0.0
0
VERTEX
8
CUT
10
200.9466
20
-17.4818
30
0.0
0
VERTEX
8
CUT
10
202.0796
20
-17.9082
30
0.0
0
VERTEX
8
CUT
10
203.1823
20
-18.4079
30
0.0
0
VERTEX
8
CUT
10
204.2500
20
-18.9785
30
0.0
0
VERTEX
8
CUT
10
205.2780
20
-19.6178
30
0.0
0
VERTEX
8
CUT
10
206.2621
20
-20.3230
30
0.0
0
VERTEX
8
CUT
10
207.1979
20
-21.0910
30
0.0
0
VERTEX
8
CUT
10
208.0815
20
-21.9185
30
0.0
0
VERTEX
8
CUT
10
208.9090
20
-22.8021
30
0.0
0
VERTEX
8
CUT
10
209.6770
20
-23.7379
30
0.0
0
VERTEX
8
CUT
10
210.3822
20
-24.7220
30
0.0
0
VERTEX
8
CUT
10
211.0215
20
-25.7500
30
0.0
0
VERTEX
8
CUT
10
211.5921
20
-26.8177
30
0.0
0
VERTEX
8
CUT
10
212.0918
20
-27.9204
30
0.0
0
VERTEX
8
CUT
10
212.5182
20
-29.0534
30
0.0
0
VERTEX
8
CUT
10
212.8696
20
-30.2118
30
0.0
0
VERTEX
8
CUT
10
213.1445
20
-31.3908
30
0.0
0
VERTEX
8
CUT
10
213.3417
20
-32.5853
30
0.0
0
VERTEX
8
CUT
10
213.4604
20
-33.7900
30
0.0
0
SEQEND
0
POLYLINE
8
CUT
66
1
70
1
0
VERTEX
8
CUT
10
53.5000
20
-35.0000
30
0.0
0
VERTEX
8
CUT
10
53.4604
20
-36.2100
30
0.0
0
VERTEX
8
CUT
10
53.3417
20
-37.4147
30
0.0
0
VERTEX
8
CUT
10
53.1445
20
-38.6092
30
0.0
0
VERTEX
8
CUT
10
52.8696
20
-39.7882
30
0.0
0
VERTEX
8
CUT
10
52.5182
20
-40.9466
30
0.0
0
VERTEX
8
CUT
10
52.0918
20
-42.0796
30
0.0
0
VERTEX
8
CUT
10
51.5921
20
-43.1823
30
0.0
0
VERTEX
8
CUT
10
51.0215
20
-44.2500
30
0.0
0
VERTEX
8
CUT
10
50.3822
20
-45.2780
30
0.0
0
VERTEX
8
CUT
10
49.6770
20
-46.2621
30
0.0
0
VERTEX
8
CUT
10
48.9090
20
-47.1979
30
0.0
0
VERTEX
8
CUT
10
48.0815
20
-48.0815
30
0.0
0
VERTEX
8
CUT
10
47.1979
20
-48.9090
30
0.0
0
VERTEX
8
CUT
10
46.2621
20
-49.6770
30
0.0
0
VERTEX
8
CUT
10
45.2780
20
-50.3822
30
0.0
0
VERTEX
8
CUT
10
44.2500
20
-51.0215
30
0.0
0
VERTEX
8
CUT
10
43.1823
20
-51.5921
30
0.0
0
VERTEX
8
CUT
10
42.0796
20
-52.0918
30
0.0
0
VERTEX
8
CUT
10
40.9466
20
-52.5182
30
0.0
0
VERTEX
8
CUT
10
39.7882
20
-52.8696
30
0.0
0
VERTEX
8
CUT
10
38.6092
20
-53.1445
30
0.0
0
VERTEX
8
CUT
10
37.4147
20
-53.3417
30
0.0
0
VERTEX
8
CUT
10
36.2100
20
-53.4604
30
0.0
0
VERTEX
8
CUT
10
35.0000
20
-53.5000
30
0.0
0
VERTEX
8
CUT
10
33.7900
20
-53.4604
30
0.0
0
VERTEX
8
CUT
10
32.5853
20
-53.3417
30
0.0
0
VERTEX
8
CUT
10
31.3908
20
-53.1445
30
0.0
0
VERTEX
8
CUT
10
30.2118
20
-52.8696
30
0.0
0
VERTEX
8
CUT
10
29.0534
20
-52.5182
30
0.0
0
VERTEX
8
CUT
10
27.9204
20
-52.0918
30
0.0
0
VERTEX
8
CUT
10
26.8177
20
-51.5921
30
0.0
0
VERTEX
8
CUT
10
25.7500
20
-51.0215
30
0.0
0
VERTEX
8
CUT
10
24.7220
20
-50.3822
30
0.0
0
VERTEX
8
CUT
10
23.7379
20
-49.6770
30
0.0
0
VERTEX
8
CUT
10
22.8021
20
-48.9090
30
0.0
0
VERTEX
8
CUT
10
21.9185
20
-48.0815
30
0.0
0
VERTEX
8
CUT
10
21.0910
20
-47.1979
30
0.0
0
VERTEX
8
CUT
10
20.3230
20
-46.2621
30
0.0
0
VERTEX
8
CUT
10
19.6178
20
-45.2780
30
0.0
0
VERTEX
8
CUT
10
18.9785
20
-44.2500
30
0.0
0
VERTEX
8
CUT
10
18.4079
20
-43.1823
30
0.0
0
VERTEX
8
CUT
10
17.9082
20
-42.0796
30
0.0
0
VERTEX
8
CUT
10
17.4818
20
-40.9466
30
0.0
0
VERTEX
8
CUT
10
17.1304
20
-39.7882
30
0.0
0
VERTEX
8
CUT
10
16.8555
20
-38.6092
30
0.0
0
VERTEX
8
CUT
10
16.6583
20
-37.4147
30
0.0
0
VERTEX
8
CUT
10
16.5396
20
-36.2100
30
0.0
0
VERTEX
8
CUT
10
16.5000
20
-35.0000
30
0.0
0
VERTEX
8
CUT
10
16.5396
20
-33.7900
30
0.0
0
VERTEX
8
CUT
10
16.6583
20
-32.5853
30
0.0
0
VERTEX
8
CUT
10
16.8555
20
-31.3908
30
0.0
0
VERTEX
8
CUT
10
17.1304
20
-30.2118
30
0.0
0
VERTEX
8
CUT
10
17.4818
20
-29.0534
30
0.0
0
VERTEX
8
CUT
10
17.9082
20
-27.9204
30
0.0
0
VERTEX
8
CUT
10
18.4079
20
-26.8177
30
0.0
0
VERTEX
8
CUT
10
18.9785
20
-25.7500
30
0.0
0
VERTEX
8
CUT
10
19.6178
20
-24.7220
30
0.0
0
VERTEX
8
CUT
10
20.3230
20
-23.7379
30
0.0
0
VERTEX
8
CUT
10
21.0910
20
-22.8021
30
0.0
0
VERTEX
8
CUT
10
21.9185
20
-21.9185
30
0.0
0
VERTEX
8
CUT
10
22.8021
20
-21.0910
30
0.0
0
VERTEX
8
CUT
10
23.7379
20
-20.3230
30
0.0
0
VERTEX
8
CUT
10
24.7220
20
-19.6178
30
0.0
0
VERTEX
8
CUT
10
25.7500
20
-18.9785
30
0.0
0
VERTEX
8
CUT
10
26.8177
20
-18.4079
30
0.0
0
VERTEX
8
CUT
10
27.9204
20
-17.9082
30
0.0
0
VERTEX
8
CUT
10
29.0534
20
-17.4818
30
0.0
0
VERTEX
8
CUT
10
30.2118
20
-17.1304
30
0.0
0
VERTEX
8
CUT
10
31.3908
20
-16.8555
30
0.0
0
VERTEX
8
CUT
10
32.5853
20
-16.6583
30
0.0
0
VERTEX
8
CUT
10
33.7900
20
-16.5396
30
0.0
0
VERTEX
8
CUT
10
35.0000
20
-16.5000
30
0.0
0
VERTEX
8
CUT
10
36.2100
20
-16.5396
30
0.0
0
VERTEX
8
CUT
10
37.4147
20
-16.6583
30
0.0
0
VERTEX
8
CUT
10
38.6092
20
-16.8555
30
0.0
0
VERTEX
8
CUT
10
39.7882
20
-17.1304
30
0.0
0
VERTEX
8
CUT
10
40.9466
20
-17.4818
30
0.0
0
VERTEX
8
CUT
10
42.0796
20
-17.9082
30
0.0
0
VERTEX
8
CUT
10
43.1823
20
-18.4079
30
0.0
0
VERTEX
8
CUT
10
44.2500
20
-18.9785
30
0.0
0
VERTEX
8
CUT
10
45.2780
20
-19.6178
30
0.0
0
VERTEX
8
CUT
10
46.2621
20
-20.3230
30
0.0
0
VERTEX
8
CUT
10
47.1979
20
-21.0910
30
0.0
0
VERTEX
8
CUT
10
48.0815
20
-21.9185
30
0.0
0
VERTEX
8
CUT
10
48.9090
20
-22.8021
30
0.0
0
VERTEX
8
CUT
10
49.6770
20
-23.7379
30
0.0
0
VERTEX
8
CUT
10
50.3822
20
-24.7220
30
0.0
0
VERTEX
8
CUT
10
51.0215
20
-25.7500
30
0.0
0
VERTEX
8
CUT
10
51.5921
20
-26.8177
30
0.0
0
VERTEX
8
CUT
10
52.0918
20
-27.9204
30
0.0
0
VERTEX
8
CUT
10
52.5182
20
-29.0534
30
0.0
0
VERTEX
8
CUT
10
52.8696
20
-30.2118
30
0.0
0
VERTEX
8
CUT
10
53.1445
20
-31.3908
30
0.0
0
VERTEX
8
CUT
10
53.3417
20
-32.5853
30
0.0
0
VERTEX
8
CUT
10
53.4604
20
-33.7900
30
0.0
0
SEQEND
0
POLYLINE
8
CUT
66
1
70
1
0
VERTEX
8
CUT
10
148.5000
20
-51.2500
30
0.0
0
VERTEX
8
CUT
10
151.5000
20
-51.2500
30
0.0
0
VERTEX
8
CUT
10
151.5000
20
-54.7500
30
0.0
0
VERTEX
8
CUT
10
148.5000
20
-54.7500
30
0.0
0
SEQEND
0
POLYLINE
8
CUT
66
1
70
1
0
VERTEX
8
CUT
10
148.2500
20
-15.5000
30
0.0
0
VERTEX
8
CUT
10
151.7500
20
-15.5000
30
0.0
0
VERTEX
8
CUT
10
151.7500
20
-18.5000
30
0.0
0
VERTEX
8
CUT
10
148.2500
20
-18.5000
30
0.0
0
SEQEND
0
POLYLINE
8
CUT
66
1
70
1
0
VERTEX
8
CUT
10
78.5000
20
-51.2500
30
0.0
0
VERTEX
8
CUT
10
81.5000
20
-51.2500
30
0.0
0
VERTEX
8
CUT
10
81.5000
20
-54.7500
30
0.0
0
VERTEX
8
CUT
10
78.5000
20
-54.7500
30
0.0
0
SEQEND
0
POLYLINE
8
CUT
66
1
70
1
0
VERTEX
8
CUT
10
78.2500
20
-15.5000
30
0.0
0
VERTEX
8
CUT
10
81.7500
20
-15.5000
30
0.0
0
VERTEX
8
CUT
10
81.7500
20
-18.5000
30
0.0
0
VERTEX
8
CUT
10
78.2500
20
-18.5000
30
0.0
0
SEQEND
0
POLYLINE
8
CUT
66
1
70
1
0
VERTEX
8
CUT
10
224.9500
20
-121.0000
30
0.0
0
VERTEX
8
CUT
10
224.9021
20
-121.9753
30
0.0
0
VERTEX
8
CUT
10
224.7588
20
-122.9411
30
0.0
0
VERTEX
8
CUT
10
224.5216
20
-123.8883
30
0.0
0
VERTEX
8
CUT
10
224.1926
20
-124.8077
30
0.0
0
VERTEX
8
CUT
10
223.7751
20
-125.6904
30
0.0
0
VERTEX
8
CUT
10
223.2731
20
-126.5279
30
0.0
0
VERTEX
8
CUT
10
222.6915
20
-127.3122
30
0.0
0
VERTEX
8
CUT
10
222.0357
20
-128.0357
30
0.0
0
VERTEX
8
CUT
10
221.3122
20
-128.6915
30
0.0
0
VERTEX
8
CUT
10
220.5279
20
-129.2731
30
0.0
0
VERTEX
8
CUT
10
219.6904
20
-129.7751
30
0.0
0
VERTEX
8
CUT
10
218.8077
20
-130.1926
30
0.0
0
VERTEX
8
CUT
10
217.8883
20
-130.5216
30
0.0
0
VERTEX
8
CUT
10
216.9411
20
-130.7588
30
0.0
0
VERTEX
8
CUT
10
215.9753
20
-130.9021
30
0.0
0
VERTEX
8
CUT
10
215.0000
20
-130.9500
30
0.0
0
VERTEX
8
CUT
10
15.0000
20
-130.9500
30
0.0
0
VERTEX
8
CUT
10
14.0247
20
-130.9021
30
0.0
0
VERTEX
8
CUT
10
13.0589
20
-130.7588
30
0.0
0
VERTEX
8
CUT
10
12.1117
20
-130.5216
30
0.0
0
VERTEX
8
CUT
10
11.1923
20
-130.1926
30
0.0
0
VERTEX
8
CUT
10
10.3096
20
-129.7751
30
0.0
0
VERTEX
8
CUT
10
9.4721
20
-129.2731
30
0.0
0
VERTEX
8
CUT
10
8.6878
20
-128.6915
30
0.0
0
VERTEX
8
CUT
10
7.9643
20
-128.0357
30
0.0
0
VERTEX
8
CUT
10
7.3085
20
-127.3122
30
0.0
0
VERTEX
8
CUT
10
6.7269
20
-126.5279
30
0.0
0
VERTEX
8
CUT
10
6.2249
20
-125.6904
30
0.0
0
VERTEX
8
CUT
10
5.8074
20
-124.8077
30
0.0
0
VERTEX
8
CUT
10
5.4784
20
-123.8883
30
0.0
0
VERTEX
8
CUT
10
5.2412
20
-122.9411
30
0.0
0
VERTEX
8
CUT
10
5.0979
20
-121.9753
30
0.0
0
VERTEX
8
CUT
10
5.0500
20
-121.0000
30
0.0
0
VERTEX
8
CUT
10
5.0500
20
-81.0000
30
0.0
0
VERTEX
8
CUT
10
5.0979
20
-80.0247
30
0.0
0
VERTEX
8
CUT
10
5.2412
20
-79.0589
30
0.0
0
VERTEX
8
CUT
10
5.4784
20
-78.1117
30
0.0
0
VERTEX
8
CUT
10
5.8074
20
-77.1923
30
0.0
0
VERTEX
8
CUT
10
6.2249
20
-76.3096
30
0.0
0
VERTEX
8
CUT
10
6.7269
20
-75.4721
30
0.0
0
VERTEX
8
CUT
10
7.3085
20
-74.6878
30
0.0
0
VERTEX
8
CUT
10
7.9643
20
-73.9643
30
0.0
0
VERTEX
8
CUT
10
8.6878
20
-73.3085
30
0.0
0
VERTEX
8
CUT
10
9.4721
20
-72.7269
30
0.0
0
VERTEX
8
CUT
10
10.3096
20
-72.2249
30
0.0
0
VERTEX
8
CUT
10
11.1923
20
-71.8074
30
0.0
0
VERTEX
8
CUT
10
12.1117
20
-71.4784
30
0.0
0
VERTEX
8
CUT
10
13.0589
20
-71.2412
30
0.0
0
VERTEX
8
CUT
10
14.0247
20
-71.0979
30
0.0
0
VERTEX
8
CUT
10
15.0000
20
-71.0500
30
0.0
0
VERTEX
8
CUT
10
215.0000
20
-71.0500
30
0.0
0
VERTEX
8
CUT
10
215.9753
20
-71.0979
30
0.0
0
VERTEX
8
CUT
10
216.9411
20
-71.2412
30
0.0
0
VERTEX
8
CUT
10
217.8883
20
-71.4784
30
0.0
0
VERTEX
8
CUT
10
218.8077
20
-71.8074
30
0.0
0
VERTEX
8
CUT
10
219.6904
20
-72.2249
30
0.0
0
VERTEX
8
CUT
10
220.5279
20
-72.7269
30
0.0
0
VERTEX
8
CUT
10
221.3122
20
-73.3085
30
0.0
0
VERTEX
8
CUT
10
222.0357
20
-73.9643
30
0.0
0
VERTEX
8
CUT
10
222.6915
20
-74.6878
30
0.0
0
VERTEX
8
CUT
10
223.2731
20
-75.4721
30
0.0
0
VERTEX
8
CUT
10
223.7751
20
-76.3096
30
0.0
0
VERTEX
8
CUT
10
224.1926
20
-77.1923
30
0.0
0
VERTEX
8
CUT
10
224.5216
20
-78.1117
30
0.0
0
VERTEX
8
CUT
10
224.7588
20
-79.0589
30
0.0
0
VERTEX
8
CUT
10
224.9021
20
-80.0247
30
0.0
0
VERTEX
8
CUT
10
224.9500
20
-81.0000
30
0.0
0
SEQEND
0
POLYLINE
8
CUT
66
1
70
1
0
VERTEX
8
CUT
10
213.5000
20
-101.0000
30
0.0
0
VERTEX
8
CUT
10
213.4604
20
-102.2100
30
0.0
0
VERTEX
8
CUT
10
213.3417
20
-103.4147
30
0.0
0
VERTEX
8
CUT
10
213.1445
20
-104.6092
30
0.0
0
VERTEX
8
CUT
10
212.8696
20
-105.7882
30
0.0
0
VERTEX
8
CUT
10
212.5182
20
-106.9466
30
0.0
0
VERTEX
8
CUT
10
212.0918
20
-108.0796
30
0.0
0
VERTEX
8
CUT
10
211.5921
20
-109.1823
30
0.0
0
VERTEX
8
CUT
10
211.0215
20
-110.2500
30
0.0
0
VERTEX
8
CUT
10
210.3822
20
-111.2780
30
0.0
0
VERTEX
8
CUT
10
209.6770
20
-112.2621
30
0.0
0
VERTEX
8
CUT
10
208.9090
20
-113.1979
30
0.0
0
VERTEX
8
CUT
10
208.0815
20
-114.0815
30
0.0
0
VERTEX
8
CUT
10
207.1979
20
-114.9090
30
0.0
0
VERTEX
8
CUT
10
206.2621
20
-115.6770
30
0.0
0
VERTEX
8
CUT
10
205.2780
20
-116.3822
30
0.0
0
VERTEX
8
CUT
10
204.2500
20
-117.0215
30
0.0
0
VERTEX
8
CUT
10
203.1823
20
-117.5921
30
0.0
0
VERTEX
8
CUT
10
202.0796
20
-118.0918
30
0.0
0
VERTEX
8
CUT
10
200.9466
20
-118.5182
30
0.0
0
VERTEX
8
CUT
10
199.7882
20
-118.8696
30
0.0
0
VERTEX
8
CUT
10
198.6092
20
-119.1445
30
0.0
0
VERTEX
8
CUT
10
197.4147
20
-119.3417
30
0.0
0
VERTEX
8
CUT
10
196.2100
20
-119.4604
30
0.0
0
VERTEX
8
CUT
10
195.0000
20
-119.5000
30
0.0
0
VERTEX
8
CUT
10
193.7900
20
-119.4604
30
0.0
0
VERTEX
8
CUT
10
192.5853
20
-119.3417
30
0.0
0
VERTEX
8
CUT
10
191.3908
20
-119.1445
30
0.0
0
VERTEX
8
CUT
10
190.2118
20
-118.8696
30
0.0
0
VERTEX
8
CUT
10
189.0534
20
-118.5182
30
0.0
0
VERTEX
8
CUT
10
187.9204
20
-118.0918
30
0.0
0
VERTEX
8
CUT
10
186.8177
20
-117.5921
30
0.0
0
VERTEX
8
CUT
10
185.7500
20
-117.0215
30
0.0
0
VERTEX
8
CUT
10
184.7220
20
-116.3822
30
0.0
0
VERTEX
8
CUT
10
183.7379
20
-115.6770
30
0.0
0
VERTEX
8
CUT
10
182.8021
20
-114.9090
30
0.0
0
VERTEX
8
CUT
10
181.9185
20
-114.0815
30
0.0
0
VERTEX
8
CUT
10
181.0910
20
-113.1979
30
0.0
0
VERTEX
8
CUT
10
180.3230
20
-112.2621
30
0.0
0
VERTEX
8
CUT
10
179.6178
20
-111.2780
30
0.0
0
VERTEX
8
CUT
10
178.9785
20
-110.2500
30
0.0
0
VERTEX
8
CUT
10
178.4079
20
-109.1823
30
0.0
0
VERTEX
8
CUT
10
177.9082
20
-108.0796
30
0.0
0
VERTEX
8
CUT
10
177.4818
20
-106.9466
30
0.0
0
VERTEX
8
CUT
10
177.1304
20
-105.7882
30
0.0
0
VERTEX
8
CUT
10
176.8555
20
-104.6092
30
0.0
0
VERTEX
8
CUT
10
176.6583
20
-103.4147
30
0.0
0
VERTEX
8
CUT
10
176.5396
20
-102.2100
30
0.0
0
VERTEX
8
CUT
10
176.5000
20
-101.0000
30
0.0
0
VERTEX
8
CUT
10
176.5396
20
-99.7900
30
0.0
0
VERTEX
8
CUT
10
176.6583
20
-98.5853
30
0.0
0
VERTEX
8
CUT
10
176.8555
20
-97.3908
30
0.0
0
VERTEX
8
CUT
10
177.1304
20
-96.2118
30
0.0
0
VERTEX
8
CUT
10
177.4818
20
-95.0534
30
0.0
0
VERTEX
8
CUT
10
177.9082
20
-93.9204
30
0.0
0
VERTEX
8
CUT
10
178.4079
20
-92.8177
30
0.0
0
VERTEX
8
CUT
10
178.9785
20
-91.7500
30
0.0
0
VERTEX
8
CUT
10
179.6178
20
-90.7220
30
0.0
0
VERTEX
8
CUT
10
180.3230
20
-89.7379
30
0.0
0
VERTEX
8
CUT
10
181.0910
20
-88.8021
30
0.0
0
VERTEX
8
CUT
10
181.9185
20
-87.9185
30
0.0
0
VERTEX
8
CUT
10
182.8021
20
-87.0910
30
0.0
0
VERTEX
8
CUT
10
183.7379
20
-86.3230
30
0.0
0
VERTEX
8
CUT
10
184.7220
20
-85.6178
30
0.0
0
VERTEX
8
CUT
10
185.7500
20
-84.9785
30
0.0
0
VERTEX
8
CUT
10
186.8177
20
-84.4079
30
0.0
0
VERTEX
8
CUT
10
187.9204
20
-83.9082
30
0.0
0
VERTEX
8
CUT
10
189.0534
20
-83.4818
30
0.0
0
VERTEX
8
CUT
10
190.2118
20
-83.1304
30
0.0
0
VERTEX
8
CUT
10
191.3908
20
-82.8555
30
0.0
0
VERTEX
8
CUT
10
192.5853
20
-82.6583
30
0.0
0
VERTEX
8
CUT
10
193.7900
20
-82.5396
30
0.0
0
VERTEX
8
CUT
10
195.0000
20
-82.5000
30
0.0
0
VERTEX
8
CUT
10
196.2100
20
-82.5396
30
0.0
0
VERTEX
8
CUT
10
197.4147
20
-82.6583
30
0.0
0
VERTEX
8
CUT
10
198.6092
20
-82.8555
30
0.0
0
VERTEX
8
CUT
10
199.7882
20
-83.1304
30
0.0
0
VERTEX
8
CUT
10
200.9466
20
-83.4818
30
0.0
0
VERTEX
8
CUT
10
202.0796
20
-83.9082
30
0.0
0
VERTEX
8
CUT
10
203.1823
20
-84.4079
30
0.0
0
VERTEX
8
CUT
10
204.2500
20
-84.9785
30
0.0
0
VERTEX
8
CUT
10
205.2780
20
-85.6178
30
0.0
0
VERTEX
8
CUT
10
206.2621
20
-86.3230
30
0.0
0
VERTEX
8
CUT
10
207.1979
20
-87.0910
30
0.0
0
VERTEX
8
CUT
10
208.0815
20
-87.9185
30
0.0
0
VERTEX
8
CUT
10
208.9090
20
-88.8021
30
0.0
0
VERTEX
8
CUT
10
209.6770
20
-89.7379
30
0.0
0
VERTEX
8
CUT
10
210.3822
20
-90.7220
30
0.0
0
VERTEX
8
CUT
10
211.0215
20
-91.7500
30
0.0
0
VERTEX
8
CUT
10
211.5921
20
-92.8177
30
0.0
0
VERTEX
8
CUT
10
212.0918
20
-93.9204
30
0.0
0
VERTEX
8
CUT
10
212.5182
20
-95.0534
30
0.0
0
VERTEX
8
CUT
10
212.8696
20
-96.2118
30
0.0
0
VERTEX
8
CUT
10
213.1445
20
-97.3908
30
0.0
0
VERTEX
8
CUT
10
213.3417
20
-98.5853
30
0.0
0
VERTEX
8
CUT
10
213.4604
20
-99.7900
30
0.0
0
SEQEND
0
POLYLINE
8
CUT
66
1
70
1
0
VERTEX
8
CUT
10
53.5000
20
-101.0000
30
0.0
0
VERTEX
8
CUT
10
53.4604
20
-102.2100
30
0.0
0
VERTEX
8
CUT
10
53.3417
20
-103.4147
30
0.0
0
VERTEX
8
CUT
10
53.1445
20
-104.6092
30
0.0
0
VERTEX
8
CUT
10
52.8696
20
-105.7882
30
0.0
0
VERTEX
8
CUT
10
52.5182
20
-106.9466
30
0.0
0
VERTEX
8
CUT
10
52.0918
20
-108.0796
30
0.0
0
VERTEX
8
CUT
10
51.5921
20
-109.1823
30
0.0
0
VERTEX
8
CUT
10
51.0215
20
-110.2500
30
0.0
0
VERTEX
8
CUT
10
50.3822
20
-111.2780
30
0.0
0
VERTEX
8
CUT
10
49.6770
20
-112.2621
30
0.0
0
VERTEX
8
CUT
10
48.9090
20
-113.1979
30
0.0
0
VERTEX
8
CUT
10
48.0815
20
-114.0815
30
0.0
0
VERTEX
8
CUT
10
47.1979
20
-114.9090
30
0.0
0
VERTEX
8
CUT
10
46.2621
20
-115.6770
30
0.0
0
VERTEX
8
CUT
10
45.2780
20
-116.3822
30
0.0
0
VERTEX
8
CUT
10
44.2500
20
-117.0215
30
0.0
0
VERTEX
8
CUT
10
43.1823
20
-117.5921
30
0.0
0
VERTEX
8
CUT
10
42.0796
20
-118.0918
30
0.0
0
VERTEX
8
CUT
10
40.9466
20
-118.5182
30
0.0
0
VERTEX
8
CUT
10
39.7882
20
-118.8696
30
0.0
0
VERTEX
8
CUT
10
38.6092
20
-119.1445
30
0.0
0
VERTEX
8
CUT
10
37.4147
20
-119.3417
30
0.0
0
VERTEX
8
CUT
10
36.2100
20
-119.4604
30
0.0
0
VERTEX
8
CUT
10
35.0000
20
-119.5000
30
0.0
0
VERTEX
8
CUT
10
33.7900
20
-119.4604
30
0.0
0
VERTEX
8
CUT
10
32.5853
20
-119.3417
30
0.0
0
VERTEX
8
CUT
10
31.3908
20
-119.1445
30
0.0
0
VERTEX
8
CUT
10
30.2118
20
-118.8696
30
0.0
0
VERTEX
8
CUT
10
29.0534
20
-118.5182
30
0.0
0
VERTEX
8
CUT
10
27.9204
20
-118.0918
30
0.0
0
VERTEX
8
CUT
10
26.8177
20
-117.5921
30
0.0
0
VERTEX
8
CUT
10
25.7500
20
-117.0215
30
0.0
0
VERTEX
8
CUT
10
24.7220
20
-116.3822
30
0.0
0
VERTEX
8
CUT
10
23.7379
20
-115.6770
30
0.0
0
VERTEX
8
CUT
10
22.8021
20
-114.9090
30
0.0
0
VERTEX
8
CUT
10
21.9185
20
-114.0815
30
0.0
0
VERTEX
8
CUT
10
21.0910
20
-113.1979
30
0.0
0
VERTEX
8
CUT
10
20.3230
20
-112.2621
30
0.0
0
VERTEX
8
CUT
10
19.6178
20
-111.2780
30
0.0
0
VERTEX
8
CUT
10
18.9785
20
-110.2500
30
0.0
0
VERTEX
8
CUT
10
18.4079
20
-109.1823
30
0.0
0
VERTEX
8
CUT
10
17.9082
20
-108.0796
30
0.0
0
VERTEX
8
CUT
10
17.4818
20
-106.9466
30
0.0
0
VERTEX
8
CUT
10
17.1304
20
-105.7882
30
0.0
0
VERTEX
8
CUT
10
16.8555
20
-104.6092
30
0.0
0
VERTEX
8
CUT
10
16.6583
20
-103.4147
30
0.0
0
VERTEX
8
CUT
10
16.5396
20
-102.2100
30
0.0
0
VERTEX
8
CUT
10
16.5000
20
-101.0000
30
0.0
0
VERTEX
8
CUT
10
16.5396
20
-99.7900
30
0.0
0
VERTEX
8
CUT
10
16.6583
20
-98.5853
30
0.0
0
VERTEX
8
CUT
10
16.8555
20
-97.3908
30
0.0
0
VERTEX
8
CUT
10
17.1304
20
-96.2118
30
0.0
0
VERTEX
8
CUT
10
17.4818
20
-95.0534
30
0.0
0
VERTEX
8
CUT
10
17.9082
20
-93.9204
30
0.0
0
VERTEX
8
CUT
10
18.4079
20
-92.8177
30
0.0
0
VERTEX
8
CUT
10
18.9785
20
-91.7500
30
0.0
0
VERTEX
8
CUT
10
19.6178
20
-90.7220
30
0.0
0
VERTEX
8
CUT
10
20.3230
20
-89.7379
30
0.0
0
VERTEX
8
CUT
10
21.0910
20
-88.8021
30
0.0
0
VERTEX
8
CUT
10
21.9185
20
-87.9185
30
0.0
0
VERTEX
8
CUT
10
22.8021
20
-87.0910
30
0.0
0
VERTEX
8
CUT
10
23.7379
20
-86.3230
30
0.0
0
VERTEX
8
CUT
10
24.7220
20
-85.6178
30
0.0
0
VERTEX
8
CUT
10
25.7500
20
-84.9785
30
0.0
0
VERTEX
8
CUT
10
26.8177
20
-84.4079
30
0.0
0
VERTEX
8
CUT
10
27.9204
20
-83.9082
30
0.0
0
VERTEX
8
CUT
10
29.0534
20
-83.4818
30
0.0
0
VERTEX
8
CUT
10
30.2118
20
-83.1304
30
0.0
0
VERTEX
8
CUT
10
31.3908
20
-82.8555
30
0.0
0
VERTEX
8
CUT
10
32.5853
20
-82.6583
30
0.0
0
VERTEX
8
CUT
10
33.7900
20
-82.5396
30
0.0
0
VERTEX
8
CUT
10
35.0000
20
-82.5000
30
0.0
0
VERTEX
8
CUT
10
36.2100
20
-82.5396
30
0.0
0
VERTEX
8
CUT
10
37.4147
20
-82.6583
30
0.0
0
VERTEX
8
CUT
10
38.6092
20
-82.8555
30
0.0
0
VERTEX
8
CUT
10
39.7882
20
-83.1304
30
0.0
0
VERTEX
8
CUT
10
40.9466
20
-83.4818
30
0.0
0
VERTEX
8
CUT
10
42.0796
20
-83.9082
30
0.0
0
VERTEX
8
CUT
10
43.1823
20
-84.4079
30
0.0
0
VERTEX
8
CUT
10
44.2500
20
-84.9785
30
0.0
0
VERTEX
8
CUT
10
45.2780
20
-85.6178
30
0.0
0
VERTEX
8
CUT
10
46.2621
20
-86.3230
30
0.0
0
VERTEX
8
CUT
10
47.1979
20
-87.0910
30
0.0
0
VERTEX
8
CUT
10
48.0815
20
-87.9185
30
0.0
0
VERTEX
8
CUT
10
48.9090
20
-88.8021
30
0.0
0
VERTEX
8
CUT
10
49.6770
20
-89.7379
30
0.0
0
VERTEX
8
CUT
10
50.3822
20
-90.7220
30
0.0
0
VERTEX
8
CUT
10
51.0215
20
-91.7500
30
0.0
0
VERTEX
8
CUT
10
51.5921
20
-92.8177
30
0.0
0
VERTEX
8
CUT
10
52.0918
20
-93.9204
30
0.0
0
VERTEX
8
CUT
10
52.5182
20
-95.0534
30
0.0
0
VERTEX
8
CUT
10
52.8696
20
-96.2118
30
0.0
0
VERTEX
8
CUT
10
53.1445
20
-97.3908
30
0.0
0
VERTEX
8
CUT
10
53.3417
20
-98.5853
30
0.0
0
VERTEX
8
CUT
10
53.4604
20
-99.7900
30
0.0
0
SEQEND
0
POLYLINE
8
CUT
66
1
70
1
0
VERTEX
8
CUT
10
148.5000
20
-117.2500
30
0.0
0
VERTEX
8
CUT
10
151.5000
20
-117.2500
30
0.0
0
VERTEX
8
CUT
10
151.5000
20
-120.7500
30
0.0
0
VERTEX
8
CUT
10
148.5000
20
-120.7500
30
0.0
0
SEQEND
0
POLYLINE
8
CUT
66
1
70
1
0
VERTEX
8
CUT
10
148.2500
20
-81.5000
30
0.0
0
VERTEX
8
CUT
10
151.7500
20
-81.5000
30
0.0
0
VERTEX
8
CUT
10
151.7500
20
-84.5000
30
0.0
0
VERTEX
8
CUT
10
148.2500
20
-84.5000
30
0.0
0
SEQEND
0
POLYLINE
8
CUT
66
1
70
1
0
VERTEX
8
CUT
10
78.5000
20
-117.2500
30
0.0
0
VERTEX
8
CUT
10
81.5000
20
-117.2500
30
0.0
0
VERTEX
8
CUT
10
81.5000
20
-120.7500
30
0.0
0
VERTEX
8
CUT
10
78.5000
20
-120.7500
30
0.0
0
SEQEND
0
POLYLINE
8
CUT
66
1
70
1
0
VERTEX
8
CUT
10
78.2500
20
-81.5000
30
0.0
0
VERTEX
8
CUT
10
81.7500
20
-81.5000
30
0.0
0
VERTEX
8
CUT
10
81.7500
20
-84.5000
30
0.0
0
VERTEX
8
CUT
10
78.2500
20
-84.5000
30
0.0
0
SEQEND
0
POLYLINE
8
CUT
66
1
70
1
0
VERTEX
8
CUT
10
224.9500
20
-187.0000
30
0.0
0
VERTEX
8
CUT
10
224.9021
20
-187.9753
30
0.0
0
VERTEX
8
CUT
10
224.7588
20
-188.9411
30
0.0
0
VERTEX
8
CUT
10
224.5216
20
-189.8883
30
0.0
0
VERTEX
8
CUT
10
224.1926
20
-190.8077
30
0.0
0
VERTEX
8
CUT
10
223.7751
20
-191.6904
30
0.0
0
VERTEX
8
CUT
10
223.2731
20
-192.5279
30
0.0
0
VERTEX
8
CUT
10
222.6915
20
-193.3122
30
0.0
0
VERTEX
8
CUT
10
222.0357
20
-194.0357
30
0.0
0
VERTEX
8
CUT
10
221.3122
20
-194.6915
30
0.0
0
VERTEX
8
CUT
10
220.5279
20
-195.2731
30
0.0
0
VERTEX
8
CUT
10
219.6904
20
-195.7751
30
0.0
0
VERTEX
8
CUT
10
218.8077
20
-196.1926
30
0.0
0
VERTEX
8
CUT
10
217.8883
20
-196.5216
30
0.0
0
VERTEX
8
CUT
10
216.9411
20
-196.7588
30
0.0
0
VERTEX
8
CUT
10
215.9753
20
-196.9021
30
0.0
0
VERTEX
8
CUT
10
215.0000
20
-196.9500
30
0.0
0
VERTEX
8
CUT
10
15.0000
20
-196.9500
30
0.0
0
VERTEX
8
CUT
10
14.0247
20
-196.9021
30
0.0
0
VERTEX
8
CUT
10
13.0589
20
-196.7588
30
0.0
0
VERTEX
8
CUT
10
12.1117
20
-196.5216
30
0.0
0
VERTEX
8
CUT
10
11.1923
20
-196.1926
30
0.0
0
VERTEX
8
CUT
10
10.3096
20
-195.7751
30
0.0
0
VERTEX
8
CUT
10
9.4721
20
-195.2731
30
0.0
0
VERTEX
8
CUT
10
8.6878
20
-194.6915
30
0.0
0
VERTEX
8
CUT
10
7.9643
20
-194.0357
30
0.0
0
VERTEX
8
CUT
10
7.3085
20
-193.3122
30
0.0
0
VERTEX
8
CUT
10
6.7269
20
-192.5279
30
0.0
0
VERTEX
8
CUT
10
6.2249
20
-191.6904
30
0.0
0
VERTEX
8
CUT
10
5.8074
20
-190.8077
30
0.0
0
VERTEX
8
CUT
10
5.4784
20
-189.8883
30
0.0
0
VERTEX
8
CUT
10
5.2412
20
-188.9411
30
0.0
0
VERTEX
8
CUT
10
5.0979
20
-187.9753
30
0.0
0
VERTEX
8
CUT
10
5.0500
20
-187.0000
30
0.0
0
VERTEX
8
CUT
10
5.0500
20
-147.0000
30
0.0
0
VERTEX
8
CUT
10
5.0979
20
-146.0247
30
0.0
0
VERTEX
8
CUT
10
5.2412
20
-145.0589
30
0.0
0
VERTEX
8
CUT
10
5.4784
20
-144.1117
30
0.0
0
VERTEX
8
CUT
10
5.8074
20
-143.1923
30
0.0
0
VERTEX
8
CUT
10
6.2249
20
-142.3096
30
0.0
0
VERTEX
8
CUT
10
6.7269
20
-141.4721
30
0.0
0
VERTEX
8
CUT
10
7.3085
20
-140.6878
30
0.0
0
VERTEX
8
CUT
10
7.9643
20
-139.9643
30
0.0
0
VERTEX
8
CUT
10
8.6878
20
-139.3085
30
0.0
0
VERTEX
8
CUT
10
9.4721
20
-138.7269
30
0.0
0
VERTEX
8
CUT
10
10.3096
20
-138.2249
30
0.0
0
VERTEX
8
CUT
10
11.1923
20
-137.8074
30
0.0
0
VERTEX
8
CUT
10
12.1117
20
-137.4784
30
0.0
0
VERTEX
8
CUT
10
13.0589
20
-137.2412
30
0.0
0
VERTEX
8
CUT
10
14.0247
20
-137.0979
30
0.0
0
VERTEX
8
CUT
10
15.0000
20
-137.0500
30
0.0
0
VERTEX
8
CUT
10
215.0000
20
-137.0500
30
0.0
0
VERTEX
8
CUT
10
215.9753
20
-137.0979
30
0.0
0
VERTEX
8
CUT
10
216.9411
20
-137.2412
30
0.0
0
VERTEX
8
CUT
10
217.8883
20
-137.4784
30
0.0
0
VERTEX
8
CUT
10
218.8077
20
-137.8074
30
0.0
0
VERTEX
8
CUT
10
219.6904
20
-138.2249
30
0.0
0
VERTEX
8
CUT
10
220.5279
20
-138.7269
30
0.0
0
VERTEX
8
CUT
10
221.3122
20
-139.3085
30
0.0
0
VERTEX
8
CUT
10
222.0357
20
-139.9643
30
0.0
0
VERTEX
8
CUT
10
222.6915
20
-140.6878
30
0.0
0
VERTEX
8
CUT
10
223.2731
20
-141.4721
30
0.0
0
VERTEX
8
CUT
10
223.7751
20
-142.3096
30
0.0
0
VERTEX
8
CUT
10
224.1926
20
-143.1923
30
0.0
0
VERTEX
8
CUT
10
224.5216
20
-144.1117
30
0.0
0
VERTEX
8
CUT
10
224.7588
20
-145.0589
30
0.0
0
VERTEX
8
CUT
10
224.9021
20
-146.0247
30
0.0
0
VERTEX
8
CUT
10
224.9500
20
-147.0000
30
0.0
0
SEQEND
0
POLYLINE
8
CUT
66
1
70
1
0
VERTEX
8
CUT
10
213.5000
20
-167.0000
30
0.0
0
VERTEX
8
CUT
10
213.4604
20
-168.2100
30
0.0
0
VERTEX
8
CUT
10
213.3417
20
-169.4147
30
0.0
0
VERTEX
8
CUT
10
213.1445
20
-170.6092
30
0.0
0
VERTEX
8
CUT
10
212.8696
20
-171.7882
30
0.0
0
VERTEX
8
CUT
10
212.5182
20
-172.9466
30
0.0
0
VERTEX
8
CUT
10
212.0918
20
-174.0796
30
0.0
0
VERTEX
8
CUT
10
211.5921
20
-175.1823
30
0.0
0
VERTEX
8
CUT
10
211.0215
20
-176.2500
30
0.0
0
VERTEX
8
CUT
10
210.3822
20
-177.2780
30
0.0
0
VERTEX
8
CUT
10
209.6770
20
-178.2621
30
0.0
0
VERTEX
8
CUT
10
208.9090
20
-179.1979
30
0.0
0
VERTEX
8
CUT
10
208.0815
20
-180.0815
30
0.0
0
VERTEX
8
CUT
10
207.1979
20
-180.9090
30
0.0
0
VERTEX
8
CUT
10
206.2621
20
-181.6770
30
0.0
0
VERTEX
8
CUT
10
205.2780
20
-182.3822
30
0.0
0
VERTEX
8
CUT
10
204.2500
20
-183.0215
30
0.0
0
VERTEX
8
CUT
10
203.1823
20
-183.5921
30
0.0
0
VERTEX
8
CUT
10
202.0796
20
-184.0918
30
0.0
0
VERTEX
8
CUT
10
200.9466
20
-184.5182
30
0.0
0
VERTEX
8
CUT
10
199.7882
20
-184.8696
30
0.0
0
VERTEX
8
CUT
10
198.6092
20
-185.1445
30
0.0
0
VERTEX
8
CUT
10
197.4147
20
-185.3417
30
0.0
0
VERTEX
8
CUT
10
196.2100
20
-185.4604
30
0.0
0
VERTEX
8
CUT
10
195.0000
20
-185.5000
30
0.0
0
VERTEX
8
CUT
10
193.7900
20
-185.4604
30
0.0
0
VERTEX
8
CUT
10
192.5853
20
-185.3417
30
0.0
0
VERTEX
8
CUT
10
191.3908
20
-185.1445
30
0.0
0
VERTEX
8
CUT
10
190.2118
20
-184.8696
30
0.0
0
VERTEX
8
CUT
10
189.0534
20
-184.5182
30
0.0
0
VERTEX
8
CUT
10
187.9204
20
-184.0918
30
0.0
0
VERTEX
8
CUT
10
186.8177
20
-183.5921
30
0.0
0
VERTEX
8
CUT
10
185.7500
20
-183.0215
30
0.0
0
VERTEX
8
CUT
10
184.7220
20
-182.3822
30
0.0
0
VERTEX
8
CUT
10
183.7379
20
-181.6770
30
0.0
0
VERTEX
8
CUT
10
182.8021
20
-180.9090
30
0.0
0
VERTEX
8
CUT
10
181.9185
20
-180.0815
30
0.0
0
VERTEX
8
CUT
10
181.0910
20
-179.1979
30
0.0
0
VERTEX
8
CUT
10
180.3230
20
-178.2621
30
0.0
0
VERTEX
8
CUT
10
179.6178
20
-177.2780
30
0.0
0
VERTEX
8
CUT
10
178.9785
20
-176.2500
30
0.0
0
VERTEX
8
CUT
10
178.4079
20
-175.1823
30
0.0
0
VERTEX
8
CUT
10
177.9082
20
-174.0796
30
0.0
0
VERTEX
8
CUT
10
177.4818
20
-172.9466
30
0.0
0
VERTEX
8
CUT
10
177.1304
20
-171.7882
30
0.0
0
VERTEX
8
CUT
10
176.8555
20
-170.6092
30
0.0
0
VERTEX
8
CUT
10
176.6583
20
-169.4147
30
0.0
0
VERTEX
8
CUT
10
176.5396
20
-168.2100
30
0.0
0
VERTEX
8
CUT
10
176.5000
20
-167.0000
30
0.0
0
VERTEX
8
CUT
10
176.5396
20
-165.7900
30
0.0
0
VERTEX
8
CUT
10
176.6583
20
-164.5853
30
0.0
0
VERTEX
8
CUT
10
176.8555
20
-163.3908
30
0.0
0
VERTEX
8
CUT
10
177.1304
20
-162.2118
30
0.0
0
VERTEX
8
CUT
10
177.4818
20
-161.0534
30
0.0
0
VERTEX
8
CUT
10
177.9082
20
-159.9204
30
0.0
0
VERTEX
8
CUT
10
178.4079
20
-158.8177
30
0.0
0
VERTEX
8
CUT
10
178.9785
20
-157.7500
30
0.0
0
VERTEX
8
CUT
10
179.6178
20
-156.7220
30
0.0
0
VERTEX
8
CUT
10
180.3230
20
-155.7379
30
0.0
0
VERTEX
8
CUT
10
181.0910
20
-154.8021
30
0.0
0
VERTEX
8
CUT
10
181.9185
20
-153.9185
30
0.0
0
VERTEX
8
CUT
10
182.8021
20
-153.0910
30
0.0
0
VERTEX
8
CUT
10
183.7379
20
-152.3230
30
0.0
0
VERTEX
8
CUT
10
184.7220
20
-151.6178
30
0.0
0
VERTEX
8
CUT
10
185.7500
20
-150.9785
30
0.0
0
VERTEX
8
CUT
10
186.8177
20
-150.4079
30
0.0
0
VERTEX
8
CUT
10
187.9204
20
-149.9082
30
0.0
0
VERTEX
8
CUT
10
189.0534
20
-149.4818
30
0.0
0
VERTEX
8
CUT
10
190.2118
20
-149.1304
30
0.0
0
VERTEX
8
CUT
10
191.3908
20
-148.8555
30
0.0
0
VERTEX
8
CUT
10
192.5853
20
-148.6583
30
0.0
0
VERTEX
8
CUT
10
193.7900
20
-148.5396
30
0.0
0
VERTEX
8
CUT
10
195.0000
20
-148.5000
30
0.0
0
VERTEX
8
CUT
10
196.2100
20
-148.5396
30
0.0
0
VERTEX
8
CUT
10
197.4147
20
-148.6583
30
0.0
0
VERTEX
8
CUT
10
198.6092
20
-148.8555
30
0.0
0
VERTEX
8
CUT
10
199.7882
20
-149.1304
30
0.0
0
VERTEX
8
CUT
10
200.9466
20
-149.4818
30
0.0
0
VERTEX
8
CUT
10
202.0796
20
-149.9082
30
0.0
0
VERTEX
8
CUT
10
203.1823
20
-150.4079
30
0.0
0
VERTEX
8
CUT
10
204.2500
20
-150.9785
30
0.0
0
VERTEX
8
CUT
10
205.2780
20
-151.6178
30
0.0
0
VERTEX
8
CUT
10
206.2621
20
-152.3230
30
0.0
0
VERTEX
8
CUT
10
207.1979
20
-153.0910
30
0.0
0
VERTEX
8
CUT
10
208.0815
20
-153.9185
30
0.0
0
VERTEX
8
CUT
10
208.9090
20
-154.8021
30
0.0
0
VERTEX
8
CUT
10
209.6770
20
-155.7379
30
0.0
0
VERTEX
8
CUT
10
210.3822
20
-156.7220
30
0.0
0
VERTEX
8
CUT
10
211.0215
20
-157.7500
30
0.0
0
VERTEX
8
CUT
10
211.5921
20
-158.8177
30
0.0
0
VERTEX
8
CUT
10
212.0918
20
-159.9204
30
0.0
0
VERTEX
8
CUT
10
212.5182
20
-161.0534
30
0.0
0
VERTEX
8
CUT
10
212.8696
20
-162.2118
30
0.0
0
VERTEX
8
CUT
10
213.1445
20
-163.3908
30
0.0
0
VERTEX
8
CUT
10
213.3417
20
-164.5853
30
0.0
0
VERTEX
8
CUT
10
213.4604
20
-165.7900
30
0.0
0
SEQEND
0
POLYLINE
8
CUT
66
1
70
1
0
VERTEX
8
CUT
10
53.5000
20
-167.0000
30
0.0
0
VERTEX
8
CUT
10
53.4604
20
-168.2100
30
0.0
0
VERTEX
8
CUT
10
53.3417
20
-169.4147
30
0.0
0
VERTEX
8
CUT
10
53.1445
20
-170.6092
30
0.0
0
VERTEX
8
CUT
10
52.8696
20
-171.7882
30
0.0
0
VERTEX
8
CUT
10
52.5182
20
-172.9466
30
0.0
0
VERTEX
8
CUT
10
52.0918
20
-174.0796
30
0.0
0
VERTEX
8
CUT
10
51.5921
20
-175.1823
30
0.0
0
VERTEX
8
CUT
10
51.0215
20
-176.2500
30
0.0
0
VERTEX
8
CUT
10
50.3822
20
-177.2780
30
0.0
0
VERTEX
8
CUT
10
49.6770
20
-178.2621
30
0.0
0
VERTEX
8
CUT
10
48.9090
20
-179.1979
30
0.0
0
VERTEX
8
CUT
10
48.0815
20
-180.0815
30
0.0
0
VERTEX
8
CUT
10
47.1979
20
-180.9090
30
0.0
0
VERTEX
8
CUT
10
46.2621
20
-181.6770
30
0.0
0
VERTEX
8
CUT
10
45.2780
20
-182.3822
30
0.0
0
VERTEX
8
CUT
10
44.2500
20
-183.0215
30
0.0
0
VERTEX
8
CUT
10
43.1823
20
-183.5921
30
0.0
0
VERTEX
8
CUT
10
42.0796
20
-184.0918
30
0.0
0
VERTEX
8
CUT
10
40.9466
20
-184.5182
30
0.0
0
VERTEX
8
CUT
10
39.7882
20
-184.8696
30
0.0
0
VERTEX
8
CUT
10
38.6092
20
-185.1445
30
0.0
0
VERTEX
8
CUT
10
37.4147
20
-185.3417
30
0.0
0
VERTEX
8
CUT
10
36.2100
20
-185.4604
30
0.0
0
VERTEX
8
CUT
10
35.0000
20
-185.5000
30
0.0
0
VERTEX
8
CUT
10
33.7900
20
-185.4604
30
0.0
0
VERTEX
8
CUT
10
32.5853
20
-185.3417
30
0.0
0
VERTEX
8
CUT
10
31.3908
20
-185.1445
30
0.0
0
VERTEX
8
CUT
10
30.2118
20
-184.8696
30
0.0
0
VERTEX
8
CUT
10
29.0534
20
-184.5182
30
0.0
0
VERTEX
8
CUT
10
27.9204
20
-184.0918
30
0.0
0
VERTEX
8
CUT
10
26.8177
20
-183.5921
30
0.0
0
VERTEX
8
CUT
10
25.7500
20
-183.0215
30
0.0
0
VERTEX
8
CUT
10
24.7220
20
-182.3822
30
0.0
0
VERTEX
8
CUT
10
23.7379
20
-181.6770
30
0.0
0
VERTEX
8
CUT
10
22.8021
20
-180.9090
30
0.0
0
VERTEX
8
CUT
10
21.9185
20
-180.0815
30
0.0
0
VERTEX
8
CUT
10
21.0910
20
-179.1979
30
0.0
0
VERTEX
8
CUT
10
20.3230
20
-178.2621
30
0.0
0
VERTEX
8
CUT
10
19.6178
20
-177.2780
30
0.0
0
VERTEX
8
CUT
10
18.9785
20
-176.2500
30
0.0
0
VERTEX
8
CUT
10
18.4079
20
-175.1823
30
0.0
0
VERTEX
8
CUT
10
17.9082
20
-174.0796
30
0.0
0
VERTEX
8
CUT
10
17.4818
20
-172.9466
30
0.0
0
VERTEX
8
CUT
10
17.1304
20
-171.7882
30
0.0
0
VERTEX
8
CUT
10
16.8555
20
-170.6092
30
0.0
0
VERTEX
8
CUT
10
16.6583
20
-169.4147
30
0.0
0
VERTEX
8
CUT
10
16.5396
20
-168.2100
30
0.0
0
VERTEX
8
CUT
10
16.5000
20
-167.0000
30
0.0
0
VERTEX
8
CUT
10
16.5396
20
-165.7900
30
0.0
0
VERTEX
8
CUT
10
16.6583
20
-164.5853
30
0.0
0
VERTEX
8
CUT
10
16.8555
20
-163.3908
30
0.0
0
VERTEX
8
CUT
10
17.1304
20
-162.2118
30
0.0
0
VERTEX
8
CUT
10
17.4818
20
-161.0534
30
0.0
0
VERTEX
8
CUT
10
17.9082
20
-159.9204
30
0.0
0
VERTEX
8
CUT
10
18.4079
20
-158.8177
30
0.0
0
VERTEX
8
CUT
10
18.9785
20
-157.7500
30
0.0
0
VERTEX
8
CUT
10
19.6178
20
-156.7220
30
0.0
0
VERTEX
8
CUT
10
20.3230
20
-155.7379
30
0.0
0
VERTEX
8
CUT
10
21.0910
20
-154.8021
30
0.0
0
VERTEX
8
CUT
10
21.9185
20
-153.9185
30
0.0
0
VERTEX
8
CUT
10
22.8021
20
-153.0910
30
0.0
0
VERTEX
8
CUT
10
23.7379
20
-152.3230
30
0.0
0
VERTEX
8
CUT
10
24.7220
20
-151.6178
30
0.0
0
VERTEX
8
CUT
10
25.7500
20
-150.9785
30
0.0
0
VERTEX
8
CUT
10
26.8177
20
-150.4079
30
0.0
0
VERTEX
8
CUT
10
27.9204
20
-149.9082
30
0.0
0
VERTEX
8
CUT
10
29.0534
20
-149.4818
30
0.0
0
VERTEX
8
CUT
10
30.2118
20
-149.1304
30
0.0
0
VERTEX
8
CUT
10
31.3908
20
-148.8555
30
0.0
0
VERTEX
8
CUT
10
32.5853
20
-148.6583
30
0.0
0
VERTEX
8
CUT
10
33.7900
20
-148.5396
30
0.0
0
VERTEX
8
CUT
10
35.0000
20
-148.5000
30
0.0
0
VERTEX
8
CUT
10
36.2100
20
-148.5396
30
0.0
0
VERTEX
8
CUT
10
37.4147
20
-148.6583
30
0.0
0
VERTEX
8
CUT
10
38.6092
20
-148.8555
30
0.0
0
VERTEX
8
CUT
10
39.7882
20
-149.1304
30
0.0
0
VERTEX
8
CUT
10
40.9466
20
-149.4818
30
0.0
0
VERTEX
8
CUT
10
42.0796
20
-149.9082
30
0.0
0
VERTEX
8
CUT
10
43.1823
20
-150.4079
30
0.0
0
VERTEX
8
CUT
10
44.2500
20
-150.9785
30
0.0
0
VERTEX
8
CUT
10
45.2780
20
-151.6178
30
0.0
0
VERTEX
8
CUT
10
46.2621
20
-152.3230
30
0.0
0
VERTEX
8
CUT
10
47.1979
20
-153.0910
30
0.0
0
VERTEX
8
CUT
10
48.0815
20
-153.9185
30
0.0
0
VERTEX
8
CUT
10
48.9090
20
-154.8021
30
0.0
0
VERTEX
8
CUT
10
49.6770
20
-155.7379
30
0.0
0
VERTEX
8
CUT
10
50.3822
20
-156.7220
30
0.0
0
VERTEX
8
CUT
10
51.0215
20
-157.7500
30
0.0
0
VERTEX
8
CUT
10
51.5921
20
-158.8177
30
0.0
0
VERTEX
8
CUT
10
52.0918
20
-159.9204
30
0.0
0
VERTEX
8
CUT
10
52.5182
20
-161.0534
30
0.0
0
VERTEX
8
CUT
10
52.8696
20
-162.2118
30
0.0
0
VERTEX
8
CUT
10
53.1445
20
-163.3908
30
0.0
0
VERTEX
8
CUT
10
53.3417
20
-164.5853
30
0.0
0
VERTEX
8
CUT
10
53.4604
20
-165.7900
30
0.0
0
SEQEND
0
POLYLINE
8
CUT
66
1
70
1
0
VERTEX
8
CUT
10
148.5000
20
-183.2500
30
0.0
0
VERTEX
8
CUT
10
151.5000
20
-183.2500
30
0.0
0
VERTEX
8
CUT
10
151.5000
20
-186.7500
30
0.0
0
VERTEX
8
CUT
10
148.5000
20
-186.7500
30
0.0
0
SEQEND
0
POLYLINE
8
CUT
66
1
70
1
0
VERTEX
8
CUT
10
148.2500
20
-147.5000
30
0.0
0
VERTEX
8
CUT
10
151.7500
20
-147.5000
30
0.0
0
VERTEX
8
CUT
10
151.7500
20
-150.5000
30
0.0
0
VERTEX
8
CUT
10
148.2500
20
-150.5000
30
0.0
0
SEQEND
0
POLYLINE
8
CUT
66
1
70
1
0
VERTEX
8
CUT
10
78.5000
20
-183.2500
30
0.0
0
VERTEX
8
CUT
10
81.5000
20
-183.2500
30
0.0
0
VERTEX
8
CUT
10
81.5000
20
-186.7500
30
0.0
0
VERTEX
8
CUT
10
78.5000
20
-186.7500
30
0.0
0
SEQEND
0
POLYLINE
8
CUT
66
1
70
1
0
VERTEX
8
CUT
10
78.2500
20
-147.5000
30
0.0
0
VERTEX
8
CUT
10
81.7500
20
-147.5000
30
0.0
0
VERTEX
8
CUT
10
81.7500
20
-150.5000
30
0.0
0
VERTEX
8
CUT
10
78.2500
20
-150.5000
30
0.0
0
SEQEND
0
POLYLINE
8
CUT
66
1
70
1
0
VERTEX
8
CUT
10
5.0000
20
-205.8000
30
0.0
0
VERTEX
8
CUT
10
13.7000
20
-205.8000
30
0.0
0
VERTEX
8
CUT
10
13.7000
20
-208.9000
30
0.0
0
VERTEX
8
CUT
10
5.0000
20
-208.9000
30
0.0
0
SEQEND
0
POLYLINE
8
CUT
66
1
70
1
0
VERTEX
8
CUT
10
19.7000
20
-205.8000
30
0.0
0
VERTEX
8
CUT
10
28.4000
20
-205.8000
30
0.0
0
VERTEX
8
CUT
10
28.4000
20
-208.9000
30
0.0
0
VERTEX
8
CUT
10
19.7000
20
-208.9000
30
0.0
0
SEQEND
0
POLYLINE
8
CUT
66
1
70
1
0
VERTEX
8
CUT
10
34.4000
20
-205.8000
30
0.0
0
VERTEX
8
CUT
10
43.1000
20
-205.8000
30
0.0
0
VERTEX
8
CUT
10
43.1000
20
-208.9000
30
0.0
0
VERTEX
8
CUT
10
34.4000
20
-208.9000
30
0.0
0
SEQEND
0
POLYLINE
8
CUT
66
1
70
1
0
VERTEX
8
CUT
10
49.1000
20
-205.8000
30
0.0
0
VERTEX
8
CUT
10
57.8000
20
-205.8000
30
0.0
0
VERTEX
8
CUT
10
57.8000
20
-208.9000
30
0.0
0
VERTEX
8
CUT
10
49.1000
20
-208.9000
30
0.0
0
SEQEND
0
POLYLINE
8
CUT
66
1
70
1
0
VERTEX
8
CUT
10
63.8000
20
-205.8000
30
0.0
0
VERTEX
8
CUT
10
72.5000
20
-205.8000
30
0.0
0
VERTEX
8
CUT
10
72.5000
20
-208.9000
30
0.0
0
VERTEX
8
CUT
10
63.8000
20
-208.9000
30
0.0
0
SEQEND
0
POLYLINE
8
CUT
66
1
70
1
0
VERTEX
8
CUT
10
78.5000
20
-205.8000
30
0.0
0
VERTEX
8
CUT
10
87.2000
20
-205.8000
30
0.0
0
VERTEX
8
CUT
10
87.2000
20
-208.9000
30
0.0
0
VERTEX
8
CUT
10
78.5000
20
-208.9000
30
0.0
0
SEQEND
0
ENDSEC
0
EOF
