<svg xmlns="http://www.w3.org/2000/svg" width="195.35mm" height="130.32mm" viewBox="0 0 195.35 130.32">
<path d="M 99.973,40.947 L 99.849,40.844 L 99.735,40.730 L 99.632,40.606 L 99.538,40.472 L 99.456,40.327 L 99.373,40.213 L 99.290,40.130 L 99.208,40.079 L 99.125,40.058 L 99.037,40.074 L 98.944,40.125 L 98.846,40.213 L 98.742,40.337 L 98.659,40.482 L 98.597,40.647 L 98.556,40.834 L 98.535,41.040 L 98.484,41.227 L 98.401,41.392 L 98.287,41.537 L 98.142,41.661 L 97.982,41.759 L 97.806,41.832 L 97.615,41.878 L 97.408,41.899 L 97.237,41.904 L 97.103,41.894 L 97.005,41.868 L 96.943,41.826 L 96.870,41.744 L 96.788,41.620 L 96.695,41.454 L 96.591,41.247 L 96.462,41.087 L 96.307,40.973 L 96.126,40.906 L 95.919,40.885 L 95.733,40.891 L 95.567,40.922 L 95.422,40.978 L 95.298,41.061 L 95.205,41.170 L 95.143,41.304 L 95.112,41.464 L 95.112,41.651 L 95.123,41.821 L 95.143,41.976 L 95.174,42.116 L 95.216,42.240 L 95.278,42.369 L 95.360,42.504 L 95.464,42.643 L 95.588,42.788 L 95.733,42.933 L 95.898,43.078 L 96.084,43.223 L 96.291,43.367 L 96.596,43.471 L 97.000,43.533 L 97.501,43.554 L 98.101,43.533 L 98.577,43.491 L 98.928,43.429 L 99.156,43.347 L 99.259,43.243 L 99.342,43.135 L 99.404,43.021 L 99.445,42.902 L 99.466,42.778 L 99.523,42.623 L 99.616,42.437 L 99.745,42.219 L 99.911,41.971 L 100.035,41.754 L 100.118,41.568 L 100.159,41.413 L 100.159,41.289 L 100.128,41.170 L 100.066,41.056 Z" fill="#000000" fill-rule="evenodd" stroke="none"/>
<path d="M 113.541,29.344 L 113.252,29.282 L 112.853,29.235 L 112.347,29.204 L 111.731,29.189 L 111.007,29.189 L 110.413,29.199 L 109.947,29.220 L 109.611,29.251 L 109.405,29.292 L 109.198,29.365 L 108.991,29.468 L 108.784,29.603 L 108.577,29.768 L 108.344,29.908 L 108.086,30.021 L 107.802,30.109 L 107.491,30.171 L 107.181,30.275 L 106.871,30.420 L 106.561,30.606 L 106.250,30.833 L 105.930,31.081 L 105.599,31.350 L 105.257,31.640 L 104.906,31.950 L 104.621,32.224 L 104.404,32.462 L 104.254,32.664 L 104.172,32.829 L 104.068,33.000 L 103.944,33.176 L 103.799,33.357 L 103.634,33.543 L 103.489,33.760 L 103.365,34.008 L 103.262,34.287 L 103.179,34.598 L 103.096,34.851 L 103.013,35.047 L 102.931,35.187 L 102.848,35.270 L 102.765,35.373 L 102.682,35.497 L 102.600,35.642 L 102.517,35.808 L 102.450,36.185 L 102.398,36.775 L 102.362,37.576 L 102.341,38.589 L 102.331,39.375 L 102.331,39.934 L 102.341,40.265 L 102.362,40.368 L 102.429,40.498 L 102.543,40.653 L 102.703,40.834 L 102.910,41.040 L 103.070,41.211 L 103.184,41.346 L 103.251,41.444 L 103.272,41.506 L 103.401,41.656 L 103.639,41.894 L 103.985,42.219 L 104.440,42.633 L 104.921,43.011 L 105.428,43.352 L 105.961,43.657 L 106.519,43.926 L 107.243,44.127 L 108.132,44.262 L 109.187,44.329 L 110.408,44.329 L 111.354,44.319 L 112.026,44.298 L 112.424,44.267 L 112.548,44.226 L 112.683,44.153 L 112.828,44.050 L 112.983,43.915 L 113.148,43.750 L 113.345,43.605 L 113.572,43.481 L 113.831,43.378 L 114.120,43.295 L 114.369,43.197 L 114.575,43.083 L 114.741,42.954 L 114.865,42.809 L 114.984,42.690 L 115.098,42.597 L 115.206,42.530 L 115.310,42.488 L 115.398,42.437 L 115.470,42.375 L 115.527,42.302 L 115.568,42.219 L 115.656,42.100 L 115.791,41.945 L 115.971,41.754 L 116.199,41.527 L 116.390,41.294 L 116.545,41.056 L 116.664,40.813 L 116.747,40.565 L 116.840,40.342 L 116.944,40.146 L 117.057,39.975 L 117.181,39.830 L 117.300,39.546 L 117.414,39.122 L 117.523,38.558 L 117.626,37.855 L 117.683,37.116 L 117.693,36.340 L 117.657,35.528 L 117.574,34.680 L 117.466,33.993 L 117.331,33.465 L 117.171,33.098 L 116.985,32.891 L 116.830,32.695 L 116.706,32.509 L 116.613,32.333 L 116.551,32.167 L 116.452,31.971 L 116.318,31.743 L 116.147,31.485 L 115.940,31.195 L 115.682,30.895 L 115.372,30.585 L 115.010,30.264 L 114.596,29.933 L 114.213,29.670 L 113.862,29.473 Z" fill="#000000" fill-rule="evenodd" stroke="none"/>
<path d="M 86.001,29.292 L 85.774,29.251 L 85.401,29.225 L 84.884,29.215 L 84.222,29.220 L 83.416,29.241 L 82.738,29.292 L 82.190,29.375 L 81.771,29.489 L 81.482,29.634 L 81.197,29.758 L 80.918,29.861 L 80.644,29.944 L 80.375,30.006 L 80.117,30.099 L 79.869,30.223 L 79.631,30.378 L 79.403,30.564 L 79.176,30.730 L 78.948,30.875 L 78.721,30.999 L 78.493,31.102 L 78.297,31.211 L 78.131,31.324 L 77.997,31.443 L 77.893,31.567 L 77.774,31.686 L 77.640,31.800 L 77.490,31.909 L 77.324,32.012 L 77.175,32.152 L 77.040,32.328 L 76.921,32.540 L 76.818,32.788 L 76.709,33.005 L 76.595,33.191 L 76.476,33.346 L 76.352,33.470 L 76.244,33.615 L 76.151,33.781 L 76.073,33.967 L 76.011,34.174 L 75.923,34.380 L 75.809,34.587 L 75.670,34.794 L 75.504,35.001 L 75.370,35.208 L 75.266,35.415 L 75.194,35.621 L 75.153,35.828 L 75.117,36.128 L 75.085,36.521 L 75.060,37.007 L 75.039,37.586 L 75.039,38.186 L 75.060,38.807 L 75.101,39.448 L 75.163,40.110 L 75.349,40.735 L 75.659,41.325 L 76.094,41.878 L 76.652,42.395 L 77.133,42.804 L 77.536,43.104 L 77.862,43.295 L 78.110,43.378 L 78.343,43.476 L 78.560,43.590 L 78.762,43.719 L 78.948,43.864 L 79.134,43.988 L 79.320,44.091 L 79.507,44.174 L 79.693,44.236 L 80.122,44.283 L 80.794,44.314 L 81.709,44.329 L 82.868,44.329 L 83.881,44.257 L 84.750,44.112 L 85.474,43.895 L 86.053,43.605 L 86.513,43.357 L 86.854,43.150 L 87.077,42.985 L 87.180,42.861 L 87.284,42.757 L 87.387,42.674 L 87.490,42.612 L 87.594,42.571 L 87.759,42.442 L 87.987,42.225 L 88.276,41.920 L 88.628,41.527 L 88.907,41.180 L 89.114,40.880 L 89.248,40.627 L 89.311,40.420 L 89.409,40.187 L 89.543,39.929 L 89.714,39.644 L 89.921,39.334 L 90.076,38.791 L 90.179,38.016 L 90.231,37.007 L 90.231,35.766 L 90.195,34.789 L 90.122,34.075 L 90.014,33.625 L 89.869,33.439 L 89.740,33.238 L 89.626,33.020 L 89.528,32.788 L 89.445,32.540 L 89.264,32.224 L 88.985,31.842 L 88.607,31.392 L 88.132,30.875 L 87.708,30.440 L 87.335,30.089 L 87.015,29.820 L 86.746,29.634 L 86.487,29.484 L 86.239,29.370 Z" fill="#000000" fill-rule="evenodd" stroke="none"/>
<path d="M 79.062,30.182 L 78.896,30.347 L 78.736,30.487 L 78.581,30.600 L 78.431,30.688 L 78.286,30.750 L 78.095,30.875 L 77.857,31.061 L 77.573,31.309 L 77.242,31.619 L 76.973,31.893 L 76.766,32.131 L 76.621,32.333 L 76.538,32.498 L 76.440,32.653 L 76.326,32.798 L 76.197,32.933 L 76.052,33.057 L 75.939,33.191 L 75.856,33.336 L 75.804,33.491 L 75.784,33.656 L 75.721,33.843 L 75.618,34.049 L 75.473,34.277 L 75.287,34.525 L 75.127,34.872 L 74.992,35.316 L 74.884,35.859 L 74.801,36.500 L 74.739,37.069 L 74.698,37.566 L 74.677,37.990 L 74.677,38.341 L 74.692,38.745 L 74.724,39.200 L 74.770,39.706 L 74.832,40.265 L 74.899,40.730 L 74.972,41.103 L 75.049,41.382 L 75.132,41.568 L 75.199,41.759 L 75.251,41.956 L 75.287,42.157 L 75.308,42.364 L 75.349,42.540 L 75.411,42.685 L 75.494,42.799 L 75.597,42.881 L 75.732,43.021 L 75.897,43.217 L 76.094,43.471 L 76.321,43.781 L 76.580,44.081 L 76.869,44.371 L 77.190,44.650 L 77.542,44.919 L 77.857,45.177 L 78.136,45.425 L 78.379,45.663 L 78.586,45.891 L 78.798,46.077 L 79.015,46.222 L 79.238,46.325 L 79.465,46.387 L 79.688,46.475 L 79.905,46.589 L 80.117,46.728 L 80.324,46.894 L 80.530,47.039 L 80.737,47.163 L 80.944,47.266 L 81.151,47.349 L 81.503,47.421 L 81.999,47.483 L 82.640,47.535 L 83.426,47.576 L 84.062,47.592 L 84.548,47.582 L 84.884,47.545 L 85.070,47.483 L 85.319,47.421 L 85.629,47.359 L 86.001,47.297 L 86.436,47.235 L 86.818,47.152 L 87.149,47.049 L 87.428,46.925 L 87.656,46.780 L 87.899,46.661 L 88.157,46.568 L 88.431,46.501 L 88.721,46.460 L 89.062,46.310 L 89.455,46.051 L 89.900,45.684 L 90.396,45.208 L 90.810,44.784 L 91.141,44.412 L 91.389,44.091 L 91.555,43.822 L 91.705,43.595 L 91.839,43.409 L 91.958,43.264 L 92.061,43.161 L 92.144,43.062 L 92.206,42.969 L 92.248,42.881 L 92.268,42.799 L 92.341,42.649 L 92.465,42.431 L 92.641,42.147 L 92.868,41.795 L 93.034,41.413 L 93.137,40.999 L 93.178,40.554 L 93.158,40.079 L 93.152,39.670 L 93.163,39.329 L 93.189,39.055 L 93.230,38.848 L 93.261,38.579 L 93.282,38.248 L 93.292,37.855 L 93.292,37.400 L 93.271,36.935 L 93.230,36.459 L 93.168,35.973 L 93.085,35.477 L 92.992,35.073 L 92.889,34.763 L 92.775,34.546 L 92.651,34.422 L 92.537,34.282 L 92.434,34.127 L 92.341,33.956 L 92.258,33.770 L 92.144,33.563 L 91.999,33.336 L 91.824,33.088 L 91.617,32.819 L 91.436,32.565 L 91.281,32.328 L 91.151,32.105 L 91.048,31.898 L 90.857,31.635 L 90.577,31.314 L 90.210,30.937 L 89.755,30.502 L 89.352,30.187 L 89.000,29.990 L 88.700,29.913 L 88.452,29.954 L 88.235,29.959 L 88.049,29.928 L 87.894,29.861 L 87.770,29.758 L 87.604,29.644 L 87.397,29.520 L 87.149,29.385 L 86.860,29.241 L 86.606,29.127 L 86.389,29.044 L 86.208,28.992 L 86.063,28.972 L 85.691,28.956 L 85.091,28.946 L 84.264,28.941 L 83.209,28.941 L 82.314,28.992 L 81.580,29.096 L 81.006,29.251 L 80.592,29.458 L 80.241,29.623 L 79.951,29.747 L 79.724,29.830 L 79.558,29.871 L 79.393,29.944 L 79.227,30.047 Z" fill="none" stroke="#000000" stroke-width="0.5" stroke-linejoin="round"/>
<path d="M 109.642,28.455 L 109.622,28.517 L 109.637,28.563 L 109.689,28.594 L 109.777,28.610 L 109.901,28.610 L 109.994,28.630 L 110.056,28.672 L 110.087,28.734 L 110.087,28.817 L 110.020,28.884 L 109.885,28.935 L 109.684,28.972 L 109.415,28.992 L 109.151,29.044 L 108.893,29.127 L 108.639,29.241 L 108.391,29.385 L 108.117,29.520 L 107.817,29.644 L 107.491,29.758 L 107.140,29.861 L 106.850,29.970 L 106.623,30.083 L 106.457,30.202 L 106.354,30.326 L 106.250,30.430 L 106.147,30.513 L 106.043,30.575 L 105.940,30.616 L 105.754,30.740 L 105.485,30.947 L 105.133,31.237 L 104.699,31.609 L 104.347,31.940 L 104.079,32.229 L 103.892,32.478 L 103.789,32.684 L 103.686,32.860 L 103.582,33.005 L 103.479,33.119 L 103.375,33.201 L 103.272,33.331 L 103.168,33.507 L 103.065,33.729 L 102.962,33.998 L 102.863,34.220 L 102.770,34.396 L 102.682,34.525 L 102.600,34.608 L 102.512,34.753 L 102.419,34.960 L 102.320,35.228 L 102.217,35.559 L 102.139,36.087 L 102.088,36.811 L 102.062,37.731 L 102.062,38.848 L 102.108,39.768 L 102.201,40.492 L 102.341,41.020 L 102.527,41.351 L 102.672,41.661 L 102.775,41.951 L 102.838,42.219 L 102.858,42.468 L 102.884,42.680 L 102.915,42.855 L 102.951,42.995 L 102.993,43.098 L 103.055,43.192 L 103.137,43.274 L 103.241,43.347 L 103.365,43.409 L 103.484,43.481 L 103.598,43.564 L 103.706,43.657 L 103.810,43.760 L 103.898,43.874 L 103.970,43.998 L 104.027,44.133 L 104.068,44.277 L 104.125,44.417 L 104.197,44.551 L 104.285,44.681 L 104.389,44.805 L 104.528,44.924 L 104.704,45.038 L 104.916,45.146 L 105.164,45.250 L 105.402,45.374 L 105.630,45.518 L 105.847,45.684 L 106.054,45.870 L 106.276,46.036 L 106.514,46.180 L 106.767,46.304 L 107.036,46.408 L 107.274,46.516 L 107.481,46.630 L 107.657,46.749 L 107.802,46.873 L 108.019,46.997 L 108.308,47.121 L 108.670,47.246 L 109.105,47.370 L 109.585,47.468 L 110.113,47.540 L 110.687,47.587 L 111.307,47.607 L 111.855,47.613 L 112.331,47.602 L 112.735,47.576 L 113.065,47.535 L 113.402,47.473 L 113.743,47.390 L 114.089,47.287 L 114.441,47.163 L 114.746,47.039 L 115.005,46.915 L 115.217,46.790 L 115.382,46.666 L 115.563,46.547 L 115.759,46.434 L 115.971,46.325 L 116.199,46.222 L 116.406,46.103 L 116.592,45.968 L 116.757,45.818 L 116.902,45.653 L 117.073,45.508 L 117.269,45.384 L 117.492,45.281 L 117.740,45.198 L 118.030,45.017 L 118.360,44.738 L 118.733,44.360 L 119.146,43.884 L 119.498,43.424 L 119.788,42.980 L 120.015,42.550 L 120.181,42.137 L 120.320,41.676 L 120.434,41.170 L 120.522,40.616 L 120.584,40.017 L 120.630,39.448 L 120.661,38.910 L 120.677,38.403 L 120.677,37.928 L 120.661,37.426 L 120.630,36.899 L 120.584,36.345 L 120.522,35.766 L 120.460,35.301 L 120.398,34.949 L 120.336,34.711 L 120.274,34.587 L 120.196,34.463 L 120.103,34.339 L 119.994,34.215 L 119.870,34.091 L 119.757,33.936 L 119.653,33.750 L 119.560,33.532 L 119.477,33.284 L 119.389,33.077 L 119.296,32.912 L 119.198,32.788 L 119.095,32.705 L 118.991,32.586 L 118.888,32.431 L 118.784,32.240 L 118.681,32.012 L 118.572,31.816 L 118.459,31.650 L 118.340,31.516 L 118.216,31.412 L 118.050,31.314 L 117.843,31.221 L 117.595,31.133 L 117.306,31.050 L 117.063,30.942 L 116.866,30.807 L 116.716,30.647 L 116.613,30.461 L 116.499,30.326 L 116.375,30.244 L 116.240,30.213 L 116.096,30.233 L 115.935,30.218 L 115.759,30.166 L 115.568,30.078 L 115.361,29.954 L 115.191,29.840 L 115.056,29.737 L 114.958,29.644 L 114.896,29.561 L 114.772,29.468 L 114.586,29.365 L 114.338,29.251 L 114.027,29.127 L 113.655,29.034 L 113.221,28.972 L 112.724,28.941 L 112.166,28.941 L 111.742,28.925 L 111.452,28.894 L 111.297,28.848 L 111.276,28.786 L 111.287,28.734 L 111.328,28.692 L 111.400,28.661 L 111.504,28.641 L 111.576,28.610 L 111.618,28.568 L 111.628,28.517 L 111.607,28.455 L 111.473,28.408 L 111.225,28.377 L 110.863,28.362 L 110.387,28.362 L 110.025,28.377 L 109.777,28.408 Z" fill="none" stroke="#000000" stroke-width="0.5" stroke-linejoin="round"/>
<path d="M 5.000,8.000 L 6.963,8.000 L 6.963,5.000 L 11.463,5.000 L 11.463,8.000 L 15.388,8.000 L 15.388,5.000 L 19.888,5.000 L 19.888,8.000 L 23.813,8.000 L 23.813,5.000 L 28.313,5.000 L 28.313,8.000 L 32.238,8.000 L 32.238,5.000 L 36.738,5.000 L 36.738,8.000 L 40.663,8.000 L 40.663,5.000 L 45.163,5.000 L 45.163,8.000 L 49.088,8.000 L 49.088,5.000 L 53.588,5.000 L 53.588,8.000 L 57.514,8.000 L 57.514,5.000 L 62.014,5.000 L 62.014,8.000 L 65.939,8.000 L 65.939,5.000 L 70.439,5.000 L 70.439,8.000 L 74.364,8.000 L 74.364,5.000 L 78.864,5.000 L 78.864,8.000 L 82.789,8.000 L 82.789,5.000 L 87.289,5.000 L 87.289,8.000 L 91.214,8.000 L 91.214,5.000 L 95.714,5.000 L 95.714,8.000 L 99.640,8.000 L 99.640,5.000 L 104.140,5.000 L 104.140,8.000 L 108.065,8.000 L 108.065,5.000 L 112.565,5.000 L 112.565,8.000 L 116.490,8.000 L 116.490,5.000 L 120.990,5.000 L 120.990,8.000 L 124.915,8.000 L 124.915,5.000 L 129.415,5.000 L 129.415,8.000 L 133.340,8.000 L 133.340,5.000 L 137.840,5.000 L 137.840,8.000 L 141.765,8.000 L 141.765,5.000 L 146.265,5.000 L 146.265,8.000 L 150.191,8.000 L 150.191,5.000 L 154.691,5.000 L 154.691,8.000 L 158.616,8.000 L 158.616,5.000 L 163.116,5.000 L 163.116,8.000 L 167.041,8.000 L 167.041,5.000 L 171.541,5.000 L 171.541,8.000 L 175.466,8.000 L 175.466,5.000 L 179.966,5.000 L 179.966,8.000 L 183.891,8.000 L 183.891,5.000 L 188.391,5.000 L 188.391,8.000 L 190.354,8.000 L 190.354,68.000 L 188.391,68.000 L 188.391,71.000 L 183.891,71.000 L 183.891,68.000 L 179.966,68.000 L 179.966,71.000 L 175.466,71.000 L 175.466,68.000 L 171.541,68.000 L 171.541,71.000 L 167.041,71.000 L 167.041,68.000 L 163.116,68.000 L 163.116,71.000 L 158.616,71.000 L 158.616,68.000 L 154.691,68.000 L 154.691,71.000 L 150.191,71.000 L 150.191,68.000 L 146.265,68.000 L 146.265,71.000 L 141.765,71.000 L 141.765,68.000 L 137.840,68.000 L 137.840,71.000 L 133.340,71.000 L 133.340,68.000 L 129.415,68.000 L 129.415,71.000 L 124.915,71.000 L 124.915,68.000 L 120.990,68.000 L 120.990,71.000 L 116.490,71.000 L 116.490,68.000 L 112.565,68.000 L 112.565,71.000 L 108.065,71.000 L 108.065,68.000 L 104.140,68.000 L 104.140,71.000 L 99.640,71.000 L 99.640,68.000 L 95.714,68.000 L 95.714,71.000 L 91.214,71.000 L 91.214,68.000 L 87.289,68.000 L 87.289,71.000 L 82.789,71.000 L 82.789,68.000 L 78.864,68.000 L 78.864,71.000 L 74.364,71.000 L 74.364,68.000 L 70.439,68.000 L 70.439,71.000 L 65.939,71.000 L 65.939,68.000 L 62.014,68.000 L 62.014,71.000 L 57.514,71.000 L 57.514,68.000 L 53.588,68.000 L 53.588,71.000 L 49.088,71.000 L 49.088,68.000 L 45.163,68.000 L 45.163,71.000 L 40.663,71.000 L 40.663,68.000 L 36.738,68.000 L 36.738,71.000 L 32.238,71.000 L 32.238,68.000 L 28.313,68.000 L 28.313,71.000 L 23.813,71.000 L 23.813,68.000 L 19.888,68.000 L 19.888,71.000 L 15.388,71.000 L 15.388,68.000 L 11.463,68.000 L 11.463,71.000 L 6.963,71.000 L 6.963,68.000 L 5.000,68.000 Z" fill="none" stroke="#FF0000" stroke-width="0.01"/>
<path d="M 39.807,71.255 L 40.385,71.260 L 40.993,71.276 L 41.601,71.303 L 42.208,71.340 L 42.815,71.388 L 43.421,71.447 L 44.025,71.516 L 44.629,71.595 L 45.231,71.685 L 45.831,71.786 L 46.429,71.897 L 47.025,72.019 L 47.619,72.151 L 48.211,72.293 L 48.800,72.446 L 49.386,72.609 L 49.970,72.783 L 50.550,72.966 L 51.127,73.160 L 51.700,73.363 L 52.270,73.577 L 52.836,73.800 L 53.398,74.034 L 53.956,74.277 L 54.509,74.530 L 55.058,74.793 L 55.603,75.065 L 56.142,75.347 L 56.677,75.638 L 57.206,75.938 L 57.730,76.248 L 58.248,76.566 L 58.761,76.894 L 59.268,77.231 L 59.769,77.576 L 60.264,77.930 L 60.752,78.293 L 61.234,78.665 L 61.710,79.044 L 62.179,79.432 L 62.641,79.828 L 63.096,80.232 L 63.544,80.644 L 63.984,81.064 L 64.417,81.491 L 64.843,81.926 L 65.261,82.369 L 65.671,82.818 L 66.073,83.275 L 66.468,83.739 L 66.854,84.209 L 67.231,84.686 L 67.601,85.170 L 67.961,85.660 L 68.314,86.156 L 68.657,86.659 L 68.991,87.167 L 69.317,87.681 L 69.634,88.201 L 69.941,88.726 L 70.239,89.256 L 70.528,89.792 L 70.808,90.333 L 71.078,90.878 L 71.338,91.428 L 71.589,91.983 L 71.830,92.541 L 72.061,93.104 L 72.282,93.671 L 72.493,94.242 L 72.695,94.816 L 72.886,95.394 L 73.067,95.975 L 73.238,96.559 L 73.398,97.146 L 73.549,97.736 L 73.689,98.328 L 73.818,98.922 L 73.937,99.519 L 74.046,100.118 L 74.144,100.719 L 74.232,101.321 L 74.309,101.924 L 74.376,102.529 L 74.432,103.135 L 74.477,103.742 L 74.512,104.350 L 74.536,104.958 L 74.550,105.566 L 74.552,106.175 L 74.545,106.783 L 74.526,107.391 L 74.497,107.999 L 74.457,108.607 L 74.407,109.213 L 74.346,109.818 L 74.274,110.423 L 74.192,111.026 L 74.100,111.627 L 73.996,112.227 L 73.883,112.825 L 73.759,113.421 L 73.624,114.014 L 73.479,114.605 L 73.324,115.194 L 73.159,115.779 L 72.983,116.362 L 72.797,116.941 L 72.601,117.517 L 72.395,118.090 L 72.179,118.659 L 71.953,119.224 L 71.717,119.785 L 71.472,120.342 L 71.217,120.894 L 70.952,121.442 L 70.677,121.985 L 70.393,122.524 L 70.100,123.057 L 67.424,125.258 L 64.526,125.318 L 62.276,125.318 L 60.026,125.318 L 57.776,125.318 L 55.526,125.318 L 53.276,125.318 L 51.026,125.318 L 48.776,125.318 L 46.526,125.318 L 44.276,125.318 L 42.026,125.318 L 39.776,125.318 L 37.526,125.318 L 35.276,125.318 L 33.026,125.318 L 30.776,125.318 L 28.526,125.318 L 26.276,125.318 L 24.026,125.318 L 21.776,125.318 L 19.526,125.318 L 17.276,125.318 L 15.026,125.318 L 12.129,125.258 L 9.452,123.057 L 9.159,122.524 L 8.875,121.985 L 8.601,121.442 L 8.336,120.894 L 8.080,120.342 L 7.835,119.785 L 7.599,119.224 L 7.373,118.659 L 7.157,118.090 L 6.951,117.517 L 6.755,116.941 L 6.569,116.362 L 6.394,115.779 L 6.228,115.194 L 6.073,114.605 L 5.928,114.014 L 5.794,113.421 L 5.670,112.825 L 5.556,112.227 L 5.453,111.627 L 5.360,111.026 L 5.278,110.423 L 5.207,109.818 L 5.146,109.213 L 5.095,108.607 L 5.055,107.999 L 5.026,107.391 L 5.008,106.783 L 5.000,106.175 L 5.003,105.566 L 5.016,104.958 L 5.040,104.350 L 5.075,103.742 L 5.121,103.135 L 5.177,102.529 L 5.243,101.924 L 5.320,101.321 L 5.408,100.719 L 5.506,100.118 L 5.615,99.519 L 5.734,98.922 L 5.864,98.328 L 6.004,97.736 L 6.154,97.146 L 6.315,96.559 L 6.486,95.975 L 6.667,95.394 L 6.858,94.816 L 7.059,94.242 L 7.270,93.671 L 7.492,93.104 L 7.723,92.541 L 7.964,91.983 L 8.214,91.428 L 8.475,90.878 L 8.745,90.333 L 9.024,89.792 L 9.313,89.256 L 9.611,88.726 L 9.919,88.201 L 10.235,87.681 L 10.561,87.167 L 10.895,86.659 L 11.239,86.156 L 11.591,85.660 L 11.952,85.170 L 12.321,84.686 L 12.699,84.209 L 13.085,83.739 L 13.479,83.275 L 13.881,82.818 L 14.291,82.369 L 14.709,81.926 L 15.135,81.491 L 15.568,81.064 L 16.009,80.644 L 16.457,80.232 L 16.912,79.828 L 17.374,79.432 L 17.842,79.044 L 18.318,78.665 L 18.800,78.293 L 19.289,77.930 L 19.784,77.576 L 20.285,77.231 L 20.792,76.894 L 21.304,76.566 L 21.823,76.248 L 22.347,75.938 L 22.876,75.638 L 23.410,75.347 L 23.950,75.065 L 24.494,74.793 L 25.043,74.530 L 25.596,74.277 L 26.154,74.034 L 26.716,73.800 L 27.282,73.577 L 27.852,73.363 L 28.426,73.160 L 29.002,72.966 L 29.583,72.783 L 30.166,72.609 L 30.752,72.446 L 31.341,72.293 L 31.933,72.151 L 32.527,72.019 L 33.123,71.897 L 33.722,71.786 L 34.322,71.685 L 34.924,71.595 L 35.527,71.516 L 36.132,71.447 L 36.737,71.388 L 37.344,71.340 L 37.951,71.303 L 38.559,71.276 L 39.168,71.260 L 39.746,71.255 Z" fill="none" stroke="#FF0000" stroke-width="0.01"/>
<path d="M 41.493,76.275 L 46.053,76.877 L 46.459,73.804 L 41.899,73.202 Z" fill="none" stroke="#FF0000" stroke-width="0.01"/>
<path d="M 49.345,77.776 L 53.562,79.614 L 54.801,76.773 L 50.584,74.934 Z" fill="none" stroke="#FF0000" stroke-width="0.01"/>
<path d="M 56.518,81.361 L 60.113,84.231 L 62.047,81.808 L 58.452,78.938 Z" fill="none" stroke="#FF0000" stroke-width="0.01"/>
<path d="M 62.474,86.724 L 65.201,90.428 L 67.697,88.590 L 64.970,84.886 Z" fill="none" stroke="#FF0000" stroke-width="0.01"/>
<path d="M 66.810,93.437 L 68.408,97.751 L 71.315,96.674 L 69.717,92.360 Z" fill="none" stroke="#FF0000" stroke-width="0.01"/>
<path d="M 69.172,101.098 L 69.595,105.678 L 72.682,105.393 L 72.259,100.813 Z" fill="none" stroke="#FF0000" stroke-width="0.01"/>
<path d="M 69.453,109.087 L 68.594,113.606 L 71.639,114.185 L 72.498,109.666 Z" fill="none" stroke="#FF0000" stroke-width="0.01"/>
<path d="M 67.550,116.877 L 65.547,121.019 L 68.338,122.368 L 70.341,118.227 Z" fill="none" stroke="#FF0000" stroke-width="0.01"/>
<path d="M 63.138,120.268 L 58.538,120.268 L 58.538,123.368 L 63.138,123.368 Z" fill="none" stroke="#FF0000" stroke-width="0.01"/>
<path d="M 54.713,120.268 L 50.113,120.268 L 50.113,123.368 L 54.713,123.368 Z" fill="none" stroke="#FF0000" stroke-width="0.01"/>
<path d="M 46.288,120.268 L 41.688,120.268 L 41.688,123.368 L 46.288,123.368 Z" fill="none" stroke="#FF0000" stroke-width="0.01"/>
<path d="M 37.863,120.268 L 33.263,120.268 L 33.263,123.368 L 37.863,123.368 Z" fill="none" stroke="#FF0000" stroke-width="0.01"/>
<path d="M 29.438,120.268 L 24.838,120.268 L 24.838,123.368 L 29.438,123.368 Z" fill="none" stroke="#FF0000" stroke-width="0.01"/>
<path d="M 21.012,120.268 L 16.412,120.268 L 16.412,123.368 L 21.012,123.368 Z" fill="none" stroke="#FF0000" stroke-width="0.01"/>
<path d="M 14.004,121.017 L 12.002,116.876 L 9.211,118.225 L 11.213,122.367 Z" fill="none" stroke="#FF0000" stroke-width="0.01"/>
<path d="M 10.958,113.605 L 10.099,109.086 L 7.054,109.665 L 7.913,114.184 Z" fill="none" stroke="#FF0000" stroke-width="0.01"/>
<path d="M 9.957,105.677 L 10.380,101.096 L 7.293,100.811 L 6.870,105.391 Z" fill="none" stroke="#FF0000" stroke-width="0.01"/>
<path d="M 11.145,97.749 L 12.743,93.435 L 9.836,92.359 L 8.238,96.673 Z" fill="none" stroke="#FF0000" stroke-width="0.01"/>
<path d="M 14.353,90.427 L 17.080,86.722 L 14.583,84.884 L 11.856,88.589 Z" fill="none" stroke="#FF0000" stroke-width="0.01"/>
<path d="M 19.441,84.230 L 23.036,81.360 L 21.102,78.937 L 17.507,81.807 Z" fill="none" stroke="#FF0000" stroke-width="0.01"/>
<path d="M 25.992,79.614 L 30.209,77.775 L 28.970,74.933 L 24.753,76.772 Z" fill="none" stroke="#FF0000" stroke-width="0.01"/>
<path d="M 33.501,76.877 L 38.061,76.275 L 37.655,73.201 L 33.095,73.803 Z" fill="none" stroke="#FF0000" stroke-width="0.01"/>
<path d="M 117.359,71.255 L 117.937,71.260 L 118.545,71.276 L 119.153,71.303 L 119.761,71.340 L 120.367,71.388 L 120.973,71.447 L 121.578,71.516 L 122.181,71.595 L 122.783,71.685 L 123.383,71.786 L 123.981,71.897 L 124.578,72.019 L 125.172,72.151 L 125.763,72.293 L 126.352,72.446 L 126.939,72.609 L 127.522,72.783 L 128.102,72.966 L 128.679,73.160 L 129.253,73.363 L 129.823,73.577 L 130.389,73.800 L 130.951,74.034 L 131.508,74.277 L 132.062,74.530 L 132.611,74.793 L 133.155,75.065 L 133.694,75.347 L 134.229,75.638 L 134.758,75.938 L 135.282,76.248 L 135.800,76.566 L 136.313,76.894 L 136.820,77.231 L 137.321,77.576 L 137.816,77.930 L 138.305,78.293 L 138.787,78.665 L 139.262,79.044 L 139.731,79.432 L 140.193,79.828 L 140.648,80.232 L 141.096,80.644 L 141.537,81.064 L 141.970,81.491 L 142.395,81.926 L 142.813,82.369 L 143.224,82.818 L 143.626,83.275 L 144.020,83.739 L 144.406,84.209 L 144.784,84.686 L 145.153,85.170 L 145.514,85.660 L 145.866,86.156 L 146.209,86.659 L 146.544,87.167 L 146.870,87.681 L 147.186,88.201 L 147.494,88.726 L 147.792,89.256 L 148.081,89.792 L 148.360,90.333 L 148.630,90.878 L 148.890,91.428 L 149.141,91.983 L 149.382,92.541 L 149.613,93.104 L 149.834,93.671 L 150.046,94.242 L 150.247,94.816 L 150.438,95.394 L 150.619,95.975 L 150.790,96.559 L 150.951,97.146 L 151.101,97.736 L 151.241,98.328 L 151.371,98.922 L 151.490,99.519 L 151.599,100.118 L 151.697,100.719 L 151.785,101.321 L 151.862,101.924 L 151.928,102.529 L 151.984,103.135 L 152.030,103.742 L 152.064,104.350 L 152.088,104.958 L 152.102,105.566 L 152.105,106.175 L 152.097,106.783 L 152.078,107.391 L 152.049,107.999 L 152.010,108.607 L 151.959,109.213 L 151.898,109.818 L 151.827,110.423 L 151.745,111.026 L 151.652,111.627 L 151.549,112.227 L 151.435,112.825 L 151.311,113.421 L 151.177,114.014 L 151.032,114.605 L 150.876,115.194 L 150.711,115.779 L 150.535,116.362 L 150.350,116.941 L 150.154,117.517 L 149.948,118.090 L 149.732,118.659 L 149.506,119.224 L 149.270,119.785 L 149.024,120.342 L 148.769,120.894 L 148.504,121.442 L 148.230,121.985 L 147.946,122.524 L 147.653,123.057 L 144.976,125.258 L 142.079,125.318 L 139.829,125.318 L 137.579,125.318 L 135.329,125.318 L 133.079,125.318 L 130.829,125.318 L 128.579,125.318 L 126.329,125.318 L 124.079,125.318 L 121.829,125.318 L 119.579,125.318 L 117.329,125.318 L 115.079,125.318 L 112.829,125.318 L 110.579,125.318 L 108.329,125.318 L 106.079,125.318 L 103.829,125.318 L 101.579,125.318 L 99.329,125.318 L 97.079,125.318 L 94.829,125.318 L 92.579,125.318 L 89.681,125.258 L 87.005,123.057 L 86.711,122.524 L 86.427,121.985 L 86.153,121.442 L 85.888,120.894 L 85.633,120.342 L 85.387,119.785 L 85.152,119.224 L 84.926,118.659 L 84.710,118.090 L 84.504,117.517 L 84.308,116.941 L 84.122,116.362 L 83.946,115.779 L 83.781,115.194 L 83.626,114.605 L 83.481,114.014 L 83.346,113.421 L 83.222,112.825 L 83.108,112.227 L 83.005,111.627 L 82.913,111.026 L 82.830,110.423 L 82.759,109.818 L 82.698,109.213 L 82.648,108.607 L 82.608,107.999 L 82.579,107.391 L 82.560,106.783 L 82.552,106.175 L 82.555,105.566 L 82.569,104.958 L 82.593,104.350 L 82.628,103.742 L 82.673,103.135 L 82.729,102.529 L 82.795,101.924 L 82.873,101.321 L 82.960,100.719 L 83.059,100.118 L 83.167,99.519 L 83.286,98.922 L 83.416,98.328 L 83.556,97.736 L 83.706,97.146 L 83.867,96.559 L 84.038,95.975 L 84.219,95.394 L 84.410,94.816 L 84.611,94.242 L 84.823,93.671 L 85.044,93.104 L 85.275,92.541 L 85.516,91.983 L 85.767,91.428 L 86.027,90.878 L 86.297,90.333 L 86.577,89.792 L 86.865,89.256 L 87.164,88.726 L 87.471,88.201 L 87.788,87.681 L 88.113,87.167 L 88.448,86.659 L 88.791,86.156 L 89.143,85.660 L 89.504,85.170 L 89.873,84.686 L 90.251,84.209 L 90.637,83.739 L 91.031,83.275 L 91.434,82.818 L 91.844,82.369 L 92.262,81.926 L 92.687,81.491 L 93.121,81.064 L 93.561,80.644 L 94.009,80.232 L 94.464,79.828 L 94.926,79.432 L 95.395,79.044 L 95.870,78.665 L 96.353,78.293 L 96.841,77.930 L 97.336,77.576 L 97.837,77.231 L 98.344,76.894 L 98.857,76.566 L 99.375,76.248 L 99.899,75.938 L 100.428,75.638 L 100.963,75.347 L 101.502,75.065 L 102.046,74.793 L 102.595,74.530 L 103.149,74.277 L 103.707,74.034 L 104.269,73.800 L 104.835,73.577 L 105.404,73.363 L 105.978,73.160 L 106.555,72.966 L 107.135,72.783 L 107.718,72.609 L 108.305,72.446 L 108.894,72.293 L 109.485,72.151 L 110.079,72.019 L 110.676,71.897 L 111.274,71.786 L 111.874,71.685 L 112.476,71.595 L 113.079,71.516 L 113.684,71.447 L 114.290,71.388 L 114.896,71.340 L 115.504,71.303 L 116.112,71.276 L 116.720,71.260 L 117.298,71.255 Z" fill="none" stroke="#FF0000" stroke-width="0.01"/>
<path d="M 119.045,76.275 L 123.606,76.877 L 124.011,73.804 L 119.451,73.202 Z" fill="none" stroke="#FF0000" stroke-width="0.01"/>
<path d="M 126.897,77.776 L 131.114,79.614 L 132.353,76.773 L 128.137,74.934 Z" fill="none" stroke="#FF0000" stroke-width="0.01"/>
<path d="M 134.070,81.361 L 137.665,84.231 L 139.599,81.808 L 136.004,78.938 Z" fill="none" stroke="#FF0000" stroke-width="0.01"/>
<path d="M 140.026,86.724 L 142.753,90.428 L 145.250,88.590 L 142.523,84.886 Z" fill="none" stroke="#FF0000" stroke-width="0.01"/>
<path d="M 144.363,93.437 L 145.960,97.751 L 148.867,96.674 L 147.270,92.360 Z" fill="none" stroke="#FF0000" stroke-width="0.01"/>
<path d="M 146.725,101.098 L 147.148,105.678 L 150.235,105.393 L 149.811,100.813 Z" fill="none" stroke="#FF0000" stroke-width="0.01"/>
<path d="M 147.005,109.087 L 146.146,113.606 L 149.192,114.185 L 150.051,109.666 Z" fill="none" stroke="#FF0000" stroke-width="0.01"/>
<path d="M 145.102,116.877 L 143.100,121.019 L 145.891,122.368 L 147.893,118.227 Z" fill="none" stroke="#FF0000" stroke-width="0.01"/>
<path d="M 140.691,120.268 L 136.091,120.268 L 136.091,123.368 L 140.691,123.368 Z" fill="none" stroke="#FF0000" stroke-width="0.01"/>
<path d="M 132.266,120.268 L 127.666,120.268 L 127.666,123.368 L 132.266,123.368 Z" fill="none" stroke="#FF0000" stroke-width="0.01"/>
<path d="M 123.840,120.268 L 119.240,120.268 L 119.240,123.368 L 123.840,123.368 Z" fill="none" stroke="#FF0000" stroke-width="0.01"/>
<path d="M 115.415,120.268 L 110.815,120.268 L 110.815,123.368 L 115.415,123.368 Z" fill="none" stroke="#FF0000" stroke-width="0.01"/>
<path d="M 106.990,120.268 L 102.390,120.268 L 102.390,123.368 L 106.990,123.368 Z" fill="none" stroke="#FF0000" stroke-width="0.01"/>
<path d="M 98.565,120.268 L 93.965,120.268 L 93.965,123.368 L 98.565,123.368 Z" fill="none" stroke="#FF0000" stroke-width="0.01"/>
<path d="M 91.557,121.017 L 89.554,116.876 L 86.764,118.225 L 88.766,122.367 Z" fill="none" stroke="#FF0000" stroke-width="0.01"/>
<path d="M 88.511,113.605 L 87.652,109.086 L 84.606,109.665 L 85.465,114.184 Z" fill="none" stroke="#FF0000" stroke-width="0.01"/>
<path d="M 87.509,105.677 L 87.933,101.096 L 84.846,100.811 L 84.423,105.391 Z" fill="none" stroke="#FF0000" stroke-width="0.01"/>
<path d="M 88.698,97.749 L 90.295,93.435 L 87.388,92.359 L 85.791,96.673 Z" fill="none" stroke="#FF0000" stroke-width="0.01"/>
<path d="M 91.905,90.427 L 94.632,86.722 L 92.136,84.884 L 89.408,88.589 Z" fill="none" stroke="#FF0000" stroke-width="0.01"/>
<path d="M 96.993,84.230 L 100.588,81.360 L 98.654,78.937 L 95.059,81.807 Z" fill="none" stroke="#FF0000" stroke-width="0.01"/>
<path d="M 103.545,79.614 L 107.761,77.775 L 106.522,74.933 L 102.306,76.772 Z" fill="none" stroke="#FF0000" stroke-width="0.01"/>
<path d="M 111.053,76.877 L 115.614,76.275 L 115.208,73.201 L 110.647,73.803 Z" fill="none" stroke="#FF0000" stroke-width="0.01"/>
<path d="M 12.000,8.000 L 12.000,18.000" fill="none" stroke="#FF0000" stroke-width="0.01"/>
<path d="M 12.000,21.500 L 12.000,31.500" fill="none" stroke="#FF0000" stroke-width="0.01"/>
<path d="M 12.000,35.000 L 12.000,45.000" fill="none" stroke="#FF0000" stroke-width="0.01"/>
<path d="M 12.000,48.500 L 12.000,58.500" fill="none" stroke="#FF0000" stroke-width="0.01"/>
<path d="M 12.000,62.000 L 12.000,68.000" fill="none" stroke="#FF0000" stroke-width="0.01"/>
<path d="M 15.000,8.000 L 15.000,11.250" fill="none" stroke="#FF0000" stroke-width="0.01"/>
<path d="M 15.000,14.750 L 15.000,24.750" fill="none" stroke="#FF0000" stroke-width="0.01"/>
<path d="M 15.000,28.250 L 15.000,38.250" fill="none" stroke="#FF0000" stroke-width="0.01"/>
<path d="M 15.000,41.750 L 15.000,51.750" fill="none" stroke="#FF0000" stroke-width="0.01"/>
<path d="M 15.000,55.250 L 15.000,65.250" fill="none" stroke="#FF0000" stroke-width="0.01"/>
<path d="M 18.000,8.000 L 18.000,18.000" fill="none" stroke="#FF0000" stroke-width="0.01"/>
<path d="M 18.000,21.500 L 18.000,31.500" fill="none" stroke="#FF0000" stroke-width="0.01"/>
<path d="M 18.000,35.000 L 18.000,45.000" fill="none" stroke="#FF0000" stroke-width="0.01"/>
<path d="M 18.000,48.500 L 18.000,58.500" fill="none" stroke="#FF0000" stroke-width="0.01"/>
<path d="M 18.000,62.000 L 18.000,68.000" fill="none" stroke="#FF0000" stroke-width="0.01"/>
<path d="M 21.000,8.000 L 21.000,11.250" fill="none" stroke="#FF0000" stroke-width="0.01"/>
<path d="M 21.000,14.750 L 21.000,24.750" fill="none" stroke="#FF0000" stroke-width="0.01"/>
<path d="M 21.000,28.250 L 21.000,38.250" fill="none" stroke="#FF0000" stroke-width="0.01"/>
<path d="M 21.000,41.750 L 21.000,51.750" fill="none" stroke="#FF0000" stroke-width="0.01"/>
<path d="M 21.000,55.250 L 21.000,65.250" fill="none" stroke="#FF0000" stroke-width="0.01"/>
<path d="M 24.000,8.000 L 24.000,18.000" fill="none" stroke="#FF0000" stroke-width="0.01"/>
<path d="M 24.000,21.500 L 24.000,31.500" fill="none" stroke="#FF0000" stroke-width="0.01"/>
<path d="M 24.000,35.000 L 24.000,45.000" fill="none" stroke="#FF0000" stroke-width="0.01"/>
<path d="M 24.000,48.500 L 24.000,58.500" fill="none" stroke="#FF0000" stroke-width="0.01"/>
<path d="M 24.000,62.000 L 24.000,68.000" fill="none" stroke="#FF0000" stroke-width="0.01"/>
<path d="M 27.000,8.000 L 27.000,11.250" fill="none" stroke="#FF0000" stroke-width="0.01"/>
<path d="M 27.000,14.750 L 27.000,24.750" fill="none" stroke="#FF0000" stroke-width="0.01"/>
<path d="M 27.000,28.250 L 27.000,38.250" fill="none" stroke="#FF0000" stroke-width="0.01"/>
<path d="M 27.000,41.750 L 27.000,51.750" fill="none" stroke="#FF0000" stroke-width="0.01"/>
<path d="M 27.000,55.250 L 27.000,65.250" fill="none" stroke="#FF0000" stroke-width="0.01"/>
<path d="M 30.000,8.000 L 30.000,18.000" fill="none" stroke="#FF0000" stroke-width="0.01"/>
<path d="M 30.000,21.500 L 30.000,31.500" fill="none" stroke="#FF0000" stroke-width="0.01"/>
<path d="M 30.000,35.000 L 30.000,45.000" fill="none" stroke="#FF0000" stroke-width="0.01"/>
<path d="M 30.000,48.500 L 30.000,58.500" fill="none" stroke="#FF0000" stroke-width="0.01"/>
<path d="M 30.000,62.000 L 30.000,68.000" fill="none" stroke="#FF0000" stroke-width="0.01"/>
<path d="M 33.000,8.000 L 33.000,11.250" fill="none" stroke="#FF0000" stroke-width="0.01"/>
<path d="M 33.000,14.750 L 33.000,24.750" fill="none" stroke="#FF0000" stroke-width="0.01"/>
<path d="M 33.000,28.250 L 33.000,38.250" fill="none" stroke="#FF0000" stroke-width="0.01"/>
<path d="M 33.000,41.750 L 33.000,51.750" fill="none" stroke="#FF0000" stroke-width="0.01"/>
<path d="M 33.000,55.250 L 33.000,65.250" fill="none" stroke="#FF0000" stroke-width="0.01"/>
<path d="M 36.000,8.000 L 36.000,18.000" fill="none" stroke="#FF0000" stroke-width="0.01"/>
<path d="M 36.000,21.500 L 36.000,31.500" fill="none" stroke="#FF0000" stroke-width="0.01"/>
<path d="M 36.000,35.000 L 36.000,45.000" fill="none" stroke="#FF0000" stroke-width="0.01"/>
<path d="M 36.000,48.500 L 36.000,58.500" fill="none" stroke="#FF0000" stroke-width="0.01"/>
<path d="M 36.000,62.000 L 36.000,68.000" fill="none" stroke="#FF0000" stroke-width="0.01"/>
<path d="M 39.000,8.000 L 39.000,11.250" fill="none" stroke="#FF0000" stroke-width="0.01"/>
<path d="M 39.000,14.750 L 39.000,24.750" fill="none" stroke="#FF0000" stroke-width="0.01"/>
<path d="M 39.000,28.250 L 39.000,38.250" fill="none" stroke="#FF0000" stroke-width="0.01"/>
<path d="M 39.000,41.750 L 39.000,51.750" fill="none" stroke="#FF0000" stroke-width="0.01"/>
<path d="M 39.000,55.250 L 39.000,65.250" fill="none" stroke="#FF0000" stroke-width="0.01"/>
<path d="M 42.000,8.000 L 42.000,18.000" fill="none" stroke="#FF0000" stroke-width="0.01"/>
<path d="M 42.000,21.500 L 42.000,31.500" fill="none" stroke="#FF0000" stroke-width="0.01"/>
<path d="M 42.000,35.000 L 42.000,45.000" fill="none" stroke="#FF0000" stroke-width="0.01"/>
<path d="M 42.000,48.500 L 42.000,58.500" fill="none" stroke="#FF0000" stroke-width="0.01"/>
<path d="M 42.000,62.000 L 42.000,68.000" fill="none" stroke="#FF0000" stroke-width="0.01"/>
<path d="M 45.000,8.000 L 45.000,11.250" fill="none" stroke="#FF0000" stroke-width="0.01"/>
<path d="M 45.000,14.750 L 45.000,24.750" fill="none" stroke="#FF0000" stroke-width="0.01"/>
<path d="M 45.000,28.250 L 45.000,38.250" fill="none" stroke="#FF0000" stroke-width="0.01"/>
<path d="M 45.000,41.750 L 45.000,51.750" fill="none" stroke="#FF0000" stroke-width="0.01"/>
<path d="M 45.000,55.250 L 45.000,65.250" fill="none" stroke="#FF0000" stroke-width="0.01"/>
<path d="M 48.000,8.000 L 48.000,18.000" fill="none" stroke="#FF0000" stroke-width="0.01"/>
<path d="M 48.000,21.500 L 48.000,31.500" fill="none" stroke="#FF0000" stroke-width="0.01"/>
<path d="M 48.000,35.000 L 48.000,45.000" fill="none" stroke="#FF0000" stroke-width="0.01"/>
<path d="M 48.000,48.500 L 48.000,58.500" fill="none" stroke="#FF0000" stroke-width="0.01"/>
<path d="M 48.000,62.000 L 48.000,68.000" fill="none" stroke="#FF0000" stroke-width="0.01"/>
<path d="M 51.000,8.000 L 51.000,11.250" fill="none" stroke="#FF0000" stroke-width="0.01"/>
<path d="M 51.000,14.750 L 51.000,24.750" fill="none" stroke="#FF0000" stroke-width="0.01"/>
<path d="M 51.000,28.250 L 51.000,38.250" fill="none" stroke="#FF0000" stroke-width="0.01"/>
<path d="M 51.000,41.750 L 51.000,51.750" fill="none" stroke="#FF0000" stroke-width="0.01"/>
<path d="M 51.000,55.250 L 51.000,65.250" fill="none" stroke="#FF0000" stroke-width="0.01"/>
<path d="M 54.000,8.000 L 54.000,18.000" fill="none" stroke="#FF0000" stroke-width="0.01"/>
<path d="M 54.000,21.500 L 54.000,31.500" fill="none" stroke="#FF0000" stroke-width="0.01"/>
<path d="M 54.000,35.000 L 54.000,45.000" fill="none" stroke="#FF0000" stroke-width="0.01"/>
<path d="M 54.000,48.500 L 54.000,58.500" fill="none" stroke="#FF0000" stroke-width="0.01"/>
<path d="M 54.000,62.000 L 54.000,68.000" fill="none" stroke="#FF0000" stroke-width="0.01"/>
<path d="M 57.000,8.000 L 57.000,11.250" fill="none" stroke="#FF0000" stroke-width="0.01"/>
<path d="M 57.000,14.750 L 57.000,24.750" fill="none" stroke="#FF0000" stroke-width="0.01"/>
<path d="M 57.000,28.250 L 57.000,38.250" fill="none" stroke="#FF0000" stroke-width="0.01"/>
<path d="M 57.000,41.750 L 57.000,51.750" fill="none" stroke="#FF0000" stroke-width="0.01"/>
<path d="M 57.000,55.250 L 57.000,65.250" fill="none" stroke="#FF0000" stroke-width="0.01"/>
<path d="M 60.000,8.000 L 60.000,18.000" fill="none" stroke="#FF0000" stroke-width="0.01"/>
<path d="M 60.000,21.500 L 60.000,31.500" fill="none" stroke="#FF0000" stroke-width="0.01"/>
<path d="M 60.000,35.000 L 60.000,45.000" fill="none" stroke="#FF0000" stroke-width="0.01"/>
<path d="M 60.000,48.500 L 60.000,58.500" fill="none" stroke="#FF0000" stroke-width="0.01"/>
<path d="M 60.000,62.000 L 60.000,68.000" fill="none" stroke="#FF0000" stroke-width="0.01"/>
<path d="M 63.000,8.000 L 63.000,11.250" fill="none" stroke="#FF0000" stroke-width="0.01"/>
<path d="M 63.000,14.750 L 63.000,24.750" fill="none" stroke="#FF0000" stroke-width="0.01"/>
<path d="M 63.000,28.250 L 63.000,38.250" fill="none" stroke="#FF0000" stroke-width="0.01"/>
<path d="M 63.000,41.750 L 63.000,51.750" fill="none" stroke="#FF0000" stroke-width="0.01"/>
<path d="M 63.000,55.250 L 63.000,65.250" fill="none" stroke="#FF0000" stroke-width="0.01"/>
<path d="M 66.000,8.000 L 66.000,18.000" fill="none" stroke="#FF0000" stroke-width="0.01"/>
<path d="M 66.000,21.500 L 66.000,31.500" fill="none" stroke="#FF0000" stroke-width="0.01"/>
<path d="M 66.000,35.000 L 66.000,45.000" fill="none" stroke="#FF0000" stroke-width="0.01"/>
<path d="M 66.000,48.500 L 66.000,58.500" fill="none" stroke="#FF0000" stroke-width="0.01"/>
<path d="M 66.000,62.000 L 66.000,68.000" fill="none" stroke="#FF0000" stroke-width="0.01"/>
<path d="M 69.000,8.000 L 69.000,11.250" fill="none" stroke="#FF0000" stroke-width="0.01"/>
<path d="M 69.000,14.750 L 69.000,24.750" fill="none" stroke="#FF0000" stroke-width="0.01"/>
<path d="M 69.000,28.250 L 69.000,38.250" fill="none" stroke="#FF0000" stroke-width="0.01"/>
<path d="M 69.000,41.750 L 69.000,51.750" fill="none" stroke="#FF0000" stroke-width="0.01"/>
<path d="M 69.000,55.250 L 69.000,65.250" fill="none" stroke="#FF0000" stroke-width="0.01"/>
<path d="M 126.000,8.000 L 126.000,18.000" fill="none" stroke="#FF0000" stroke-width="0.01"/>
<path d="M 126.000,21.500 L 126.000,31.500" fill="none" stroke="#FF0000" stroke-width="0.01"/>
<path d="M 126.000,35.000 L 126.000,45.000" fill="none" stroke="#FF0000" stroke-width="0.01"/>
<path d="M 126.000,48.500 L 126.000,58.500" fill="none" stroke="#FF0000" stroke-width="0.01"/>
<path d="M 126.000,62.000 L 126.000,68.000" fill="none" stroke="#FF0000" stroke-width="0.01"/>
<path d="M 129.000,8.000 L 129.000,11.250" fill="none" stroke="#FF0000" stroke-width="0.01"/>
<path d="M 129.000,14.750 L 129.000,24.750" fill="none" stroke="#FF0000" stroke-width="0.01"/>
<path d="M 129.000,28.250 L 129.000,38.250" fill="none" stroke="#FF0000" stroke-width="0.01"/>
<path d="M 129.000,41.750 L 129.000,51.750" fill="none" stroke="#FF0000" stroke-width="0.01"/>
<path d="M 129.000,55.250 L 129.000,65.250" fill="none" stroke="#FF0000" stroke-width="0.01"/>
<path d="M 132.000,8.000 L 132.000,18.000" fill="none" stroke="#FF0000" stroke-width="0.01"/>
<path d="M 132.000,21.500 L 132.000,31.500" fill="none" stroke="#FF0000" stroke-width="0.01"/>
<path d="M 132.000,35.000 L 132.000,45.000" fill="none" stroke="#FF0000" stroke-width="0.01"/>
<path d="M 132.000,48.500 L 132.000,58.500" fill="none" stroke="#FF0000" stroke-width="0.01"/>
<path d="M 132.000,62.000 L 132.000,68.000" fill="none" stroke="#FF0000" stroke-width="0.01"/>
<path d="M 135.000,8.000 L 135.000,11.250" fill="none" stroke="#FF0000" stroke-width="0.01"/>
<path d="M 135.000,14.750 L 135.000,24.750" fill="none" stroke="#FF0000" stroke-width="0.01"/>
<path d="M 135.000,28.250 L 135.000,38.250" fill="none" stroke="#FF0000" stroke-width="0.01"/>
<path d="M 135.000,41.750 L 135.000,51.750" fill="none" stroke="#FF0000" stroke-width="0.01"/>
<path d="M 135.000,55.250 L 135.000,65.250" fill="none" stroke="#FF0000" stroke-width="0.01"/>
<path d="M 138.000,8.000 L 138.000,18.000" fill="none" stroke="#FF0000" stroke-width="0.01"/>
<path d="M 138.000,21.500 L 138.000,31.500" fill="none" stroke="#FF0000" stroke-width="0.01"/>
<path d="M 138.000,35.000 L 138.000,45.000" fill="none" stroke="#FF0000" stroke-width="0.01"/>
<path d="M 138.000,48.500 L 138.000,58.500" fill="none" stroke="#FF0000" stroke-width="0.01"/>
<path d="M 138.000,62.000 L 138.000,68.000" fill="none" stroke="#FF0000" stroke-width="0.01"/>
<path d="M 141.000,8.000 L 141.000,11.250" fill="none" stroke="#FF0000" stroke-width="0.01"/>
<path d="M 141.000,14.750 L 141.000,24.750" fill="none" stroke="#FF0000" stroke-width="0.01"/>
<path d="M 141.000,28.250 L 141.000,38.250" fill="none" stroke="#FF0000" stroke-width="0.01"/>
<path d="M 141.000,41.750 L 141.000,51.750" fill="none" stroke="#FF0000" stroke-width="0.01"/>
<path d="M 141.000,55.250 L 141.000,65.250" fill="none" stroke="#FF0000" stroke-width="0.01"/>
<path d="M 144.000,8.000 L 144.000,18.000" fill="none" stroke="#FF0000" stroke-width="0.01"/>
<path d="M 144.000,21.500 L 144.000,31.500" fill="none" stroke="#FF0000" stroke-width="0.01"/>
<path d="M 144.000,35.000 L 144.000,45.000" fill="none" stroke="#FF0000" stroke-width="0.01"/>
<path d="M 144.000,48.500 L 144.000,58.500" fill="none" stroke="#FF0000" stroke-width="0.01"/>
<path d="M 144.000,62.000 L 144.000,68.000" fill="none" stroke="#FF0000" stroke-width="0.01"/>
<path d="M 147.000,8.000 L 147.000,11.250" fill="none" stroke="#FF0000" stroke-width="0.01"/>
<path d="M 147.000,14.750 L 147.000,24.750" fill="none" stroke="#FF0000" stroke-width="0.01"/>
<path d="M 147.000,28.250 L 147.000,38.250" fill="none" stroke="#FF0000" stroke-width="0.01"/>
<path d="M 147.000,41.750 L 147.000,51.750" fill="none" stroke="#FF0000" stroke-width="0.01"/>
<path d="M 147.000,55.250 L 147.000,65.250" fill="none" stroke="#FF0000" stroke-width="0.01"/>
<path d="M 150.000,8.000 L 150.000,18.000" fill="none" stroke="#FF0000" stroke-width="0.01"/>
<path d="M 150.000,21.500 L 150.000,31.500" fill="none" stroke="#FF0000" stroke-width="0.01"/>
<path d="M 150.000,35.000 L 150.000,45.000" fill="none" stroke="#FF0000" stroke-width="0.01"/>
<path d="M 150.000,48.500 L 150.000,58.500" fill="none" stroke="#FF0000" stroke-width="0.01"/>
<path d="M 150.000,62.000 L 150.000,68.000" fill="none" stroke="#FF0000" stroke-width="0.01"/>
<path d="M 153.000,8.000 L 153.000,11.250" fill="none" stroke="#FF0000" stroke-width="0.01"/>
<path d="M 153.000,14.750 L 153.000,24.750" fill="none" stroke="#FF0000" stroke-width="0.01"/>
<path d="M 153.000,28.250 L 153.000,38.250" fill="none" stroke="#FF0000" stroke-width="0.01"/>
<path d="M 153.000,41.750 L 153.000,51.750" fill="none" stroke="#FF0000" stroke-width="0.01"/>
<path d="M 153.000,55.250 L 153.000,65.250" fill="none" stroke="#FF0000" stroke-width="0.01"/>
<path d="M 156.000,8.000 L 156.000,18.000" fill="none" stroke="#FF0000" stroke-width="0.01"/>
<path d="M 156.000,21.500 L 156.000,31.500" fill="none" stroke="#FF0000" stroke-width="0.01"/>
<path d="M 156.000,35.000 L 156.000,45.000" fill="none" stroke="#FF0000" stroke-width="0.01"/>
<path d="M 156.000,48.500 L 156.000,58.500" fill="none" stroke="#FF0000" stroke-width="0.01"/>
<path d="M 156.000,62.000 L 156.000,68.000" fill="none" stroke="#FF0000" stroke-width="0.01"/>
<path d="M 159.000,8.000 L 159.000,11.250" fill="none" stroke="#FF0000" stroke-width="0.01"/>
<path d="M 159.000,14.750 L 159.000,24.750" fill="none" stroke="#FF0000" stroke-width="0.01"/>
<path d="M 159.000,28.250 L 159.000,38.250" fill="none" stroke="#FF0000" stroke-width="0.01"/>
<path d="M 159.000,41.750 L 159.000,51.750" fill="none" stroke="#FF0000" stroke-width="0.01"/>
<path d="M 159.000,55.250 L 159.000,65.250" fill="none" stroke="#FF0000" stroke-width="0.01"/>
<path d="M 162.000,8.000 L 162.000,18.000" fill="none" stroke="#FF0000" stroke-width="0.01"/>
<path d="M 162.000,21.500 L 162.000,31.500" fill="none" stroke="#FF0000" stroke-width="0.01"/>
<path d="M 162.000,35.000 L 162.000,45.000" fill="none" stroke="#FF0000" stroke-width="0.01"/>
<path d="M 162.000,48.500 L 162.000,58.500" fill="none" stroke="#FF0000" stroke-width="0.01"/>
<path d="M 162.000,62.000 L 162.000,68.000" fill="none" stroke="#FF0000" stroke-width="0.01"/>
<path d="M 165.000,8.000 L 165.000,11.250" fill="none" stroke="#FF0000" stroke-width="0.01"/>
<path d="M 165.000,14.750 L 165.000,24.750" fill="none" stroke="#FF0000" stroke-width="0.01"/>
<path d="M 165.000,28.250 L 165.000,38.250" fill="none" stroke="#FF0000" stroke-width="0.01"/>
<path d="M 165.000,41.750 L 165.000,51.750" fill="none" stroke="#FF0000" stroke-width="0.01"/>
<path d="M 165.000,55.250 L 165.000,65.250" fill="none" stroke="#FF0000" stroke-width="0.01"/>
<path d="M 168.000,8.000 L 168.000,18.000" fill="none" stroke="#FF0000" stroke-width="0.01"/>
<path d="M 168.000,21.500 L 168.000,31.500" fill="none" stroke="#FF0000" stroke-width="0.01"/>
<path d="M 168.000,35.000 L 168.000,45.000" fill="none" stroke="#FF0000" stroke-width="0.01"/>
<path d="M 168.000,48.500 L 168.000,58.500" fill="none" stroke="#FF0000" stroke-width="0.01"/>
<path d="M 168.000,62.000 L 168.000,68.000" fill="none" stroke="#FF0000" stroke-width="0.01"/>
<path d="M 171.000,8.000 L 171.000,11.250" fill="none" stroke="#FF0000" stroke-width="0.01"/>
<path d="M 171.000,14.750 L 171.000,24.750" fill="none" stroke="#FF0000" stroke-width="0.01"/>
<path d="M 171.000,28.250 L 171.000,38.250" fill="none" stroke="#FF0000" stroke-width="0.01"/>
<path d="M 171.000,41.750 L 171.000,51.750" fill="none" stroke="#FF0000" stroke-width="0.01"/>
<path d="M 171.000,55.250 L 171.000,65.250" fill="none" stroke="#FF0000" stroke-width="0.01"/>
<path d="M 174.000,8.000 L 174.000,18.000" fill="none" stroke="#FF0000" stroke-width="0.01"/>
<path d="M 174.000,21.500 L 174.000,31.500" fill="none" stroke="#FF0000" stroke-width="0.01"/>
<path d="M 174.000,35.000 L 174.000,45.000" fill="none" stroke="#FF0000" stroke-width="0.01"/>
<path d="M 174.000,48.500 L 174.000,58.500" fill="none" stroke="#FF0000" stroke-width="0.01"/>
<path d="M 174.000,62.000 L 174.000,68.000" fill="none" stroke="#FF0000" stroke-width="0.01"/>
<path d="M 177.000,8.000 L 177.000,11.250" fill="none" stroke="#FF0000" stroke-width="0.01"/>
<path d="M 177.000,14.750 L 177.000,24.750" fill="none" stroke="#FF0000" stroke-width="0.01"/>
<path d="M 177.000,28.250 L 177.000,38.250" fill="none" stroke="#FF0000" stroke-width="0.01"/>
<path d="M 177.000,41.750 L 177.000,51.750" fill="none" stroke="#FF0000" stroke-width="0.01"/>
<path d="M 177.000,55.250 L 177.000,65.250" fill="none" stroke="#FF0000" stroke-width="0.01"/>
<path d="M 180.000,8.000 L 180.000,18.000" fill="none" stroke="#FF0000" stroke-width="0.01"/>
<path d="M 180.000,21.500 L 180.000,31.500" fill="none" stroke="#FF0000" stroke-width="0.01"/>
<path d="M 180.000,35.000 L 180.000,45.000" fill="none" stroke="#FF0000" stroke-width="0.01"/>
<path d="M 180.000,48.500 L 180.000,58.500" fill="none" stroke="#FF0000" stroke-width="0.01"/>
<path d="M 180.000,62.000 L 180.000,68.000" fill="none" stroke="#FF0000" stroke-width="0.01"/>
<path d="M 183.000,8.000 L 183.000,11.250" fill="none" stroke="#FF0000" stroke-width="0.01"/>
<path d="M 183.000,14.750 L 183.000,24.750" fill="none" stroke="#FF0000" stroke-width="0.01"/>
<path d="M 183.000,28.250 L 183.000,38.250" fill="none" stroke="#FF0000" stroke-width="0.01"/>
<path d="M 183.000,41.750 L 183.000,51.750" fill="none" stroke="#FF0000" stroke-width="0.01"/>
<path d="M 183.000,55.250 L 183.000,65.250" fill="none" stroke="#FF0000" stroke-width="0.01"/>
</svg>