<svg xmlns="http://www.w3.org/2000/svg" width="195.35mm" height="127.92mm" viewBox="0 0 195.35 127.92">
<path d="M 99.973,40.947 L 99.849,40.844 L 99.735,40.730 L 99.632,40.606 L 99.538,40.472 L 99.456,40.327 L 99.373,40.213 L 99.290,40.130 L 99.208,40.079 L 99.125,40.058 L 99.037,40.074 L 98.944,40.125 L 98.846,40.213 L 98.742,40.337 L 98.659,40.482 L 98.597,40.647 L 98.556,40.834 L 98.535,41.040 L 98.484,41.227 L 98.401,41.392 L 98.287,41.537 L 98.142,41.661 L 97.982,41.759 L 97.806,41.832 L 97.615,41.878 L 97.408,41.899 L 97.237,41.904 L 97.103,41.894 L 97.005,41.868 L 96.943,41.826 L 96.870,41.744 L 96.788,41.620 L 96.695,41.454 L 96.591,41.247 L 96.462,41.087 L 96.307,40.973 L 96.126,40.906 L 95.919,40.885 L 95.733,40.891 L 95.567,40.922 L 95.422,40.978 L 95.298,41.061 L 95.205,41.170 L 95.143,41.304 L 95.112,41.464 L 95.112,41.651 L 95.123,41.821 L 95.143,41.976 L 95.174,42.116 L 95.216,42.240 L 95.278,42.369 L 95.360,42.504 L 95.464,42.643 L 95.588,42.788 L 95.733,42.933 L 95.898,43.078 L 96.084,43.223 L 96.291,43.367 L 96.596,43.471 L 97.000,43.533 L 97.501,43.554 L 98.101,43.533 L 98.577,43.491 L 98.928,43.429 L 99.156,43.347 L 99.259,43.243 L 99.342,43.135 L 99.404,43.021 L 99.445,42.902 L 99.466,42.778 L 99.523,42.623 L 99.616,42.437 L 99.745,42.219 L 99.911,41.971 L 100.035,41.754 L 100.118,41.568 L 100.159,41.413 L 100.159,41.289 L 100.128,41.170 L 100.066,41.056 Z" fill="#000000" fill-rule="evenodd" stroke="none"/>
<path d="M 113.541,29.344 L 113.252,29.282 L 112.853,29.235 L 112.347,29.204 L 111.731,29.189 L 111.007,29.189 L 110.413,29.199 L 109.947,29.220 L 109.611,29.251 L 109.405,29.292 L 109.198,29.365 L 108.991,29.468 L 108.784,29.603 L 108.577,29.768 L 108.344,29.908 L 108.086,30.021 L 107.802,30.109 L 107.491,30.171 L 107.181,30.275 L 106.871,30.420 L 106.561,30.606 L 106.250,30.833 L 105.930,31.081 L 105.599,31.350 L 105.257,31.640 L 104.906,31.950 L 104.621,32.224 L 104.404,32.462 L 104.254,32.664 L 104.172,32.829 L 104.068,33.000 L 103.944,33.176 L 103.799,33.357 L 103.634,33.543 L 103.489,33.760 L 103.365,34.008 L 103.262,34.287 L 103.179,34.598 L 103.096,34.851 L 103.013,35.047 L 102.931,35.187 L 102.848,35.270 L 102.765,35.373 L 102.682,35.497 L 102.600,35.642 L 102.517,35.808 L 102.450,36.185 L 102.398,36.775 L 102.362,37.576 L 102.341,38.589 L 102.331,39.375 L 102.331,39.934 L 102.341,40.265 L 102.362,40.368 L 102.429,40.498 L 102.543,40.653 L 102.703,40.834 L 102.910,41.040 L 103.070,41.211 L 103.184,41.346 L 103.251,41.444 L 103.272,41.506 L 103.401,41.656 L 103.639,41.894 L 103.985,42.219 L 104.440,42.633 L 104.921,43.011 L 105.428,43.352 L 105.961,43.657 L 106.519,43.926 L 107.243,44.127 L 108.132,44.262 L 109.187,44.329 L 110.408,44.329 L 111.354,44.319 L 112.026,44.298 L 112.424,44.267 L 112.548,44.226 L 112.683,44.153 L 112.828,44.050 L 112.983,43.915 L 113.148,43.750 L 113.345,43.605 L 113.572,43.481 L 113.831,43.378 L 114.120,43.295 L 114.369,43.197 L 114.575,43.083 L 114.741,42.954 L 114.865,42.809 L 114.984,42.690 L 115.098,42.597 L 115.206,42.530 L 115.310,42.488 L 115.398,42.437 L 115.470,42.375 L 115.527,42.302 L 115.568,42.219 L 115.656,42.100 L 115.791,41.945 L 115.971,41.754 L 116.199,41.527 L 116.390,41.294 L 116.545,41.056 L 116.664,40.813 L 116.747,40.565 L 116.840,40.342 L 116.944,40.146 L 117.057,39.975 L 117.181,39.830 L 117.300,39.546 L 117.414,39.122 L 117.523,38.558 L 117.626,37.855 L 117.683,37.116 L 117.693,36.340 L 117.657,35.528 L 117.574,34.680 L 117.466,33.993 L 117.331,33.465 L 117.171,33.098 L 116.985,32.891 L 116.830,32.695 L 116.706,32.509 L 116.613,32.333 L 116.551,32.167 L 116.452,31.971 L 116.318,31.743 L 116.147,31.485 L 115.940,31.195 L 115.682,30.895 L 115.372,30.585 L 115.010,30.264 L 114.596,29.933 L 114.213,29.670 L 113.862,29.473 Z" fill="#000000" fill-rule="evenodd" stroke="none"/>
<path d="M 86.001,29.292 L 85.774,29.251 L 85.401,29.225 L 84.884,29.215 L 84.222,29.220 L 83.416,29.241 L 82.738,29.292 L 82.190,29.375 L 81.771,29.489 L 81.482,29.634 L 81.197,29.758 L 80.918,29.861 L 80.644,29.944 L 80.375,30.006 L 80.117,30.099 L 79.869,30.223 L 79.631,30.378 L 79.403,30.564 L 79.176,30.730 L 78.948,30.875 L 78.721,30.999 L 78.493,31.102 L 78.297,31.211 L 78.131,31.324 L 77.997,31.443 L 77.893,31.567 L 77.774,31.686 L 77.640,31.800 L 77.490,31.909 L 77.324,32.012 L 77.175,32.152 L 77.040,32.328 L 76.921,32.540 L 76.818,32.788 L 76.709,33.005 L 76.595,33.191 L 76.476,33.346 L 76.352,33.470 L 76.244,33.615 L 76.151,33.781 L 76.073,33.967 L 76.011,34.174 L 75.923,34.380 L 75.809,34.587 L 75.670,34.794 L 75.504,35.001 L 75.370,35.208 L 75.266,35.415 L 75.194,35.621 L 75.153,35.828 L 75.117,36.128 L 75.085,36.521 L 75.060,37.007 L 75.039,37.586 L 75.039,38.186 L 75.060,38.807 L 75.101,39.448 L 75.163,40.110 L 75.349,40.735 L 75.659,41.325 L 76.094,41.878 L 76.652,42.395 L 77.133,42.804 L 77.536,43.104 L 77.862,43.295 L 78.110,43.378 L 78.343,43.476 L 78.560,43.590 L 78.762,43.719 L 78.948,43.864 L 79.134,43.988 L 79.320,44.091 L 79.507,44.174 L 79.693,44.236 L 80.122,44.283 L 80.794,44.314 L 81.709,44.329 L 82.868,44.329 L 83.881,44.257 L 84.750,44.112 L 85.474,43.895 L 86.053,43.605 L 86.513,43.357 L 86.854,43.150 L 87.077,42.985 L 87.180,42.861 L 87.284,42.757 L 87.387,42.674 L 87.490,42.612 L 87.594,42.571 L 87.759,42.442 L 87.987,42.225 L 88.276,41.920 L 88.628,41.527 L 88.907,41.180 L 89.114,40.880 L 89.248,40.627 L 89.311,40.420 L 89.409,40.187 L 89.543,39.929 L 89.714,39.644 L 89.921,39.334 L 90.076,38.791 L 90.179,38.016 L 90.231,37.007 L 90.231,35.766 L 90.195,34.789 L 90.122,34.075 L 90.014,33.625 L 89.869,33.439 L 89.740,33.238 L 89.626,33.020 L 89.528,32.788 L 89.445,32.540 L 89.264,32.224 L 88.985,31.842 L 88.607,31.392 L 88.132,30.875 L 87.708,30.440 L 87.335,30.089 L 87.015,29.820 L 86.746,29.634 L 86.487,29.484 L 86.239,29.370 Z" fill="#000000" fill-rule="evenodd" stroke="none"/>
<path d="M 79.062,30.182 L 78.896,30.347 L 78.736,30.487 L 78.581,30.600 L 78.431,30.688 L 78.286,30.750 L 78.095,30.875 L 77.857,31.061 L 77.573,31.309 L 77.242,31.619 L 76.973,31.893 L 76.766,32.131 L 76.621,32.333 L 76.538,32.498 L 76.440,32.653 L 76.326,32.798 L 76.197,32.933 L 76.052,33.057 L 75.939,33.191 L 75.856,33.336 L 75.804,33.491 L 75.784,33.656 L 75.721,33.843 L 75.618,34.049 L 75.473,34.277 L 75.287,34.525 L 75.127,34.872 L 74.992,35.316 L 74.884,35.859 L 74.801,36.500 L 74.739,37.069 L 74.698,37.566 L 74.677,37.990 L 74.677,38.341 L 74.692,38.745 L 74.724,39.200 L 74.770,39.706 L 74.832,40.265 L 74.899,40.730 L 74.972,41.103 L 75.049,41.382 L 75.132,41.568 L 75.199,41.759 L 75.251,41.956 L 75.287,42.157 L 75.308,42.364 L 75.349,42.540 L 75.411,42.685 L 75.494,42.799 L 75.597,42.881 L 75.732,43.021 L 75.897,43.217 L 76.094,43.471 L 76.321,43.781 L 76.580,44.081 L 76.869,44.371 L 77.190,44.650 L 77.542,44.919 L 77.857,45.177 L 78.136,45.425 L 78.379,45.663 L 78.586,45.891 L 78.798,46.077 L 79.015,46.222 L 79.238,46.325 L 79.465,46.387 L 79.688,46.475 L 79.905,46.589 L 80.117,46.728 L 80.324,46.894 L 80.530,47.039 L 80.737,47.163 L 80.944,47.266 L 81.151,47.349 L 81.503,47.421 L 81.999,47.483 L 82.640,47.535 L 83.426,47.576 L 84.062,47.592 L 84.548,47.582 L 84.884,47.545 L 85.070,47.483 L 85.319,47.421 L 85.629,47.359 L 86.001,47.297 L 86.436,47.235 L 86.818,47.152 L 87.149,47.049 L 87.428,46.925 L 87.656,46.780 L 87.899,46.661 L 88.157,46.568 L 88.431,46.501 L 88.721,46.460 L 89.062,46.310 L 89.455,46.051 L 89.900,45.684 L 90.396,45.208 L 90.810,44.784 L 91.141,44.412 L 91.389,44.091 L 91.555,43.822 L 91.705,43.595 L 91.839,43.409 L 91.958,43.264 L 92.061,43.161 L 92.144,43.062 L 92.206,42.969 L 92.248,42.881 L 92.268,42.799 L 92.341,42.649 L 92.465,42.431 L 92.641,42.147 L 92.868,41.795 L 93.034,41.413 L 93.137,40.999 L 93.178,40.554 L 93.158,40.079 L 93.152,39.670 L 93.163,39.329 L 93.189,39.055 L 93.230,38.848 L 93.261,38.579 L 93.282,38.248 L 93.292,37.855 L 93.292,37.400 L 93.271,36.935 L 93.230,36.459 L 93.168,35.973 L 93.085,35.477 L 92.992,35.073 L 92.889,34.763 L 92.775,34.546 L 92.651,34.422 L 92.537,34.282 L 92.434,34.127 L 92.341,33.956 L 92.258,33.770 L 92.144,33.563 L 91.999,33.336 L 91.824,33.088 L 91.617,32.819 L 91.436,32.565 L 91.281,32.328 L 91.151,32.105 L 91.048,31.898 L 90.857,31.635 L 90.577,31.314 L 90.210,30.937 L 89.755,30.502 L 89.352,30.187 L 89.000,29.990 L 88.700,29.913 L 88.452,29.954 L 88.235,29.959 L 88.049,29.928 L 87.894,29.861 L 87.770,29.758 L 87.604,29.644 L 87.397,29.520 L 87.149,29.385 L 86.860,29.241 L 86.606,29.127 L 86.389,29.044 L 86.208,28.992 L 86.063,28.972 L 85.691,28.956 L 85.091,28.946 L 84.264,28.941 L 83.209,28.941 L 82.314,28.992 L 81.580,29.096 L 81.006,29.251 L 80.592,29.458 L 80.241,29.623 L 79.951,29.747 L 79.724,29.830 L 79.558,29.871 L 79.393,29.944 L 79.227,30.047 Z" fill="none" stroke="#000000" stroke-width="0.5" stroke-linejoin="round"/>
<path d="M 109.642,28.455 L 109.622,28.517 L 109.637,28.563 L 109.689,28.594 L 109.777,28.610 L 109.901,28.610 L 109.994,28.630 L 110.056,28.672 L 110.087,28.734 L 110.087,28.817 L 110.020,28.884 L 109.885,28.935 L 109.684,28.972 L 109.415,28.992 L 109.151,29.044 L 108.893,29.127 L 108.639,29.241 L 108.391,29.385 L 108.117,29.520 L 107.817,29.644 L 107.491,29.758 L 107.140,29.861 L 106.850,29.970 L 106.623,30.083 L 106.457,30.202 L 106.354,30.326 L 106.250,30.430 L 106.147,30.513 L 106.043,30.575 L 105.940,30.616 L 105.754,30.740 L 105.485,30.947 L 105.133,31.237 L 104.699,31.609 L 104.347,31.940 L 104.079,32.229 L 103.892,32.478 L 103.789,32.684 L 103.686,32.860 L 103.582,33.005 L 103.479,33.119 L 103.375,33.201 L 103.272,33.331 L 103.168,33.507 L 103.065,33.729 L 102.962,33.998 L 102.863,34.220 L 102.770,34.396 L 102.682,34.525 L 102.600,34.608 L 102.512,34.753 L 102.419,34.960 L 102.320,35.228 L 102.217,35.559 L 102.139,36.087 L 102.088,36.811 L 102.062,37.731 L 102.062,38.848 L 102.108,39.768 L 102.201,40.492 L 102.341,41.020 L 102.527,41.351 L 102.672,41.661 L 102.775,41.951 L 102.838,42.219 L 102.858,42.468 L 102.884,42.680 L 102.915,42.855 L 102.951,42.995 L 102.993,43.098 L 103.055,43.192 L 103.137,43.274 L 103.241,43.347 L 103.365,43.409 L 103.484,43.481 L 103.598,43.564 L 103.706,43.657 L 103.810,43.760 L 103.898,43.874 L 103.970,43.998 L 104.027,44.133 L 104.068,44.277 L 104.125,44.417 L 104.197,44.551 L 104.285,44.681 L 104.389,44.805 L 104.528,44.924 L 104.704,45.038 L 104.916,45.146 L 105.164,45.250 L 105.402,45.374 L 105.630,45.518 L 105.847,45.684 L 106.054,45.870 L 106.276,46.036 L 106.514,46.180 L 106.767,46.304 L 107.036,46.408 L 107.274,46.516 L 107.481,46.630 L 107.657,46.749 L 107.802,46.873 L 108.019,46.997 L 108.308,47.121 L 108.670,47.246 L 109.105,47.370 L 109.585,47.468 L 110.113,47.540 L 110.687,47.587 L 111.307,47.607 L 111.855,47.613 L 112.331,47.602 L 112.735,47.576 L 113.065,47.535 L 113.402,47.473 L 113.743,47.390 L 114.089,47.287 L 114.441,47.163 L 114.746,47.039 L 115.005,46.915 L 115.217,46.790 L 115.382,46.666 L 115.563,46.547 L 115.759,46.434 L 115.971,46.325 L 116.199,46.222 L 116.406,46.103 L 116.592,45.968 L 116.757,45.818 L 116.902,45.653 L 117.073,45.508 L 117.269,45.384 L 117.492,45.281 L 117.740,45.198 L 118.030,45.017 L 118.360,44.738 L 118.733,44.360 L 119.146,43.884 L 119.498,43.424 L 119.788,42.980 L 120.015,42.550 L 120.181,42.137 L 120.320,41.676 L 120.434,41.170 L 120.522,40.616 L 120.584,40.017 L 120.630,39.448 L 120.661,38.910 L 120.677,38.403 L 120.677,37.928 L 120.661,37.426 L 120.630,36.899 L 120.584,36.345 L 120.522,35.766 L 120.460,35.301 L 120.398,34.949 L 120.336,34.711 L 120.274,34.587 L 120.196,34.463 L 120.103,34.339 L 119.994,34.215 L 119.870,34.091 L 119.757,33.936 L 119.653,33.750 L 119.560,33.532 L 119.477,33.284 L 119.389,33.077 L 119.296,32.912 L 119.198,32.788 L 119.095,32.705 L 118.991,32.586 L 118.888,32.431 L 118.784,32.240 L 118.681,32.012 L 118.572,31.816 L 118.459,31.650 L 118.340,31.516 L 118.216,31.412 L 118.050,31.314 L 117.843,31.221 L 117.595,31.133 L 117.306,31.050 L 117.063,30.942 L 116.866,30.807 L 116.716,30.647 L 116.613,30.461 L 116.499,30.326 L 116.375,30.244 L 116.240,30.213 L 116.096,30.233 L 115.935,30.218 L 115.759,30.166 L 115.568,30.078 L 115.361,29.954 L 115.191,29.840 L 115.056,29.737 L 114.958,29.644 L 114.896,29.561 L 114.772,29.468 L 114.586,29.365 L 114.338,29.251 L 114.027,29.127 L 113.655,29.034 L 113.221,28.972 L 112.724,28.941 L 112.166,28.941 L 111.742,28.925 L 111.452,28.894 L 111.297,28.848 L 111.276,28.786 L 111.287,28.734 L 111.328,28.692 L 111.400,28.661 L 111.504,28.641 L 111.576,28.610 L 111.618,28.568 L 111.628,28.517 L 111.607,28.455 L 111.473,28.408 L 111.225,28.377 L 110.863,28.362 L 110.387,28.362 L 110.025,28.377 L 109.777,28.408 Z" fill="none" stroke="#000000" stroke-width="0.5" stroke-linejoin="round"/>
<path d="M 5.000,8.000 L 6.963,8.000 L 6.963,5.000 L 11.463,5.000 L 11.463,8.000 L 15.388,8.000 L 15.388,5.000 L 19.888,5.000 L 19.888,8.000 L 23.813,8.000 L 23.813,5.000 L 28.313,5.000 L 28.313,8.000 L 32.238,8.000 L 32.238,5.000 L 36.738,5.000 L 36.738,8.000 L 40.663,8.000 L 40.663,5.000 L 45.163,5.000 L 45.163,8.000 L 49.088,8.000 L 49.088,5.000 L 53.588,5.000 L 53.588,8.000 L 57.514,8.000 L 57.514,5.000 L 62.014,5.000 L 62.014,8.000 L 65.939,8.000 L 65.939,5.000 L 70.439,5.000 L 70.439,8.000 L 74.364,8.000 L 74.364,5.000 L 78.864,5.000 L 78.864,8.000 L 82.789,8.000 L 82.789,5.000 L 87.289,5.000 L 87.289,8.000 L 91.214,8.000 L 91.214,5.000 L 95.714,5.000 L 95.714,8.000 L 99.640,8.000 L 99.640,5.000 L 104.140,5.000 L 104.140,8.000 L 108.065,8.000 L 108.065,5.000 L 112.565,5.000 L 112.565,8.000 L 116.490,8.000 L 116.490,5.000 L 120.990,5.000 L 120.990,8.000 L 124.915,8.000 L 124.915,5.000 L 129.415,5.000 L 129.415,8.000 L 133.340,8.000 L 133.340,5.000 L 137.840,5.000 L 137.840,8.000 L 141.765,8.000 L 141.765,5.000 L 146.265,5.000 L 146.265,8.000 L 150.191,8.000 L 150.191,5.000 L 154.691,5.000 L 154.691,8.000 L 158.616,8.000 L 158.616,5.000 L 163.116,5.000 L 163.116,8.000 L 167.041,8.000 L 167.041,5.000 L 171.541,5.000 L 171.541,8.000 L 175.466,8.000 L 175.466,5.000 L 179.966,5.000 L 179.966,8.000 L 183.891,8.000 L 183.891,5.000 L 188.391,5.000 L 188.391,8.000 L 190.354,8.000 L 190.354,68.000 L 188.391,68.000 L 188.391,71.000 L 183.891,71.000 L 183.891,68.000 L 179.966,68.000 L 179.966,71.000 L 175.466,71.000 L 175.466,68.000 L 171.541,68.000 L 171.541,71.000 L 167.041,71.000 L 167.041,68.000 L 163.116,68.000 L 163.116,71.000 L 158.616,71.000 L 158.616,68.000 L 154.691,68.000 L 154.691,71.000 L 150.191,71.000 L 150.191,68.000 L 146.265,68.000 L 146.265,71.000 L 141.765,71.000 L 141.765,68.000 L 137.840,68.000 L 137.840,71.000 L 133.340,71.000 L 133.340,68.000 L 129.415,68.000 L 129.415,71.000 L 124.915,71.000 L 124.915,68.000 L 120.990,68.000 L 120.990,71.000 L 116.490,71.000 L 116.490,68.000 L 112.565,68.000 L 112.565,71.000 L 108.065,71.000 L 108.065,68.000 L 104.140,68.000 L 104.140,71.000 L 99.640,71.000 L 99.640,68.000 L 95.714,68.000 L 95.714,71.000 L 91.214,71.000 L 91.214,68.000 L 87.289,68.000 L 87.289,71.000 L 82.789,71.000 L 82.789,68.000 L 78.864,68.000 L 78.864,71.000 L 74.364,71.000 L 74.364,68.000 L 70.439,68.000 L 70.439,71.000 L 65.939,71.000 L 65.939,68.000 L 62.014,68.000 L 62.014,71.000 L 57.514,71.000 L 57.514,68.000 L 53.588,68.000 L 53.588,71.000 L 49.088,71.000 L 49.088,68.000 L 45.163,68.000 L 45.163,71.000 L 40.663,71.000 L 40.663,68.000 L 36.738,68.000 L 36.738,71.000 L 32.238,71.000 L 32.238,68.000 L 28.313,68.000 L 28.313,71.000 L 23.813,71.000 L 23.813,68.000 L 19.888,68.000 L 19.888,71.000 L 15.388,71.000 L 15.388,68.000 L 11.463,68.000 L 11.463,71.000 L 6.963,71.000 L 6.963,68.000 L 5.000,68.000 Z" fill="none" stroke="#FF0000" stroke-width="0.01"/>
<path d="M 38.596,71.255 L 39.164,71.260 L 39.751,71.276 L 40.338,71.301 L 40.925,71.337 L 41.510,71.383 L 42.095,71.440 L 42.679,71.507 L 43.261,71.584 L 43.842,71.671 L 44.422,71.768 L 44.999,71.875 L 45.575,71.993 L 46.149,72.120 L 46.720,72.258 L 47.289,72.405 L 47.855,72.563 L 48.418,72.730 L 48.978,72.907 L 49.535,73.094 L 50.089,73.290 L 50.639,73.497 L 51.185,73.713 L 51.728,73.938 L 52.267,74.173 L 52.801,74.417 L 53.331,74.671 L 53.857,74.934 L 54.377,75.205 L 54.893,75.486 L 55.404,75.777 L 55.910,76.075 L 56.411,76.383 L 56.906,76.700 L 57.395,77.025 L 57.879,77.358 L 58.357,77.700 L 58.828,78.050 L 59.294,78.409 L 59.753,78.775 L 60.206,79.150 L 60.652,79.532 L 61.091,79.923 L 61.524,80.320 L 61.949,80.726 L 62.367,81.138 L 62.778,81.558 L 63.182,81.985 L 63.578,82.419 L 63.966,82.860 L 64.347,83.308 L 64.719,83.762 L 65.084,84.223 L 65.440,84.690 L 65.789,85.163 L 66.129,85.642 L 66.460,86.127 L 66.783,86.618 L 67.098,87.114 L 67.403,87.616 L 67.700,88.123 L 67.988,88.635 L 68.267,89.152 L 68.537,89.674 L 68.798,90.201 L 69.049,90.732 L 69.291,91.267 L 69.524,91.807 L 69.747,92.350 L 69.960,92.898 L 70.164,93.449 L 70.359,94.003 L 70.543,94.561 L 70.718,95.122 L 70.883,95.686 L 71.038,96.253 L 71.183,96.822 L 71.319,97.394 L 71.444,97.968 L 71.559,98.544 L 71.664,99.122 L 71.759,99.702 L 71.843,100.283 L 71.918,100.866 L 71.982,101.450 L 72.036,102.035 L 72.080,102.621 L 72.113,103.208 L 72.137,103.795 L 72.150,104.382 L 72.152,104.970 L 72.145,105.557 L 72.127,106.145 L 72.099,106.731 L 72.061,107.318 L 72.012,107.903 L 71.953,108.488 L 71.884,109.071 L 71.805,109.653 L 71.715,110.234 L 71.616,110.813 L 71.506,111.390 L 71.386,111.966 L 71.256,112.539 L 71.116,113.109 L 70.966,113.677 L 70.807,114.243 L 70.637,114.805 L 70.458,115.365 L 70.269,115.921 L 70.070,116.474 L 69.861,117.023 L 69.643,117.569 L 69.415,118.110 L 69.178,118.648 L 68.932,119.181 L 68.676,119.710 L 68.411,120.235 L 68.137,120.755 L 67.854,121.269 L 66.002,122.878 L 63.326,122.918 L 61.076,122.918 L 58.826,122.918 L 56.576,122.918 L 54.326,122.918 L 52.076,122.918 L 49.826,122.918 L 47.576,122.918 L 45.326,122.918 L 43.076,122.918 L 40.826,122.918 L 38.576,122.918 L 36.326,122.918 L 34.076,122.918 L 31.826,122.918 L 29.576,122.918 L 27.326,122.918 L 25.076,122.918 L 22.826,122.918 L 20.576,122.918 L 18.326,122.918 L 16.076,122.918 L 13.826,122.918 L 11.151,122.878 L 9.299,121.269 L 9.015,120.755 L 8.741,120.235 L 8.476,119.710 L 8.221,119.181 L 7.974,118.648 L 7.737,118.110 L 7.509,117.569 L 7.291,117.023 L 7.083,116.474 L 6.884,115.921 L 6.695,115.365 L 6.515,114.805 L 6.346,114.243 L 6.186,113.677 L 6.036,113.109 L 5.896,112.539 L 5.766,111.966 L 5.647,111.390 L 5.537,110.813 L 5.437,110.234 L 5.348,109.653 L 5.268,109.071 L 5.199,108.488 L 5.141,107.903 L 5.092,107.318 L 5.054,106.731 L 5.025,106.145 L 5.008,105.557 L 5.000,104.970 L 5.003,104.382 L 5.016,103.795 L 5.039,103.208 L 5.073,102.621 L 5.116,102.035 L 5.170,101.450 L 5.235,100.866 L 5.309,100.283 L 5.394,99.702 L 5.489,99.122 L 5.594,98.544 L 5.709,97.968 L 5.834,97.394 L 5.969,96.822 L 6.114,96.253 L 6.269,95.686 L 6.434,95.122 L 6.609,94.561 L 6.794,94.003 L 6.988,93.449 L 7.192,92.898 L 7.406,92.350 L 7.629,91.807 L 7.861,91.267 L 8.104,90.732 L 8.355,90.201 L 8.616,89.674 L 8.885,89.152 L 9.164,88.635 L 9.452,88.123 L 9.749,87.616 L 10.055,87.114 L 10.369,86.618 L 10.692,86.127 L 11.024,85.642 L 11.364,85.163 L 11.712,84.690 L 12.068,84.223 L 12.433,83.762 L 12.806,83.308 L 13.186,82.860 L 13.575,82.419 L 13.971,81.985 L 14.374,81.558 L 14.785,81.138 L 15.203,80.726 L 15.629,80.320 L 16.061,79.923 L 16.501,79.532 L 16.947,79.150 L 17.399,78.775 L 17.859,78.409 L 18.324,78.050 L 18.796,77.700 L 19.274,77.358 L 19.757,77.025 L 20.247,76.700 L 20.742,76.383 L 21.242,76.075 L 21.748,75.777 L 22.259,75.486 L 22.775,75.205 L 23.296,74.934 L 23.821,74.671 L 24.351,74.417 L 24.886,74.173 L 25.424,73.938 L 25.967,73.713 L 26.513,73.497 L 27.064,73.290 L 27.617,73.094 L 28.174,72.907 L 28.734,72.730 L 29.298,72.563 L 29.864,72.405 L 30.432,72.258 L 31.004,72.120 L 31.577,71.993 L 32.153,71.875 L 32.731,71.768 L 33.310,71.671 L 33.891,71.584 L 34.474,71.507 L 35.057,71.440 L 35.642,71.383 L 36.228,71.337 L 36.814,71.301 L 37.401,71.276 L 37.989,71.260 L 38.556,71.255 Z" fill="none" stroke="#FF0000" stroke-width="0.01"/>
<path d="M 40.293,75.075 L 44.853,75.677 L 45.259,72.604 L 40.699,72.002 Z" fill="none" stroke="#FF0000" stroke-width="0.01"/>
<path d="M 48.145,76.576 L 52.362,78.414 L 53.601,75.573 L 49.384,73.734 Z" fill="none" stroke="#FF0000" stroke-width="0.01"/>
<path d="M 55.318,80.161 L 58.913,83.031 L 60.847,80.608 L 57.252,77.738 Z" fill="none" stroke="#FF0000" stroke-width="0.01"/>
<path d="M 61.274,85.524 L 64.001,89.228 L 66.497,87.390 L 63.770,83.686 Z" fill="none" stroke="#FF0000" stroke-width="0.01"/>
<path d="M 65.610,92.237 L 67.208,96.551 L 70.115,95.474 L 68.517,91.160 Z" fill="none" stroke="#FF0000" stroke-width="0.01"/>
<path d="M 67.972,99.898 L 68.395,104.478 L 71.482,104.193 L 71.059,99.613 Z" fill="none" stroke="#FF0000" stroke-width="0.01"/>
<path d="M 68.253,107.887 L 67.394,112.406 L 70.439,112.985 L 71.298,108.466 Z" fill="none" stroke="#FF0000" stroke-width="0.01"/>
<path d="M 66.350,115.677 L 64.347,119.819 L 67.138,121.168 L 69.141,117.027 Z" fill="none" stroke="#FF0000" stroke-width="0.01"/>
<path d="M 61.938,119.068 L 57.338,119.068 L 57.338,122.168 L 61.938,122.168 Z" fill="none" stroke="#FF0000" stroke-width="0.01"/>
<path d="M 53.513,119.068 L 48.913,119.068 L 48.913,122.168 L 53.513,122.168 Z" fill="none" stroke="#FF0000" stroke-width="0.01"/>
<path d="M 45.088,119.068 L 40.488,119.068 L 40.488,122.168 L 45.088,122.168 Z" fill="none" stroke="#FF0000" stroke-width="0.01"/>
<path d="M 36.663,119.068 L 32.063,119.068 L 32.063,122.168 L 36.663,122.168 Z" fill="none" stroke="#FF0000" stroke-width="0.01"/>
<path d="M 28.238,119.068 L 23.638,119.068 L 23.638,122.168 L 28.238,122.168 Z" fill="none" stroke="#FF0000" stroke-width="0.01"/>
<path d="M 19.812,119.068 L 15.212,119.068 L 15.212,122.168 L 19.812,122.168 Z" fill="none" stroke="#FF0000" stroke-width="0.01"/>
<path d="M 12.804,119.817 L 10.802,115.676 L 8.011,117.025 L 10.013,121.167 Z" fill="none" stroke="#FF0000" stroke-width="0.01"/>
<path d="M 9.758,112.405 L 8.899,107.886 L 5.854,108.465 L 6.713,112.984 Z" fill="none" stroke="#FF0000" stroke-width="0.01"/>
<path d="M 8.757,104.477 L 9.180,99.896 L 6.093,99.611 L 5.670,104.191 Z" fill="none" stroke="#FF0000" stroke-width="0.01"/>
<path d="M 9.945,96.549 L 11.543,92.235 L 8.636,91.159 L 7.038,95.473 Z" fill="none" stroke="#FF0000" stroke-width="0.01"/>
<path d="M 13.153,89.227 L 15.880,85.522 L 13.383,83.684 L 10.656,87.389 Z" fill="none" stroke="#FF0000" stroke-width="0.01"/>
<path d="M 18.241,83.030 L 21.836,80.160 L 19.902,77.737 L 16.307,80.607 Z" fill="none" stroke="#FF0000" stroke-width="0.01"/>
<path d="M 24.792,78.414 L 29.009,76.575 L 27.770,73.733 L 23.553,75.572 Z" fill="none" stroke="#FF0000" stroke-width="0.01"/>
<path d="M 32.301,75.677 L 36.861,75.075 L 36.455,72.001 L 31.895,72.603 Z" fill="none" stroke="#FF0000" stroke-width="0.01"/>
<path d="M 113.749,71.255 L 114.316,71.260 L 114.903,71.276 L 115.490,71.301 L 116.077,71.337 L 116.663,71.383 L 117.247,71.440 L 117.831,71.507 L 118.414,71.584 L 118.995,71.671 L 119.574,71.768 L 120.152,71.875 L 120.728,71.993 L 121.301,72.120 L 121.872,72.258 L 122.441,72.405 L 123.007,72.563 L 123.570,72.730 L 124.131,72.907 L 124.688,73.094 L 125.241,73.290 L 125.791,73.497 L 126.338,73.713 L 126.881,73.938 L 127.419,74.173 L 127.953,74.417 L 128.483,74.671 L 129.009,74.934 L 129.530,75.205 L 130.046,75.486 L 130.557,75.777 L 131.063,76.075 L 131.563,76.383 L 132.058,76.700 L 132.548,77.025 L 133.031,77.358 L 133.509,77.700 L 133.981,78.050 L 134.446,78.409 L 134.905,78.775 L 135.358,79.150 L 135.804,79.532 L 136.244,79.923 L 136.676,80.320 L 137.101,80.726 L 137.520,81.138 L 137.931,81.558 L 138.334,81.985 L 138.730,82.419 L 139.118,82.860 L 139.499,83.308 L 139.872,83.762 L 140.236,84.223 L 140.593,84.690 L 140.941,85.163 L 141.281,85.642 L 141.613,86.127 L 141.936,86.618 L 142.250,87.114 L 142.556,87.616 L 142.853,88.123 L 143.141,88.635 L 143.419,89.152 L 143.689,89.674 L 143.950,90.201 L 144.201,90.732 L 144.443,91.267 L 144.676,91.807 L 144.899,92.350 L 145.113,92.898 L 145.317,93.449 L 145.511,94.003 L 145.696,94.561 L 145.871,95.122 L 146.036,95.686 L 146.191,96.253 L 146.336,96.822 L 146.471,97.394 L 146.596,97.968 L 146.711,98.544 L 146.816,99.122 L 146.911,99.702 L 146.996,100.283 L 147.070,100.866 L 147.134,101.450 L 147.188,102.035 L 147.232,102.621 L 147.266,103.208 L 147.289,103.795 L 147.302,104.382 L 147.305,104.970 L 147.297,105.557 L 147.279,106.145 L 147.251,106.731 L 147.213,107.318 L 147.164,107.903 L 147.105,108.488 L 147.036,109.071 L 146.957,109.653 L 146.868,110.234 L 146.768,110.813 L 146.658,111.390 L 146.538,111.966 L 146.409,112.539 L 146.269,113.109 L 146.119,113.677 L 145.959,114.243 L 145.790,114.805 L 145.610,115.365 L 145.421,115.921 L 145.222,116.474 L 145.013,117.023 L 144.795,117.569 L 144.568,118.110 L 144.331,118.648 L 144.084,119.181 L 143.828,119.710 L 143.563,120.235 L 143.289,120.755 L 143.006,121.269 L 141.154,122.878 L 138.479,122.918 L 136.229,122.918 L 133.979,122.918 L 131.729,122.918 L 129.479,122.918 L 127.229,122.918 L 124.979,122.918 L 122.729,122.918 L 120.479,122.918 L 118.229,122.918 L 115.979,122.918 L 113.729,122.918 L 111.479,122.918 L 109.229,122.918 L 106.979,122.918 L 104.729,122.918 L 102.479,122.918 L 100.229,122.918 L 97.979,122.918 L 95.729,122.918 L 93.479,122.918 L 91.229,122.918 L 88.979,122.918 L 86.303,122.878 L 84.451,121.269 L 84.168,120.755 L 83.894,120.235 L 83.629,119.710 L 83.373,119.181 L 83.127,118.648 L 82.890,118.110 L 82.662,117.569 L 82.444,117.023 L 82.235,116.474 L 82.036,115.921 L 81.847,115.365 L 81.668,114.805 L 81.498,114.243 L 81.338,113.677 L 81.188,113.109 L 81.049,112.539 L 80.919,111.966 L 80.799,111.390 L 80.689,110.813 L 80.590,110.234 L 80.500,109.653 L 80.421,109.071 L 80.352,108.488 L 80.293,107.903 L 80.244,107.318 L 80.206,106.731 L 80.178,106.145 L 80.160,105.557 L 80.152,104.970 L 80.155,104.382 L 80.168,103.795 L 80.191,103.208 L 80.225,102.621 L 80.269,102.035 L 80.323,101.450 L 80.387,100.866 L 80.462,100.283 L 80.546,99.702 L 80.641,99.122 L 80.746,98.544 L 80.861,97.968 L 80.986,97.394 L 81.121,96.822 L 81.267,96.253 L 81.422,95.686 L 81.587,95.122 L 81.761,94.561 L 81.946,94.003 L 82.140,93.449 L 82.344,92.898 L 82.558,92.350 L 82.781,91.807 L 83.014,91.267 L 83.256,90.732 L 83.507,90.201 L 83.768,89.674 L 84.038,89.152 L 84.317,88.635 L 84.605,88.123 L 84.901,87.616 L 85.207,87.114 L 85.521,86.618 L 85.844,86.127 L 86.176,85.642 L 86.516,85.163 L 86.864,84.690 L 87.221,84.223 L 87.586,83.762 L 87.958,83.308 L 88.339,82.860 L 88.727,82.419 L 89.123,81.985 L 89.527,81.558 L 89.938,81.138 L 90.356,80.726 L 90.781,80.320 L 91.214,79.923 L 91.653,79.532 L 92.099,79.150 L 92.552,78.775 L 93.011,78.409 L 93.476,78.050 L 93.948,77.700 L 94.426,77.358 L 94.910,77.025 L 95.399,76.700 L 95.894,76.383 L 96.395,76.075 L 96.900,75.777 L 97.411,75.486 L 97.927,75.205 L 98.448,74.934 L 98.974,74.671 L 99.504,74.417 L 100.038,74.173 L 100.577,73.938 L 101.119,73.713 L 101.666,73.497 L 102.216,73.290 L 102.770,73.094 L 103.327,72.907 L 103.887,72.730 L 104.450,72.563 L 105.016,72.405 L 105.585,72.258 L 106.156,72.120 L 106.730,71.993 L 107.305,71.875 L 107.883,71.768 L 108.462,71.671 L 109.044,71.584 L 109.626,71.507 L 110.210,71.440 L 110.795,71.383 L 111.380,71.337 L 111.967,71.301 L 112.554,71.276 L 113.141,71.260 L 113.708,71.255 Z" fill="none" stroke="#FF0000" stroke-width="0.01"/>
<path d="M 115.445,75.075 L 120.006,75.677 L 120.411,72.604 L 115.851,72.002 Z" fill="none" stroke="#FF0000" stroke-width="0.01"/>
<path d="M 123.297,76.576 L 127.514,78.414 L 128.753,75.573 L 124.537,73.734 Z" fill="none" stroke="#FF0000" stroke-width="0.01"/>
<path d="M 130.470,80.161 L 134.065,83.031 L 135.999,80.608 L 132.404,77.738 Z" fill="none" stroke="#FF0000" stroke-width="0.01"/>
<path d="M 136.426,85.524 L 139.153,89.228 L 141.650,87.390 L 138.923,83.686 Z" fill="none" stroke="#FF0000" stroke-width="0.01"/>
<path d="M 140.763,92.237 L 142.360,96.551 L 145.267,95.474 L 143.670,91.160 Z" fill="none" stroke="#FF0000" stroke-width="0.01"/>
<path d="M 143.125,99.898 L 143.548,104.478 L 146.635,104.193 L 146.212,99.613 Z" fill="none" stroke="#FF0000" stroke-width="0.01"/>
<path d="M 143.405,107.887 L 142.546,112.406 L 145.592,112.985 L 146.451,108.466 Z" fill="none" stroke="#FF0000" stroke-width="0.01"/>
<path d="M 141.502,115.677 L 139.500,119.819 L 142.291,121.168 L 144.293,117.027 Z" fill="none" stroke="#FF0000" stroke-width="0.01"/>
<path d="M 137.091,119.068 L 132.491,119.068 L 132.491,122.168 L 137.091,122.168 Z" fill="none" stroke="#FF0000" stroke-width="0.01"/>
<path d="M 128.666,119.068 L 124.066,119.068 L 124.066,122.168 L 128.666,122.168 Z" fill="none" stroke="#FF0000" stroke-width="0.01"/>
<path d="M 120.240,119.068 L 115.640,119.068 L 115.640,122.168 L 120.240,122.168 Z" fill="none" stroke="#FF0000" stroke-width="0.01"/>
<path d="M 111.815,119.068 L 107.215,119.068 L 107.215,122.168 L 111.815,122.168 Z" fill="none" stroke="#FF0000" stroke-width="0.01"/>
<path d="M 103.390,119.068 L 98.790,119.068 L 98.790,122.168 L 103.390,122.168 Z" fill="none" stroke="#FF0000" stroke-width="0.01"/>
<path d="M 94.965,119.068 L 90.365,119.068 L 90.365,122.168 L 94.965,122.168 Z" fill="none" stroke="#FF0000" stroke-width="0.01"/>
<path d="M 87.957,119.817 L 85.954,115.676 L 83.164,117.025 L 85.166,121.167 Z" fill="none" stroke="#FF0000" stroke-width="0.01"/>
<path d="M 84.911,112.405 L 84.052,107.886 L 81.006,108.465 L 81.865,112.984 Z" fill="none" stroke="#FF0000" stroke-width="0.01"/>
<path d="M 83.910,104.477 L 84.333,99.896 L 81.246,99.611 L 80.823,104.191 Z" fill="none" stroke="#FF0000" stroke-width="0.01"/>
<path d="M 85.098,96.549 L 86.695,92.235 L 83.788,91.159 L 82.191,95.473 Z" fill="none" stroke="#FF0000" stroke-width="0.01"/>
<path d="M 88.305,89.227 L 91.032,85.522 L 88.536,83.684 L 85.808,87.389 Z" fill="none" stroke="#FF0000" stroke-width="0.01"/>
<path d="M 93.393,83.030 L 96.988,80.160 L 95.054,77.737 L 91.459,80.607 Z" fill="none" stroke="#FF0000" stroke-width="0.01"/>
<path d="M 99.945,78.414 L 104.161,76.575 L 102.922,73.733 L 98.706,75.572 Z" fill="none" stroke="#FF0000" stroke-width="0.01"/>
<path d="M 107.453,75.677 L 112.014,75.075 L 111.608,72.001 L 107.047,72.603 Z" fill="none" stroke="#FF0000" stroke-width="0.01"/>
<path d="M 12.000,14.000 L 12.000,24.000" fill="none" stroke="#FF0000" stroke-width="0.01"/>
<path d="M 12.000,27.500 L 12.000,37.500" fill="none" stroke="#FF0000" stroke-width="0.01"/>
<path d="M 12.000,41.000 L 12.000,51.000" fill="none" stroke="#FF0000" stroke-width="0.01"/>
<path d="M 12.000,54.500 L 12.000,62.000" fill="none" stroke="#FF0000" stroke-width="0.01"/>
<path d="M 15.000,14.000 L 15.000,17.250" fill="none" stroke="#FF0000" stroke-width="0.01"/>
<path d="M 15.000,20.750 L 15.000,30.750" fill="none" stroke="#FF0000" stroke-width="0.01"/>
<path d="M 15.000,34.250 L 15.000,44.250" fill="none" stroke="#FF0000" stroke-width="0.01"/>
<path d="M 15.000,47.750 L 15.000,57.750" fill="none" stroke="#FF0000" stroke-width="0.01"/>
<path d="M 18.000,14.000 L 18.000,24.000" fill="none" stroke="#FF0000" stroke-width="0.01"/>
<path d="M 18.000,27.500 L 18.000,37.500" fill="none" stroke="#FF0000" stroke-width="0.01"/>
<path d="M 18.000,41.000 L 18.000,51.000" fill="none" stroke="#FF0000" stroke-width="0.01"/>
<path d="M 18.000,54.500 L 18.000,62.000" fill="none" stroke="#FF0000" stroke-width="0.01"/>
<path d="M 21.000,14.000 L 21.000,17.250" fill="none" stroke="#FF0000" stroke-width="0.01"/>
<path d="M 21.000,20.750 L 21.000,30.750" fill="none" stroke="#FF0000" stroke-width="0.01"/>
<path d="M 21.000,34.250 L 21.000,44.250" fill="none" stroke="#FF0000" stroke-width="0.01"/>
<path d="M 21.000,47.750 L 21.000,57.750" fill="none" stroke="#FF0000" stroke-width="0.01"/>
<path d="M 24.000,14.000 L 24.000,24.000" fill="none" stroke="#FF0000" stroke-width="0.01"/>
<path d="M 24.000,27.500 L 24.000,37.500" fill="none" stroke="#FF0000" stroke-width="0.01"/>
<path d="M 24.000,41.000 L 24.000,51.000" fill="none" stroke="#FF0000" stroke-width="0.01"/>
<path d="M 24.000,54.500 L 24.000,62.000" fill="none" stroke="#FF0000" stroke-width="0.01"/>
<path d="M 27.000,14.000 L 27.000,17.250" fill="none" stroke="#FF0000" stroke-width="0.01"/>
<path d="M 27.000,20.750 L 27.000,30.750" fill="none" stroke="#FF0000" stroke-width="0.01"/>
<path d="M 27.000,34.250 L 27.000,44.250" fill="none" stroke="#FF0000" stroke-width="0.01"/>
<path d="M 27.000,47.750 L 27.000,57.750" fill="none" stroke="#FF0000" stroke-width="0.01"/>
<path d="M 30.000,14.000 L 30.000,24.000" fill="none" stroke="#FF0000" stroke-width="0.01"/>
<path d="M 30.000,27.500 L 30.000,37.500" fill="none" stroke="#FF0000" stroke-width="0.01"/>
<path d="M 30.000,41.000 L 30.000,51.000" fill="none" stroke="#FF0000" stroke-width="0.01"/>
<path d="M 30.000,54.500 L 30.000,62.000" fill="none" stroke="#FF0000" stroke-width="0.01"/>
<path d="M 33.000,14.000 L 33.000,17.250" fill="none" stroke="#FF0000" stroke-width="0.01"/>
<path d="M 33.000,20.750 L 33.000,30.750" fill="none" stroke="#FF0000" stroke-width="0.01"/>
<path d="M 33.000,34.250 L 33.000,44.250" fill="none" stroke="#FF0000" stroke-width="0.01"/>
<path d="M 33.000,47.750 L 33.000,57.750" fill="none" stroke="#FF0000" stroke-width="0.01"/>
<path d="M 36.000,14.000 L 36.000,24.000" fill="none" stroke="#FF0000" stroke-width="0.01"/>
<path d="M 36.000,27.500 L 36.000,37.500" fill="none" stroke="#FF0000" stroke-width="0.01"/>
<path d="M 36.000,41.000 L 36.000,51.000" fill="none" stroke="#FF0000" stroke-width="0.01"/>
<path d="M 36.000,54.500 L 36.000,62.000" fill="none" stroke="#FF0000" stroke-width="0.01"/>
<path d="M 39.000,14.000 L 39.000,17.250" fill="none" stroke="#FF0000" stroke-width="0.01"/>
<path d="M 39.000,20.750 L 39.000,30.750" fill="none" stroke="#FF0000" stroke-width="0.01"/>
<path d="M 39.000,34.250 L 39.000,44.250" fill="none" stroke="#FF0000" stroke-width="0.01"/>
<path d="M 39.000,47.750 L 39.000,57.750" fill="none" stroke="#FF0000" stroke-width="0.01"/>
<path d="M 42.000,14.000 L 42.000,24.000" fill="none" stroke="#FF0000" stroke-width="0.01"/>
<path d="M 42.000,27.500 L 42.000,37.500" fill="none" stroke="#FF0000" stroke-width="0.01"/>
<path d="M 42.000,41.000 L 42.000,51.000" fill="none" stroke="#FF0000" stroke-width="0.01"/>
<path d="M 42.000,54.500 L 42.000,62.000" fill="none" stroke="#FF0000" stroke-width="0.01"/>
<path d="M 45.000,14.000 L 45.000,17.250" fill="none" stroke="#FF0000" stroke-width="0.01"/>
<path d="M 45.000,20.750 L 45.000,30.750" fill="none" stroke="#FF0000" stroke-width="0.01"/>
<path d="M 45.000,34.250 L 45.000,44.250" fill="none" stroke="#FF0000" stroke-width="0.01"/>
<path d="M 45.000,47.750 L 45.000,57.750" fill="none" stroke="#FF0000" stroke-width="0.01"/>
<path d="M 48.000,14.000 L 48.000,24.000" fill="none" stroke="#FF0000" stroke-width="0.01"/>
<path d="M 48.000,27.500 L 48.000,37.500" fill="none" stroke="#FF0000" stroke-width="0.01"/>
<path d="M 48.000,41.000 L 48.000,51.000" fill="none" stroke="#FF0000" stroke-width="0.01"/>
<path d="M 48.000,54.500 L 48.000,62.000" fill="none" stroke="#FF0000" stroke-width="0.01"/>
<path d="M 51.000,14.000 L 51.000,17.250" fill="none" stroke="#FF0000" stroke-width="0.01"/>
<path d="M 51.000,20.750 L 51.000,30.750" fill="none" stroke="#FF0000" stroke-width="0.01"/>
<path d="M 51.000,34.250 L 51.000,44.250" fill="none" stroke="#FF0000" stroke-width="0.01"/>
<path d="M 51.000,47.750 L 51.000,57.750" fill="none" stroke="#FF0000" stroke-width="0.01"/>
<path d="M 54.000,14.000 L 54.000,24.000" fill="none" stroke="#FF0000" stroke-width="0.01"/>
<path d="M 54.000,27.500 L 54.000,37.500" fill="none" stroke="#FF0000" stroke-width="0.01"/>
<path d="M 54.000,41.000 L 54.000,51.000" fill="none" stroke="#FF0000" stroke-width="0.01"/>
<path d="M 54.000,54.500 L 54.000,62.000" fill="none" stroke="#FF0000" stroke-width="0.01"/>
<path d="M 57.000,14.000 L 57.000,17.250" fill="none" stroke="#FF0000" stroke-width="0.01"/>
<path d="M 57.000,20.750 L 57.000,30.750" fill="none" stroke="#FF0000" stroke-width="0.01"/>
<path d="M 57.000,34.250 L 57.000,44.250" fill="none" stroke="#FF0000" stroke-width="0.01"/>
<path d="M 57.000,47.750 L 57.000,57.750" fill="none" stroke="#FF0000" stroke-width="0.01"/>
<path d="M 60.000,14.000 L 60.000,24.000" fill="none" stroke="#FF0000" stroke-width="0.01"/>
<path d="M 60.000,27.500 L 60.000,37.500" fill="none" stroke="#FF0000" stroke-width="0.01"/>
<path d="M 60.000,41.000 L 60.000,51.000" fill="none" stroke="#FF0000" stroke-width="0.01"/>
<path d="M 60.000,54.500 L 60.000,62.000" fill="none" stroke="#FF0000" stroke-width="0.01"/>
<path d="M 63.000,14.000 L 63.000,17.250" fill="none" stroke="#FF0000" stroke-width="0.01"/>
<path d="M 63.000,20.750 L 63.000,30.750" fill="none" stroke="#FF0000" stroke-width="0.01"/>
<path d="M 63.000,34.250 L 63.000,44.250" fill="none" stroke="#FF0000" stroke-width="0.01"/>
<path d="M 63.000,47.750 L 63.000,57.750" fill="none" stroke="#FF0000" stroke-width="0.01"/>
<path d="M 66.000,14.000 L 66.000,24.000" fill="none" stroke="#FF0000" stroke-width="0.01"/>
<path d="M 66.000,27.500 L 66.000,37.500" fill="none" stroke="#FF0000" stroke-width="0.01"/>
<path d="M 66.000,41.000 L 66.000,51.000" fill="none" stroke="#FF0000" stroke-width="0.01"/>
<path d="M 66.000,54.500 L 66.000,62.000" fill="none" stroke="#FF0000" stroke-width="0.01"/>
<path d="M 69.000,14.000 L 69.000,17.250" fill="none" stroke="#FF0000" stroke-width="0.01"/>
<path d="M 69.000,20.750 L 69.000,30.750" fill="none" stroke="#FF0000" stroke-width="0.01"/>
<path d="M 69.000,34.250 L 69.000,44.250" fill="none" stroke="#FF0000" stroke-width="0.01"/>
<path d="M 69.000,47.750 L 69.000,57.750" fill="none" stroke="#FF0000" stroke-width="0.01"/>
<path d="M 126.000,14.000 L 126.000,24.000" fill="none" stroke="#FF0000" stroke-width="0.01"/>
<path d="M 126.000,27.500 L 126.000,37.500" fill="none" stroke="#FF0000" stroke-width="0.01"/>
<path d="M 126.000,41.000 L 126.000,51.000" fill="none" stroke="#FF0000" stroke-width="0.01"/>
<path d="M 126.000,54.500 L 126.000,62.000" fill="none" stroke="#FF0000" stroke-width="0.01"/>
<path d="M 129.000,14.000 L 129.000,17.250" fill="none" stroke="#FF0000" stroke-width="0.01"/>
<path d="M 129.000,20.750 L 129.000,30.750" fill="none" stroke="#FF0000" stroke-width="0.01"/>
<path d="M 129.000,34.250 L 129.000,44.250" fill="none" stroke="#FF0000" stroke-width="0.01"/>
<path d="M 129.000,47.750 L 129.000,57.750" fill="none" stroke="#FF0000" stroke-width="0.01"/>
<path d="M 132.000,14.000 L 132.000,24.000" fill="none" stroke="#FF0000" stroke-width="0.01"/>
<path d="M 132.000,27.500 L 132.000,37.500" fill="none" stroke="#FF0000" stroke-width="0.01"/>
<path d="M 132.000,41.000 L 132.000,51.000" fill="none" stroke="#FF0000" stroke-width="0.01"/>
<path d="M 132.000,54.500 L 132.000,62.000" fill="none" stroke="#FF0000" stroke-width="0.01"/>
<path d="M 135.000,14.000 L 135.000,17.250" fill="none" stroke="#FF0000" stroke-width="0.01"/>
<path d="M 135.000,20.750 L 135.000,30.750" fill="none" stroke="#FF0000" stroke-width="0.01"/>
<path d="M 135.000,34.250 L 135.000,44.250" fill="none" stroke="#FF0000" stroke-width="0.01"/>
<path d="M 135.000,47.750 L 135.000,57.750" fill="none" stroke="#FF0000" stroke-width="0.01"/>
<path d="M 138.000,14.000 L 138.000,24.000" fill="none" stroke="#FF0000" stroke-width="0.01"/>
<path d="M 138.000,27.500 L 138.000,37.500" fill="none" stroke="#FF0000" stroke-width="0.01"/>
<path d="M 138.000,41.000 L 138.000,51.000" fill="none" stroke="#FF0000" stroke-width="0.01"/>
<path d="M 138.000,54.500 L 138.000,62.000" fill="none" stroke="#FF0000" stroke-width="0.01"/>
<path d="M 141.000,14.000 L 141.000,17.250" fill="none" stroke="#FF0000" stroke-width="0.01"/>
<path d="M 141.000,20.750 L 141.000,30.750" fill="none" stroke="#FF0000" stroke-width="0.01"/>
<path d="M 141.000,34.250 L 141.000,44.250" fill="none" stroke="#FF0000" stroke-width="0.01"/>
<path d="M 141.000,47.750 L 141.000,57.750" fill="none" stroke="#FF0000" stroke-width="0.01"/>
<path d="M 144.000,14.000 L 144.000,24.000" fill="none" stroke="#FF0000" stroke-width="0.01"/>
<path d="M 144.000,27.500 L 144.000,37.500" fill="none" stroke="#FF0000" stroke-width="0.01"/>
<path d="M 144.000,41.000 L 144.000,51.000" fill="none" stroke="#FF0000" stroke-width="0.01"/>
<path d="M 144.000,54.500 L 144.000,62.000" fill="none" stroke="#FF0000" stroke-width="0.01"/>
<path d="M 147.000,14.000 L 147.000,17.250" fill="none" stroke="#FF0000" stroke-width="0.01"/>
<path d="M 147.000,20.750 L 147.000,30.750" fill="none" stroke="#FF0000" stroke-width="0.01"/>
<path d="M 147.000,34.250 L 147.000,44.250" fill="none" stroke="#FF0000" stroke-width="0.01"/>
<path d="M 147.000,47.750 L 147.000,57.750" fill="none" stroke="#FF0000" stroke-width="0.01"/>
<path d="M 150.000,14.000 L 150.000,24.000" fill="none" stroke="#FF0000" stroke-width="0.01"/>
<path d="M 150.000,27.500 L 150.000,37.500" fill="none" stroke="#FF0000" stroke-width="0.01"/>
<path d="M 150.000,41.000 L 150.000,51.000" fill="none" stroke="#FF0000" stroke-width="0.01"/>
<path d="M 150.000,54.500 L 150.000,62.000" fill="none" stroke="#FF0000" stroke-width="0.01"/>
<path d="M 153.000,14.000 L 153.000,17.250" fill="none" stroke="#FF0000" stroke-width="0.01"/>
<path d="M 153.000,20.750 L 153.000,30.750" fill="none" stroke="#FF0000" stroke-width="0.01"/>
<path d="M 153.000,34.250 L 153.000,44.250" fill="none" stroke="#FF0000" stroke-width="0.01"/>
<path d="M 153.000,47.750 L 153.000,57.750" fill="none" stroke="#FF0000" stroke-width="0.01"/>
<path d="M 156.000,14.000 L 156.000,24.000" fill="none" stroke="#FF0000" stroke-width="0.01"/>
<path d="M 156.000,27.500 L 156.000,37.500" fill="none" stroke="#FF0000" stroke-width="0.01"/>
<path d="M 156.000,41.000 L 156.000,51.000" fill="none" stroke="#FF0000" stroke-width="0.01"/>
<path d="M 156.000,54.500 L 156.000,62.000" fill="none" stroke="#FF0000" stroke-width="0.01"/>
<path d="M 159.000,14.000 L 159.000,17.250" fill="none" stroke="#FF0000" stroke-width="0.01"/>
<path d="M 159.000,20.750 L 159.000,30.750" fill="none" stroke="#FF0000" stroke-width="0.01"/>
<path d="M 159.000,34.250 L 159.000,44.250" fill="none" stroke="#FF0000" stroke-width="0.01"/>
<path d="M 159.000,47.750 L 159.000,57.750" fill="none" stroke="#FF0000" stroke-width="0.01"/>
<path d="M 162.000,14.000 L 162.000,24.000" fill="none" stroke="#FF0000" stroke-width="0.01"/>
<path d="M 162.000,27.500 L 162.000,37.500" fill="none" stroke="#FF0000" stroke-width="0.01"/>
<path d="M 162.000,41.000 L 162.000,51.000" fill="none" stroke="#FF0000" stroke-width="0.01"/>
<path d="M 162.000,54.500 L 162.000,62.000" fill="none" stroke="#FF0000" stroke-width="0.01"/>
<path d="M 165.000,14.000 L 165.000,17.250" fill="none" stroke="#FF0000" stroke-width="0.01"/>
<path d="M 165.000,20.750 L 165.000,30.750" fill="none" stroke="#FF0000" stroke-width="0.01"/>
<path d="M 165.000,34.250 L 165.000,44.250" fill="none" stroke="#FF0000" stroke-width="0.01"/>
<path d="M 165.000,47.750 L 165.000,57.750" fill="none" stroke="#FF0000" stroke-width="0.01"/>
<path d="M 168.000,14.000 L 168.000,24.000" fill="none" stroke="#FF0000" stroke-width="0.01"/>
<path d="M 168.000,27.500 L 168.000,37.500" fill="none" stroke="#FF0000" stroke-width="0.01"/>
<path d="M 168.000,41.000 L 168.000,51.000" fill="none" stroke="#FF0000" stroke-width="0.01"/>
<path d="M 168.000,54.500 L 168.000,62.000" fill="none" stroke="#FF0000" stroke-width="0.01"/>
<path d="M 171.000,14.000 L 171.000,17.250" fill="none" stroke="#FF0000" stroke-width="0.01"/>
<path d="M 171.000,20.750 L 171.000,30.750" fill="none" stroke="#FF0000" stroke-width="0.01"/>
<path d="M 171.000,34.250 L 171.000,44.250" fill="none" stroke="#FF0000" stroke-width="0.01"/>
<path d="M 171.000,47.750 L 171.000,57.750" fill="none" stroke="#FF0000" stroke-width="0.01"/>
<path d="M 174.000,14.000 L 174.000,24.000" fill="none" stroke="#FF0000" stroke-width="0.01"/>
<path d="M 174.000,27.500 L 174.000,37.500" fill="none" stroke="#FF0000" stroke-width="0.01"/>
<path d="M 174.000,41.000 L 174.000,51.000" fill="none" stroke="#FF0000" stroke-width="0.01"/>
<path d="M 174.000,54.500 L 174.000,62.000" fill="none" stroke="#FF0000" stroke-width="0.01"/>
<path d="M 177.000,14.000 L 177.000,17.250" fill="none" stroke="#FF0000" stroke-width="0.01"/>
<path d="M 177.000,20.750 L 177.000,30.750" fill="none" stroke="#FF0000" stroke-width="0.01"/>
<path d="M 177.000,34.250 L 177.000,44.250" fill="none" stroke="#FF0000" stroke-width="0.01"/>
<path d="M 177.000,47.750 L 177.000,57.750" fill="none" stroke="#FF0000" stroke-width="0.01"/>
<path d="M 180.000,14.000 L 180.000,24.000" fill="none" stroke="#FF0000" stroke-width="0.01"/>
<path d="M 180.000,27.500 L 180.000,37.500" fill="none" stroke="#FF0000" stroke-width="0.01"/>
<path d="M 180.000,41.000 L 180.000,51.000" fill="none" stroke="#FF0000" stroke-width="0.01"/>
<path d="M 180.000,54.500 L 180.000,62.000" fill="none" stroke="#FF0000" stroke-width="0.01"/>
<path d="M 183.000,14.000 L 183.000,17.250" fill="none" stroke="#FF0000" stroke-width="0.01"/>
<path d="M 183.000,20.750 L 183.000,30.750" fill="none" stroke="#FF0000" stroke-width="0.01"/>
<path d="M 183.000,34.250 L 183.000,44.250" fill="none" stroke="#FF0000" stroke-width="0.01"/>
<path d="M 183.000,47.750 L 183.000,57.750" fill="none" stroke="#FF0000" stroke-width="0.01"/>
</svg>