<svg xmlns="http://www.w3.org/2000/svg" width="214.00mm" height="128.00mm" viewBox="0 0 214.00 128.00">
<path d="M 43.045,37.698 L 42.906,37.582 L 42.778,37.454 L 42.662,37.315 L 42.558,37.164 L 42.465,37.002 L 42.372,36.874 L 42.280,36.781 L 42.187,36.723 L 42.094,36.700 L 41.995,36.717 L 41.891,36.775 L 41.781,36.874 L 41.665,37.013 L 41.572,37.176 L 41.502,37.361 L 41.456,37.570 L 41.433,37.802 L 41.375,38.011 L 41.282,38.196 L 41.155,38.359 L 40.992,38.498 L 40.812,38.608 L 40.615,38.689 L 40.401,38.741 L 40.169,38.765 L 39.977,38.770 L 39.826,38.759 L 39.716,38.730 L 39.647,38.684 L 39.565,38.591 L 39.473,38.452 L 39.368,38.266 L 39.252,38.034 L 39.107,37.854 L 38.933,37.727 L 38.730,37.651 L 38.498,37.628 L 38.290,37.634 L 38.104,37.669 L 37.942,37.732 L 37.802,37.825 L 37.698,37.947 L 37.628,38.098 L 37.594,38.278 L 37.594,38.486 L 37.605,38.678 L 37.628,38.852 L 37.663,39.008 L 37.710,39.147 L 37.779,39.292 L 37.872,39.443 L 37.988,39.600 L 38.127,39.762 L 38.290,39.925 L 38.475,40.087 L 38.684,40.249 L 38.916,40.412 L 39.258,40.528 L 39.710,40.597 L 40.273,40.621 L 40.946,40.597 L 41.479,40.551 L 41.874,40.481 L 42.129,40.389 L 42.245,40.273 L 42.338,40.151 L 42.407,40.023 L 42.454,39.890 L 42.477,39.751 L 42.541,39.577 L 42.645,39.368 L 42.790,39.124 L 42.976,38.846 L 43.115,38.602 L 43.208,38.394 L 43.254,38.220 L 43.254,38.080 L 43.219,37.947 L 43.150,37.819 Z" fill="#000000" fill-rule="evenodd" stroke="none"/>
<path d="M 58.263,24.684 L 57.938,24.614 L 57.492,24.562 L 56.923,24.527 L 56.233,24.510 L 55.421,24.510 L 54.754,24.521 L 54.232,24.544 L 53.855,24.579 L 53.623,24.626 L 53.391,24.707 L 53.159,24.823 L 52.927,24.974 L 52.695,25.159 L 52.435,25.316 L 52.145,25.443 L 51.826,25.542 L 51.478,25.611 L 51.130,25.727 L 50.782,25.890 L 50.434,26.099 L 50.086,26.354 L 49.726,26.632 L 49.355,26.934 L 48.972,27.259 L 48.578,27.606 L 48.259,27.914 L 48.015,28.181 L 47.847,28.407 L 47.754,28.592 L 47.638,28.784 L 47.499,28.981 L 47.337,29.184 L 47.151,29.393 L 46.989,29.636 L 46.850,29.915 L 46.734,30.228 L 46.641,30.576 L 46.548,30.860 L 46.455,31.080 L 46.362,31.237 L 46.270,31.330 L 46.177,31.446 L 46.084,31.585 L 45.991,31.747 L 45.898,31.933 L 45.823,32.356 L 45.765,33.017 L 45.725,33.916 L 45.701,35.053 L 45.690,35.935 L 45.690,36.561 L 45.701,36.932 L 45.725,37.048 L 45.800,37.193 L 45.927,37.367 L 46.107,37.570 L 46.339,37.802 L 46.519,37.993 L 46.647,38.144 L 46.722,38.254 L 46.745,38.324 L 46.890,38.492 L 47.157,38.759 L 47.546,39.124 L 48.056,39.588 L 48.595,40.012 L 49.164,40.394 L 49.761,40.737 L 50.387,41.038 L 51.199,41.264 L 52.197,41.415 L 53.380,41.490 L 54.749,41.490 L 55.810,41.479 L 56.564,41.456 L 57.010,41.421 L 57.150,41.374 L 57.300,41.293 L 57.463,41.177 L 57.637,41.026 L 57.822,40.841 L 58.043,40.679 L 58.298,40.539 L 58.588,40.423 L 58.913,40.331 L 59.191,40.220 L 59.423,40.093 L 59.608,39.948 L 59.748,39.785 L 59.881,39.652 L 60.009,39.548 L 60.130,39.472 L 60.246,39.426 L 60.345,39.368 L 60.426,39.298 L 60.490,39.217 L 60.536,39.124 L 60.635,38.991 L 60.786,38.817 L 60.989,38.602 L 61.244,38.347 L 61.459,38.086 L 61.633,37.819 L 61.766,37.547 L 61.859,37.268 L 61.963,37.019 L 62.079,36.799 L 62.207,36.607 L 62.346,36.445 L 62.479,36.126 L 62.607,35.650 L 62.729,35.018 L 62.845,34.229 L 62.908,33.400 L 62.920,32.530 L 62.879,31.620 L 62.787,30.669 L 62.665,29.897 L 62.514,29.306 L 62.334,28.894 L 62.125,28.662 L 61.951,28.442 L 61.812,28.233 L 61.708,28.036 L 61.638,27.850 L 61.528,27.630 L 61.377,27.374 L 61.186,27.085 L 60.954,26.760 L 60.664,26.423 L 60.316,26.075 L 59.910,25.716 L 59.446,25.345 L 59.017,25.049 L 58.623,24.829 Z" fill="#000000" fill-rule="evenodd" stroke="none"/>
<path d="M 27.375,24.626 L 27.120,24.579 L 26.702,24.550 L 26.122,24.539 L 25.380,24.544 L 24.475,24.568 L 23.715,24.626 L 23.101,24.718 L 22.631,24.846 L 22.306,25.008 L 21.987,25.147 L 21.674,25.263 L 21.367,25.356 L 21.065,25.426 L 20.775,25.530 L 20.497,25.669 L 20.230,25.843 L 19.975,26.052 L 19.720,26.238 L 19.464,26.400 L 19.209,26.539 L 18.954,26.655 L 18.734,26.777 L 18.548,26.905 L 18.397,27.038 L 18.281,27.177 L 18.148,27.311 L 17.997,27.438 L 17.829,27.560 L 17.643,27.676 L 17.475,27.833 L 17.324,28.030 L 17.191,28.268 L 17.075,28.546 L 16.953,28.790 L 16.826,28.998 L 16.692,29.172 L 16.553,29.312 L 16.431,29.474 L 16.327,29.659 L 16.240,29.868 L 16.170,30.100 L 16.072,30.332 L 15.944,30.564 L 15.788,30.796 L 15.602,31.028 L 15.451,31.260 L 15.335,31.492 L 15.254,31.724 L 15.208,31.956 L 15.167,32.292 L 15.132,32.733 L 15.103,33.278 L 15.080,33.928 L 15.080,34.601 L 15.103,35.297 L 15.150,36.016 L 15.219,36.758 L 15.428,37.460 L 15.776,38.121 L 16.263,38.741 L 16.889,39.321 L 17.429,39.780 L 17.881,40.116 L 18.247,40.331 L 18.525,40.423 L 18.786,40.534 L 19.029,40.661 L 19.256,40.806 L 19.464,40.969 L 19.673,41.108 L 19.882,41.224 L 20.091,41.316 L 20.300,41.386 L 20.781,41.438 L 21.535,41.473 L 22.561,41.490 L 23.860,41.490 L 24.997,41.409 L 25.971,41.247 L 26.783,41.003 L 27.433,40.679 L 27.949,40.400 L 28.332,40.168 L 28.581,39.983 L 28.697,39.843 L 28.813,39.727 L 28.929,39.635 L 29.045,39.565 L 29.161,39.519 L 29.347,39.374 L 29.602,39.130 L 29.927,38.788 L 30.321,38.347 L 30.634,37.959 L 30.866,37.622 L 31.017,37.338 L 31.087,37.106 L 31.197,36.845 L 31.348,36.555 L 31.539,36.236 L 31.771,35.888 L 31.945,35.279 L 32.061,34.409 L 32.119,33.278 L 32.119,31.886 L 32.078,30.790 L 31.997,29.990 L 31.875,29.486 L 31.713,29.277 L 31.568,29.051 L 31.440,28.807 L 31.330,28.546 L 31.237,28.268 L 31.034,27.914 L 30.721,27.485 L 30.298,26.980 L 29.764,26.400 L 29.289,25.913 L 28.871,25.519 L 28.512,25.217 L 28.210,25.008 L 27.920,24.840 L 27.642,24.713 Z" fill="#000000" fill-rule="evenodd" stroke="none"/>
<path d="M 118.224,38.612 L 118.128,38.516 L 118.003,38.434 L 117.849,38.366 L 117.665,38.313 L 117.454,38.275 L 117.256,38.265 L 117.073,38.285 L 116.904,38.333 L 116.750,38.410 L 116.543,38.559 L 116.283,38.781 L 115.970,39.075 L 115.604,39.441 L 115.257,39.730 L 114.929,39.942 L 114.621,40.077 L 114.332,40.134 L 113.971,40.173 L 113.537,40.192 L 113.031,40.192 L 112.453,40.173 L 111.991,40.144 L 111.644,40.105 L 111.413,40.057 L 111.297,39.999 L 111.186,39.927 L 111.080,39.840 L 110.979,39.739 L 110.883,39.624 L 110.786,39.527 L 110.690,39.450 L 110.594,39.392 L 110.497,39.354 L 110.367,39.262 L 110.204,39.118 L 110.006,38.920 L 109.775,38.670 L 109.568,38.482 L 109.385,38.357 L 109.226,38.294 L 109.091,38.294 L 108.966,38.304 L 108.850,38.323 L 108.744,38.352 L 108.648,38.390 L 108.561,38.443 L 108.484,38.511 L 108.416,38.593 L 108.359,38.689 L 108.315,38.786 L 108.286,38.882 L 108.272,38.978 L 108.272,39.075 L 108.286,39.190 L 108.315,39.325 L 108.359,39.479 L 108.416,39.653 L 108.489,39.816 L 108.575,39.971 L 108.677,40.115 L 108.792,40.250 L 108.917,40.375 L 109.052,40.491 L 109.197,40.597 L 109.351,40.693 L 109.510,40.809 L 109.674,40.944 L 109.842,41.098 L 110.016,41.271 L 110.218,41.416 L 110.449,41.531 L 110.709,41.618 L 110.998,41.676 L 111.278,41.748 L 111.548,41.835 L 111.808,41.936 L 112.058,42.052 L 112.304,42.143 L 112.545,42.211 L 112.781,42.254 L 113.012,42.273 L 113.253,42.273 L 113.503,42.254 L 113.764,42.215 L 114.033,42.158 L 114.245,42.105 L 114.399,42.056 L 114.496,42.013 L 114.534,41.975 L 114.655,41.917 L 114.857,41.840 L 115.141,41.743 L 115.507,41.628 L 115.816,41.512 L 116.066,41.396 L 116.259,41.281 L 116.394,41.165 L 116.538,41.059 L 116.692,40.963 L 116.856,40.876 L 117.030,40.799 L 117.184,40.703 L 117.319,40.587 L 117.434,40.452 L 117.531,40.298 L 117.637,40.154 L 117.752,40.019 L 117.877,39.893 L 118.012,39.778 L 118.123,39.672 L 118.210,39.576 L 118.272,39.489 L 118.311,39.412 L 118.340,39.320 L 118.359,39.214 L 118.369,39.094 L 118.369,38.959 L 118.345,38.834 L 118.297,38.718 Z" fill="#000000" fill-rule="evenodd" stroke="none"/>
<path d="M 98.531,24.093 L 97.896,23.977 L 97.332,23.895 L 96.841,23.847 L 96.421,23.833 L 96.075,23.852 L 95.733,23.886 L 95.395,23.934 L 95.063,23.997 L 94.735,24.074 L 94.451,24.127 L 94.210,24.156 L 94.013,24.160 L 93.859,24.141 L 93.690,24.170 L 93.507,24.247 L 93.310,24.372 L 93.098,24.546 L 92.876,24.695 L 92.645,24.820 L 92.404,24.921 L 92.153,24.999 L 91.951,25.080 L 91.797,25.167 L 91.691,25.259 L 91.633,25.355 L 91.546,25.466 L 91.431,25.591 L 91.286,25.731 L 91.113,25.885 L 90.959,26.054 L 90.824,26.237 L 90.708,26.434 L 90.612,26.646 L 90.511,26.834 L 90.405,26.998 L 90.294,27.137 L 90.178,27.253 L 90.082,27.393 L 90.005,27.557 L 89.947,27.744 L 89.909,27.956 L 89.831,28.207 L 89.716,28.496 L 89.562,28.823 L 89.369,29.190 L 89.225,29.565 L 89.128,29.951 L 89.080,30.346 L 89.080,30.750 L 89.090,31.097 L 89.109,31.386 L 89.138,31.617 L 89.176,31.791 L 89.234,31.964 L 89.311,32.138 L 89.408,32.311 L 89.523,32.485 L 89.639,32.701 L 89.754,32.961 L 89.870,33.265 L 89.986,33.612 L 90.125,33.954 L 90.289,34.291 L 90.477,34.623 L 90.689,34.951 L 90.901,35.245 L 91.113,35.505 L 91.325,35.731 L 91.537,35.924 L 91.758,36.093 L 91.990,36.237 L 92.230,36.358 L 92.481,36.454 L 92.722,36.574 L 92.953,36.719 L 93.175,36.888 L 93.387,37.080 L 93.767,37.234 L 94.316,37.350 L 95.034,37.427 L 95.920,37.466 L 96.686,37.480 L 97.332,37.470 L 97.857,37.437 L 98.262,37.379 L 98.681,37.273 L 99.114,37.119 L 99.562,36.916 L 100.025,36.666 L 100.420,36.440 L 100.747,36.237 L 101.007,36.059 L 101.200,35.905 L 101.388,35.741 L 101.571,35.568 L 101.749,35.385 L 101.923,35.192 L 102.062,35.018 L 102.168,34.864 L 102.241,34.729 L 102.279,34.614 L 102.356,34.479 L 102.472,34.325 L 102.626,34.151 L 102.819,33.959 L 102.968,33.747 L 103.074,33.515 L 103.137,33.265 L 103.156,32.995 L 103.199,32.716 L 103.267,32.427 L 103.358,32.128 L 103.474,31.820 L 103.561,31.536 L 103.618,31.275 L 103.647,31.039 L 103.647,30.827 L 103.618,30.562 L 103.561,30.245 L 103.474,29.874 L 103.358,29.450 L 103.267,29.064 L 103.199,28.717 L 103.156,28.409 L 103.137,28.139 L 103.079,27.894 L 102.983,27.672 L 102.848,27.475 L 102.674,27.301 L 102.510,27.109 L 102.356,26.897 L 102.212,26.665 L 102.077,26.415 L 101.923,26.179 L 101.749,25.957 L 101.557,25.750 L 101.345,25.557 L 101.152,25.398 L 100.979,25.273 L 100.824,25.182 L 100.690,25.124 L 100.526,25.032 L 100.333,24.907 L 100.111,24.748 L 99.861,24.555 L 99.514,24.382 L 99.071,24.228 Z" fill="#000000" fill-rule="evenodd" stroke="none"/>
<path d="M 126.462,24.594 L 125.999,24.864 L 125.599,25.133 L 125.262,25.403 L 124.988,25.673 L 124.776,25.943 L 124.573,26.179 L 124.381,26.381 L 124.198,26.550 L 124.024,26.685 L 123.885,26.805 L 123.779,26.911 L 123.706,27.003 L 123.668,27.080 L 123.639,27.166 L 123.620,27.263 L 123.610,27.369 L 123.610,27.484 L 123.567,27.624 L 123.480,27.788 L 123.350,27.976 L 123.176,28.188 L 123.042,28.583 L 122.945,29.161 L 122.887,29.922 L 122.868,30.866 L 122.868,31.627 L 122.887,32.205 L 122.926,32.600 L 122.984,32.812 L 123.061,33.019 L 123.157,33.222 L 123.273,33.419 L 123.408,33.612 L 123.518,33.800 L 123.605,33.983 L 123.668,34.161 L 123.706,34.334 L 123.779,34.498 L 123.885,34.652 L 124.024,34.797 L 124.198,34.932 L 124.386,35.105 L 124.588,35.317 L 124.805,35.568 L 125.036,35.857 L 125.233,36.093 L 125.397,36.276 L 125.527,36.406 L 125.624,36.483 L 125.725,36.541 L 125.831,36.579 L 125.942,36.598 L 126.057,36.598 L 126.173,36.613 L 126.288,36.642 L 126.404,36.685 L 126.520,36.743 L 126.640,36.815 L 126.765,36.902 L 126.895,37.003 L 127.030,37.119 L 127.271,37.220 L 127.618,37.307 L 128.071,37.379 L 128.630,37.437 L 129.237,37.470 L 129.892,37.480 L 130.595,37.466 L 131.346,37.427 L 131.958,37.364 L 132.430,37.278 L 132.763,37.167 L 132.955,37.032 L 133.163,36.907 L 133.384,36.791 L 133.620,36.685 L 133.871,36.589 L 134.121,36.454 L 134.372,36.281 L 134.622,36.069 L 134.873,35.818 L 135.065,35.616 L 135.200,35.462 L 135.277,35.356 L 135.297,35.298 L 135.350,35.226 L 135.436,35.139 L 135.557,35.038 L 135.711,34.922 L 135.851,34.773 L 135.976,34.590 L 136.087,34.373 L 136.183,34.122 L 136.284,33.896 L 136.390,33.694 L 136.501,33.515 L 136.617,33.361 L 136.713,33.212 L 136.790,33.067 L 136.848,32.928 L 136.886,32.793 L 136.910,32.432 L 136.920,31.844 L 136.915,31.030 L 136.896,29.989 L 136.867,29.180 L 136.828,28.602 L 136.780,28.255 L 136.722,28.139 L 136.655,28.029 L 136.578,27.923 L 136.491,27.821 L 136.395,27.725 L 136.313,27.619 L 136.246,27.504 L 136.193,27.378 L 136.154,27.243 L 136.082,27.099 L 135.976,26.945 L 135.836,26.781 L 135.663,26.608 L 135.528,26.463 L 135.431,26.347 L 135.374,26.261 L 135.354,26.203 L 135.273,26.092 L 135.128,25.928 L 134.921,25.712 L 134.651,25.442 L 134.386,25.211 L 134.126,25.018 L 133.871,24.864 L 133.620,24.748 L 133.403,24.637 L 133.220,24.531 L 133.071,24.430 L 132.955,24.334 L 132.768,24.252 L 132.507,24.184 L 132.175,24.131 L 131.770,24.093 L 131.414,24.045 L 131.106,23.987 L 130.845,23.920 L 130.634,23.842 L 130.431,23.785 L 130.238,23.746 L 130.055,23.727 L 129.882,23.727 L 129.723,23.741 L 129.579,23.770 L 129.448,23.814 L 129.333,23.871 L 129.121,23.929 L 128.813,23.987 L 128.408,24.045 L 127.907,24.103 L 127.416,24.213 L 126.934,24.377 Z" fill="#000000" fill-rule="evenodd" stroke="none"/>
<path d="M 181.567,37.595 L 181.441,37.505 L 181.329,37.438 L 181.230,37.393 L 181.144,37.370 L 181.072,37.370 L 180.986,37.393 L 180.887,37.438 L 180.775,37.505 L 180.649,37.595 L 180.527,37.704 L 180.410,37.830 L 180.298,37.974 L 180.190,38.136 L 180.100,38.325 L 180.028,38.541 L 179.974,38.784 L 179.938,39.054 L 179.848,39.328 L 179.704,39.607 L 179.506,39.891 L 179.254,40.179 L 179.042,40.404 L 178.871,40.566 L 178.741,40.665 L 178.650,40.701 L 178.556,40.755 L 178.457,40.827 L 178.353,40.917 L 178.245,41.025 L 178.124,41.111 L 177.989,41.174 L 177.840,41.214 L 177.678,41.232 L 177.498,41.214 L 177.300,41.160 L 177.084,41.070 L 176.850,40.944 L 176.648,40.850 L 176.477,40.787 L 176.337,40.755 L 176.229,40.755 L 176.130,40.787 L 176.040,40.850 L 175.959,40.944 L 175.887,41.070 L 175.833,41.196 L 175.797,41.322 L 175.779,41.448 L 175.779,41.574 L 175.801,41.691 L 175.846,41.799 L 175.914,41.898 L 176.004,41.988 L 176.157,42.092 L 176.373,42.209 L 176.652,42.340 L 176.994,42.484 L 177.278,42.587 L 177.503,42.650 L 177.669,42.673 L 177.777,42.655 L 177.899,42.614 L 178.034,42.551 L 178.182,42.466 L 178.344,42.358 L 178.524,42.263 L 178.723,42.182 L 178.939,42.114 L 179.173,42.060 L 179.407,41.966 L 179.641,41.831 L 179.875,41.655 L 180.109,41.439 L 180.307,41.214 L 180.469,40.980 L 180.595,40.737 L 180.685,40.485 L 180.779,40.274 L 180.878,40.103 L 180.982,39.972 L 181.090,39.882 L 181.180,39.760 L 181.252,39.607 L 181.306,39.423 L 181.342,39.207 L 181.392,38.995 L 181.455,38.788 L 181.531,38.586 L 181.621,38.388 L 181.689,38.217 L 181.734,38.073 L 181.756,37.956 L 181.756,37.866 L 181.725,37.776 L 181.662,37.686 Z" fill="#000000" fill-rule="evenodd" stroke="none"/>
<path d="M 187.103,24.345 L 187.067,24.399 L 187.040,24.489 L 187.022,24.615 L 187.013,24.777 L 187.013,24.975 L 187.027,25.236 L 187.054,25.560 L 187.094,25.947 L 187.148,26.397 L 187.216,26.762 L 187.297,27.041 L 187.391,27.234 L 187.499,27.342 L 187.607,27.509 L 187.715,27.734 L 187.823,28.017 L 187.932,28.359 L 188.035,28.643 L 188.134,28.868 L 188.229,29.035 L 188.319,29.143 L 188.409,29.273 L 188.499,29.426 L 188.589,29.602 L 188.679,29.800 L 188.782,29.980 L 188.899,30.142 L 189.030,30.286 L 189.174,30.412 L 189.295,30.533 L 189.394,30.650 L 189.471,30.763 L 189.525,30.871 L 189.592,30.975 L 189.673,31.074 L 189.768,31.168 L 189.876,31.258 L 189.993,31.380 L 190.119,31.533 L 190.254,31.717 L 190.398,31.933 L 190.533,32.113 L 190.659,32.257 L 190.776,32.365 L 190.884,32.437 L 190.988,32.523 L 191.087,32.622 L 191.181,32.734 L 191.271,32.860 L 191.393,32.982 L 191.546,33.099 L 191.730,33.212 L 191.946,33.320 L 192.140,33.437 L 192.311,33.563 L 192.459,33.698 L 192.586,33.842 L 192.716,33.963 L 192.851,34.062 L 192.991,34.139 L 193.135,34.193 L 193.274,34.265 L 193.409,34.355 L 193.540,34.463 L 193.666,34.589 L 193.814,34.697 L 193.985,34.787 L 194.179,34.859 L 194.395,34.913 L 194.593,34.989 L 194.773,35.088 L 194.935,35.210 L 195.079,35.354 L 195.246,35.467 L 195.435,35.548 L 195.646,35.597 L 195.880,35.615 L 196.137,35.656 L 196.416,35.719 L 196.717,35.804 L 197.041,35.912 L 197.339,35.984 L 197.609,36.020 L 197.852,36.020 L 198.068,35.984 L 198.248,35.930 L 198.392,35.858 L 198.500,35.768 L 198.572,35.660 L 198.630,35.516 L 198.675,35.336 L 198.707,35.120 L 198.725,34.868 L 198.765,34.620 L 198.828,34.377 L 198.914,34.139 L 199.022,33.905 L 199.116,33.671 L 199.197,33.437 L 199.265,33.203 L 199.319,32.968 L 199.359,32.680 L 199.386,32.338 L 199.400,31.942 L 199.400,31.492 L 199.364,31.069 L 199.292,30.673 L 199.184,30.304 L 199.040,29.962 L 198.918,29.620 L 198.819,29.278 L 198.743,28.936 L 198.689,28.594 L 198.608,28.283 L 198.500,28.004 L 198.365,27.756 L 198.203,27.540 L 198.072,27.347 L 197.973,27.176 L 197.906,27.027 L 197.870,26.901 L 197.798,26.757 L 197.690,26.595 L 197.546,26.415 L 197.366,26.217 L 197.199,26.046 L 197.046,25.902 L 196.906,25.785 L 196.780,25.695 L 196.659,25.591 L 196.542,25.474 L 196.429,25.344 L 196.321,25.200 L 196.209,25.078 L 196.092,24.979 L 195.970,24.903 L 195.844,24.849 L 195.714,24.772 L 195.579,24.673 L 195.439,24.552 L 195.295,24.408 L 195.124,24.286 L 194.926,24.187 L 194.701,24.111 L 194.449,24.057 L 194.215,23.985 L 193.999,23.895 L 193.801,23.786 L 193.621,23.660 L 193.459,23.557 L 193.315,23.476 L 193.189,23.417 L 193.081,23.381 L 192.806,23.354 L 192.365,23.336 L 191.757,23.327 L 190.983,23.327 L 190.349,23.341 L 189.853,23.368 L 189.498,23.408 L 189.282,23.462 L 189.111,23.516 L 188.985,23.570 L 188.904,23.624 L 188.868,23.678 L 188.809,23.737 L 188.728,23.800 L 188.625,23.868 L 188.499,23.940 L 188.332,24.007 L 188.125,24.070 L 187.877,24.129 L 187.589,24.183 L 187.364,24.237 L 187.202,24.291 Z" fill="#000000" fill-rule="evenodd" stroke="none"/>
<path d="M 162.852,24.300 L 162.780,24.372 L 162.722,24.444 L 162.677,24.516 L 162.645,24.588 L 162.627,24.660 L 162.614,24.786 L 162.605,24.966 L 162.600,25.200 L 162.600,25.488 L 162.609,25.744 L 162.627,25.969 L 162.654,26.163 L 162.690,26.325 L 162.753,26.501 L 162.843,26.690 L 162.960,26.892 L 163.104,27.108 L 163.226,27.333 L 163.325,27.567 L 163.401,27.810 L 163.455,28.062 L 163.527,28.287 L 163.617,28.486 L 163.725,28.657 L 163.851,28.801 L 163.968,28.967 L 164.076,29.156 L 164.175,29.368 L 164.265,29.602 L 164.360,29.804 L 164.459,29.975 L 164.562,30.115 L 164.670,30.223 L 164.760,30.326 L 164.832,30.425 L 164.886,30.520 L 164.923,30.610 L 164.999,30.723 L 165.116,30.858 L 165.274,31.015 L 165.472,31.195 L 165.629,31.348 L 165.746,31.474 L 165.823,31.573 L 165.859,31.645 L 165.917,31.722 L 165.998,31.803 L 166.102,31.888 L 166.228,31.978 L 166.340,32.073 L 166.439,32.172 L 166.525,32.275 L 166.597,32.383 L 166.727,32.523 L 166.916,32.694 L 167.164,32.896 L 167.470,33.131 L 167.722,33.338 L 167.920,33.518 L 168.064,33.671 L 168.154,33.797 L 168.271,33.914 L 168.415,34.022 L 168.586,34.121 L 168.784,34.211 L 168.955,34.305 L 169.099,34.404 L 169.216,34.508 L 169.306,34.616 L 169.432,34.710 L 169.595,34.791 L 169.793,34.859 L 170.027,34.913 L 170.270,34.998 L 170.522,35.115 L 170.783,35.264 L 171.053,35.444 L 171.327,35.584 L 171.606,35.683 L 171.890,35.741 L 172.178,35.759 L 172.444,35.795 L 172.687,35.849 L 172.907,35.921 L 173.105,36.011 L 173.285,36.074 L 173.447,36.110 L 173.591,36.119 L 173.717,36.101 L 173.834,36.052 L 173.942,35.971 L 174.041,35.858 L 174.132,35.714 L 174.213,35.534 L 174.285,35.318 L 174.348,35.066 L 174.402,34.778 L 174.469,34.517 L 174.550,34.283 L 174.645,34.076 L 174.753,33.896 L 174.843,33.725 L 174.915,33.563 L 174.969,33.410 L 175.005,33.266 L 175.023,32.959 L 175.023,32.491 L 175.005,31.861 L 174.969,31.069 L 174.906,30.412 L 174.816,29.890 L 174.699,29.503 L 174.555,29.251 L 174.438,29.012 L 174.348,28.787 L 174.285,28.576 L 174.249,28.377 L 174.204,28.193 L 174.150,28.022 L 174.086,27.864 L 174.014,27.720 L 173.938,27.590 L 173.857,27.473 L 173.771,27.369 L 173.681,27.279 L 173.596,27.171 L 173.515,27.045 L 173.438,26.901 L 173.366,26.739 L 173.276,26.586 L 173.168,26.442 L 173.042,26.307 L 172.898,26.181 L 172.786,26.073 L 172.705,25.983 L 172.655,25.911 L 172.637,25.857 L 172.601,25.803 L 172.547,25.749 L 172.475,25.695 L 172.385,25.641 L 172.286,25.564 L 172.178,25.465 L 172.061,25.344 L 171.935,25.200 L 171.814,25.078 L 171.696,24.979 L 171.584,24.903 L 171.476,24.849 L 171.363,24.772 L 171.246,24.673 L 171.125,24.552 L 170.999,24.408 L 170.832,24.286 L 170.625,24.187 L 170.378,24.111 L 170.090,24.057 L 169.842,23.989 L 169.635,23.908 L 169.468,23.814 L 169.342,23.705 L 169.198,23.611 L 169.036,23.530 L 168.856,23.462 L 168.658,23.408 L 168.316,23.368 L 167.830,23.341 L 167.200,23.327 L 166.426,23.327 L 165.769,23.368 L 165.229,23.449 L 164.805,23.570 L 164.499,23.732 L 164.202,23.868 L 163.914,23.976 L 163.635,24.057 L 163.365,24.111 L 163.145,24.169 L 162.974,24.232 Z" fill="#000000" fill-rule="evenodd" stroke="none"/>
<path d="M 49.583,104.433 L 49.492,104.227 L 49.263,104.055 L 48.897,103.918 L 48.393,103.815 L 47.752,103.746 L 47.162,103.603 L 46.624,103.385 L 46.138,103.094 L 45.703,102.727 L 45.353,102.384 L 45.090,102.063 L 44.913,101.766 L 44.821,101.491 L 44.730,101.262 L 44.638,101.079 L 44.546,100.941 L 44.455,100.850 L 44.335,100.781 L 44.186,100.735 L 44.008,100.712 L 43.802,100.712 L 43.619,100.724 L 43.459,100.747 L 43.322,100.781 L 43.207,100.827 L 43.110,100.884 L 43.030,100.953 L 42.967,101.033 L 42.921,101.125 L 42.886,101.250 L 42.864,101.411 L 42.852,101.605 L 42.852,101.834 L 42.864,102.063 L 42.886,102.292 L 42.921,102.521 L 42.967,102.750 L 43.030,102.939 L 43.110,103.088 L 43.207,103.197 L 43.322,103.265 L 43.436,103.351 L 43.550,103.454 L 43.665,103.574 L 43.779,103.712 L 43.865,103.866 L 43.923,104.038 L 43.951,104.227 L 43.951,104.433 L 43.940,104.622 L 43.917,104.794 L 43.882,104.948 L 43.837,105.085 L 43.711,105.269 L 43.505,105.498 L 43.218,105.772 L 42.852,106.093 L 42.497,106.350 L 42.154,106.545 L 41.822,106.677 L 41.501,106.745 L 41.192,106.831 L 40.895,106.934 L 40.608,107.054 L 40.334,107.192 L 40.088,107.295 L 39.870,107.364 L 39.681,107.398 L 39.521,107.398 L 39.338,107.369 L 39.132,107.312 L 38.903,107.226 L 38.651,107.112 L 38.359,107.003 L 38.027,106.900 L 37.655,106.803 L 37.243,106.711 L 36.854,106.562 L 36.487,106.356 L 36.144,106.093 L 35.823,105.772 L 35.531,105.498 L 35.268,105.269 L 35.033,105.085 L 34.827,104.948 L 34.644,104.851 L 34.484,104.794 L 34.347,104.776 L 34.232,104.799 L 34.112,104.874 L 33.986,105.000 L 33.854,105.177 L 33.717,105.406 L 33.614,105.612 L 33.545,105.795 L 33.511,105.955 L 33.511,106.093 L 33.545,106.265 L 33.614,106.471 L 33.717,106.711 L 33.854,106.986 L 34.032,107.249 L 34.249,107.501 L 34.507,107.741 L 34.804,107.970 L 35.096,108.159 L 35.383,108.308 L 35.663,108.417 L 35.938,108.485 L 36.247,108.588 L 36.590,108.726 L 36.968,108.898 L 37.380,109.104 L 37.844,109.264 L 38.359,109.378 L 38.926,109.447 L 39.544,109.470 L 40.065,109.476 L 40.488,109.464 L 40.814,109.436 L 41.043,109.390 L 41.353,109.287 L 41.742,109.126 L 42.211,108.909 L 42.761,108.634 L 43.218,108.394 L 43.585,108.188 L 43.860,108.016 L 44.043,107.879 L 44.289,107.661 L 44.598,107.364 L 44.970,106.986 L 45.405,106.528 L 45.777,106.179 L 46.086,105.938 L 46.332,105.807 L 46.515,105.784 L 46.710,105.795 L 46.916,105.841 L 47.134,105.921 L 47.363,106.036 L 47.637,106.116 L 47.958,106.162 L 48.324,106.173 L 48.736,106.150 L 49.063,106.116 L 49.303,106.070 L 49.457,106.013 L 49.526,105.944 L 49.583,105.824 L 49.629,105.652 L 49.664,105.429 L 49.686,105.154 L 49.681,104.897 L 49.646,104.656 Z" fill="#000000" fill-rule="evenodd" stroke="none"/>
<path d="M 46.046,85.372 L 45.977,85.647 L 45.926,85.945 L 45.892,86.265 L 45.874,86.609 L 45.874,86.975 L 45.892,87.290 L 45.926,87.553 L 45.977,87.765 L 46.046,87.925 L 46.132,88.080 L 46.235,88.229 L 46.355,88.372 L 46.493,88.509 L 46.636,88.681 L 46.784,88.887 L 46.939,89.127 L 47.099,89.402 L 47.317,89.700 L 47.592,90.020 L 47.923,90.364 L 48.313,90.730 L 48.639,91.016 L 48.902,91.222 L 49.103,91.348 L 49.240,91.394 L 49.400,91.486 L 49.583,91.623 L 49.789,91.806 L 50.018,92.035 L 50.276,92.212 L 50.562,92.338 L 50.877,92.413 L 51.220,92.436 L 51.524,92.476 L 51.787,92.533 L 52.010,92.607 L 52.193,92.699 L 52.422,92.791 L 52.697,92.882 L 53.018,92.974 L 53.384,93.065 L 53.733,93.134 L 54.065,93.180 L 54.380,93.203 L 54.678,93.203 L 54.998,93.163 L 55.342,93.083 L 55.708,92.962 L 56.097,92.802 L 56.486,92.676 L 56.876,92.585 L 57.265,92.527 L 57.654,92.504 L 57.969,92.476 L 58.209,92.441 L 58.375,92.401 L 58.467,92.356 L 58.576,92.275 L 58.702,92.161 L 58.845,92.012 L 59.005,91.829 L 59.194,91.657 L 59.411,91.497 L 59.657,91.348 L 59.932,91.211 L 60.213,91.033 L 60.499,90.816 L 60.791,90.558 L 61.088,90.261 L 61.346,89.969 L 61.563,89.683 L 61.741,89.402 L 61.878,89.127 L 62.010,88.898 L 62.136,88.715 L 62.256,88.578 L 62.371,88.486 L 62.485,88.332 L 62.599,88.114 L 62.714,87.834 L 62.828,87.490 L 62.897,87.113 L 62.920,86.700 L 62.897,86.254 L 62.828,85.773 L 62.737,85.378 L 62.622,85.069 L 62.485,84.846 L 62.325,84.709 L 62.176,84.554 L 62.039,84.382 L 61.913,84.193 L 61.798,83.987 L 61.586,83.718 L 61.277,83.386 L 60.871,82.991 L 60.367,82.533 L 59.932,82.167 L 59.566,81.892 L 59.268,81.709 L 59.039,81.618 L 58.799,81.503 L 58.547,81.366 L 58.284,81.206 L 58.009,81.022 L 57.562,80.868 L 56.944,80.742 L 56.154,80.645 L 55.193,80.576 L 54.311,80.542 L 53.510,80.542 L 52.789,80.576 L 52.148,80.645 L 51.610,80.742 L 51.175,80.868 L 50.843,81.022 L 50.614,81.206 L 50.373,81.366 L 50.121,81.503 L 49.858,81.618 L 49.583,81.709 L 49.337,81.824 L 49.120,81.961 L 48.931,82.121 L 48.771,82.304 L 48.633,82.448 L 48.519,82.551 L 48.427,82.614 L 48.359,82.636 L 48.233,82.722 L 48.049,82.871 L 47.809,83.083 L 47.511,83.358 L 47.271,83.604 L 47.088,83.821 L 46.962,84.010 L 46.893,84.170 L 46.802,84.325 L 46.687,84.474 L 46.550,84.617 L 46.389,84.754 L 46.252,84.926 L 46.138,85.132 Z" fill="#000000" fill-rule="evenodd" stroke="none"/>
<path d="M 15.080,86.758 L 15.126,86.918 L 15.194,87.078 L 15.286,87.238 L 15.401,87.399 L 15.538,87.559 L 15.664,87.748 L 15.778,87.965 L 15.881,88.212 L 15.973,88.486 L 16.076,88.727 L 16.190,88.933 L 16.316,89.104 L 16.454,89.242 L 16.562,89.368 L 16.643,89.482 L 16.694,89.585 L 16.717,89.677 L 16.803,89.808 L 16.952,89.980 L 17.163,90.192 L 17.438,90.444 L 17.661,90.661 L 17.833,90.844 L 17.953,90.993 L 18.022,91.108 L 18.148,91.222 L 18.331,91.337 L 18.572,91.451 L 18.869,91.566 L 19.127,91.686 L 19.344,91.812 L 19.522,91.943 L 19.659,92.081 L 19.865,92.201 L 20.140,92.304 L 20.483,92.390 L 20.895,92.459 L 21.302,92.550 L 21.703,92.665 L 22.097,92.802 L 22.487,92.962 L 22.870,93.083 L 23.248,93.163 L 23.620,93.203 L 23.986,93.203 L 24.307,93.191 L 24.582,93.168 L 24.811,93.134 L 24.994,93.088 L 25.194,93.020 L 25.412,92.928 L 25.646,92.813 L 25.898,92.676 L 26.133,92.573 L 26.350,92.504 L 26.551,92.470 L 26.734,92.470 L 26.940,92.453 L 27.169,92.419 L 27.421,92.367 L 27.695,92.298 L 28.027,92.144 L 28.417,91.903 L 28.863,91.577 L 29.367,91.165 L 29.830,90.770 L 30.254,90.392 L 30.637,90.032 L 30.981,89.688 L 31.267,89.356 L 31.496,89.036 L 31.668,88.727 L 31.782,88.429 L 31.902,88.166 L 32.028,87.937 L 32.160,87.742 L 32.297,87.582 L 32.412,87.422 L 32.503,87.261 L 32.572,87.101 L 32.618,86.941 L 32.647,86.775 L 32.658,86.603 L 32.652,86.426 L 32.629,86.242 L 32.578,86.065 L 32.498,85.893 L 32.389,85.727 L 32.252,85.567 L 32.120,85.367 L 31.994,85.126 L 31.874,84.846 L 31.759,84.525 L 31.611,84.228 L 31.427,83.953 L 31.210,83.701 L 30.958,83.472 L 30.758,83.278 L 30.609,83.117 L 30.512,82.991 L 30.466,82.900 L 30.403,82.820 L 30.323,82.751 L 30.225,82.694 L 30.111,82.648 L 29.973,82.568 L 29.813,82.453 L 29.630,82.304 L 29.424,82.121 L 29.206,81.961 L 28.978,81.824 L 28.737,81.709 L 28.485,81.618 L 28.239,81.509 L 27.999,81.383 L 27.764,81.240 L 27.535,81.080 L 27.323,80.948 L 27.129,80.845 L 26.951,80.770 L 26.791,80.725 L 26.430,80.679 L 25.869,80.633 L 25.108,80.587 L 24.147,80.542 L 23.299,80.524 L 22.567,80.536 L 21.949,80.576 L 21.445,80.645 L 21.039,80.708 L 20.729,80.765 L 20.518,80.816 L 20.403,80.862 L 20.272,80.936 L 20.123,81.040 L 19.957,81.171 L 19.774,81.331 L 19.562,81.480 L 19.321,81.618 L 19.052,81.744 L 18.755,81.858 L 18.469,82.018 L 18.194,82.224 L 17.930,82.476 L 17.679,82.774 L 17.461,83.014 L 17.278,83.197 L 17.129,83.323 L 17.015,83.392 L 16.906,83.489 L 16.803,83.615 L 16.706,83.770 L 16.614,83.953 L 16.511,84.125 L 16.396,84.285 L 16.271,84.434 L 16.133,84.571 L 16.019,84.714 L 15.927,84.863 L 15.858,85.018 L 15.813,85.178 L 15.733,85.367 L 15.618,85.584 L 15.469,85.830 L 15.286,86.105 L 15.160,86.351 L 15.091,86.569 Z" fill="#000000" fill-rule="evenodd" stroke="none"/>
<path d="M 113.000,94.994 L 112.912,94.950 L 112.791,94.923 L 112.637,94.912 L 112.449,94.917 L 112.229,94.939 L 112.047,94.972 L 111.904,95.017 L 111.800,95.072 L 111.734,95.138 L 111.689,95.220 L 111.667,95.319 L 111.667,95.435 L 111.689,95.567 L 111.739,95.738 L 111.816,95.947 L 111.921,96.195 L 112.053,96.481 L 112.152,96.806 L 112.218,97.170 L 112.251,97.572 L 112.251,98.012 L 112.240,98.375 L 112.218,98.662 L 112.185,98.871 L 112.141,99.003 L 112.014,99.168 L 111.805,99.367 L 111.513,99.598 L 111.139,99.862 L 110.797,100.060 L 110.489,100.193 L 110.214,100.259 L 109.971,100.259 L 109.702,100.198 L 109.404,100.077 L 109.079,99.895 L 108.727,99.653 L 108.457,99.394 L 108.270,99.119 L 108.165,98.827 L 108.143,98.519 L 108.105,98.243 L 108.050,98.001 L 107.978,97.792 L 107.890,97.616 L 107.763,97.472 L 107.598,97.362 L 107.394,97.285 L 107.152,97.241 L 106.954,97.225 L 106.800,97.236 L 106.690,97.274 L 106.624,97.340 L 106.574,97.538 L 106.541,97.869 L 106.524,98.331 L 106.524,98.926 L 106.530,99.389 L 106.541,99.719 L 106.557,99.917 L 106.579,99.983 L 106.635,100.060 L 106.723,100.149 L 106.844,100.248 L 106.998,100.358 L 107.136,100.479 L 107.257,100.611 L 107.361,100.754 L 107.450,100.908 L 107.609,101.074 L 107.840,101.250 L 108.143,101.437 L 108.518,101.635 L 108.892,101.789 L 109.267,101.900 L 109.641,101.966 L 110.016,101.988 L 110.440,101.933 L 110.913,101.800 L 111.436,101.591 L 112.009,101.305 L 112.455,101.052 L 112.774,100.831 L 112.967,100.644 L 113.033,100.490 L 113.127,100.319 L 113.248,100.132 L 113.396,99.928 L 113.573,99.708 L 113.710,99.521 L 113.809,99.367 L 113.870,99.245 L 113.892,99.157 L 113.903,98.910 L 113.903,98.502 L 113.892,97.935 L 113.870,97.208 L 113.831,96.619 L 113.776,96.167 L 113.705,95.853 L 113.617,95.677 L 113.529,95.523 L 113.441,95.391 L 113.352,95.281 L 113.264,95.193 L 113.176,95.116 L 113.088,95.050 Z" fill="#000000" fill-rule="evenodd" stroke="none"/>
<path d="M 123.209,90.633 L 123.407,90.854 L 123.578,91.085 L 123.721,91.327 L 123.837,91.580 L 123.925,91.845 L 124.062,92.109 L 124.250,92.373 L 124.486,92.638 L 124.773,92.902 L 125.021,93.122 L 125.230,93.299 L 125.401,93.431 L 125.533,93.519 L 125.659,93.590 L 125.780,93.645 L 125.896,93.684 L 126.006,93.706 L 126.138,93.772 L 126.293,93.882 L 126.469,94.036 L 126.667,94.235 L 126.893,94.383 L 127.146,94.482 L 127.427,94.532 L 127.735,94.532 L 128.011,94.543 L 128.253,94.565 L 128.462,94.598 L 128.638,94.642 L 128.991,94.664 L 129.519,94.664 L 130.224,94.642 L 131.105,94.598 L 131.827,94.515 L 132.388,94.394 L 132.790,94.235 L 133.032,94.036 L 133.247,93.877 L 133.434,93.756 L 133.594,93.673 L 133.726,93.629 L 133.908,93.513 L 134.139,93.326 L 134.420,93.067 L 134.750,92.737 L 135.004,92.473 L 135.180,92.274 L 135.279,92.142 L 135.301,92.076 L 135.356,91.999 L 135.444,91.911 L 135.565,91.812 L 135.720,91.702 L 135.852,91.536 L 135.962,91.316 L 136.050,91.041 L 136.116,90.710 L 136.210,90.413 L 136.331,90.149 L 136.479,89.918 L 136.656,89.719 L 136.788,89.505 L 136.876,89.273 L 136.920,89.026 L 136.920,88.761 L 136.903,88.546 L 136.870,88.381 L 136.821,88.266 L 136.755,88.200 L 135.885,88.144 L 134.211,88.100 L 131.733,88.067 L 128.451,88.045 L 125.973,88.034 L 124.299,88.034 L 123.429,88.045 L 123.363,88.067 L 123.292,88.117 L 123.214,88.194 L 123.132,88.299 L 123.044,88.431 L 122.978,88.635 L 122.934,88.910 L 122.912,89.257 L 122.912,89.675 L 122.961,90.044 L 123.060,90.364 Z" fill="#000000" fill-rule="evenodd" stroke="none"/>
<path d="M 89.344,90.512 L 89.521,90.710 L 89.686,90.936 L 89.840,91.190 L 89.983,91.470 L 90.115,91.779 L 90.385,92.148 L 90.793,92.577 L 91.338,93.067 L 92.020,93.618 L 92.665,94.042 L 93.270,94.339 L 93.838,94.510 L 94.366,94.554 L 94.796,94.598 L 95.126,94.642 L 95.357,94.686 L 95.490,94.730 L 95.688,94.747 L 95.952,94.736 L 96.282,94.697 L 96.679,94.631 L 97.064,94.582 L 97.439,94.548 L 97.802,94.532 L 98.155,94.532 L 98.546,94.438 L 98.975,94.251 L 99.443,93.970 L 99.950,93.596 L 100.379,93.249 L 100.732,92.930 L 101.007,92.638 L 101.205,92.373 L 101.398,92.142 L 101.585,91.944 L 101.767,91.779 L 101.943,91.647 L 102.086,91.481 L 102.196,91.283 L 102.273,91.052 L 102.317,90.788 L 102.395,90.523 L 102.505,90.259 L 102.648,89.995 L 102.824,89.730 L 102.962,89.472 L 103.061,89.218 L 103.121,88.970 L 103.143,88.728 L 103.138,88.524 L 103.105,88.359 L 103.044,88.233 L 102.956,88.144 L 102.059,88.078 L 100.352,88.034 L 97.835,88.012 L 94.509,88.012 L 91.987,88.034 L 90.269,88.078 L 89.355,88.144 L 89.245,88.233 L 89.163,88.414 L 89.108,88.690 L 89.080,89.059 L 89.080,89.521 L 89.124,89.918 L 89.212,90.248 Z" fill="#000000" fill-rule="evenodd" stroke="none"/>
<path d="M 182.730,103.209 L 182.674,103.135 L 182.601,103.076 L 182.509,103.030 L 182.399,102.998 L 182.270,102.979 L 182.132,102.993 L 181.985,103.039 L 181.829,103.117 L 181.664,103.227 L 181.485,103.370 L 181.292,103.544 L 181.085,103.751 L 180.864,103.990 L 180.662,104.178 L 180.479,104.316 L 180.313,104.403 L 180.166,104.440 L 179.992,104.468 L 179.790,104.486 L 179.560,104.495 L 179.303,104.495 L 179.064,104.449 L 178.843,104.357 L 178.641,104.220 L 178.457,104.036 L 178.264,103.861 L 178.062,103.696 L 177.851,103.540 L 177.631,103.393 L 177.451,103.282 L 177.314,103.209 L 177.217,103.172 L 177.162,103.172 L 177.079,103.200 L 176.969,103.255 L 176.831,103.338 L 176.666,103.448 L 176.533,103.553 L 176.432,103.655 L 176.363,103.751 L 176.326,103.843 L 176.344,103.953 L 176.418,104.082 L 176.546,104.229 L 176.730,104.394 L 176.886,104.546 L 177.015,104.683 L 177.116,104.808 L 177.190,104.918 L 177.268,105.005 L 177.350,105.069 L 177.438,105.111 L 177.529,105.129 L 177.654,105.184 L 177.810,105.276 L 177.998,105.405 L 178.219,105.570 L 178.513,105.699 L 178.880,105.791 L 179.321,105.846 L 179.836,105.864 L 180.327,105.804 L 180.796,105.667 L 181.241,105.451 L 181.664,105.157 L 182.013,104.876 L 182.289,104.610 L 182.491,104.357 L 182.619,104.118 L 182.716,103.912 L 182.780,103.737 L 182.812,103.595 L 182.812,103.485 L 182.798,103.383 L 182.771,103.292 Z" fill="#000000" fill-rule="evenodd" stroke="none"/>
<path d="M 191.228,84.338 L 191.154,84.375 L 191.081,84.421 L 191.007,84.476 L 190.934,84.540 L 190.860,84.614 L 190.801,84.687 L 190.755,84.761 L 190.723,84.834 L 190.704,84.908 L 190.658,84.990 L 190.585,85.082 L 190.484,85.183 L 190.355,85.294 L 190.240,85.422 L 190.139,85.569 L 190.052,85.735 L 189.978,85.918 L 189.882,86.111 L 189.762,86.313 L 189.620,86.525 L 189.455,86.745 L 189.321,86.961 L 189.220,87.172 L 189.151,87.379 L 189.115,87.581 L 189.046,87.806 L 188.945,88.054 L 188.812,88.325 L 188.646,88.619 L 188.522,89.093 L 188.439,89.745 L 188.398,90.576 L 188.398,91.587 L 188.439,92.414 L 188.522,93.057 L 188.646,93.516 L 188.812,93.792 L 188.940,94.054 L 189.032,94.302 L 189.087,94.536 L 189.106,94.757 L 189.170,94.968 L 189.280,95.170 L 189.436,95.363 L 189.638,95.547 L 189.799,95.707 L 189.919,95.845 L 189.997,95.960 L 190.033,96.052 L 190.171,96.222 L 190.410,96.470 L 190.750,96.796 L 191.191,97.200 L 191.577,97.504 L 191.908,97.706 L 192.183,97.807 L 192.404,97.807 L 192.624,97.825 L 192.845,97.862 L 193.065,97.917 L 193.286,97.990 L 193.515,98.046 L 193.754,98.082 L 194.002,98.101 L 194.260,98.101 L 194.512,98.082 L 194.760,98.046 L 195.004,97.990 L 195.243,97.917 L 195.477,97.857 L 195.707,97.811 L 195.932,97.779 L 196.152,97.761 L 196.364,97.710 L 196.566,97.628 L 196.759,97.513 L 196.942,97.366 L 197.103,97.246 L 197.241,97.154 L 197.356,97.090 L 197.448,97.053 L 197.535,96.998 L 197.618,96.925 L 197.696,96.833 L 197.769,96.723 L 197.857,96.617 L 197.958,96.516 L 198.072,96.419 L 198.201,96.328 L 198.311,96.231 L 198.403,96.130 L 198.477,96.024 L 198.532,95.914 L 198.573,95.790 L 198.601,95.652 L 198.614,95.501 L 198.614,95.335 L 198.656,95.119 L 198.739,94.853 L 198.863,94.536 L 199.028,94.169 L 199.161,93.829 L 199.262,93.516 L 199.331,93.231 L 199.368,92.974 L 199.391,92.620 L 199.400,92.170 L 199.395,91.624 L 199.377,90.981 L 199.354,90.466 L 199.327,90.080 L 199.294,89.823 L 199.258,89.694 L 199.198,89.543 L 199.115,89.368 L 199.010,89.171 L 198.881,88.950 L 198.771,88.720 L 198.679,88.482 L 198.605,88.234 L 198.550,87.976 L 198.472,87.737 L 198.371,87.517 L 198.247,87.315 L 198.100,87.131 L 197.971,86.947 L 197.861,86.764 L 197.769,86.580 L 197.696,86.396 L 197.521,86.166 L 197.246,85.891 L 196.869,85.569 L 196.391,85.202 L 195.996,84.908 L 195.684,84.687 L 195.454,84.540 L 195.307,84.467 L 195.132,84.407 L 194.930,84.361 L 194.701,84.329 L 194.443,84.310 L 194.232,84.288 L 194.067,84.260 L 193.947,84.228 L 193.874,84.191 L 193.667,84.173 L 193.327,84.173 L 192.854,84.191 L 192.248,84.228 L 191.774,84.265 L 191.435,84.301 Z" fill="#000000" fill-rule="evenodd" stroke="none"/>
<path d="M 165.301,84.540 L 165.191,84.614 L 165.090,84.710 L 164.998,84.830 L 164.915,84.972 L 164.842,85.137 L 164.759,85.289 L 164.667,85.427 L 164.566,85.551 L 164.456,85.661 L 164.359,85.776 L 164.277,85.895 L 164.208,86.019 L 164.153,86.148 L 164.075,86.281 L 163.974,86.419 L 163.849,86.561 L 163.702,86.708 L 163.578,86.888 L 163.477,87.099 L 163.399,87.342 L 163.344,87.618 L 163.261,87.903 L 163.151,88.197 L 163.013,88.500 L 162.848,88.812 L 162.724,89.276 L 162.641,89.892 L 162.600,90.659 L 162.600,91.578 L 162.641,92.340 L 162.724,92.947 L 162.848,93.397 L 163.013,93.691 L 163.142,93.966 L 163.234,94.224 L 163.289,94.463 L 163.307,94.683 L 163.372,94.894 L 163.482,95.096 L 163.638,95.289 L 163.840,95.473 L 163.996,95.629 L 164.107,95.758 L 164.171,95.859 L 164.189,95.933 L 164.318,96.098 L 164.557,96.355 L 164.906,96.704 L 165.365,97.145 L 165.765,97.476 L 166.105,97.696 L 166.385,97.807 L 166.606,97.807 L 166.831,97.825 L 167.060,97.862 L 167.295,97.917 L 167.534,97.990 L 167.772,98.046 L 168.011,98.082 L 168.250,98.101 L 168.489,98.101 L 168.733,98.082 L 168.981,98.046 L 169.233,97.990 L 169.491,97.917 L 169.739,97.857 L 169.977,97.811 L 170.207,97.779 L 170.428,97.761 L 170.611,97.738 L 170.758,97.710 L 170.869,97.678 L 170.942,97.641 L 171.020,97.586 L 171.103,97.513 L 171.190,97.421 L 171.282,97.311 L 171.374,97.219 L 171.466,97.145 L 171.558,97.090 L 171.650,97.053 L 171.769,96.975 L 171.916,96.856 L 172.091,96.695 L 172.293,96.493 L 172.458,96.309 L 172.587,96.144 L 172.679,95.997 L 172.734,95.868 L 172.784,95.712 L 172.830,95.528 L 172.871,95.317 L 172.908,95.078 L 172.959,94.871 L 173.023,94.697 L 173.101,94.554 L 173.193,94.444 L 173.276,94.329 L 173.349,94.210 L 173.414,94.086 L 173.469,93.957 L 173.515,93.700 L 173.551,93.314 L 173.579,92.800 L 173.597,92.157 L 173.602,91.559 L 173.593,91.008 L 173.570,90.503 L 173.533,90.043 L 173.473,89.653 L 173.391,89.331 L 173.285,89.079 L 173.156,88.895 L 173.046,88.702 L 172.954,88.500 L 172.881,88.289 L 172.826,88.068 L 172.761,87.857 L 172.688,87.655 L 172.605,87.462 L 172.513,87.278 L 172.426,87.122 L 172.343,86.993 L 172.265,86.892 L 172.192,86.819 L 172.123,86.727 L 172.058,86.617 L 171.999,86.488 L 171.944,86.341 L 171.842,86.180 L 171.695,86.006 L 171.503,85.817 L 171.264,85.615 L 171.043,85.445 L 170.841,85.307 L 170.657,85.202 L 170.492,85.128 L 170.340,85.045 L 170.203,84.954 L 170.079,84.853 L 169.968,84.742 L 169.858,84.646 L 169.748,84.563 L 169.638,84.494 L 169.527,84.439 L 169.376,84.393 L 169.183,84.356 L 168.948,84.329 L 168.673,84.310 L 168.439,84.288 L 168.246,84.260 L 168.094,84.228 L 167.984,84.191 L 167.841,84.164 L 167.667,84.145 L 167.460,84.136 L 167.221,84.136 L 166.955,84.154 L 166.661,84.191 L 166.339,84.246 L 165.990,84.320 L 165.701,84.393 L 165.471,84.467 Z" fill="#000000" fill-rule="evenodd" stroke="none"/>
<path d="M 5.000,8.000 L 14.664,8.000 L 14.664,5.000 L 24.479,5.000 L 24.479,8.000 L 34.093,8.000 L 34.093,5.000 L 43.907,5.000 L 43.907,8.000 L 53.521,8.000 L 53.521,5.000 L 63.336,5.000 L 63.336,8.000 L 73.000,8.000 L 73.000,16.250 L 70.000,16.250 L 70.000,27.350 L 73.000,27.350 L 73.000,38.650 L 70.000,38.650 L 70.000,49.750 L 73.000,49.750 L 73.000,58.000 L 63.336,58.000 L 63.336,61.000 L 53.521,61.000 L 53.521,58.000 L 43.907,58.000 L 43.907,61.000 L 34.093,61.000 L 34.093,58.000 L 24.479,58.000 L 24.479,61.000 L 14.664,61.000 L 14.664,58.000 L 5.000,58.000 L 5.000,49.750 L 8.000,49.750 L 8.000,38.650 L 5.000,38.650 L 5.000,27.350 L 8.000,27.350 L 8.000,16.250 L 5.000,16.250 L 5.000,8.000 Z" fill="none" stroke="#FF0000" stroke-width="0.01"/>
<path d="M 79.000,8.000 L 88.664,8.000 L 88.664,5.000 L 98.479,5.000 L 98.479,8.000 L 108.093,8.000 L 108.093,5.000 L 117.907,5.000 L 117.907,8.000 L 127.521,8.000 L 127.521,5.000 L 137.336,5.000 L 137.336,8.000 L 147.000,8.000 L 147.000,16.250 L 144.000,16.250 L 144.000,27.350 L 147.000,27.350 L 147.000,38.650 L 144.000,38.650 L 144.000,49.750 L 147.000,49.750 L 147.000,58.000 L 137.336,58.000 L 137.336,61.000 L 127.521,61.000 L 127.521,58.000 L 117.907,58.000 L 117.907,61.000 L 108.093,61.000 L 108.093,58.000 L 98.479,58.000 L 98.479,61.000 L 88.664,61.000 L 88.664,58.000 L 79.000,58.000 L 79.000,49.750 L 82.000,49.750 L 82.000,38.650 L 79.000,38.650 L 79.000,27.350 L 82.000,27.350 L 82.000,16.250 L 79.000,16.250 L 79.000,8.000 Z" fill="none" stroke="#FF0000" stroke-width="0.01"/>
<path d="M 156.000,8.000 L 164.150,8.000 L 164.150,5.000 L 175.450,5.000 L 175.450,8.000 L 186.550,8.000 L 186.550,5.000 L 197.850,5.000 L 197.850,8.000 L 206.000,8.000 L 206.000,16.150 L 209.000,16.150 L 209.000,27.450 L 206.000,27.450 L 206.000,38.550 L 209.000,38.550 L 209.000,49.850 L 206.000,49.850 L 206.000,58.000 L 197.850,58.000 L 197.850,61.000 L 186.550,61.000 L 186.550,58.000 L 175.450,58.000 L 175.450,61.000 L 164.150,61.000 L 164.150,58.000 L 156.000,58.000 L 156.000,49.850 L 153.000,49.850 L 153.000,38.550 L 156.000,38.550 L 156.000,27.450 L 153.000,27.450 L 153.000,16.150 L 156.000,16.150 L 156.000,8.000 Z" fill="none" stroke="#FF0000" stroke-width="0.01"/>
<path d="M 5.000,67.000 L 14.764,67.000 L 14.764,70.000 L 24.379,70.000 L 24.379,67.000 L 34.193,67.000 L 34.193,70.000 L 43.807,70.000 L 43.807,67.000 L 53.621,67.000 L 53.621,70.000 L 63.236,70.000 L 63.236,67.000 L 73.000,67.000 L 73.000,78.250 L 70.000,78.250 L 70.000,89.350 L 73.000,89.350 L 73.000,100.650 L 70.000,100.650 L 70.000,111.750 L 73.000,111.750 L 73.000,123.000 L 63.236,123.000 L 63.236,120.000 L 53.621,120.000 L 53.621,123.000 L 43.807,123.000 L 43.807,120.000 L 34.193,120.000 L 34.193,123.000 L 24.379,123.000 L 24.379,120.000 L 14.764,120.000 L 14.764,123.000 L 5.000,123.000 L 5.000,111.750 L 8.000,111.750 L 8.000,100.650 L 5.000,100.650 L 5.000,89.350 L 8.000,89.350 L 8.000,78.250 L 5.000,78.250 L 5.000,67.000 Z" fill="none" stroke="#FF0000" stroke-width="0.01"/>
<path d="M 79.000,67.000 L 88.764,67.000 L 88.764,70.000 L 98.379,70.000 L 98.379,67.000 L 108.193,67.000 L 108.193,70.000 L 117.807,70.000 L 117.807,67.000 L 127.621,67.000 L 127.621,70.000 L 137.236,70.000 L 137.236,67.000 L 147.000,67.000 L 147.000,78.250 L 144.000,78.250 L 144.000,89.350 L 147.000,89.350 L 147.000,100.650 L 144.000,100.650 L 144.000,111.750 L 147.000,111.750 L 147.000,123.000 L 137.236,123.000 L 137.236,120.000 L 127.621,120.000 L 127.621,123.000 L 117.807,123.000 L 117.807,120.000 L 108.193,120.000 L 108.193,123.000 L 98.379,123.000 L 98.379,120.000 L 88.764,120.000 L 88.764,123.000 L 79.000,123.000 L 79.000,111.750 L 82.000,111.750 L 82.000,100.650 L 79.000,100.650 L 79.000,89.350 L 82.000,89.350 L 82.000,78.250 L 79.000,78.250 L 79.000,67.000 Z" fill="none" stroke="#FF0000" stroke-width="0.01"/>
<path d="M 156.000,70.000 L 164.150,70.000 L 164.150,67.000 L 175.450,67.000 L 175.450,70.000 L 186.550,70.000 L 186.550,67.000 L 197.850,67.000 L 197.850,70.000 L 206.000,70.000 L 206.000,78.150 L 209.000,78.150 L 209.000,89.450 L 206.000,89.450 L 206.000,100.550 L 209.000,100.550 L 209.000,111.850 L 206.000,111.850 L 206.000,120.000 L 197.850,120.000 L 197.850,123.000 L 186.550,123.000 L 186.550,120.000 L 175.450,120.000 L 175.450,123.000 L 164.150,123.000 L 164.150,120.000 L 156.000,120.000 L 156.000,111.850 L 153.000,111.850 L 153.000,100.550 L 156.000,100.550 L 156.000,89.450 L 153.000,89.450 L 153.000,78.150 L 156.000,78.150 L 156.000,70.000 Z" fill="none" stroke="#FF0000" stroke-width="0.01"/>
</svg>