<svg xmlns="http://www.w3.org/2000/svg" width="214.00mm" height="128.00mm" viewBox="0 0 214.00 128.00">
<path d="M 35.080,28.520 L 35.003,29.695 L 34.773,30.849 L 34.395,31.964 L 33.874,33.020 L 33.220,33.999 L 32.444,34.884 L 31.559,35.660 L 30.580,36.314 L 29.524,36.835 L 28.409,37.213 L 27.255,37.443 L 26.080,37.520 L 24.905,37.443 L 23.751,37.213 L 22.636,36.835 L 21.580,36.314 L 20.601,35.660 L 19.716,34.884 L 18.940,33.999 L 18.286,33.020 L 17.765,31.964 L 17.387,30.849 L 17.157,29.695 L 17.080,28.520 L 17.157,27.345 L 17.387,26.191 L 17.765,25.076 L 18.286,24.020 L 18.940,23.041 L 19.716,22.156 L 20.601,21.380 L 21.580,20.726 L 22.636,20.205 L 23.751,19.827 L 24.905,19.597 L 26.080,19.520 L 27.255,19.597 L 28.409,19.827 L 29.524,20.205 L 30.580,20.726 L 31.559,21.380 L 32.444,22.156 L 33.220,23.041 L 33.874,24.020 L 34.395,25.076 L 34.773,26.191 L 35.003,27.345 Z M 31.680,29.920 L 31.641,30.520 L 31.523,31.111 L 31.330,31.680 L 31.064,32.220 L 30.729,32.720 L 30.333,33.173 L 29.880,33.569 L 29.380,33.904 L 28.840,34.170 L 28.271,34.363 L 27.680,34.481 L 27.080,34.520 L 26.480,34.481 L 25.889,34.363 L 25.320,34.170 L 24.780,33.904 L 24.280,33.569 L 23.827,33.173 L 23.431,32.720 L 23.096,32.220 L 22.830,31.680 L 22.637,31.111 L 22.519,30.520 L 22.480,29.920 L 22.519,29.320 L 22.637,28.729 L 22.830,28.160 L 23.096,27.620 L 23.431,27.120 L 23.827,26.667 L 24.280,26.271 L 24.780,25.936 L 25.320,25.670 L 25.889,25.477 L 26.480,25.359 L 27.080,25.320 L 27.680,25.359 L 28.271,25.477 L 28.840,25.670 L 29.380,25.936 L 29.880,26.271 L 30.333,26.667 L 30.729,27.120 L 31.064,27.620 L 31.330,28.160 L 31.523,28.729 L 31.641,29.320 Z M 27.080,28.220 L 27.065,28.442 L 27.022,28.660 L 26.951,28.871 L 26.852,29.070 L 26.729,29.255 L 26.582,29.422 L 26.415,29.569 L 26.230,29.692 L 26.031,29.791 L 25.820,29.862 L 25.602,29.905 L 25.380,29.920 L 25.158,29.905 L 24.940,29.862 L 24.729,29.791 L 24.530,29.692 L 24.345,29.569 L 24.178,29.422 L 24.031,29.255 L 23.908,29.070 L 23.809,28.871 L 23.738,28.660 L 23.695,28.442 L 23.680,28.220 L 23.695,27.998 L 23.738,27.780 L 23.809,27.569 L 23.908,27.370 L 24.031,27.185 L 24.178,27.018 L 24.345,26.871 L 24.530,26.748 L 24.729,26.649 L 24.940,26.578 L 25.158,26.535 L 25.380,26.520 L 25.602,26.535 L 25.820,26.578 L 26.031,26.649 L 26.230,26.748 L 26.415,26.871 L 26.582,27.018 L 26.729,27.185 L 26.852,27.370 L 26.951,27.569 L 27.022,27.780 L 27.065,27.998 Z" fill="#000000" fill-rule="evenodd" stroke="none"/>
<path d="M 60.920,28.520 L 60.843,29.695 L 60.613,30.849 L 60.235,31.964 L 59.714,33.020 L 59.060,33.999 L 58.284,34.884 L 57.399,35.660 L 56.420,36.314 L 55.364,36.835 L 54.249,37.213 L 53.095,37.443 L 51.920,37.520 L 50.745,37.443 L 49.591,37.213 L 48.476,36.835 L 47.420,36.314 L 46.441,35.660 L 45.556,34.884 L 44.780,33.999 L 44.126,33.020 L 43.605,31.964 L 43.227,30.849 L 42.997,29.695 L 42.920,28.520 L 42.997,27.345 L 43.227,26.191 L 43.605,25.076 L 44.126,24.020 L 44.780,23.041 L 45.556,22.156 L 46.441,21.380 L 47.420,20.726 L 48.476,20.205 L 49.591,19.827 L 50.745,19.597 L 51.920,19.520 L 53.095,19.597 L 54.249,19.827 L 55.364,20.205 L 56.420,20.726 L 57.399,21.380 L 58.284,22.156 L 59.060,23.041 L 59.714,24.020 L 60.235,25.076 L 60.613,26.191 L 60.843,27.345 Z M 55.520,29.920 L 55.481,30.520 L 55.363,31.111 L 55.170,31.680 L 54.904,32.220 L 54.569,32.720 L 54.173,33.173 L 53.720,33.569 L 53.220,33.904 L 52.680,34.170 L 52.111,34.363 L 51.520,34.481 L 50.920,34.520 L 50.320,34.481 L 49.729,34.363 L 49.160,34.170 L 48.620,33.904 L 48.120,33.569 L 47.667,33.173 L 47.271,32.720 L 46.936,32.220 L 46.670,31.680 L 46.477,31.111 L 46.359,30.520 L 46.320,29.920 L 46.359,29.320 L 46.477,28.729 L 46.670,28.160 L 46.936,27.620 L 47.271,27.120 L 47.667,26.667 L 48.120,26.271 L 48.620,25.936 L 49.160,25.670 L 49.729,25.477 L 50.320,25.359 L 50.920,25.320 L 51.520,25.359 L 52.111,25.477 L 52.680,25.670 L 53.220,25.936 L 53.720,26.271 L 54.173,26.667 L 54.569,27.120 L 54.904,27.620 L 55.170,28.160 L 55.363,28.729 L 55.481,29.320 Z M 50.920,28.220 L 50.905,28.442 L 50.862,28.660 L 50.791,28.871 L 50.692,29.070 L 50.569,29.255 L 50.422,29.422 L 50.255,29.569 L 50.070,29.692 L 49.871,29.791 L 49.660,29.862 L 49.442,29.905 L 49.220,29.920 L 48.998,29.905 L 48.780,29.862 L 48.569,29.791 L 48.370,29.692 L 48.185,29.569 L 48.018,29.422 L 47.871,29.255 L 47.748,29.070 L 47.649,28.871 L 47.578,28.660 L 47.535,28.442 L 47.520,28.220 L 47.535,27.998 L 47.578,27.780 L 47.649,27.569 L 47.748,27.370 L 47.871,27.185 L 48.018,27.018 L 48.185,26.871 L 48.370,26.748 L 48.569,26.649 L 48.780,26.578 L 48.998,26.535 L 49.220,26.520 L 49.442,26.535 L 49.660,26.578 L 49.871,26.649 L 50.070,26.748 L 50.255,26.871 L 50.422,27.018 L 50.569,27.185 L 50.692,27.370 L 50.791,27.569 L 50.862,27.780 L 50.905,27.998 Z" fill="#000000" fill-rule="evenodd" stroke="none"/>
<path d="M 31.500,40.860 L 31.875,41.213 L 32.250,41.564 L 32.625,41.911 L 33.000,42.251 L 33.375,42.582 L 33.750,42.903 L 34.125,43.211 L 34.500,43.505 L 34.875,43.783 L 35.250,44.042 L 35.625,44.282 L 36.000,44.501 L 36.375,44.697 L 36.750,44.870 L 37.125,45.017 L 37.500,45.140 L 37.875,45.236 L 38.250,45.305 L 38.625,45.346 L 39.000,45.360 L 39.375,45.346 L 39.750,45.305 L 40.125,45.236 L 40.500,45.140 L 40.875,45.017 L 41.250,44.870 L 41.625,44.697 L 42.000,44.501 L 42.375,44.282 L 42.750,44.042 L 43.125,43.783 L 43.500,43.505 L 43.875,43.211 L 44.250,42.903 L 44.625,42.582 L 45.000,42.251 L 45.375,41.911 L 45.750,41.564 L 46.125,41.213 L 46.500,40.860 L 46.500,43.060 L 46.125,43.413 L 45.750,43.764 L 45.375,44.111 L 45.000,44.451 L 44.625,44.782 L 44.250,45.103 L 43.875,45.411 L 43.500,45.705 L 43.125,45.983 L 42.750,46.242 L 42.375,46.482 L 42.000,46.701 L 41.625,46.897 L 41.250,47.070 L 40.875,47.217 L 40.500,47.340 L 40.125,47.436 L 39.750,47.505 L 39.375,47.546 L 39.000,47.560 L 38.625,47.546 L 38.250,47.505 L 37.875,47.436 L 37.500,47.340 L 37.125,47.217 L 36.750,47.070 L 36.375,46.897 L 36.000,46.701 L 35.625,46.482 L 35.250,46.242 L 34.875,45.983 L 34.500,45.705 L 34.125,45.411 L 33.750,45.103 L 33.375,44.782 L 33.000,44.451 L 32.625,44.111 L 32.250,43.764 L 31.875,43.413 L 31.500,43.060 Z" fill="#000000" fill-rule="evenodd" stroke="none"/>
<path d="M 5.000,8.000 L 14.664,8.000 L 14.664,5.000 L 24.479,5.000 L 24.479,8.000 L 34.093,8.000 L 34.093,5.000 L 43.907,5.000 L 43.907,8.000 L 53.521,8.000 L 53.521,5.000 L 63.336,5.000 L 63.336,8.000 L 73.000,8.000 L 73.000,16.250 L 70.000,16.250 L 70.000,27.350 L 73.000,27.350 L 73.000,38.650 L 70.000,38.650 L 70.000,49.750 L 73.000,49.750 L 73.000,58.000 L 63.336,58.000 L 63.336,61.000 L 53.521,61.000 L 53.521,58.000 L 43.907,58.000 L 43.907,61.000 L 34.093,61.000 L 34.093,58.000 L 24.479,58.000 L 24.479,61.000 L 14.664,61.000 L 14.664,58.000 L 5.000,58.000 L 5.000,49.750 L 8.000,49.750 L 8.000,38.650 L 5.000,38.650 L 5.000,27.350 L 8.000,27.350 L 8.000,16.250 L 5.000,16.250 L 5.000,8.000 Z" fill="none" stroke="#FF0000" stroke-width="0.01"/>
<path d="M 79.000,8.000 L 88.664,8.000 L 88.664,5.000 L 98.479,5.000 L 98.479,8.000 L 108.093,8.000 L 108.093,5.000 L 117.907,5.000 L 117.907,8.000 L 127.521,8.000 L 127.521,5.000 L 137.336,5.000 L 137.336,8.000 L 147.000,8.000 L 147.000,16.250 L 144.000,16.250 L 144.000,27.350 L 147.000,27.350 L 147.000,38.650 L 144.000,38.650 L 144.000,49.750 L 147.000,49.750 L 147.000,58.000 L 137.336,58.000 L 137.336,61.000 L 127.521,61.000 L 127.521,58.000 L 117.907,58.000 L 117.907,61.000 L 108.093,61.000 L 108.093,58.000 L 98.479,58.000 L 98.479,61.000 L 88.664,61.000 L 88.664,58.000 L 79.000,58.000 L 79.000,49.750 L 82.000,49.750 L 82.000,38.650 L 79.000,38.650 L 79.000,27.350 L 82.000,27.350 L 82.000,16.250 L 79.000,16.250 L 79.000,8.000 Z" fill="none" stroke="#FF0000" stroke-width="0.01"/>
<path d="M 156.000,8.000 L 164.150,8.000 L 164.150,5.000 L 175.450,5.000 L 175.450,8.000 L 186.550,8.000 L 186.550,5.000 L 197.850,5.000 L 197.850,8.000 L 206.000,8.000 L 206.000,16.150 L 209.000,16.150 L 209.000,27.450 L 206.000,27.450 L 206.000,38.550 L 209.000,38.550 L 209.000,49.850 L 206.000,49.850 L 206.000,58.000 L 197.850,58.000 L 197.850,61.000 L 186.550,61.000 L 186.550,58.000 L 175.450,58.000 L 175.450,61.000 L 164.150,61.000 L 164.150,58.000 L 156.000,58.000 L 156.000,49.850 L 153.000,49.850 L 153.000,38.550 L 156.000,38.550 L 156.000,27.450 L 153.000,27.450 L 153.000,16.150 L 156.000,16.150 L 156.000,8.000 Z" fill="none" stroke="#FF0000" stroke-width="0.01"/>
<path d="M 5.000,67.000 L 14.764,67.000 L 14.764,70.000 L 24.379,70.000 L 24.379,67.000 L 34.193,67.000 L 34.193,70.000 L 43.807,70.000 L 43.807,67.000 L 53.621,67.000 L 53.621,70.000 L 63.236,70.000 L 63.236,67.000 L 73.000,67.000 L 73.000,78.250 L 70.000,78.250 L 70.000,89.350 L 73.000,89.350 L 73.000,100.650 L 70.000,100.650 L 70.000,111.750 L 73.000,111.750 L 73.000,123.000 L 63.236,123.000 L 63.236,120.000 L 53.621,120.000 L 53.621,123.000 L 43.807,123.000 L 43.807,120.000 L 34.193,120.000 L 34.193,123.000 L 24.379,123.000 L 24.379,120.000 L 14.764,120.000 L 14.764,123.000 L 5.000,123.000 L 5.000,111.750 L 8.000,111.750 L 8.000,100.650 L 5.000,100.650 L 5.000,89.350 L 8.000,89.350 L 8.000,78.250 L 5.000,78.250 L 5.000,67.000 Z" fill="none" stroke="#FF0000" stroke-width="0.01"/>
<path d="M 79.000,67.000 L 88.764,67.000 L 88.764,70.000 L 98.379,70.000 L 98.379,67.000 L 108.193,67.000 L 108.193,70.000 L 117.807,70.000 L 117.807,67.000 L 127.621,67.000 L 127.621,70.000 L 137.236,70.000 L 137.236,67.000 L 147.000,67.000 L 147.000,78.250 L 144.000,78.250 L 144.000,89.350 L 147.000,89.350 L 147.000,100.650 L 144.000,100.650 L 144.000,111.750 L 147.000,111.750 L 147.000,123.000 L 137.236,123.000 L 137.236,120.000 L 127.621,120.000 L 127.621,123.000 L 117.807,123.000 L 117.807,120.000 L 108.193,120.000 L 108.193,123.000 L 98.379,123.000 L 98.379,120.000 L 88.764,120.000 L 88.764,123.000 L 79.000,123.000 L 79.000,111.750 L 82.000,111.750 L 82.000,100.650 L 79.000,100.650 L 79.000,89.350 L 82.000,89.350 L 82.000,78.250 L 79.000,78.250 L 79.000,67.000 Z" fill="none" stroke="#FF0000" stroke-width="0.01"/>
<path d="M 156.000,70.000 L 164.150,70.000 L 164.150,67.000 L 175.450,67.000 L 175.450,70.000 L 186.550,70.000 L 186.550,67.000 L 197.850,67.000 L 197.850,70.000 L 206.000,70.000 L 206.000,78.150 L 209.000,78.150 L 209.000,89.450 L 206.000,89.450 L 206.000,100.550 L 209.000,100.550 L 209.000,111.850 L 206.000,111.850 L 206.000,120.000 L 197.850,120.000 L 197.850,123.000 L 186.550,123.000 L 186.550,120.000 L 175.450,120.000 L 175.450,123.000 L 164.150,123.000 L 164.150,120.000 L 156.000,120.000 L 156.000,111.850 L 153.000,111.850 L 153.000,100.550 L 156.000,100.550 L 156.000,89.450 L 153.000,89.450 L 153.000,78.150 L 156.000,78.150 L 156.000,70.000 Z" fill="none" stroke="#FF0000" stroke-width="0.01"/>
</svg>